<svg width="29" height="30" viewBox="0 0 29 30" fill="none" xmlns="http://www.w3.org/2000/svg">
<g clip-path="url(#clip0)">
<path d="M0.991208 14.7293C1.29933 14.1833 1.67975 13.6851 2.13581 13.2665C3.28376 12.2121 4.5218 11.2941 5.93782 10.6503C6.29599 10.4877 6.21813 10.2101 6.16807 9.93256C5.8822 8.3526 5.6208 6.76581 5.29377 5.19494C5.09021 4.21785 5.15917 3.28397 5.45951 2.3501C5.93893 1.50153 6.53848 0.790607 7.45172 0.394762C9.00011 -0.276353 10.6976 0.0728543 11.8644 1.32522C11.94 1.40599 12.0246 1.47765 12.1047 1.55386C12.9044 2.16582 13.1303 3.03031 13.1325 3.99376C13.1358 5.28026 13.1269 6.56675 13.1369 7.85324C13.1425 8.49592 13.2148 8.56417 13.8455 8.57555C14.2704 8.58351 14.6964 8.58351 15.1214 8.57555C15.7821 8.56417 15.8633 8.4891 15.8689 7.82594C15.88 6.48258 15.8889 5.13921 15.8689 3.79584C15.8433 2.00999 17.3805 0.467561 18.8955 0.114941C19.7331 -0.0795685 20.5963 -0.0272442 21.4028 0.274189C21.7832 0.416375 22.1825 0.601784 22.5196 0.831556C23.1692 1.2729 23.5885 1.98041 23.7921 2.74025C24.0268 3.61725 23.9445 4.52497 23.8066 5.4122C23.6809 6.22209 23.4606 7.01378 23.3449 7.82708C23.2537 8.46066 23.1503 9.09196 22.9979 9.71531C22.9056 10.0952 23.108 10.3546 23.4417 10.532C24.5174 11.1019 25.514 11.7309 26.3549 12.6295C27.1714 13.5009 27.9423 14.5394 28.4117 15.653C28.7966 16.5652 29.0012 17.5492 28.9912 18.5433C28.9834 19.3191 29.019 20.0971 28.969 20.8695C28.8177 23.1774 27.6475 24.928 25.9545 26.3408C23.4039 28.4679 20.3872 29.4393 17.1792 29.826C13.5774 30.2594 10.0446 29.9056 6.66418 28.494C4.27374 27.4965 2.18031 26.0803 0.863288 23.7075C0.410563 22.8931 0.0924318 22.0138 0.0635108 21.0754C0.0312527 20.022 -0.051061 18.9642 0.0357021 17.9109C0.129139 16.82 0.445046 15.6985 0.991208 14.7293Z" fill="#010A35"/>
<path d="M1.23582 19.1814C0.988875 16.6653 2.12124 14.8112 3.94661 13.2972C4.87319 12.5283 5.91324 11.9447 7.01891 11.4989C7.49166 11.3089 7.60734 11.0541 7.50834 10.5525C7.11902 8.56756 6.76307 6.57469 6.40712 4.58409C6.11346 2.93929 7.16685 1.43554 8.68854 1.30586C10.4049 1.16026 11.6785 2.33415 11.6874 4.08701C11.6963 5.90585 11.7063 7.72355 11.6774 9.54125C11.6685 10.0963 11.8632 10.2237 12.3649 10.1623C13.8042 9.986 15.2481 9.99397 16.6874 10.1589C17.1535 10.2124 17.2581 10.0372 17.2547 9.6004C17.2392 7.74402 17.2269 5.88765 17.2558 4.03241C17.2892 1.9474 19.2948 0.665459 21.1023 1.54701C22.2102 2.08731 22.7831 3.32603 22.5417 4.63869C22.1758 6.62815 21.8387 8.62443 21.4394 10.6071C21.3348 11.1258 21.4983 11.2964 21.9299 11.4716C23.4761 12.0983 24.8687 12.9685 26.0345 14.2118C27.376 15.6416 27.9577 17.3194 27.7831 19.2827C27.5973 21.7487 25.9689 23.1535 24.1379 24.3706C22.0334 25.7686 19.6585 26.4602 17.2002 26.7423C13.198 27.203 9.29811 26.773 5.66407 24.8347C3.99777 23.9463 2.58176 22.7656 1.65628 21.0355C1.33926 20.4429 1.36262 19.8014 1.23582 19.1814Z" fill="#F5EEDE"/>
<path d="M1.23583 19.1814C1.99556 22.3311 4.24028 24.0532 6.9722 25.1771C11.8654 27.1916 16.8332 27.1893 21.7631 25.3056C24.0389 24.4366 26.0156 23.0921 27.2236 20.8137C27.4817 20.3268 27.5473 19.774 27.7842 19.2838C28.1246 22.6621 26.3949 24.8404 23.7475 26.4317C20.8454 28.1766 17.6496 28.7886 14.3215 28.7647C11.2825 28.7431 8.37042 28.1402 5.66742 26.6626C4.89879 26.2429 4.18243 25.7435 3.52615 25.152C1.76085 23.5607 0.964414 21.586 1.23583 19.1814Z" fill="#DFD6C0"/>
<path d="M21.0111 17.7618C20.9956 18.4295 20.8354 19.062 20.3904 19.5875C19.9444 20.1153 19.2748 20.1426 18.772 19.6682C17.7964 18.7457 17.7987 16.7495 18.7764 15.811C19.2314 15.3742 19.8665 15.3731 20.317 15.827C20.8409 16.3536 20.9867 17.0293 21.0111 17.7618Z" fill="#010A35"/>
<path d="M10.802 17.7811C10.7998 18.4215 10.673 19.021 10.2525 19.5215C9.70523 20.1721 8.9188 20.1551 8.39933 19.4885C7.703 18.5956 7.69188 16.9314 8.37486 16.0305C8.92102 15.3117 9.74527 15.3082 10.2981 16.0249C10.6541 16.4844 10.8042 17.0099 10.802 17.7811Z" fill="#010A35"/>
</g>
<defs>
<clipPath id="clip0">
<rect width="29" height="30" fill="white"/>
</clipPath>
</defs>
</svg>
