<svg width="29" height="33" viewBox="0 0 29 33" fill="none" xmlns="http://www.w3.org/2000/svg">
<path d="M11.6205 13.536C10.7009 13.536 9.97492 14.3427 9.97492 15.3268C9.97492 16.311 10.7171 17.1176 11.6205 17.1176C12.5401 17.1176 13.2661 16.311 13.2661 15.3268C13.2823 14.3427 12.5401 13.536 11.6205 13.536ZM17.5092 13.536C16.5896 13.536 15.8636 14.3427 15.8636 15.3268C15.8636 16.311 16.6058 17.1176 17.5092 17.1176C18.4288 17.1176 19.1548 16.311 19.1548 15.3268C19.1548 14.3427 18.4288 13.536 17.5092 13.536Z" fill="#010A35"/>
<path d="M25.3501 0H3.73127C1.9082 0 0.42392 1.48428 0.42392 3.32349V25.1359C0.42392 26.9751 1.9082 28.4594 3.73127 28.4594H22.0266L21.1715 25.4747L23.2366 27.3946L25.1887 29.2015L28.6574 32.2669V3.32349C28.6574 1.48428 27.1732 0 25.3501 0ZM19.1226 21.0703C19.1226 21.0703 18.5418 20.3765 18.0578 19.7635C20.1712 19.1665 20.9779 17.8436 20.9779 17.8436C20.3164 18.2792 19.6872 18.5857 19.1226 18.7955C18.3159 19.1343 17.5415 19.3601 16.7832 19.4892C15.2344 19.7796 13.8147 19.6989 12.6047 19.4731C11.6851 19.2956 10.8945 19.0375 10.2331 18.7793C9.86198 18.6341 9.45864 18.4567 9.05531 18.2308C9.00691 18.1985 8.95851 18.1824 8.91011 18.1501C8.87784 18.134 8.86171 18.1178 8.84557 18.1017C8.55517 17.9404 8.39384 17.8274 8.39384 17.8274C8.39384 17.8274 9.16824 19.1181 11.2172 19.7312C10.7332 20.3443 10.1362 21.0703 10.1362 21.0703C6.57076 20.9573 5.21555 18.618 5.21555 18.618C5.21555 13.423 7.53877 9.21219 7.53877 9.21219C9.86198 7.46978 12.0723 7.51818 12.0723 7.51818L12.2336 7.71178C9.32958 8.55072 7.9905 9.82526 7.9905 9.82526C7.9905 9.82526 8.34544 9.63166 8.94238 9.35739C10.6687 8.59912 12.04 8.38939 12.6047 8.34099C12.7015 8.32485 12.7821 8.30872 12.8789 8.30872C13.8631 8.17965 14.9763 8.14739 16.1379 8.27645C17.6706 8.45392 19.3162 8.90566 20.9941 9.82526C20.9941 9.82526 19.7195 8.61525 16.9768 7.77632L17.2027 7.51818C17.2027 7.51818 19.413 7.46978 21.7362 9.21219C21.7362 9.21219 24.0594 13.423 24.0594 18.618C24.0594 18.618 22.6881 20.9573 19.1226 21.0703Z" fill="#010A35"/>
</svg>
