<svg width="31" height="32" viewBox="0 0 31 32" fill="none" xmlns="http://www.w3.org/2000/svg">
<path fill-rule="evenodd" clip-rule="evenodd" d="M15.5 0.266846C6.93625 0.266846 0 7.37854 0 16.1589C0 23.1911 4.43687 29.1308 10.5981 31.2365C11.3731 31.3755 11.6637 30.8988 11.6637 30.4816C11.6637 30.1042 11.6444 28.8527 11.6444 27.5217C7.75 28.2567 6.7425 26.5483 6.4325 25.6544C6.25812 25.1975 5.5025 23.7871 4.84375 23.4096C4.30125 23.1117 3.52625 22.3767 4.82438 22.3568C6.045 22.3369 6.91687 23.509 7.2075 23.9857C8.6025 26.3894 10.8306 25.714 11.7219 25.2968C11.8575 24.2638 12.2644 23.5686 12.71 23.1713C9.26125 22.774 5.6575 21.4033 5.6575 15.3246C5.6575 13.5963 6.25812 12.166 7.24625 11.0536C7.09125 10.6563 6.54875 9.02734 7.40125 6.84218C7.40125 6.84218 8.69938 6.42502 11.6637 8.47112C12.9037 8.11355 14.2213 7.93476 15.5388 7.93476C16.8563 7.93476 18.1738 8.11355 19.4138 8.47112C22.3781 6.40515 23.6763 6.84218 23.6763 6.84218C24.5288 9.02734 23.9862 10.6563 23.8313 11.0536C24.8194 12.166 25.42 13.5764 25.42 15.3246C25.42 21.4231 21.7969 22.774 18.3481 23.1713C18.91 23.6679 19.3944 24.6214 19.3944 26.1113C19.3944 28.2369 19.375 29.9453 19.375 30.4816C19.375 30.8988 19.6656 31.3954 20.4406 31.2365C26.5631 29.1308 31 23.1713 31 16.1589C31 7.37854 24.0637 0.266846 15.5 0.266846Z" fill="#010A35"/>
</svg>
