<svg width="27" height="30" viewBox="0 0 27 30" fill="none" xmlns="http://www.w3.org/2000/svg">
<path d="M21.4478 8.91376C20.3138 8.27752 19.281 7.69843 18.1707 7.0762C19.5661 6.46045 20.9055 5.91586 22.1977 5.27854C22.7808 4.99061 23.2391 5.01434 23.7846 5.32275C24.5754 5.7692 25.4016 6.15203 26.2161 6.55534C26.3957 6.64485 26.485 6.757 26.484 6.96944C26.4764 8.42418 26.4754 9.87783 26.484 11.3326C26.485 11.572 26.3828 11.682 26.1806 11.7715C23.2165 13.0709 20.2525 14.3736 17.2917 15.6806C15.3357 16.5444 13.383 17.4168 11.4281 18.2838C9.41195 19.1778 7.3936 20.0707 5.37741 20.9657C5.29672 21.0013 5.22033 21.0477 5.07294 21.1264C6.10148 21.7087 7.08483 22.2663 8.15855 22.8745C6.94174 23.4158 5.78086 23.8482 4.70499 24.436C3.7679 24.9471 2.97713 24.9299 2.11105 24.3227C1.60323 23.9669 1.0072 23.7318 0.438058 23.473C0.185227 23.3576 0.104537 23.2088 0.106688 22.9381C0.118523 21.5373 0.116371 20.1375 0.106688 18.7367C0.104537 18.4768 0.159406 18.3226 0.428376 18.2051C3.76359 16.7428 7.09236 15.2633 10.4233 13.7902C14.0587 12.1791 17.6962 10.5723 21.4478 8.91376Z" fill="#010A35"/>
<path d="M13.1839 9.31167C11.7068 9.96948 10.349 10.5658 9.00093 11.1816C8.77069 11.2862 8.60178 11.2452 8.40167 11.1363C7.13429 10.4504 5.86368 9.77106 4.59306 9.09168C4.47041 9.0259 4.34238 8.97198 4.1767 8.89434C4.1767 9.93606 4.17024 10.9303 4.17778 11.9257C4.18853 13.2866 4.19391 13.2866 2.96957 13.8247C2.15082 14.1849 1.3267 14.5343 0.51549 14.9117C0.170133 15.0724 0.0894425 14.9861 0.0915943 14.6281C0.101277 12.0961 0.101277 9.56401 0.093746 7.03198C0.0926701 6.77964 0.18412 6.6416 0.404675 6.53377C1.52897 5.98056 2.64895 5.41764 3.76787 4.85365C3.93786 4.76738 4.09278 4.73071 4.2746 4.82238C7.20637 6.30084 10.1403 7.77822 13.1839 9.31167Z" fill="#010A35"/>
<path d="M13.5089 20.5312C14.9107 19.9101 16.2513 19.318 17.5907 18.7238C17.8382 18.6138 18.0404 18.7346 18.2492 18.8435C19.466 19.4776 20.6817 20.1117 21.9007 20.7415C22.4494 21.0251 22.501 20.9895 22.4892 20.3856C22.4677 19.2717 22.4548 18.1577 22.4171 17.0448C22.4064 16.7181 22.4881 16.5369 22.8163 16.3999C23.8911 15.9546 24.9465 15.4639 26.0105 14.9937C26.1547 14.9301 26.2913 14.8298 26.5054 14.8697C26.5054 15.1318 26.5054 15.3992 26.5054 15.6656C26.5044 18.0197 26.4958 20.3727 26.5108 22.7268C26.513 23.0622 26.4151 23.2358 26.1106 23.3824C24.9895 23.9238 23.8825 24.4942 22.7743 25.0615C22.6065 25.1477 22.472 25.11 22.3203 25.0324C19.4294 23.5701 16.5364 22.111 13.6455 20.6498C13.6154 20.6347 13.5928 20.6045 13.5089 20.5312Z" fill="#010A35"/>
<path d="M20.204 3.64377C19.0399 4.16355 17.892 4.5852 16.8365 5.174C15.8672 5.71534 15.0172 5.75201 14.1415 5.0791C13.554 4.62726 13.0161 4.71137 12.3813 5.07263C11.1441 5.77789 11.1226 5.73583 9.86808 5.10175C8.79973 4.56255 7.72923 4.02768 6.66089 3.49064C6.70177 3.25987 6.8922 3.24909 7.01916 3.18438C8.96434 2.19443 10.9149 1.21311 12.8633 0.227466C13.1065 0.104531 13.3206 0.0128684 13.6089 0.163842C15.7144 1.26918 17.8285 2.35619 19.9383 3.45182C20.0147 3.49064 20.0782 3.55103 20.204 3.64377Z" fill="#010A35"/>
<path d="M20.3095 26.4105C18.8743 27.1071 17.5477 27.752 16.219 28.3936C15.3647 28.8066 14.504 29.2067 13.653 29.6262C13.4325 29.7351 13.2388 29.7955 13 29.6758C10.9224 28.6406 8.84278 27.6107 6.76418 26.5787C6.70393 26.5485 6.65014 26.5032 6.51996 26.4137C7.56248 25.9457 8.58457 25.5769 9.51628 25.0463C10.604 24.4263 11.5916 24.3713 12.6083 25.1315C13.0516 25.4637 13.4981 25.4335 14.0005 25.1747C14.6493 24.8404 15.3508 24.3626 16.0178 24.382C16.6859 24.4015 17.339 24.9557 17.9974 25.2782C18.7355 25.6384 19.4724 26.0007 20.3095 26.4105Z" fill="#010A35"/>
</svg>
