<?xml version="1.0" encoding="UTF-8" standalone="no"?>
<svg
   xmlns:dc="http://purl.org/dc/elements/1.1/"
   xmlns:cc="http://creativecommons.org/ns#"
   xmlns:rdf="http://www.w3.org/1999/02/22-rdf-syntax-ns#"
   xmlns:svg="http://www.w3.org/2000/svg"
   xmlns="http://www.w3.org/2000/svg"
   xmlns:sodipodi="http://sodipodi.sourceforge.net/DTD/sodipodi-0.dtd"
   xmlns:inkscape="http://www.inkscape.org/namespaces/inkscape"
   width="31"
   height="35"
   viewBox="0 0 31 35"
   fill="none"
   version="1.1"
   id="svg203"
   sodipodi:docname="lottery.svg"
   inkscape:version="1.0.1 (3bc2e813f5, 2020-09-07)">
  <metadata
     id="metadata207">
    <rdf:RDF>
      <cc:Work
         rdf:about="">
        <dc:format>image/svg+xml</dc:format>
        <dc:type
           rdf:resource="http://purl.org/dc/dcmitype/StillImage" />
        <dc:title></dc:title>
      </cc:Work>
    </rdf:RDF>
  </metadata>
  <sodipodi:namedview
     pagecolor="#ffffff"
     bordercolor="#666666"
     borderopacity="1"
     objecttolerance="10"
     gridtolerance="10"
     guidetolerance="10"
     inkscape:pageopacity="0"
     inkscape:pageshadow="2"
     inkscape:window-width="1200"
     inkscape:window-height="1312"
     id="namedview205"
     showgrid="false"
     showguides="true"
     inkscape:guide-bbox="true"
     inkscape:zoom="16"
     inkscape:cx="15.357371"
     inkscape:cy="16.314111"
     inkscape:window-x="3591"
     inkscape:window-y="0"
     inkscape:window-maximized="0"
     inkscape:current-layer="svg203">
    <sodipodi:guide
       position="15.511719,19.488636"
       orientation="1,0"
       id="guide209" />
    <sodipodi:guide
       position="14.536932,19.488636"
       orientation="0,-1"
       id="guide211" />
  </sodipodi:namedview>
  <g
     clip-path="url(#clip0)"
     id="g196">
    <path
       fill-rule="evenodd"
       clip-rule="evenodd"
       d="M2.36255 23.3798C2.33651 23.3873 2.301 23.4072 2.29153 23.4321C2.27733 23.477 2.27733 23.5293 2.26786 23.6314C2.21104 23.7634 2.35071 23.8854 2.40516 24.0348C2.41226 24.0523 2.47382 24.0722 2.48565 24.0597C2.60402 23.9526 2.71765 23.8406 2.82655 23.7235C2.84312 23.7061 2.84312 23.6538 2.83128 23.6314C2.71528 23.467 2.58508 23.3226 2.36255 23.3798Z"
       fill="#010A35"
       id="path2" />
    <path
       fill-rule="evenodd"
       clip-rule="evenodd"
       d="M1.88198 23.848C1.84884 23.7385 1.76598 23.6588 1.63578 23.6762C1.60737 23.6862 1.57423 23.6886 1.55292 23.7086C1.54582 23.716 1.55529 23.7658 1.57186 23.7808C1.66892 23.8729 1.73047 23.975 1.70206 24.122C1.69023 24.1842 1.69733 24.2515 1.7068 24.3162C1.70917 24.3386 1.74704 24.3685 1.77308 24.3685C1.89145 24.3785 2.02402 24.2116 1.96484 24.117C1.90802 24.0298 1.90802 23.9402 1.88198 23.848Z"
       fill="#010A35"
       id="path4" />
    <path
       fill-rule="evenodd"
       clip-rule="evenodd"
       d="M3.44442 24.8616C3.42075 24.8293 3.39471 24.772 3.34263 24.8019C3.30475 24.8243 3.24793 24.8965 3.25267 24.904C3.33316 25.0185 3.21716 25.1057 3.22663 25.2078C3.22663 25.2203 3.2432 25.2327 3.25977 25.2551C3.29291 25.2352 3.32842 25.2128 3.36393 25.1929C3.53911 25.0907 3.55805 25.016 3.44442 24.8616Z"
       fill="#010A35"
       id="path6" />
    <path
       fill-rule="evenodd"
       clip-rule="evenodd"
       d="M1.38485 22.3115C1.36828 22.3065 1.32803 22.3364 1.32566 22.3538C1.31619 22.4011 1.3233 22.4509 1.3233 22.5007C1.32566 22.5007 1.32803 22.5007 1.33277 22.5007C1.33277 22.5655 1.32803 22.6327 1.33513 22.6975C1.33987 22.7398 1.36828 22.7548 1.39195 22.7398C1.47717 22.6825 1.52452 22.6053 1.51742 22.4958C1.51031 22.4285 1.44876 22.3264 1.38485 22.3115Z"
       fill="#010A35"
       id="path8" />
    <path
       fill-rule="evenodd"
       clip-rule="evenodd"
       d="M9.09286 29.033C9.09522 29.033 9.09049 29.0056 9.08339 28.9957C8.98396 28.8562 8.83009 28.8313 8.69988 28.7591C8.67148 28.8039 8.64544 28.8263 8.6407 28.8537C8.63833 28.8811 8.65254 28.9309 8.66911 28.9334C8.70699 28.9434 8.74486 28.9558 8.78037 28.9658C8.79694 28.9882 8.81588 29.0081 8.84666 29.028C8.85849 29.0131 8.85376 28.9982 8.84666 28.9857C8.90347 29.0056 8.95792 29.028 9.01 29.0604C9.02894 29.0729 9.06682 29.0455 9.09286 29.033Z"
       fill="#010A35"
       id="path10" />
    <path
       fill-rule="evenodd"
       clip-rule="evenodd"
       d="M2.11402 24.5777C2.06194 24.5603 1.99329 24.6126 1.98856 24.6773C1.97672 24.7969 2.00749 24.8616 2.07851 24.8666C2.12823 24.8716 2.24659 24.7869 2.25606 24.7396C2.2679 24.6973 2.18504 24.6026 2.11402 24.5777Z"
       fill="#010A35"
       id="path12" />
    <path
       fill-rule="evenodd"
       clip-rule="evenodd"
       d="M3.01596 24.2266C3.01123 24.2141 2.99466 24.2066 2.98519 24.1967C2.97572 24.2091 2.95678 24.2216 2.95678 24.234C2.95441 24.3611 2.95204 24.4856 2.95441 24.6126C2.95441 24.625 2.96861 24.6474 2.97808 24.6499C2.98992 24.6524 3.00412 24.6375 3.01596 24.6275C3.13669 24.5254 3.14143 24.5005 3.06567 24.3536C3.04674 24.3137 3.0349 24.2689 3.01596 24.2266Z"
       fill="#010A35"
       id="path14" />
    <path
       fill-rule="evenodd"
       clip-rule="evenodd"
       d="M2.4549 23.0362C2.45253 23.0237 2.43596 22.9988 2.42649 23.0013C2.35547 23.0088 2.27498 23.1308 2.28445 23.218C2.28682 23.2329 2.30339 23.2454 2.31286 23.2578C2.37678 23.2479 2.46437 23.1159 2.4549 23.0362Z"
       fill="#010A35"
       id="path16" />
    <path
       fill-rule="evenodd"
       clip-rule="evenodd"
       d="M2.4809 25.1281C2.46906 25.1704 2.45012 25.2128 2.49984 25.2476C2.51877 25.2352 2.55902 25.2178 2.55665 25.2103C2.54481 25.1704 2.52588 25.1331 2.50931 25.0957C2.49984 25.1082 2.48563 25.1156 2.4809 25.1281Z"
       fill="#010A35"
       id="path18" />
    <path
       fill-rule="evenodd"
       clip-rule="evenodd"
       d="M10.0587 31.3541C10.0847 31.3541 10.1131 31.3317 10.1392 31.3192C10.1131 31.3068 10.0871 31.2818 10.061 31.2818C10.0539 31.2818 10.0468 31.2868 10.0374 31.2893C9.99239 31.2619 9.93321 31.2345 9.91901 31.2619C9.94268 31.2769 9.95215 31.2943 9.94031 31.3142C9.97345 31.3292 10.0042 31.3391 10.0279 31.3416C10.0374 31.3491 10.0492 31.3541 10.0587 31.3541Z"
       fill="#010A35"
       id="path20" />
    <path
       fill-rule="evenodd"
       clip-rule="evenodd"
       d="M4.6849 8.62175C4.66833 8.63172 4.6636 8.6616 4.65649 8.68651C4.68017 8.67903 4.70621 8.67654 4.71804 8.65911C4.73462 8.63421 4.71094 8.60432 4.6849 8.62175Z"
       fill="#010A35"
       id="path22" />
    <path
       fill-rule="evenodd"
       clip-rule="evenodd"
       d="M4.65632 8.68649C4.65166 8.68649 4.64699 8.68896 4.64465 8.68896C4.64465 8.69142 4.64465 8.69634 4.64465 8.69881C4.64699 8.69881 4.65166 8.69881 4.65399 8.69634C4.65399 8.69388 4.65399 8.68896 4.65632 8.68649Z"
       fill="#010A35"
       id="path24" />
    <path
       fill-rule="evenodd"
       clip-rule="evenodd"
       d="M4.58309 8.76122C4.58545 8.77367 4.6186 8.77865 4.64227 8.78861C4.64227 8.75873 4.64227 8.73133 4.64227 8.70145C4.60913 8.70394 4.57125 8.70892 4.58309 8.76122Z"
       fill="#010A35"
       id="path26" />
    <path
       fill-rule="evenodd"
       clip-rule="evenodd"
       d="M4.64227 8.78613C4.64227 8.79106 4.64227 8.79352 4.64227 8.79845C4.64461 8.79845 4.64694 8.79845 4.64694 8.79845C4.64927 8.79598 4.64927 8.79352 4.64927 8.79106C4.64927 8.7886 4.64461 8.7886 4.64227 8.78613Z"
       fill="#010A35"
       id="path28" />
    <path
       fill-rule="evenodd"
       clip-rule="evenodd"
       d="M1.44878 11.5231C1.44642 11.5231 1.44405 11.553 1.44642 11.5554C1.46535 11.5654 1.48666 11.5729 1.5056 11.5803C1.50323 11.5455 1.50086 11.5131 1.44878 11.5231Z"
       fill="#010A35"
       id="path30" />
    <path
       fill-rule="evenodd"
       clip-rule="evenodd"
       d="M1.50793 11.5804C1.50793 11.5853 1.5103 11.5903 1.5103 11.5978C1.51504 11.5978 1.51977 11.5978 1.52451 11.5978C1.52451 11.5928 1.52214 11.5903 1.52214 11.5853C1.51504 11.5828 1.51267 11.5804 1.50793 11.5804Z"
       fill="#010A35"
       id="path32" />
    <path
       fill-rule="evenodd"
       clip-rule="evenodd"
       d="M1.08658 12.2752C1.09841 12.2652 1.10788 12.2528 1.11972 12.2428C1.10315 12.1955 1.07948 12.193 1.05817 12.2403C1.05344 12.2453 1.07474 12.2627 1.08658 12.2752Z"
       fill="#010A35"
       id="path34" />
    <path
       fill-rule="evenodd"
       clip-rule="evenodd"
       d="M0.788309 12.7209C0.776472 12.7234 0.76937 12.7583 0.762268 12.7832C0.788309 12.7832 0.816716 12.7832 0.842757 12.7832C0.838022 12.7483 0.835655 12.7085 0.788309 12.7209Z"
       fill="#010A35"
       id="path36" />
    <path
       fill-rule="evenodd"
       clip-rule="evenodd"
       d="M0.668353 12.8828C0.663362 12.8828 0.658372 12.8828 0.655877 12.8828C0.655877 12.888 0.653381 12.8959 0.653381 12.9011C0.658372 12.8985 0.663362 12.8959 0.668353 12.8959C0.665858 12.8906 0.668353 12.8854 0.668353 12.8828Z"
       fill="#010A35"
       id="path38" />
    <path
       fill-rule="evenodd"
       clip-rule="evenodd"
       d="M0.750398 12.7957C0.700684 12.8031 0.672276 12.8305 0.667542 12.8828C0.695949 12.8828 0.72199 12.8828 0.750398 12.8828C0.750398 12.8529 0.750398 12.8255 0.750398 12.7957Z"
       fill="#010A35"
       id="path40" />
    <path
       fill-rule="evenodd"
       clip-rule="evenodd"
       d="M0.653341 12.9003C0.634403 12.9077 0.615464 12.9152 0.596526 12.9252C0.591791 12.9277 0.596526 12.9551 0.596526 12.9551C0.643872 12.9625 0.648607 12.9302 0.653341 12.9003Z"
       fill="#010A35"
       id="path42" />
    <path
       fill-rule="evenodd"
       clip-rule="evenodd"
       d="M6.21653 28.3482C6.226 28.3382 6.24257 28.3307 6.24257 28.3208C6.24257 28.3108 6.22837 28.3009 6.2189 28.2909C6.20943 28.3058 6.19996 28.3208 6.19049 28.3332C6.20233 28.3382 6.20943 28.3432 6.21653 28.3482Z"
       fill="#010A35"
       id="path44" />
    <path
       fill-rule="evenodd"
       clip-rule="evenodd"
       d="M7.70087 28.8164C7.71507 28.8537 7.73638 28.8612 7.75295 28.8363C7.75768 28.8288 7.75532 28.8164 7.75532 28.8039C7.74585 28.7989 7.73401 28.7865 7.72928 28.789C7.71744 28.794 7.70087 28.8114 7.70087 28.8164Z"
       fill="#010A35"
       id="path46" />
    <path
       fill-rule="evenodd"
       clip-rule="evenodd"
       d="M9.41243 31.115C9.41007 31.125 9.42901 31.1374 9.43611 31.1474C9.44794 31.1374 9.45741 31.1275 9.46925 31.1175C9.45978 31.105 9.45031 31.0951 9.44084 31.0826C9.43137 31.0951 9.4148 31.105 9.41243 31.115Z"
       fill="#010A35"
       id="path48" />
    <path
       fill-rule="evenodd"
       clip-rule="evenodd"
       d="M11.1784 31.3167C11.1713 31.3068 11.1595 31.2844 11.1548 31.2868C11.1122 31.3018 11.1098 31.3267 11.15 31.3491C11.1524 31.3491 11.169 31.3267 11.1784 31.3167Z"
       fill="#010A35"
       id="path50" />
    <path
       fill-rule="evenodd"
       clip-rule="evenodd"
       d="M26.495 5.90721C26.5423 5.82503 26.5163 5.71047 26.4074 5.57599C26.3245 5.64572 26.4808 5.80012 26.495 5.90721Z"
       fill="#010A35"
       id="path52" />
    <path
       fill-rule="evenodd"
       clip-rule="evenodd"
       d="M15.7119 1.77817C15.5249 1.76073 15.9415 1.72587 15.7166 1.68353C15.7213 1.75326 15.5272 1.68851 15.4467 1.70346C15.4065 1.77817 15.6693 1.8479 15.7119 1.77817Z"
       fill="#010A35"
       id="path54" />
    <path
       fill-rule="evenodd"
       clip-rule="evenodd"
       d="M9.47637 2.35095C9.33907 2.39827 9.32486 2.46302 9.36748 2.53275C9.50478 2.48543 9.51898 2.42068 9.47637 2.35095Z"
       fill="#010A35"
       id="path56" />
    <path
       fill-rule="evenodd"
       clip-rule="evenodd"
       d="M17.6365 1.92759C17.537 1.93755 17.4684 1.97241 17.3571 1.96743C17.3595 1.8977 16.6895 1.73832 16.5617 1.85039C16.9097 1.90268 17.2269 1.94502 17.5465 2.00728C17.7075 2.03716 17.8685 2.06705 18.0389 2.09693C18.207 2.1318 18.3798 2.16916 18.5668 2.209C18.4934 2.09693 18.3159 2.06207 18.1289 2.03467C17.9442 2.00977 17.7501 2.00479 17.6365 1.92759Z"
       fill="#010A35"
       id="path58" />
    <path
       fill-rule="evenodd"
       clip-rule="evenodd"
       d="M16.4221 1.64618C16.2422 1.62875 16.2279 1.73085 16.0386 1.70346C16.1072 1.78315 15.8918 1.80806 16.0291 1.83047C16.0977 1.72587 16.3416 1.74331 16.4221 1.64618Z"
       fill="#010A35"
       id="path60" />
    <path
       fill-rule="evenodd"
       clip-rule="evenodd"
       d="M0.776454 12.6388C0.830903 12.4072 0.899555 12.2627 0.949269 12.1357C0.911392 12.1257 0.854576 12.2627 0.814332 12.3972C0.774087 12.5317 0.762251 12.6662 0.776454 12.6388Z"
       fill="#010A35"
       id="path62" />
    <path
       fill-rule="evenodd"
       clip-rule="evenodd"
       d="M7.96127 5.71798C8.04413 5.65821 8.07964 5.70553 8.17196 5.63082C8.16013 5.5561 7.90682 5.66568 7.96127 5.71798Z"
       fill="#010A35"
       id="path64" />
    <path
       fill-rule="evenodd"
       clip-rule="evenodd"
       d="M18.3727 0.458248L18.4887 0.488133C18.5053 0.450777 18.4532 0.430853 18.465 0.395988C18.3917 0.381046 18.3325 0.376065 18.3017 0.398478C18.4177 0.418402 18.4343 0.435834 18.3727 0.458248Z"
       fill="#010A35"
       id="path66" />
    <path
       fill-rule="evenodd"
       clip-rule="evenodd"
       d="M19.3575 2.86893L19.5233 2.9287C19.5659 2.84403 19.3694 2.7992 19.3575 2.86893Z"
       fill="#010A35"
       id="path68" />
    <path
       fill-rule="evenodd"
       clip-rule="evenodd"
       d="M20.0938 2.17913C20.0701 2.14924 19.8831 2.05212 19.8476 2.08698C19.947 2.10441 20.0228 2.21897 20.0938 2.17913Z"
       fill="#010A35"
       id="path70" />
    <path
       fill-rule="evenodd"
       clip-rule="evenodd"
       d="M20.2358 3.13044C20.134 3.0881 20.0488 3.06818 19.9919 3.08312C20.0724 3.09557 20.2358 3.21511 20.2358 3.13044Z"
       fill="#010A35"
       id="path72" />
    <path
       fill-rule="evenodd"
       clip-rule="evenodd"
       d="M20.6714 3.08562C20.714 3.06071 20.6406 3.0134 20.572 2.986C20.501 2.96359 20.4394 2.9611 20.5081 3.01091C20.5578 2.9611 20.5814 3.07068 20.6714 3.08562Z"
       fill="#010A35"
       id="path74" />
    <path
       fill-rule="evenodd"
       clip-rule="evenodd"
       d="M20.7353 3.1155C20.875 3.19519 20.9081 3.1678 20.9933 3.24251C21.0454 3.18274 20.74 3.05822 20.7353 3.1155Z"
       fill="#010A35"
       id="path76" />
    <path
       fill-rule="evenodd"
       clip-rule="evenodd"
       d="M22.4161 3.94727C22.3474 3.88501 22.319 3.88501 22.2906 3.79536C22.2764 3.82026 22.2267 3.77792 22.2101 3.79287C22.2291 3.8352 22.3403 3.96968 22.4161 3.94727Z"
       fill="#010A35"
       id="path78" />
    <path
       fill-rule="evenodd"
       clip-rule="evenodd"
       d="M23.4222 2.49042C23.337 2.45307 23.1713 2.2887 23.1618 2.37586C23.2612 2.43314 23.3867 2.53774 23.4222 2.49042Z"
       fill="#010A35"
       id="path80" />
    <path
       fill-rule="evenodd"
       clip-rule="evenodd"
       d="M23.3583 5.02563C23.4624 5.11031 23.5477 5.19498 23.6163 5.27716C23.6353 5.2174 23.434 5.0356 23.3583 5.02563Z"
       fill="#010A35"
       id="path82" />
    <path
       fill-rule="evenodd"
       clip-rule="evenodd"
       d="M24.8402 5.04058C24.9136 5.10533 24.9799 5.15514 25.032 5.1651C25.0036 5.08292 24.8876 5.02564 24.8402 5.04058Z"
       fill="#010A35"
       id="path84" />
    <path
       fill-rule="evenodd"
       clip-rule="evenodd"
       d="M25.2403 6.24344C25.1693 6.16624 25.0485 6.08157 25.0841 6.03425C25.1385 6.06911 25.2237 6.20111 25.2569 6.17122C25.1338 5.9421 24.845 5.88233 24.6319 5.72046C24.7384 5.89479 25.0983 6.17122 25.2403 6.24344Z"
       fill="#010A35"
       id="path86" />
    <path
       fill-rule="evenodd"
       clip-rule="evenodd"
       d="M27.8444 7.37407C27.9106 7.4712 27.9817 7.42388 27.9722 7.37656L27.9012 7.27695C27.8515 7.29687 27.9083 7.3666 27.8444 7.37407Z"
       fill="#010A35"
       id="path88" />
    <path
       fill-rule="evenodd"
       clip-rule="evenodd"
       d="M28.4953 9.20952C28.3273 9.04515 28.3793 8.93806 28.2207 8.77618C28.2113 8.85339 28.4077 9.27427 28.4953 9.20952Z"
       fill="#010A35"
       id="path90" />
    <path
       fill-rule="evenodd"
       clip-rule="evenodd"
       d="M29.2837 10.8581C29.3145 10.8407 29.3429 10.8382 29.3713 10.8606C29.2647 10.6589 29.2363 10.4721 29.118 10.3177C29.1322 10.385 29.002 10.2953 28.9617 10.1733C28.9428 10.1907 28.9073 10.1932 28.9238 10.238C29.0588 10.4796 29.2434 10.5194 29.2837 10.8581Z"
       fill="#010A35"
       id="path92" />
    <path
       fill-rule="evenodd"
       clip-rule="evenodd"
       d="M29.4541 10.7336L29.5251 10.9229C29.6009 10.9577 29.4896 10.6489 29.4541 10.7336Z"
       fill="#010A35"
       id="path94" />
    <path
       fill-rule="evenodd"
       clip-rule="evenodd"
       d="M29.4044 11.2441C29.4305 11.2242 29.4778 11.2267 29.466 11.1744C29.3594 11.2118 29.4636 10.9503 29.3476 10.9652C29.3689 11.0623 29.376 11.0972 29.4044 11.2441Z"
       fill="#010A35"
       id="path96" />
    <path
       fill-rule="evenodd"
       clip-rule="evenodd"
       d="M28.2113 26.3882C28.1426 26.4306 28.1757 26.4878 28.0811 26.5949C28.1071 26.6771 28.2515 26.5999 28.2373 26.5053C28.2065 26.5426 28.1686 26.57 28.1355 26.585C28.126 26.5451 28.242 26.4206 28.2113 26.3882Z"
       fill="#010A35"
       id="path98" />
    <path
       fill-rule="evenodd"
       clip-rule="evenodd"
       d="M22.2693 32.0016C22.4161 31.9045 22.5676 31.8322 22.5511 31.775C22.4445 31.892 22.2457 31.9244 22.1794 32.0016C22.222 31.9817 22.2646 31.9642 22.2693 32.0016Z"
       fill="#010A35"
       id="path100" />
    <path
       fill-rule="evenodd"
       clip-rule="evenodd"
       d="M18.6379 33.456C18.7255 33.4261 18.7965 33.3887 18.813 33.3414C18.7113 33.3713 18.5692 33.3887 18.6379 33.456Z"
       fill="#010A35"
       id="path102" />
    <path
       fill-rule="evenodd"
       clip-rule="evenodd"
       d="M15.1839 34.0736C14.8927 34.1159 14.7483 34.101 14.514 34.1159C14.7081 34.1608 14.9756 34.1931 15.1484 34.1184C15.075 34.1109 15.1626 34.096 15.1839 34.0736Z"
       fill="#010A35"
       id="path104" />
    <path
       fill-rule="evenodd"
       clip-rule="evenodd"
       d="M14.7863 33.9366C14.8715 33.8918 15.0183 33.8669 15.094 33.8046C14.9141 33.827 14.8218 33.8171 14.7863 33.9366Z"
       fill="#010A35"
       id="path106" />
    <path
       fill-rule="evenodd"
       clip-rule="evenodd"
       d="M14.4738 33.9466C14.5542 33.8968 14.6347 34.0238 14.7484 33.9565C14.7531 33.9042 14.7271 33.8694 14.6679 33.847C14.5613 33.8694 14.4595 33.8968 14.3175 33.8968C14.3507 33.974 14.3222 33.9491 14.3554 34.0238C14.2915 34.0138 14.2489 34.0487 14.3151 34.0636C14.3649 34.0088 14.5471 34.0263 14.5898 33.969C14.5448 33.9665 14.4785 33.9715 14.4738 33.9466Z"
       fill="#010A35"
       id="path108" />
    <path
       fill-rule="evenodd"
       clip-rule="evenodd"
       d="M13.837 34.1508C14.0335 34.2803 13.8464 34.1782 13.9956 34.1583C14.0879 34.1458 14.2205 34.2056 14.2749 34.1284C14.0926 34.1483 14.0051 34.1085 13.837 34.1508Z"
       fill="#010A35"
       id="path110" />
    <path
       fill-rule="evenodd"
       clip-rule="evenodd"
       d="M12.6083 34.0263C12.7408 34.0387 13.0817 34.0786 13.0462 34.0462C12.871 34.0188 12.7077 34.0014 12.6083 34.0263Z"
       fill="#010A35"
       id="path112" />
    <path
       fill-rule="evenodd"
       clip-rule="evenodd"
       d="M12.0804 33.7523C12.1774 33.7648 12.2059 33.7324 12.2769 33.7822C12.3242 33.7075 12.0543 33.6627 12.0804 33.7523Z"
       fill="#010A35"
       id="path114" />
    <path
       fill-rule="evenodd"
       clip-rule="evenodd"
       d="M11.7064 33.3464C11.8389 33.3489 11.8673 33.3887 11.9384 33.3663C11.9123 33.3464 11.6827 33.2667 11.7064 33.3464Z"
       fill="#010A35"
       id="path116" />
    <path
       fill-rule="evenodd"
       clip-rule="evenodd"
       d="M11.2566 30.973C11.3584 31.0004 11.4602 31.0776 11.5501 31.0503L11.5643 30.988C11.4318 30.9531 11.3655 30.9855 11.2566 30.973Z"
       fill="#010A35"
       id="path118" />
    <path
       fill-rule="evenodd"
       clip-rule="evenodd"
       d="M9.71307 31.3167C9.83381 31.3317 9.88826 31.3939 9.95454 31.384C9.93087 31.369 9.9214 31.3516 9.93323 31.3317C9.83144 31.2943 9.71544 31.2395 9.71307 31.3167Z"
       fill="#010A35"
       id="path120" />
    <path
       fill-rule="evenodd"
       clip-rule="evenodd"
       d="M8.95557 31.6928C8.99108 31.7152 9.00054 31.7401 9.00765 31.765C9.17336 31.7824 9.22544 31.8048 9.34854 31.8073C9.19703 31.7326 9.17336 31.7476 9.07867 31.6803C9.10707 31.775 8.9603 31.643 8.95557 31.6928Z"
       fill="#010A35"
       id="path122" />
    <path
       fill-rule="evenodd"
       clip-rule="evenodd"
       d="M8.41345 29.038C8.51288 29.0878 8.56496 29.1401 8.62651 29.1924C8.69279 29.0305 8.85614 29.3717 8.9603 29.2472C8.88691 29.2273 8.7212 29.1874 8.77565 29.1077C8.89875 29.0978 9.05263 29.3045 9.08814 29.1949C8.89402 29.1202 8.76855 29.0679 8.64545 28.9359C8.72357 29.0953 8.53182 28.9658 8.5981 29.1028C8.53655 29.0804 8.42292 28.9558 8.41345 29.038Z"
       fill="#010A35"
       id="path124" />
    <path
       fill-rule="evenodd"
       clip-rule="evenodd"
       d="M4.95713 28.8562C4.86717 28.911 4.99264 29.0056 5.06839 29.0181C4.9737 28.9508 5.04945 28.9235 4.95713 28.8562Z"
       fill="#010A35"
       id="path126" />
    <path
       fill-rule="evenodd"
       clip-rule="evenodd"
       d="M3.72377 28.2984C3.82557 28.3307 3.5912 28.0344 3.52018 28.007C3.51781 28.0991 3.4823 28.1788 3.52018 28.2859C3.57226 28.276 3.61251 28.2212 3.68353 28.2834C3.693 28.3332 3.92263 28.6296 3.95814 28.5574C3.89658 28.4553 3.81136 28.3905 3.72377 28.2984Z"
       fill="#010A35"
       id="path128" />
    <path
       fill-rule="evenodd"
       clip-rule="evenodd"
       d="M9.45502 29.9146C9.45738 29.9146 9.45975 29.9171 9.46212 29.9171C9.45975 29.9146 9.45739 29.9146 9.45739 29.9121L9.45502 29.9146Z"
       fill="#010A35"
       id="path130" />
    <path
       fill-rule="evenodd"
       clip-rule="evenodd"
       d="M16.5144 32.9903L16.5168 33.0077C16.5783 32.9928 16.6399 32.9753 16.6991 32.9604C16.6375 32.9703 16.576 32.9803 16.5144 32.9903Z"
       fill="#010A35"
       id="path132" />
    <path
       fill-rule="evenodd"
       clip-rule="evenodd"
       d="M31 17.0243C30.9739 16.5711 30.9479 16.1253 30.9242 15.6945C30.9171 15.5874 30.91 15.4803 30.9029 15.3757C30.8887 15.2711 30.8769 15.1665 30.8627 15.0644C30.8343 14.8602 30.8082 14.661 30.7822 14.4692C30.6851 14.3148 30.7017 13.732 30.5123 13.6C30.5028 13.3684 30.5005 13.2863 30.4058 13.0746C30.536 13.1343 30.3537 12.8255 30.4508 12.8455C30.3632 12.6736 30.3987 12.4296 30.3064 12.3698C30.3513 12.6238 30.446 12.7658 30.3726 12.8679C30.3371 12.6263 30.2188 12.3947 30.2638 12.2079C30.1951 12.0286 29.9986 11.7223 30.0247 11.548C29.9323 11.5629 29.9678 11.3313 29.8779 11.2541C29.84 11.2516 29.8518 11.3313 29.8234 11.279C29.7311 11.1445 29.7429 10.9229 29.6554 10.8183C29.6696 10.8656 29.6838 10.9104 29.6459 10.9129C29.5891 10.8008 29.6364 10.7859 29.5796 10.6738C29.5133 10.6888 29.6104 10.8531 29.608 10.9303C29.6956 10.9826 29.8589 11.4234 29.8329 11.4982C29.7548 11.3786 29.6932 11.3562 29.7051 11.1993C29.6435 11.1943 29.6956 11.2915 29.6577 11.3089C29.7027 11.4359 29.7642 11.4135 29.8092 11.5529C29.75 11.548 29.7003 11.4733 29.6435 11.4459C29.6861 11.5853 29.7548 11.5181 29.7998 11.6451C29.7785 11.6949 29.698 11.5554 29.724 11.675C29.7406 11.6874 29.7524 11.7024 29.7595 11.7198C29.7477 11.7223 29.7358 11.7248 29.724 11.7298C29.7003 11.7422 29.6743 11.7572 29.6506 11.7696C29.6554 11.7522 29.6648 11.7397 29.6814 11.7323C29.6198 11.6277 29.6317 11.6052 29.6198 11.4957C29.5749 11.5156 29.6104 11.6874 29.6364 11.7771C29.5843 11.807 29.5322 11.8344 29.4778 11.8618C29.4731 11.8642 29.4636 11.8568 29.4541 11.8468C29.4447 11.8095 29.4328 11.7746 29.421 11.7372C29.4186 11.6949 29.4115 11.6526 29.3736 11.6202C29.3287 11.5081 29.2932 11.3985 29.3405 11.3139C29.215 11.2491 29.0706 10.7386 29.0872 10.6016C29.0399 10.6116 28.9854 10.5443 28.9381 10.4646C28.9381 10.4348 28.9381 10.4074 28.9428 10.3775C28.9475 10.3376 28.9167 10.3227 28.8765 10.3327C28.8481 10.2579 28.8363 10.1982 28.8528 10.1882C28.7936 10.1309 28.7368 10.0712 28.6777 10.0064C28.6587 9.9566 28.6398 9.90679 28.6185 9.85699C28.6232 9.85699 28.6279 9.85948 28.6327 9.86197C28.5593 9.69511 28.4835 9.5407 28.403 9.39128C28.4007 9.38879 28.4007 9.3863 28.3983 9.38381C28.2231 9.04263 28.0195 8.7114 27.7946 8.40508C27.7165 8.26562 27.636 8.11869 27.5508 7.95681C27.5248 7.97923 27.4916 7.96428 27.4585 7.92942C27.4419 7.77003 27.2857 7.60816 27.1578 7.46372C27.1271 7.35414 27.0773 7.24954 27.0134 7.14744C27.0182 7.13996 27.0229 7.13249 27.0324 7.12502C26.9874 7.06276 26.9684 7.05529 26.9542 7.06276C26.9353 7.03537 26.914 7.01046 26.8951 6.98556C26.8098 6.87598 26.7151 6.7689 26.6276 6.66181C26.5352 6.55721 26.4476 6.45261 26.379 6.34304C26.1659 5.99189 25.9529 5.63078 25.7114 5.28711C25.4605 4.95589 25.1788 4.64459 24.8071 4.44785C24.7337 4.38559 24.729 4.49516 24.6627 4.44536C24.4449 4.23118 24.1561 4.03693 23.8649 3.83023C23.5619 3.64345 23.2589 3.43924 22.9701 3.26491C22.5676 3.00093 22.2172 2.66472 21.7651 2.48791C21.4999 2.39327 21.2608 2.32603 21.036 2.30611C20.8111 2.28867 20.6027 2.3086 20.4062 2.37584C20.0133 2.20151 19.457 2.39327 19.1042 2.10688C19.0166 2.11933 19.0072 2.21396 18.8628 2.16415C18.7586 2.14174 18.7704 2.09193 18.7207 2.05707C18.697 2.17163 18.7562 2.15917 18.6734 2.24136C18.9788 2.26875 19.1113 2.32603 19.3883 2.29615C19.457 2.32852 19.4735 2.37086 19.5848 2.39825C20.2003 2.40821 20.9342 2.46798 21.7083 2.74193C22.4516 3.01587 23.0695 3.58119 23.614 3.74307C23.7134 3.82774 23.6069 3.89249 23.6684 3.97218C23.9667 4.05685 24.0874 4.34325 24.3833 4.53252C24.5869 4.67447 24.8402 4.6944 25.0604 4.87619C25.2782 5.06796 25.4273 5.25723 25.5836 5.45646C25.7327 5.66067 25.8866 5.87484 26.1115 6.12139C26.1138 6.13633 26.1162 6.14879 26.1186 6.16373C26.0097 6.06909 25.9339 5.97944 25.7611 5.83998C25.7848 5.79515 25.8511 5.90473 25.8795 5.87982C25.754 5.74285 25.6427 5.65818 25.5481 5.57102C25.4534 5.48136 25.3752 5.39171 25.3066 5.25224C25.2545 5.33692 25.1148 5.16757 25.0486 5.20742C25.1953 5.35435 25.3847 5.53864 25.3823 5.69304C25.2379 5.61086 25.2616 5.47389 25.1764 5.46891C25.2663 5.64822 25.3729 5.74534 25.4983 5.83749C25.6238 5.92963 25.7493 6.03174 25.8913 6.20109C25.8724 6.2235 25.8487 6.22101 25.8227 6.21603C25.8961 6.353 26.0428 6.44514 26.1517 6.52733C26.1754 6.56717 26.2038 6.60453 26.2298 6.64189C26.2109 6.62943 26.192 6.61947 26.1683 6.61449C26.192 6.66679 26.2227 6.72158 26.2417 6.77388C26.2204 6.76142 26.2014 6.75395 26.1896 6.75644C26.2156 6.78384 26.2393 6.81123 26.2606 6.83863C26.2654 6.86602 26.2677 6.89341 26.2606 6.91583C26.0712 6.80625 25.8961 6.75395 25.7256 6.71162C25.6996 6.67177 25.6806 6.63192 25.6664 6.59706L25.6238 6.64189C25.6499 6.6643 25.6664 6.68422 25.6806 6.70165C25.6546 6.69667 25.6309 6.6892 25.6049 6.68422C25.593 6.67177 25.5812 6.65932 25.5717 6.64438C25.593 6.62196 25.5528 6.51986 25.522 6.58959C25.5552 6.62445 25.5623 6.64936 25.5504 6.66928C25.4912 6.63192 25.4226 6.60951 25.3752 6.5597C25.3232 6.50491 25.3042 6.41775 25.2616 6.35549C25.2024 6.27082 25.0249 6.27082 24.9846 6.36794C24.9704 6.40032 24.9562 6.42771 24.9397 6.4576C24.8852 6.42771 24.8308 6.39285 24.7763 6.35549C24.7976 6.25089 24.7834 6.14381 24.7384 6.03672C24.7313 6.02178 24.684 6.01929 24.6556 6.01929C24.6437 6.01929 24.6248 6.03174 24.6201 6.04419C24.6177 6.04917 24.6153 6.05415 24.613 6.06162C24.5301 6.02427 24.4449 5.97446 24.4236 5.86986C24.3999 5.89726 24.3881 5.92465 24.3975 5.95952C24.4615 6.00434 24.523 6.0417 24.5964 6.1189C24.5964 6.12637 24.5964 6.13384 24.5988 6.13633C24.6343 6.17369 24.6508 6.21603 24.6651 6.25836C24.497 6.08902 24.3407 5.94707 24.1869 5.83998C24.1513 5.81507 24.1158 5.79515 24.0827 5.77274C24.0874 5.76776 24.0922 5.76278 24.0969 5.7578C24.0874 5.74534 24.078 5.73289 24.0685 5.72044C24.059 5.7304 24.0495 5.73787 24.0424 5.74783C23.9312 5.68059 23.8247 5.62829 23.7205 5.58347C23.6826 5.54113 23.6471 5.50377 23.6187 5.46891C23.5808 5.43902 23.5382 5.41412 23.4956 5.38673C22.8706 4.78654 22.0515 4.20628 21.1543 3.78042C20.1743 3.30476 19.1208 3.01587 18.2402 2.91625C18.0389 2.81664 17.8495 2.74193 17.6412 2.6971C17.4329 2.64978 17.2104 2.61492 16.9452 2.61492C16.673 2.35841 16.138 2.32105 15.6172 2.35093C15.487 2.35841 15.3568 2.36588 15.2313 2.37335C15.1058 2.38331 14.9827 2.39576 14.8691 2.40074C14.6395 2.40821 14.4406 2.40074 14.2938 2.34844C14.0453 2.67469 13.2072 2.59499 12.9137 2.48542C12.8782 2.60246 12.7551 2.65476 12.6107 2.67469C12.4663 2.6971 12.2982 2.69461 12.1656 2.68465C12.1562 2.63982 12.3597 2.54269 12.1467 2.5925C12.0449 2.60495 12.0544 2.65476 12.007 2.68714C11.9028 2.63733 11.7726 2.61492 11.7087 2.53024C11.517 2.55764 11.5051 2.63982 11.3134 2.66721C11.3489 2.5925 11.3678 2.51281 11.4791 2.46051C11.7442 2.34844 11.8034 2.43561 11.9573 2.44059C11.936 2.36339 11.8389 2.36339 11.9833 2.30611C12.0899 2.48542 12.3053 2.18906 12.4686 2.33599C12.3739 2.3609 12.3006 2.39078 12.2745 2.44059C12.4686 2.36837 12.7054 2.29864 12.8758 2.23887C12.8214 2.24883 12.7432 2.24385 12.819 2.21645C11.8792 2.1791 11.0009 2.35841 10.1747 2.66223C9.34615 2.96855 8.5673 3.3969 7.78372 3.90743C7.66062 3.89249 7.48307 3.97965 7.31026 4.05187C6.89598 4.42045 6.57876 4.64708 6.64978 5.00819C7.15638 4.62217 7.53515 4.26605 8.4371 3.78789C8.65726 3.75801 8.85138 3.79287 8.96501 3.93732C8.3069 4.39555 7.47123 4.65704 6.90545 5.20244C6.82496 5.28213 6.81549 5.34439 6.735 5.41163C6.24496 5.82255 5.95852 5.97695 5.61526 6.2484C4.94768 6.77637 4.38662 7.51601 3.84451 8.17597C3.72614 8.3229 3.50125 8.38765 3.48704 8.63171C3.65039 8.46236 3.81847 8.28306 3.95814 8.10375C4.10254 7.92693 4.23275 7.76007 4.3156 7.61065C4.50025 7.45375 4.74882 7.23958 4.98555 7.0005C5.23649 6.77637 5.48032 6.52733 5.69575 6.34304C5.81885 6.27082 5.93485 6.1961 6.04611 6.12139C6.15974 6.04917 6.26627 5.97695 6.37043 5.90224C6.57639 5.74783 6.77761 5.59841 6.98357 5.44151C7.39548 5.12772 7.8429 4.80646 8.45604 4.52754C8.59097 4.6421 8.71644 4.5375 8.92003 4.45034C8.98632 4.62467 9.16386 4.61968 9.38876 4.53252C9.49292 4.43041 9.26092 4.45283 9.36982 4.36815C9.51896 4.35819 9.661 4.35819 9.73202 4.47524C9.61365 4.52754 9.48819 4.60474 9.41243 4.59229C9.51186 4.70934 9.7699 4.56739 9.83855 4.73673C9.63259 4.85378 9.44084 4.98826 9.25619 5.12025C9.07627 5.26221 8.90109 5.40167 8.73065 5.54362C8.38975 5.83251 8.05596 6.10894 7.66535 6.34304C7.52095 6.34553 7.40021 6.28078 7.24397 6.31315C7.2416 6.48001 7.55409 6.33308 7.66299 6.42273C7.5825 6.54725 7.45703 6.66928 7.3434 6.79629C7.31026 6.83614 7.27711 6.87598 7.24397 6.91334C7.23687 6.91583 7.22977 6.91832 7.2203 6.92081C7.07352 6.95817 6.90308 7.01046 6.83679 7.17234C6.82496 7.19973 6.81075 7.22464 6.79892 7.24954C6.68765 7.3392 6.58586 7.42885 6.49353 7.5185C6.4888 7.52099 6.48406 7.52348 6.47696 7.52598C6.46749 7.54092 6.45566 7.55088 6.44619 7.56333C6.42962 7.58076 6.40831 7.5982 6.39174 7.61812C6.27337 7.71525 6.12186 7.72023 5.96799 7.71774C5.91354 7.71774 5.88513 7.75011 5.87093 7.80241C5.86146 7.83229 5.84726 7.86467 5.82832 7.88708C5.78097 7.94187 5.73836 8.039 5.6484 7.93689C5.56554 7.95681 5.52293 8.02405 5.49452 8.09628C5.44244 8.23076 5.37143 8.32539 5.21755 8.31543C5.18914 8.31294 5.15126 8.32539 5.13233 8.34531C5.0258 8.46485 4.86955 8.53957 4.81984 8.70891C4.78907 8.81849 4.70384 8.79608 4.63519 8.80853C4.62335 8.83592 4.61388 8.87328 4.59731 8.88075C4.36295 8.95546 4.18777 9.11236 4.02205 9.29167C3.93446 9.3863 3.85398 9.47845 3.72851 9.53074C3.56043 9.60296 3.36157 9.66772 3.39472 9.93917C3.39945 9.97403 3.34263 10.0189 3.30949 10.0562C3.25268 10.116 3.19586 10.1708 3.13431 10.2256C3.10354 10.253 3.07513 10.3177 3.02541 10.2554C2.99227 10.2131 2.90705 10.1882 2.97333 10.1035C2.99227 10.0786 3.00648 10.0463 3.00648 10.0164C3.00648 9.98649 2.98754 9.9566 2.97807 9.92921C2.96386 9.93917 2.95203 9.94664 2.93782 9.9566C2.83366 10.0388 2.76974 10.1583 2.77685 10.2828C2.78158 10.3476 2.79815 10.3949 2.75081 10.4447C2.67268 10.5244 2.60167 10.6166 2.4762 10.6141C2.32469 10.6116 2.43595 10.7012 2.42412 10.756C2.40044 10.8606 2.34363 10.9976 2.26077 11.0424C2.18738 11.0698 2.13057 11.1321 2.08322 11.2018C2.10216 11.1072 2.12347 11.0125 2.15898 10.9204C2.3531 10.3576 2.82183 9.75239 3.01358 9.19454C3.24794 9.11236 3.06092 9.02768 3.31896 8.82347C3.28819 8.75125 3.25031 8.61428 3.17456 8.65412C3.14141 8.64416 3.10354 8.67654 3.06566 8.70891C2.95203 9.0227 2.76974 9.2045 2.69636 9.50086C2.1353 10.1035 1.81572 10.8208 1.58372 11.5953C1.56241 11.5978 1.54347 11.6003 1.5198 11.5978C1.52217 11.6301 1.53874 11.6551 1.56005 11.67C1.55531 11.6874 1.55058 11.7024 1.54584 11.7198C1.52454 11.7945 1.5056 11.8692 1.48666 11.9439C1.44642 11.9713 1.40617 11.9962 1.36119 12.0186C1.2807 12.056 1.22625 12.1307 1.22389 12.2478C1.21915 12.5815 1.21205 12.584 0.923238 12.7583C0.899565 12.7732 0.873525 12.7807 0.847484 12.7882C0.840382 12.8479 0.809607 12.8828 0.755159 12.8903C0.762261 12.97 0.880626 13.0447 0.755159 13.1319C0.691241 13.1767 0.634426 13.2414 0.594181 13.3112C0.57761 13.341 0.561039 13.3684 0.5421 13.3958C0.5421 13.3834 0.539733 13.3734 0.537366 13.3635C0.532631 13.3834 0.525529 13.4083 0.518427 13.4307C0.492387 13.4631 0.461612 13.493 0.416633 13.5179C0.326675 13.5677 0.411898 13.6598 0.447408 13.7271C0.300634 13.9138 0.449775 14.1903 0.276961 14.3696C0.274594 14.5016 0.295899 14.641 0.265124 14.7656C0.229615 14.9075 0.16333 15.0345 0.184636 15.1914C0.201207 15.306 0.142024 15.3757 0.037862 15.4081C0.0236581 15.418 -1.50426e-05 15.4778 0.00945422 15.4927C0.0757391 15.5998 0.0331274 15.6995 0.0070869 15.8016C0.12782 15.9585 0.0994122 16.1477 0.0923103 16.327C0.0852083 16.5038 0.137289 16.6931 0.00945422 16.8525C-0.0142189 16.8824 0.0118215 16.9521 0.0615352 16.972C0.120718 16.9969 0.182268 17.0119 0.177534 17.0991C0.175166 17.1663 0.177534 17.231 0.182268 17.2983C0.198839 17.5722 0.146759 17.8561 0.276961 18.1201C0.293532 18.1525 0.267492 18.2148 0.253288 18.2596C0.239084 18.2994 0.187003 18.3268 0.234349 18.3816C0.307736 18.4638 0.288797 18.5684 0.281696 18.6655C0.267492 18.8747 0.269859 18.9693 0.314838 19.054C0.381123 19.181 0.433204 19.3205 0.549202 19.4176C0.594181 19.455 0.64863 19.5197 0.650997 19.5745C0.658099 19.7264 0.686507 19.8659 0.755159 19.9954C0.726751 20.2544 0.845117 20.4686 0.951646 20.6852C0.96585 20.7126 0.989523 20.7624 0.998992 20.7599C1.18128 20.7101 1.20968 20.9094 1.32095 20.9716C1.43221 21.0339 1.54821 21.0912 1.66421 21.1484C1.68551 21.2032 1.70682 21.2605 1.72813 21.3178C1.72102 21.3352 1.72576 21.3502 1.7447 21.3601C1.76364 21.4149 1.78257 21.4722 1.80151 21.532C1.73523 21.6042 1.69025 21.6714 1.76127 21.7984C1.83702 21.9329 1.86306 22.0998 1.90094 22.2542C1.91278 22.3065 1.92698 22.3513 1.97196 22.3662C2.03824 22.3887 2.07849 22.4036 2.03351 22.4932C2.00037 22.563 2.01694 22.6701 1.97196 22.7249C1.8607 22.8568 2.00747 22.9291 2.01931 23.0312C2.02404 23.0835 2.10453 23.0785 2.13767 23.0511C2.22526 22.9789 2.29628 22.8892 2.3815 22.817C2.46436 22.7473 2.41701 22.6975 2.39097 22.6178C2.33889 22.4609 2.36967 22.294 2.39097 22.1297C2.39334 22.1172 2.40991 22.1072 2.41938 22.0948C2.43122 22.1072 2.45016 22.1197 2.45016 22.1321C2.45726 22.2641 2.58036 22.3139 2.62771 22.4136C2.65138 22.4609 2.53538 22.5381 2.62771 22.5655C2.76974 22.6078 2.82656 22.7099 2.87154 22.8394C2.92599 22.9913 2.97807 23.1432 3.04199 23.2902C3.11064 23.452 3.19113 23.6114 3.26688 23.7708C3.28582 23.8132 3.32133 23.863 3.31659 23.9028C3.29529 24.0722 3.37104 24.1967 3.48467 24.2888C3.60541 24.3859 3.60541 24.508 3.60304 24.6449C3.60067 24.7271 3.58884 24.8143 3.65512 24.8766C3.78532 24.9986 3.8303 25.1779 3.92263 25.3248C3.96287 25.3896 3.97234 25.2949 3.98891 25.2626C4.00075 25.2377 4.02205 25.2177 4.03863 25.1953C4.0481 25.2078 4.06703 25.2227 4.06703 25.2352C4.0623 25.4294 4.11438 25.6212 4.01495 25.8129C3.9463 25.9449 3.98891 26.0919 4.0694 26.2313C4.20434 26.4629 4.22091 26.4978 4.4316 26.5725C4.60915 26.6348 4.63992 26.6696 4.64466 26.8415C4.64939 26.9909 4.63282 27.1428 4.77013 27.2474C4.7938 27.2648 4.82457 27.2997 4.82457 27.3271C4.82221 27.5587 4.98792 27.6758 5.12049 27.8127C5.21992 27.9148 5.30041 28.0493 5.45191 28.0842C5.52057 28.2361 5.64367 28.3407 5.73836 28.4702C5.84252 28.6146 6.05321 28.6246 6.10529 28.8238C6.11239 28.8562 6.15027 28.8462 6.16684 28.8039C6.17868 28.774 6.17631 28.7392 6.19052 28.7093C6.19525 28.6993 6.20235 28.6894 6.20709 28.6794C6.28047 28.7417 6.36333 28.8039 6.44382 28.8637C6.387 28.8039 6.32072 28.6968 6.25207 28.6047C6.25443 28.5972 6.25917 28.5922 6.25917 28.5848C6.27337 28.5051 6.21656 28.4802 6.15027 28.4602C6.11003 28.4478 6.05795 28.4079 6.04374 28.3706C6.03427 28.3432 6.02007 28.3208 6.00823 28.2959C6.01533 28.2959 6.0248 28.2984 6.03427 28.3008C6.0177 28.2784 6.0035 28.2685 5.98929 28.2585C5.90881 28.1265 5.78807 28.0294 5.70522 27.8999C5.64603 27.8053 5.54424 27.7106 5.54424 27.6135C5.54187 27.494 5.62473 27.3744 5.66971 27.2549C5.68628 27.2101 5.70048 27.1652 5.71942 27.1204C5.72415 27.1055 5.73836 27.093 5.7502 27.083C5.80228 27.0457 5.7644 27.0656 5.77624 27.1204C5.80228 27.2449 5.86619 27.2748 5.97509 27.2723C6.07688 27.2698 6.04848 27.3221 6.02244 27.3919C5.98219 27.5039 6.09819 27.4491 6.1337 27.484C6.16921 27.5164 6.17631 27.5487 6.13133 27.5537C5.97983 27.5637 6.02244 27.6484 6.05795 27.7355C5.97983 27.8127 5.97746 27.9099 6.00113 28.0095C6.0035 28.0244 6.01533 28.0443 6.02717 28.0493C6.03664 28.0543 6.05558 28.0394 6.06505 28.0294C6.09819 27.9945 6.1479 27.9622 6.15737 27.9198C6.20235 27.7305 6.31125 27.6583 6.49353 27.6583C6.56218 27.6957 6.63084 27.7156 6.68529 27.6982C6.66635 27.743 6.65688 27.7853 6.67108 27.8327C6.65924 27.8252 6.65214 27.8202 6.64978 27.8177C6.65924 27.8302 6.67108 27.8401 6.68055 27.8526C6.69002 27.875 6.70422 27.8949 6.73026 27.9173C6.7563 27.9397 6.74684 27.9895 6.73026 28.0344C6.70659 28.0169 6.68292 27.997 6.65451 27.9796C6.69002 27.8974 6.53141 27.7231 6.52194 27.8227C6.68292 27.8426 6.51721 27.9148 6.55035 27.9497C6.6048 27.9796 6.64978 28.0418 6.69949 28.1016C6.65451 28.2012 6.61663 28.3058 6.58349 28.4104C6.53141 28.5773 6.53378 28.7367 6.69002 28.8512C6.83679 28.9583 6.87467 29.1077 6.84626 29.2846C6.83916 29.3319 6.84863 29.3842 6.84153 29.434C6.83916 29.4564 6.84153 29.4763 6.84153 29.4962C6.81785 29.4913 6.79181 29.4863 6.76341 29.4763C6.79181 29.5062 6.82022 29.5286 6.84863 29.5485C6.851 29.5635 6.85573 29.5784 6.86047 29.5909C6.67345 29.4937 6.4817 29.3319 6.28758 29.1575C6.13607 29.0181 5.98219 28.8736 5.83779 28.7392C5.69811 28.5997 5.57028 28.4652 5.44481 28.3706C5.49216 28.4154 5.30041 28.3133 5.24832 28.2137C5.24832 28.3855 5.52057 28.6918 5.56318 28.9284C5.67681 29.038 5.74546 29.1302 5.75966 29.2198C5.80938 29.2597 5.85199 29.287 5.8875 29.2945C5.83068 29.4688 6.53614 29.952 6.39647 29.9993C6.52194 30.0541 6.63557 30.0715 6.80602 30.1811C6.8439 30.1462 6.77288 30.1064 6.82732 30.0715C6.91491 30.1313 6.9883 30.1662 7.03328 30.1537C6.84863 30.0242 6.77288 30.0989 6.60953 30.0043C6.67108 29.9595 6.60006 29.8698 6.52431 29.8623C6.43908 29.8897 6.619 29.9495 6.58112 29.9819C6.53378 29.947 6.53141 30.0093 6.46986 29.9495C6.59059 29.8997 6.21892 29.7702 6.19052 29.6332C6.21656 29.6033 6.24733 29.5909 6.29468 29.6083C6.49117 29.7951 6.42962 29.6581 6.54325 29.693C6.64031 29.7528 6.59059 29.8001 6.65688 29.8573C6.72553 29.7851 6.88887 29.8897 7.00487 29.9868C7.16822 30.0466 7.33866 30.0591 7.49727 30.079C7.50674 30.0865 7.51385 30.0939 7.52331 30.1014C7.61327 30.1861 7.7198 30.2533 7.8216 30.3255C7.84527 30.343 7.87841 30.328 7.88078 30.2857C7.88551 30.1886 7.92576 30.0765 7.85947 29.9993C7.76952 29.8947 7.70086 29.7478 7.52568 29.7627C7.48781 29.7652 7.43099 29.7353 7.40732 29.7005C7.37417 29.6506 7.3434 29.5983 7.31026 29.5485C7.31736 29.5436 7.3292 29.5411 7.3434 29.5361C7.31736 29.5236 7.29842 29.5112 7.27948 29.4987C7.22977 29.419 7.18242 29.3369 7.13271 29.2547C7.18005 29.1202 7.22267 28.9832 7.27711 28.8512C7.29842 28.8039 7.31026 28.7616 7.29605 28.7143C7.29132 28.7018 7.27001 28.6819 7.27001 28.6819C7.0972 28.8288 7.06879 28.6171 6.9883 28.5524C6.92675 28.5051 6.92438 28.4254 6.92912 28.3507C7.03091 28.3133 7.07116 28.52 7.18716 28.4702C7.19663 28.4802 7.20846 28.4926 7.2203 28.5026C7.28422 28.5997 7.39548 28.7192 7.52095 28.8114C7.65115 28.911 7.77425 28.9982 7.83343 29.0529C7.82396 29.0305 7.89262 29.0007 7.91629 29.0106C7.98021 29.1152 8.31637 29.1625 8.16012 29.1874C8.26192 29.2621 8.30926 29.2273 8.36845 29.2173C8.11751 29.1152 7.92102 28.9434 7.73874 28.921C7.70796 28.8014 7.54936 28.7267 7.43099 28.647C7.38601 28.6146 7.34577 28.5872 7.31499 28.5574C7.33393 28.5549 7.3576 28.5424 7.37654 28.5349C7.38364 28.5325 7.38838 28.5076 7.38364 28.5001C7.36944 28.4702 7.3434 28.4478 7.33393 28.4179C7.31973 28.3731 7.30552 28.3183 7.3576 28.2884C7.39785 28.266 7.44283 28.256 7.4878 28.2909C7.52331 28.3183 7.56119 28.3382 7.59907 28.3606C7.6038 28.4104 7.5967 28.4677 7.62037 28.5026C7.64168 28.5349 7.69613 28.5499 7.73874 28.5574C7.80266 28.5673 7.86658 28.5599 7.92813 28.5798C7.89735 28.5922 7.86421 28.5872 7.93996 28.6321C7.96837 28.6321 8.00151 28.6371 8.03465 28.647C8.04649 28.6545 8.05833 28.657 8.07016 28.6595C8.24771 28.7242 8.4584 28.8911 8.59334 28.916C8.51048 28.8587 8.43 28.8064 8.35187 28.7516C8.39922 28.7541 8.44657 28.7541 8.49628 28.7516C8.50812 28.7516 8.52232 28.7342 8.52706 28.7217C8.52942 28.7167 8.51995 28.6968 8.51285 28.6918C8.44657 28.6445 8.37792 28.647 8.31163 28.6918C8.30453 28.6968 8.30216 28.7068 8.29743 28.7167C8.25245 28.6869 8.20984 28.6545 8.16722 28.6246C8.20984 28.5922 8.25008 28.5549 8.30216 28.5648C8.35661 28.5748 8.41342 28.5723 8.47024 28.5673C8.51995 28.6196 8.5744 28.6694 8.63595 28.6993C8.65252 28.6445 8.74722 28.7491 8.75432 28.6744C8.76142 28.657 8.75669 28.6395 8.74722 28.6221C8.84191 28.6744 8.93423 28.6669 9.03129 28.6644C9.13309 28.662 9.19701 28.6794 9.23488 28.8064C9.25382 28.8711 9.2988 28.921 9.36035 28.9484C9.35088 28.9857 9.38639 29.0305 9.43137 29.0754C9.32958 29.0704 9.2917 29.1725 9.16623 29.1302C9.21831 29.16 9.25619 29.1899 9.26329 29.2248C9.22305 29.2572 9.13546 29.2123 9.10705 29.2621C9.22305 29.292 9.35088 29.3742 9.46688 29.4863C9.50713 29.3817 9.6752 29.5062 9.72255 29.5411C9.66574 29.5784 9.57815 29.5485 9.50476 29.4813C9.5237 29.5959 9.37929 29.4514 9.37692 29.5361C9.48582 29.6183 9.88826 29.546 9.97822 29.7702C9.72018 29.6332 9.63496 29.7029 9.46215 29.6706C9.37456 29.7627 9.40296 29.8374 9.47398 29.9047L9.49529 29.8499C9.56157 29.8723 9.56868 29.9022 9.60655 29.9271C9.58051 29.9345 9.55684 29.9445 9.59235 29.9669C9.56631 30.0118 9.5521 29.9221 9.48108 29.9096C9.57104 29.9918 9.72018 30.064 9.80541 30.1512C10.08 30.2259 10.4422 30.4899 10.6718 30.4974C10.5819 30.4376 10.357 30.3928 10.3617 30.2708C10.4588 30.196 10.5298 30.3878 10.5914 30.3106C10.4635 30.2334 10.3901 30.2583 10.3641 30.1587C10.4043 30.1736 10.4043 30.1338 10.4375 30.1413C10.5535 30.211 10.6766 30.3206 10.6411 30.3729C10.6505 30.3056 10.7145 30.4575 10.7405 30.3878C10.7003 30.3529 10.7145 30.3056 10.7074 30.2633C10.5558 30.2135 10.4659 30.1462 10.4635 30.0616C10.6624 30.0441 10.7949 30.1487 10.9441 30.1637C10.9725 30.2234 11.008 30.2782 11.053 30.3255C11.0932 30.3679 11.1358 30.3579 11.1808 30.3405C11.2187 30.3255 11.24 30.2633 11.2968 30.3006C11.3749 30.3504 11.4696 30.3828 11.5335 30.4476C11.678 30.602 11.846 30.7066 12.0354 30.7838C12.0378 30.7838 12.0378 30.7863 12.0378 30.7888C12.0331 30.7962 12.0259 30.8037 12.0236 30.8137C11.8437 30.7838 11.7158 30.8311 11.5359 30.7315C11.543 30.7489 11.5572 30.7564 11.5691 30.7688C11.4554 30.7439 11.3394 30.7215 11.2211 30.6991C11.1406 30.8286 11.356 30.6966 11.3465 30.8037C11.2708 30.8236 11.0222 30.7663 11.0175 30.6767C11.0743 30.7041 11.1335 30.7315 11.1879 30.7489C11.1713 30.7016 11.0956 30.6717 11.0293 30.6418V30.6393C11.0269 30.6393 11.0222 30.6368 11.0198 30.6368C10.9796 30.6169 10.9417 30.597 10.9251 30.5671C10.9015 30.5796 10.7429 30.5547 10.8139 30.5945C10.8163 30.5945 10.8234 30.597 10.8257 30.5995C10.589 30.5447 10.3688 30.46 10.1581 30.3953C9.89063 30.3006 9.63496 30.2259 9.36982 30.2259C9.31774 30.1089 9.21358 30.064 9.10468 30.0541C8.82297 29.9669 8.60518 29.7876 8.4584 29.6357C8.36845 29.7478 8.23588 29.4464 8.10331 29.4415C8.10567 29.4091 8.08437 29.3892 8.13171 29.3867C7.85 29.3667 7.83107 29.043 7.53515 28.9384C7.64878 29.028 7.37181 28.9683 7.5967 29.1003C7.65825 29.0828 7.56356 28.9857 7.63931 29.028C7.56829 29.1326 7.81686 29.2597 7.85237 29.4091C8.0678 29.4066 8.17669 29.6083 8.40396 29.7478C8.40869 29.7951 8.40869 29.9395 8.51049 29.9196C8.38265 29.8648 8.56493 29.8648 8.58624 29.8399C8.70934 29.8997 8.80877 29.9868 8.91056 30.0641C8.83954 30.079 8.78036 30.1014 8.74722 30.1238C8.77562 30.1363 8.80166 30.1462 8.83007 30.1587C8.82771 30.1811 8.83244 30.1936 8.7922 30.2209C8.92477 30.3156 8.95791 30.2608 9.03366 30.2708C8.9366 30.3778 9.36982 30.4949 9.45268 30.6144C9.46215 30.5696 9.50002 30.5671 9.57104 30.5945C9.54737 30.6169 9.51896 30.6119 9.54974 30.6543C10.1723 30.8809 10.7476 31.0552 11.3181 31.2345C11.5288 31.2196 12.1017 31.3018 12.0354 31.506C12.729 31.7376 13.4724 31.7849 14.2512 31.8546C14.514 31.7575 14.836 31.8073 15.0751 31.8297C15.0395 31.8248 15.1461 31.7774 15.2124 31.8023C15.4586 31.887 15.0443 31.9717 14.8383 31.9617C15.0182 31.9592 14.8431 32.1012 14.8075 32.151C14.4146 32.1908 14.095 32.1734 13.7494 32.2108C13.657 32.1983 13.6476 32.1435 13.541 32.1361C13.3872 32.2108 13.2333 32.0564 13.0534 32.0514C12.9492 32.0464 12.864 32.1286 12.7622 32.1136C12.6462 32.0987 12.5539 31.9966 12.4568 31.9817C12.3976 31.9717 12.2911 31.9941 12.2414 31.9891C12.2461 31.9891 12.2722 31.9518 12.2816 31.9543C12.1775 31.9368 12.1159 31.9866 12.0259 31.9767C12.0094 31.9742 12.0094 31.9094 12.0023 31.9069C11.8839 31.8422 11.7111 31.9119 11.5738 31.8845C11.4862 31.7999 11.7087 31.8198 11.5596 31.7725C11.5359 31.8397 11.3915 31.7899 11.33 31.8223C11.2566 31.6828 10.9394 31.7301 11.008 31.628C10.8873 31.6131 10.7192 31.6006 10.5582 31.5608C10.3996 31.5209 10.2434 31.4761 10.1392 31.4338C10.1771 31.4512 10.1652 31.4786 10.1558 31.506C9.90247 31.4114 9.81961 31.3815 9.67047 31.369C9.67757 31.3491 9.70598 31.3566 9.71782 31.3416C9.52606 31.2719 9.34615 31.2196 9.19227 31.1474C9.0384 31.0751 8.90346 31.0054 8.79456 30.9382C8.75195 30.9481 8.71644 30.9706 8.66436 30.9681C8.60281 30.8784 8.5744 30.8884 8.49391 30.9058C8.4442 30.8386 8.50575 30.7738 8.39685 30.7639C8.48444 30.8734 8.24061 30.7639 8.16722 30.7414C8.1838 30.7041 8.0891 30.6717 8.13645 30.6319C8.14829 30.5845 8.24061 30.6593 8.25955 30.6244C8.04649 30.5223 8.02045 30.5796 7.96127 30.6617C8.02519 30.7315 8.15539 30.7987 8.22877 30.8684C8.33767 30.7912 8.65963 31.0303 8.71881 31.1125C8.6762 31.0926 8.6762 31.1324 8.63832 31.1175C8.64305 31.0926 8.66673 31.0652 8.62885 31.0428C8.38739 31.0677 8.20984 30.8983 7.9589 30.7539C7.99914 30.8684 7.86894 30.7788 7.83107 30.851C8.09147 30.983 8.35661 31.11 8.59097 31.232C8.50338 31.1424 8.71171 31.2221 8.75432 31.2196C8.8064 31.2794 8.97211 31.4263 9.02893 31.4238C8.99105 31.4014 9.00525 31.3765 9.01709 31.3491C9.11889 31.511 9.34615 31.5483 9.53317 31.6529C9.32011 31.5583 9.40296 31.6455 9.23725 31.6056C9.37929 31.6903 9.45504 31.75 9.58998 31.7177L9.57104 31.7774C9.74386 31.8073 9.94745 31.8995 10.1629 31.9966C10.2718 32.0439 10.3807 32.0962 10.4919 32.1361C10.6056 32.1709 10.7192 32.1958 10.8305 32.2083C10.8305 32.2332 10.8115 32.2656 10.8518 32.2805C11.2424 32.3029 11.7655 32.5893 11.9691 32.5395C11.9715 32.6242 11.7869 32.6142 11.7064 32.5445C11.704 32.6939 11.9336 32.6366 12.0283 32.6341C12.0236 32.6341 12.0283 32.6765 12.0212 32.6765C12.1704 32.679 12.2485 32.5943 12.4047 32.6092C12.6036 32.6267 12.6462 32.7462 12.909 32.7487C12.8427 32.6391 13.1788 32.7811 13.2806 32.7387C13.0841 32.7064 13.1978 32.6964 13.3564 32.7113C13.515 32.7238 13.7233 32.7412 13.7186 32.8134C13.5978 32.801 13.5765 32.8533 13.4937 32.8633C13.6973 32.8657 13.6002 32.8906 13.6357 32.9778C13.8014 32.9629 13.818 33.0226 13.9316 33.0351C13.9174 32.9678 13.7683 32.9678 13.7138 32.918C13.7636 32.9205 13.7943 32.9131 13.8251 32.9031C13.9103 32.933 13.9624 33.0426 14.0453 32.9554C14.0405 32.9928 14.0524 33.0226 14.0808 33.0426C13.7801 33.0525 13.5742 33.0625 13.373 33.055C13.1741 33.0326 12.98 32.9928 12.7054 32.9106C12.5349 32.918 12.3645 32.8732 12.194 32.8334C12.0212 32.7935 11.8484 32.7636 11.6661 32.7711C11.6685 32.7313 11.5478 32.7263 11.5691 32.6815C11.1027 32.6217 10.6671 32.2954 10.2647 32.3228C10.3641 32.3652 10.5132 32.3851 10.5038 32.4449C10.3901 32.4175 9.87169 32.293 10.0279 32.1933C9.94034 32.1734 9.85749 32.1635 9.73912 32.1087C9.65863 32.1734 9.92141 32.1809 9.89773 32.2357C9.73439 32.1859 9.36272 32.0887 9.28223 31.9368C8.95791 31.8248 8.68803 31.6828 8.4442 31.5608C8.20273 31.4338 7.99204 31.3043 7.81686 31.1499C7.75058 31.237 7.76952 31.0727 7.70086 31.0428C7.60617 31.0179 7.68666 31.1524 7.62274 31.1175C7.5896 31.0976 7.57776 31.11 7.54936 31.0976C7.41679 31.0378 7.45703 30.9805 7.38364 30.9232C7.31736 30.9506 7.16822 30.8361 7.04275 30.7614C7.09246 30.607 6.81549 30.5497 6.69002 30.4625C6.42962 30.2957 6.16448 30.0441 5.89934 29.8225C5.6413 29.5934 5.38326 29.3916 5.20335 29.2248C5.45428 29.5286 5.59632 29.5535 5.79044 29.8324C5.99166 29.937 6.18815 30.0989 6.387 30.2708C6.59059 30.4351 6.80602 30.5945 7.01908 30.7215C6.9883 30.7639 7.03801 30.8112 7.03328 30.8535C6.9812 30.856 6.89598 30.8062 6.84153 30.8062C6.94569 30.9257 7.3505 31.0253 7.50438 31.2669C7.55172 31.2171 7.64168 31.3142 7.71507 31.3591C7.88551 31.2868 8.38975 31.5508 8.5744 31.6704C8.55073 31.7027 8.26428 31.5209 8.35424 31.6081C8.45604 31.6579 8.56257 31.7077 8.53653 31.7675C8.47261 31.75 8.34477 31.6455 8.32347 31.6853C8.42053 31.7675 8.65963 31.8422 8.55073 31.9368C8.6904 32.0215 8.53416 31.8397 8.68567 31.9094C8.68803 31.9294 8.70461 31.9468 8.74722 31.9617C8.75669 32.0738 8.64779 32.0265 8.59097 32.0489C8.72591 32.1759 8.76616 32.1012 8.78746 32.0738C8.87505 32.1784 8.6691 32.1037 8.74248 32.1908C8.87742 32.2979 9.04313 32.3627 9.12362 32.3926C9.08338 32.3726 9.07391 32.3477 9.06444 32.3253C9.12362 32.3627 9.23488 32.3253 9.24435 32.3951C9.20174 32.3826 9.14256 32.3527 9.12836 32.3726C9.31301 32.5046 9.65863 32.5818 9.75096 32.7213C9.84802 32.7288 9.70361 32.6366 9.81251 32.6541C10.0303 32.7014 9.98059 32.7935 10.1179 32.8558C10.1463 32.8334 10.1037 32.7362 10.1818 32.7686C10.3073 32.8284 10.5487 32.8383 10.499 32.9305C10.4564 32.9355 10.2102 32.8707 10.3002 32.9205C10.5203 32.9405 10.6576 33.0251 10.7689 32.9604C10.9133 33.0251 10.7168 33.065 10.8541 33.1123C10.9086 33.1148 10.8778 33.0351 10.9465 33.05C10.9867 33.0998 11.3678 33.2916 11.1998 33.1596C11.356 33.2194 11.3868 33.2244 11.6117 33.2841C11.6235 33.2542 11.6117 33.2044 11.6637 33.2094C11.9739 33.3165 12.2745 33.3489 12.5633 33.3912C12.8521 33.4261 13.1315 33.4659 13.4132 33.5207C13.4298 33.4859 13.3611 33.4634 13.4179 33.4585C13.631 33.5033 13.8062 33.5431 13.9529 33.4659C13.9529 33.4958 13.934 33.5108 13.9127 33.5282C14.0713 33.4983 14.2702 33.5531 14.4122 33.5929C14.3057 33.6726 14.1092 33.5929 14.0618 33.7249C14.3317 33.7249 14.4501 33.5556 14.7578 33.6029C14.8099 33.5556 14.6584 33.5207 14.7555 33.5182C14.8715 33.5481 14.9046 33.5431 14.9851 33.5008C14.9851 33.573 15.1011 33.573 15.1792 33.5979C15.4799 33.5033 15.7852 33.6303 16.0551 33.4834C16.209 33.4859 16.3794 33.4883 16.557 33.4734C16.7345 33.451 16.9168 33.4236 17.0944 33.3887C17.4518 33.3215 17.788 33.2368 18.02 33.1521C18.065 33.1995 18.2331 33.1223 18.2307 33.2094C18.4272 33.0774 18.5763 33.1721 18.7065 33.0376C18.6592 33.0475 18.6166 33.055 18.6213 33.0177C18.7065 32.9753 18.716 32.9778 18.8746 32.9255C18.8864 32.9554 18.8888 32.9977 18.9669 32.9654C19.0498 32.801 19.3812 32.8458 19.5659 32.8134C19.5635 32.7711 19.5019 32.7885 19.4712 32.7761C19.6132 32.7263 19.8665 32.6042 19.9352 32.6964C19.8499 32.7537 19.7789 32.659 19.7481 32.7462C19.8002 32.7313 19.8049 32.7736 19.8405 32.7786C20.1979 32.5146 20.7495 32.3353 21.0099 32.2456C21.1022 32.2083 21.1164 32.1211 21.1591 32.1012C21.268 32.0514 21.3934 32.0937 21.5662 31.9642C21.5355 31.9866 21.6159 31.9418 21.7035 31.892C21.739 31.8746 22.0776 31.6479 22.2054 31.6753C22.2457 31.7152 21.9497 31.8447 22.0634 31.8223C22.1841 31.75 22.2149 31.7052 22.3403 31.6753C22.3001 31.6355 22.3356 31.5932 22.3901 31.5608C22.4421 31.5259 22.5155 31.4985 22.5558 31.501C22.4682 31.5981 22.3167 31.6853 22.3025 31.77C22.5061 31.633 22.8351 31.2943 22.9038 31.4761C22.8943 31.4587 22.9487 31.4163 22.9701 31.4338C22.8612 31.5658 22.9369 31.5682 22.8446 31.6878C23.015 31.4711 23.2234 31.3715 23.4222 31.2619C23.6187 31.1499 23.8152 31.0478 23.9193 30.7912C23.9501 30.8186 23.9099 30.856 23.9359 30.8834C24.0353 30.8087 23.988 30.7614 24.13 30.6767C24.1466 30.714 24.1916 30.6866 24.2105 30.719C24.2863 30.6493 24.3762 30.5746 24.4046 30.5123C24.2721 30.6294 24.1869 30.6418 24.1253 30.602C24.3502 30.4625 24.3952 30.3081 24.6461 30.2384C24.5112 30.323 24.5917 30.3629 24.4544 30.4451C24.5135 30.46 24.5443 30.5422 24.6556 30.4426C24.6414 30.4152 24.5988 30.3903 24.6366 30.3529C24.6698 30.4401 25.1054 30.1437 25.264 29.9844C25.245 29.8972 25.1527 30.0093 25.1243 29.9445C25.174 29.9296 25.2427 29.8648 25.3113 29.7951C25.2829 29.8897 25.2995 29.8673 25.3634 29.9171C25.4699 29.8424 25.3587 29.8275 25.4392 29.7602C25.4865 29.8225 25.6191 29.6457 25.683 29.6706C25.7635 29.4962 25.8392 29.5037 25.8558 29.5585C25.9268 29.4091 25.9836 29.3817 26.0168 29.2572C26.0925 29.2397 26.0334 29.2796 26.0736 29.3169C26.1825 29.18 26.1754 29.1999 26.289 29.1326C26.3174 29.0729 26.3174 29.0206 26.3411 28.9558C26.4192 28.9309 26.4595 28.8413 26.4121 28.9683C26.7365 28.6595 26.6607 28.3855 26.8335 28.256C26.7365 28.1365 26.8998 28.0344 27.0347 27.9522C27.0347 27.88 26.9093 27.9821 26.9732 27.8999C27.0773 27.8426 27.1365 27.7729 27.2146 27.6334C27.2857 27.6459 27.2265 27.7256 27.2478 27.7629C27.2738 27.6683 27.378 27.5886 27.3733 27.5537C27.3306 27.5936 27.2904 27.6135 27.2549 27.6135C27.3117 27.5363 27.2975 27.4965 27.3804 27.4043L27.4277 27.4417C27.5366 27.0955 27.8893 26.7668 27.8988 26.5899C27.9556 26.4729 27.9888 26.5501 28.0408 26.4928C28.0195 26.4754 27.9935 26.4829 27.9675 26.4928C27.9935 26.3907 28.3533 26.0595 28.1379 26.2189C28.2397 26.0595 28.3368 26.052 28.3533 25.925C28.3012 26.0047 28.261 25.9773 28.3012 25.8926C28.2989 25.9574 28.3415 25.9524 28.3936 25.8553C28.3841 25.803 28.4172 25.7233 28.4409 25.6486C28.4338 25.7706 28.564 25.5066 28.5759 25.4469C28.5569 25.4718 28.5356 25.5166 28.519 25.5066C28.5522 25.4319 28.6208 25.2227 28.6966 25.1903C28.7084 25.2252 28.6232 25.3273 28.654 25.3522C28.751 25.2501 28.7179 25.1804 28.7747 25.0509C28.9144 25.0559 28.8647 24.6449 29.0185 24.6773C28.9144 24.8068 28.9025 24.9513 28.8789 25.0733C28.8528 25.1928 28.8244 25.2949 28.7084 25.3398C28.8055 25.402 28.6777 25.4867 28.6208 25.6635C28.699 25.6561 28.6327 25.7432 28.6516 25.7756C28.7581 25.6187 28.6895 25.6635 28.6966 25.6137C28.7345 25.5913 28.7747 25.4867 28.8102 25.5365C28.7889 25.5788 28.751 25.6361 28.7676 25.6536C28.8363 25.4967 28.9002 25.4344 28.9594 25.4319C28.9901 25.3248 29.0375 25.2476 29.099 25.143C29.1558 25.0335 29.2245 24.899 29.3074 24.6848C29.3074 24.6001 29.2269 24.7097 29.2695 24.5752C29.5701 24.1245 29.6175 23.6114 29.7832 23.2329C29.7524 23.1308 29.6506 23.2628 29.7098 23.0735C29.769 22.9888 29.7998 23.0287 29.8376 23.076C29.885 22.6925 30.0767 22.5032 30.1833 22.1072C30.0649 21.898 30.3584 21.3925 30.2827 21.1136C30.2661 21.3053 30.2093 21.5444 30.1193 21.6191C30.0862 21.4523 30.1714 20.9841 30.2922 21.0737C30.2732 20.8421 30.465 20.6852 30.3608 20.5881C30.5052 20.5707 30.5715 20.1075 30.5644 19.836C30.5644 19.8758 30.5952 19.7787 30.607 19.6766C30.6378 19.4076 30.6804 19.1063 30.7112 18.81C30.723 18.5783 30.7206 18.3467 30.7017 18.1351C30.723 18.1351 30.7467 18.1375 30.7751 18.1475C30.7585 17.8935 30.7419 17.642 30.7254 17.3929C30.7301 17.3979 30.7348 17.4004 30.7467 17.3954C30.7135 17.2709 30.723 17.2261 30.7064 17.109C30.6993 17.0243 30.6946 16.9422 30.6875 16.8575C30.7277 16.7529 30.7585 16.5636 30.768 16.4565C30.7727 16.5362 30.8248 16.5038 30.8153 16.6159C30.7869 16.7952 30.7988 17.0169 30.8745 17.1464C30.8603 17.231 30.8414 17.2335 30.813 17.1887C30.8627 17.6669 30.7988 18.023 30.884 18.4613C30.8153 18.3517 30.813 18.8623 30.8887 18.7502C30.8319 19.0266 30.7727 19.3803 30.7419 19.7314C30.7254 19.9082 30.7135 20.0825 30.7112 20.2469C30.7088 20.3291 30.7088 20.4088 30.7112 20.4835C30.7088 20.5582 30.7088 20.6279 30.7112 20.6952C30.7372 20.491 30.8508 20.1324 30.7964 19.9506C30.8698 20.0576 30.8366 19.7712 30.8059 19.7414L30.8651 19.7488C30.9787 18.8722 30.9905 17.9308 31 17.0243ZM25.3374 5.50876C25.406 5.47389 25.4486 5.58347 25.4747 5.64075C25.4368 5.67063 25.3468 5.53366 25.3374 5.50876ZM8.73538 31.1449C8.74248 31.0353 8.90819 31.1947 8.9224 31.1673C9.00525 31.247 8.8206 31.2022 8.73538 31.1449ZM9.88353 31.8522C9.93324 31.7426 9.99479 31.887 10.1321 31.9219C10.1037 31.9617 9.95928 31.8671 9.88353 31.8522ZM10.17 31.5334C10.1865 31.4786 10.3428 31.5433 10.3783 31.5882C10.3617 31.6305 10.2339 31.5433 10.17 31.5334ZM12.6509 32.6043C12.6841 32.5918 12.7361 32.5943 12.7977 32.6043C12.7906 32.6341 12.7859 32.664 12.8261 32.674C12.793 32.7188 12.5988 32.6615 12.6509 32.6043ZM13.8109 32.8408C13.7872 32.7811 13.8867 32.801 13.8867 32.7611C13.5978 32.6864 13.2972 32.7313 13.2049 32.5594C13.4534 32.6341 13.5552 32.5744 13.7494 32.542C13.7967 32.5644 13.818 32.6018 13.8914 32.6117C13.8346 32.659 13.8014 32.6391 13.7091 32.6242C13.7352 32.7064 13.8322 32.7537 13.9956 32.7661C14.0192 32.8433 13.9364 32.8558 13.8109 32.8408ZM29.4873 21.1459C29.5323 21.1509 29.4636 21.2829 29.4612 21.3402C29.4494 21.3203 29.4376 21.2979 29.4328 21.268C29.447 21.2331 29.4612 21.2007 29.4731 21.1659C29.4778 21.1659 29.4825 21.1609 29.4873 21.1459ZM29.163 23.8729C29.0825 24.0149 29.1038 23.9974 29.0327 24.1668C28.9736 24.2141 28.912 24.1469 28.9901 24.0149C29.0517 24.1743 29.0517 23.848 29.163 23.8729ZM19.4522 31.6953C19.4428 31.7476 19.2676 31.7824 19.1871 31.8123C19.2202 31.7002 19.3125 31.7426 19.4522 31.6953ZM17.5749 32.5793C17.3713 32.5993 17.2767 32.5694 17.0494 32.5619C17.1536 32.4498 17.369 32.4997 17.582 32.4274C17.582 32.4772 17.5418 32.5146 17.5749 32.5793ZM16.4647 32.5918C16.4363 32.664 16.3416 32.5943 16.3179 32.5843C16.3013 32.537 16.4197 32.5544 16.4173 32.5121C16.5452 32.5021 16.3368 32.6067 16.4647 32.5918ZM16.9026 32.5644C16.886 32.6167 16.7914 32.6391 16.7748 32.6914C16.718 32.6366 16.4623 32.7387 16.4363 32.659C16.602 32.6989 16.7109 32.5495 16.9026 32.5644ZM16.6327 32.2631C16.5167 32.293 16.4126 32.3328 16.2208 32.3602C16.138 32.2531 16.3037 32.2133 16.512 32.1585C16.7203 32.1087 16.976 32.0738 17.0754 32.0439C17.2317 32.0738 17.2743 32.1535 17.0683 32.2158C17.0731 32.1983 17.1015 32.1884 17.0967 32.1684C16.8695 32.2058 16.7464 32.2332 16.6327 32.2631ZM16.2848 32.6092C16.022 32.6815 15.4088 32.6839 15.5556 32.5744C15.7403 32.6516 15.9817 32.5445 16.2848 32.6092ZM17.2672 32.1186C17.2459 32.0663 17.3311 32.0514 17.395 32.0315C17.4045 32.0887 17.3335 32.146 17.2672 32.1186ZM17.5323 31.4786C17.2885 31.516 17.0423 31.5409 16.8529 31.5682C16.7701 31.6031 16.8955 31.6554 16.9689 31.6355C16.9452 31.7002 16.8245 31.6529 16.7653 31.6704C16.7558 31.633 16.8008 31.6205 16.7866 31.5807C16.7653 31.5359 16.6185 31.6006 16.5475 31.5981C16.7629 31.4587 16.9878 31.4089 17.2482 31.3765C17.3785 31.3615 17.5181 31.3466 17.6649 31.3292C17.8117 31.3043 17.9679 31.2644 18.1384 31.2146C18.1431 31.2445 18.1478 31.2744 18.1881 31.2669C18.1005 31.3142 17.9987 31.3566 17.8874 31.3939C17.833 31.4138 17.7738 31.4313 17.7146 31.4462C17.6554 31.4587 17.5939 31.4686 17.5323 31.4786ZM9.48345 28.9708C9.49766 28.9683 9.51423 28.9708 9.52843 28.9782C9.52606 28.9832 9.52843 28.9882 9.5237 28.9932C9.47872 28.9832 9.45741 28.9782 9.44558 28.9708C9.45741 28.9708 9.46925 28.9733 9.48345 28.9708ZM7.58013 28.1215C7.57066 28.1315 7.55882 28.1415 7.54936 28.1514C7.53989 28.1464 7.53042 28.1415 7.52095 28.1365C7.52568 28.129 7.53042 28.1215 7.53515 28.1141C7.53989 28.1066 7.54462 28.0991 7.54936 28.0917C7.56119 28.0991 7.57066 28.1116 7.58013 28.1215ZM13.6405 4.85378C13.6144 4.88118 13.5742 4.89612 13.5126 4.9011C13.5032 4.9011 13.4937 4.9011 13.4842 4.9011C13.4582 4.89114 13.4156 4.89861 13.373 4.90359C13.4582 4.85627 13.5481 4.84631 13.6405 4.85378ZM30.1454 13.1941C30.1714 13.2863 30.1501 13.3261 30.1264 13.3635C30.098 13.2514 30.0909 13.1343 30.0578 13.0223C30.0602 12.9999 30.0625 12.9799 30.0673 12.965C30.1312 13.2016 30.0436 13.1817 30.1454 13.1941ZM30.1927 13.3909C30.2046 13.4631 30.2164 13.5154 30.2259 13.5627C30.2211 13.5602 30.2188 13.5577 30.2117 13.5577C30.1975 13.5378 30.1856 13.5179 30.1762 13.4979C30.1572 13.4332 30.1454 13.3759 30.1927 13.3909ZM30.0649 18.663C30.0696 18.6082 30.0602 18.5759 30.0436 18.5559C30.0507 18.4638 30.0625 18.3766 30.0815 18.3119C30.0957 18.3368 30.1075 18.3642 30.1193 18.3916C30.1241 18.3542 30.1099 18.2994 30.1051 18.2496C30.1075 18.2446 30.1099 18.2372 30.1122 18.2322C30.1099 18.2222 30.1075 18.2098 30.1051 18.1973C30.1075 18.1799 30.1146 18.1649 30.1288 18.155C30.1335 18.2297 30.1833 18.2272 30.1596 18.3542C30.0247 18.5086 30.1122 18.4239 30.0649 18.663ZM17.6247 5.06796C17.601 5.07294 17.5891 5.06546 17.582 5.0555C17.5962 5.05052 17.6128 5.04803 17.6294 5.04305C17.627 5.05301 17.627 5.06796 17.6247 5.06796ZM27.2738 9.08994C27.2123 9.08496 27.1602 9.06753 27.1555 8.98784C27.1555 8.98535 27.1555 8.98535 27.1555 8.98286C27.1957 9.01523 27.236 9.0501 27.2738 9.08994ZM30.027 17.4452C30.0223 17.383 30.0176 17.3182 30.0128 17.2535C30.0152 17.2485 30.0176 17.2435 30.0176 17.2385C30.0318 17.1912 30.072 17.1514 30.1099 17.1115C30.1099 17.1763 30.1099 17.2435 30.1122 17.3082C30.117 17.4527 30.1264 17.5922 30.1478 17.7241C30.117 17.7266 30.0791 17.7192 30.0838 17.8013C30.1146 17.8088 30.1596 17.7889 30.162 17.8412C30.1478 17.9582 30.1217 18.0529 30.0886 18.1276C30.046 17.9383 30.0365 17.6992 30.027 17.4452ZM30.1004 16.8874C30.1004 16.8973 30.1004 16.9098 30.1028 16.9197C30.098 16.9098 30.098 16.8973 30.1004 16.8874ZM28.1355 10.0737C28.0906 10.0238 28.1 9.95411 28.1568 9.90679C28.1616 9.9043 28.1663 9.90181 28.1734 9.90181C28.2397 9.98649 28.3012 10.0836 28.3604 10.1932C28.2728 10.2106 28.2255 10.1758 28.1355 10.0737ZM28.0693 9.78227C28.0006 9.76235 27.9556 9.71503 27.9319 9.64281C27.9769 9.68515 28.0243 9.73246 28.0693 9.78227ZM30.0389 18.5908C30.046 18.6381 30.0436 18.6904 30.0341 18.7427C30.0341 18.6929 30.0365 18.6431 30.0389 18.5908ZM30.4863 14.9299C30.4957 14.9 30.51 14.8677 30.5265 14.8378C30.5289 14.905 30.5194 14.9623 30.4934 14.9847C30.4934 14.9648 30.4886 14.9474 30.4863 14.9299ZM30.4413 14.5389C30.4413 14.5265 30.4413 14.509 30.4437 14.4991C30.4579 14.5165 30.4697 14.5439 30.4815 14.5788C30.4697 14.5663 30.4555 14.5539 30.4413 14.5389ZM30.3206 14.1081C30.2709 14.2226 30.3419 14.3596 30.3774 14.3447C30.3727 14.397 30.3584 14.4144 30.3419 14.4169C30.3253 14.3945 30.3087 14.3721 30.2945 14.3497C30.2898 14.3347 30.2874 14.3198 30.2851 14.3048C30.2661 14.2799 30.2448 14.2575 30.2235 14.2376C30.2117 14.2152 30.1998 14.1953 30.1951 14.1828C30.1785 14.1405 30.2259 14.0832 30.2756 14.0907C30.2874 14.0931 30.3016 14.0956 30.3135 14.1006C30.3158 14.1031 30.3182 14.1056 30.3206 14.1081ZM30.0389 12.97C30.0365 12.9675 30.0365 12.9625 30.0341 12.9575C30.027 12.9401 30.027 12.9276 30.0294 12.9127C30.0341 12.9351 30.0365 12.9525 30.0389 12.97ZM13.8701 4.90359C13.8464 4.9011 13.8275 4.89612 13.8085 4.88616C13.8298 4.89114 13.8488 4.89861 13.8701 4.90359ZM18.6781 31.7426C18.7065 31.8322 18.5716 31.7625 18.4769 31.8198C18.5124 31.755 18.5858 31.75 18.6781 31.7426ZM26.4358 27.8302C26.4737 27.8999 26.3316 27.9472 26.2488 28.0817C26.2251 28.0543 26.1849 28.0892 26.1636 28.0568C26.2559 27.9721 26.3506 27.8775 26.4358 27.8302ZM26.6205 27.5786C26.6394 27.601 26.6607 27.621 26.6915 27.5886C26.7365 27.6284 26.5873 27.7903 26.5329 27.8102C26.5045 27.7555 26.54 27.6758 26.6205 27.5786ZM29.5488 20.9517C29.5559 20.9567 29.563 20.9592 29.5701 20.9641C29.5465 21.0214 29.537 21.0264 29.5252 21.0189C29.5346 20.9965 29.5417 20.9741 29.5488 20.9517ZM29.9868 19.3703C29.9844 19.3379 29.982 19.308 29.9773 19.2806C29.9891 19.2682 30.001 19.2582 30.0128 19.2532C30.0104 19.2906 29.9986 19.328 29.9868 19.3703ZM30.0578 19.1138C30.0507 19.064 30.0436 18.9992 30.0389 18.9295C30.0507 18.8722 30.0649 18.8199 30.0957 18.7452C30.0862 18.922 30.0696 18.9793 30.0767 19.1088C30.072 19.1113 30.0649 19.1138 30.0578 19.1138ZM30.5384 15.6596C30.5573 15.5625 30.5644 15.4654 30.5478 15.3458C30.6591 15.3931 30.6117 15.6721 30.5549 15.7717C30.5478 15.7318 30.5431 15.697 30.5384 15.6596ZM30.5052 15.0619C30.5407 15.1067 30.562 15.1939 30.5786 15.296C30.51 15.3433 30.4839 15.1292 30.5052 15.0619ZM30.2211 13.087L30.143 13.1094C30.1146 13.0422 30.1596 12.9301 30.0933 12.9127C30.0791 12.7757 30.143 12.9451 30.162 12.9351C30.1714 12.8828 30.1454 12.8529 30.1122 12.8131C30.1264 12.8006 30.1383 12.7882 30.1501 12.7757C30.1998 12.8604 30.2353 12.96 30.2211 13.087ZM30.0696 12.4096C30.0436 12.4071 30.0294 12.3349 30.0152 12.2776C30.0176 12.2776 30.0199 12.2776 30.0223 12.2776C30.0412 12.2752 30.0578 12.2602 30.0696 12.2428C30.117 12.3549 30.0602 12.3474 30.0696 12.4096ZM29.7429 12.0186C29.75 12.0137 29.769 12.0162 29.7785 12.0236C29.8471 12.0709 29.8921 12.1307 29.9087 12.2204C29.9158 12.2627 29.9489 12.2776 29.9868 12.2801C29.9939 12.3125 29.9986 12.3474 29.9986 12.3922C29.9797 12.3972 29.9844 12.4321 29.9702 12.4445C29.9205 12.2627 29.8258 12.3275 29.9418 12.4121C29.9465 12.437 29.9513 12.4619 29.956 12.4868C29.8921 12.4844 29.8282 12.4844 29.7642 12.4769C29.7453 12.4744 29.7169 12.4246 29.7216 12.4022C29.7358 12.3424 29.7879 12.2826 29.7808 12.2328C29.7714 12.1755 29.7027 12.1332 29.7169 12.0585C29.7193 12.0411 29.7311 12.0261 29.7429 12.0186ZM29.0683 10.6987C29.0446 10.6863 29.0209 10.6763 28.9972 10.6888C28.983 10.6514 28.9665 10.6215 28.9523 10.5941C28.9475 10.5692 28.9452 10.5418 28.9452 10.5169C28.983 10.5742 29.028 10.6415 29.0683 10.6987ZM26.4902 6.98556C26.5045 7.00299 26.521 7.02292 26.5352 7.04035C26.5329 7.04533 26.5305 7.0528 26.5258 7.05778C26.4429 7.04035 26.4027 6.92579 26.3529 6.81621C26.3979 6.87349 26.4429 6.93077 26.4902 6.98556ZM25.1172 6.52235C25.1243 6.52733 25.129 6.53729 25.1338 6.54725C25.1172 6.53978 25.1006 6.53231 25.0841 6.52733C25.0912 6.51736 25.1054 6.51487 25.1172 6.52235ZM13.0983 4.94344C13.0983 4.96087 13.0983 4.9783 13.1007 4.99324C13.1386 4.99324 13.1623 4.97083 13.1765 4.94095C13.2404 4.94095 13.3043 4.94344 13.3706 4.94593C13.3469 5.00071 13.2996 5.03558 13.2546 5.06796C13.1788 5.12025 13.1244 5.09037 13.0983 5.00321C13.0723 5.01317 13.0439 5.02064 13.0179 5.03309C12.8924 5.10033 12.8474 5.09784 12.7811 5.00819C12.7788 5.0057 12.7764 5.00071 12.774 4.99822C12.8806 4.96087 12.9894 4.94593 13.0983 4.94344ZM12.1751 5.09535C12.284 5.07294 12.3881 5.06297 12.4828 5.06297C12.4592 5.08539 12.4284 5.10033 12.3787 5.09784C12.3479 5.09784 12.3053 5.09784 12.2911 5.11776C12.1846 5.25972 12.0141 5.14267 11.8957 5.23232C11.8129 5.29458 11.7655 5.26221 11.7253 5.21489C11.8744 5.1601 12.0307 5.12274 12.1751 5.09535ZM4.3014 25.138C4.28719 25.1356 4.27536 25.0882 4.27772 25.0633C4.28009 25.0509 4.28719 25.0384 4.2943 25.026C4.3014 25.0135 4.31087 25.0036 4.31797 24.9911C4.32981 25.016 4.34874 25.0384 4.35348 25.0633C4.36058 25.1032 4.35585 25.1505 4.3014 25.138ZM4.73698 26.3882C4.73225 26.4106 4.70384 26.4256 4.68727 26.4455C4.6778 26.4331 4.65886 26.4231 4.65886 26.4106C4.65413 26.3658 4.65413 26.321 4.65176 26.2762C4.64939 26.2762 4.64703 26.2762 4.64466 26.2762C4.64466 26.2737 4.64466 26.2687 4.64466 26.2662C4.62335 26.2562 4.60205 26.2463 4.58311 26.2338C4.57837 26.2313 4.58548 26.2014 4.58784 26.2014C4.63992 26.194 4.64229 26.2288 4.64466 26.2662C4.64703 26.2662 4.64939 26.2687 4.65176 26.2687C4.65176 26.2712 4.65176 26.2737 4.65176 26.2762C4.72041 26.2787 4.75356 26.3135 4.73698 26.3882ZM5.02106 26.6647C4.99739 26.6497 4.97372 26.6348 4.94768 26.6198C4.97372 26.6049 4.99976 26.58 5.0258 26.5825C5.05184 26.5825 5.07551 26.6099 5.10155 26.6273C5.07551 26.6373 5.04947 26.6497 5.02106 26.6647ZM5.21281 26.8788C5.21045 26.9162 5.20808 26.9535 5.15363 26.9436C5.1489 26.9436 5.14416 26.9137 5.1489 26.9112C5.1702 26.8963 5.19151 26.8888 5.21281 26.8788C5.21281 26.8763 5.21281 26.8714 5.21281 26.8689C5.21518 26.8689 5.21755 26.8689 5.21992 26.8689C5.21755 26.8091 5.21045 26.7493 5.25779 26.702C5.2862 26.6746 5.37853 26.6746 5.37616 26.702C5.37379 26.7269 5.36669 26.7568 5.35249 26.7742C5.31698 26.8191 5.2862 26.8739 5.21755 26.8689C5.21755 26.8714 5.21755 26.8739 5.21755 26.8763C5.21755 26.8763 5.21518 26.8763 5.21281 26.8788ZM5.58922 26.971C5.52293 27.1304 5.38326 27.2524 5.36906 27.4417C5.36906 27.4516 5.31224 27.4666 5.28857 27.4591C5.2649 27.4516 5.22939 27.4143 5.23175 27.3968C5.27673 27.2101 5.35485 27.0357 5.46612 26.8813C5.47559 26.8689 5.5253 26.8813 5.55371 26.8888C5.55371 26.8888 5.55371 26.8888 5.55608 26.8888C5.56318 26.8963 5.57028 26.9037 5.57975 26.9112C5.58212 26.9162 5.58448 26.9187 5.58922 26.9212C5.58685 26.9386 5.59395 26.9585 5.58922 26.971ZM7.00724 28.2087C6.99067 28.2461 6.967 28.261 6.93149 28.2486C6.94096 28.2162 6.95989 28.1888 7.00724 28.1813C7.08773 28.1689 7.12324 28.2212 7.11377 28.2959C7.11377 28.3058 7.11614 28.3108 7.11614 28.3183C7.08773 28.2884 7.05695 28.2535 7.00724 28.2087ZM7.5967 28.3631C7.5967 28.3656 7.59433 28.3706 7.59433 28.3731L7.58723 28.3656C7.5896 28.3656 7.59433 28.3631 7.5967 28.3631C7.59907 28.3556 7.60144 28.3482 7.6038 28.3407C7.6109 28.3457 7.61801 28.3482 7.62274 28.3531C7.61564 28.3556 7.60617 28.3606 7.5967 28.3631ZM10.7973 30.988C10.5038 30.846 10.2173 30.7041 9.86932 30.6368C9.75569 30.5821 9.64443 30.5048 9.5237 30.4252C9.51186 30.4152 9.49766 30.4052 9.48345 30.3978C9.5379 30.4102 9.59235 30.4227 9.64443 30.4351C9.77463 30.465 9.9001 30.4949 10.0256 30.5347C10.1534 30.5696 10.286 30.6144 10.428 30.6817C10.6671 30.5696 11.0056 31.0154 11.2329 30.983C11.1429 30.8311 11.5264 30.9556 11.7466 30.983C11.7111 31.0502 11.7371 31.1374 11.7513 31.2594C11.401 31.2221 11.0956 31.105 10.7973 30.988ZM15.2266 31.77C15.2976 31.7227 15.3402 31.8173 15.468 31.7974C15.4657 31.7774 15.4254 31.7849 15.3994 31.7799C15.4065 31.75 15.5012 31.7675 15.4988 31.7326C15.4586 31.6878 15.2834 31.7376 15.1911 31.7301C15.3307 31.6255 15.6787 31.633 15.7923 31.5658C15.8492 31.6081 15.8255 31.6778 15.8042 31.6928C15.8421 31.7625 15.8799 31.6903 15.9439 31.7251C16.0362 31.6903 15.8326 31.6903 15.8657 31.6255C16.1261 31.6056 16.1877 31.628 16.3013 31.5533C16.4126 31.5707 16.3013 31.5907 16.5049 31.5433C16.5404 31.6853 16.2919 31.6131 16.2114 31.6654C16.3368 31.755 16.6398 31.5234 16.6612 31.6679C16.5546 31.6803 16.4434 31.7052 16.3274 31.7301C16.2114 31.7476 16.0906 31.7675 15.9675 31.7849C15.7213 31.8173 15.4657 31.8322 15.2266 31.77ZM15.3047 32.6316C15.2715 32.6964 15.3875 32.664 15.4515 32.6665C15.3331 32.7014 15.139 32.7113 14.9235 32.7188C14.7058 32.7113 14.4667 32.6989 14.2536 32.7138C14.5069 32.5569 14.9212 32.7039 15.3047 32.6316ZM14.1423 32.7711C14.3483 32.806 14.398 32.791 14.6182 32.811C14.4122 32.7039 15.0751 32.7587 15.1295 32.8085C14.9567 32.8682 14.7531 32.8558 14.5613 32.8433C14.3696 32.8334 14.192 32.8234 14.0666 32.8732C14.0382 32.8035 14.1258 32.811 14.1423 32.7711ZM14.0287 32.9554C14.0595 32.8832 14.1589 32.938 14.2133 32.9629C14.2015 33.0127 14.05 32.9678 14.0287 32.9554ZM16.5262 33.0749L16.5167 33.0077C16.5002 33.0127 16.4836 33.0152 16.467 33.0201C16.3865 33.0351 16.3037 33.0451 16.2161 33.0575C16.0433 33.0799 15.861 33.0998 15.6764 33.1123C15.3047 33.1347 14.9117 33.1546 14.5448 33.0824C14.5045 33.0874 14.5187 33.1247 14.4714 33.1223C14.3838 33.1123 14.3175 33.0899 14.2489 33.07C14.2583 33.0052 14.4335 33.0426 14.5471 33.0401C14.5495 33.0102 14.5519 32.9803 14.5093 32.9753C14.8691 32.9654 15.5201 32.9679 16.0504 32.8159C16.1711 32.8309 16.2871 32.8483 16.3558 32.9006C16.4623 32.8757 16.325 32.8359 16.3439 32.796C16.4363 32.7761 16.5215 32.8583 16.5665 32.791C16.6754 32.7935 16.6114 32.8159 16.6138 32.8682C16.7961 32.8085 16.9263 32.7611 17.047 32.7562C17.0731 32.6815 16.9287 32.7437 16.8576 32.7437C16.9618 32.6516 17.2198 32.6366 17.3311 32.664C17.3737 32.7387 17.1843 32.8309 17.395 32.8035C17.2459 32.9056 16.8008 32.8309 16.7369 32.9355C17.0257 32.9429 17.5087 32.7836 17.6791 32.8832C17.2956 33.0426 16.9429 32.9778 16.5262 33.0749ZM18.2165 32.5669C18.2117 32.5295 18.162 32.5345 18.162 32.4947C18.2993 32.4349 18.2851 32.527 18.4224 32.4673C18.394 32.5121 18.2757 32.532 18.2165 32.5669ZM19.1894 32.1859C18.7515 32.2581 18.3751 32.3776 17.9277 32.4723C17.9419 32.5096 18.0508 32.4523 18.0792 32.4748C18.0886 32.5395 17.8685 32.5719 17.859 32.5071C17.7667 32.5669 17.762 32.5868 17.8164 32.664C17.6507 32.6192 17.6176 32.5644 17.6744 32.5171C17.7335 32.4673 17.8851 32.4299 18.0934 32.3826C18.0555 32.3602 17.9726 32.3826 17.9064 32.3901C17.8756 32.3303 18.065 32.3303 18.0697 32.2805C18.1194 32.273 18.1123 32.3253 18.1242 32.3527C18.4627 32.2382 18.4864 32.2207 18.8557 32.1062C18.9243 32.1684 19.0332 32.0564 19.1279 32.1161C19.2179 32.0713 19.0072 32.1012 19.1019 32.0364C19.3552 31.9817 19.3481 32.0414 19.599 31.9094C19.5848 31.8522 19.3836 32.019 19.4072 31.9169C19.5753 31.887 19.6937 31.8223 19.8097 31.7376C19.8381 31.7799 19.831 31.8148 19.8121 31.8497C19.9044 31.8198 19.9138 31.7774 19.8854 31.7301C20.0512 31.6405 20.108 31.6828 20.1885 31.7002C20.0654 31.9119 19.3954 32.0215 19.1894 32.1859ZM22.48 31.2545C22.4753 31.1449 22.6244 31.1349 22.7073 31.0353C22.7381 31.1001 22.5487 31.1797 22.48 31.2545ZM23.524 31.0204C23.4625 31.1748 23.4672 30.9905 23.3701 31.0727C23.3654 31.0428 23.4435 31.0029 23.4909 30.9681C23.5051 30.9955 23.5169 31.0204 23.5571 30.9979C23.5642 31.0229 23.5311 31.0303 23.524 31.0204ZM23.4056 30.6991L23.5335 30.6144L23.569 30.6667C23.5027 30.6991 23.4269 30.7514 23.4056 30.6991ZM23.5548 30.5746C23.5287 30.5298 23.6329 30.4625 23.7134 30.3978L23.7489 30.4476C23.6755 30.5098 23.6045 30.5671 23.5548 30.5746ZM23.5003 30.475C23.3015 30.6194 23.0979 30.7539 22.9961 30.846C23.0079 30.7589 23.1784 30.6244 23.382 30.4775C23.5832 30.328 23.8081 30.1487 23.9572 30.0192C23.8767 30.1487 23.6897 30.3156 23.5003 30.475ZM24.9089 30.1587C24.8379 30.1114 24.8284 30.1139 24.8473 30.0217C24.9207 30.0167 25.0344 30.0516 24.9089 30.1587ZM25.0225 29.9844C24.9894 29.9844 24.9397 30.0267 24.9207 29.9868C24.9562 29.9744 24.9917 29.9619 24.9823 29.937C25.0178 29.9121 25.0272 29.9495 25.0675 29.9146C25.0628 29.942 25.058 29.9694 25.077 29.9893C25.0415 30.0142 24.9775 30.0267 25.0225 29.9844ZM25.5646 29.693C25.5552 29.6631 25.6262 29.6108 25.6664 29.566C25.6451 29.5535 25.6025 29.6033 25.5646 29.6357C25.5125 29.6332 25.6049 29.5012 25.5102 29.5734C25.5173 29.5236 25.6712 29.5112 25.7232 29.5087C25.6262 29.6158 25.6925 29.6208 25.5646 29.693ZM26.2512 28.4577L26.2961 28.5001L26.1659 28.6495C26.1115 28.6171 26.2204 28.5225 26.2512 28.4577ZM26.4642 28.7143C26.4879 28.6171 26.4263 28.6918 26.3553 28.7765C26.3269 28.6819 26.5258 28.5997 26.6062 28.515C26.637 28.5499 26.5021 28.652 26.4642 28.7143ZM26.5802 28.1664C26.5542 28.3457 26.5092 28.51 26.2512 28.6744C26.2772 28.5574 26.5139 28.3955 26.4311 28.2461C26.6702 28.0169 26.8169 27.7903 26.9471 27.6982C26.9424 27.865 26.7293 28.1041 26.5802 28.1664ZM27.2644 27.342C27.1318 27.4989 27.0584 27.5363 27.004 27.6957L26.9258 27.6309C27.0821 27.479 27.2028 27.2125 27.3851 27.0332C27.3851 27.1503 27.2289 27.23 27.2644 27.342ZM28.8386 24.7421C28.7723 24.7396 28.815 24.6524 28.7463 24.6499C28.8055 24.6101 28.8576 24.3984 28.9191 24.4681C28.8765 24.3835 29.0209 24.2291 29.0848 24.102C28.9641 24.3411 28.9499 24.5752 28.8386 24.7421ZM28.8647 25.4469C28.8363 25.4269 28.8031 25.4469 28.7723 25.4892C28.7368 25.4618 28.7842 25.3796 28.8363 25.2925C28.8386 25.3746 28.886 25.285 28.8883 25.3672C28.9333 25.3049 28.983 25.138 29.0233 25.2078C28.9712 25.2377 28.9191 25.3522 28.8647 25.4469ZM29.0754 25.0011C29.0683 24.8741 29.1274 24.8492 29.1961 24.7396C29.2032 24.8666 29.144 24.894 29.0754 25.0011ZM29.215 23.5043C29.2032 23.462 29.2127 23.3948 29.2482 23.3026C29.305 23.3151 29.2671 23.4645 29.215 23.5043ZM29.1819 22.9365C29.1795 22.8295 29.234 22.7946 29.2647 22.6302C29.3216 22.6526 29.2269 22.8917 29.1819 22.9365ZM29.3831 22.0898C29.4399 22.1446 29.3287 22.2392 29.3358 22.3637C29.2505 22.3687 29.3689 22.1795 29.3831 22.0898ZM29.3736 22.7523C29.3523 22.6028 29.3807 22.5331 29.4163 22.3065C29.4281 22.3712 29.3949 22.5804 29.4802 22.3687C29.5465 22.4484 29.4092 22.6128 29.3736 22.7523ZM29.6601 21.0264C29.582 21.4124 29.6175 21.5594 29.6104 21.7461C29.5938 21.8358 29.5441 21.7735 29.5228 21.8433C29.6293 21.8059 29.5559 22.0973 29.5062 22.2915C29.4423 22.2567 29.4068 22.2567 29.4044 22.2168C29.4399 22.1844 29.4683 22.0475 29.4589 21.9852C29.3855 22.0798 29.4257 21.8532 29.3784 21.8383C29.4115 21.7636 29.4305 21.7661 29.447 21.8184C29.4731 21.5245 29.608 21.1858 29.6293 20.8944C29.6506 20.9044 29.6577 20.9716 29.6885 20.9069C29.6056 20.9492 29.7074 20.7749 29.6554 20.7799C29.6293 20.8222 29.6127 20.8097 29.6033 20.7749C29.6317 20.6852 29.6601 20.5956 29.6838 20.5034C29.7571 20.476 29.6482 20.6703 29.7003 20.6703C29.7311 20.4984 29.8731 20.237 29.8021 20.1722C29.7595 20.3415 29.7619 20.4138 29.6861 20.4935C29.6885 20.4885 29.6885 20.4835 29.6909 20.4785C29.724 20.3291 29.75 20.1747 29.7714 20.0153C29.8021 20.0153 29.8282 20.0004 29.8542 19.978C29.8542 19.9804 29.8542 19.9804 29.8518 19.9829C29.9087 20.0676 29.8968 20.1772 29.8731 20.2892C29.8471 20.4013 29.8045 20.5134 29.8163 20.6155C29.7666 20.7051 29.7406 20.6952 29.7122 20.7151C29.7642 20.7923 29.7003 21.1534 29.6743 21.2306C29.608 21.2356 29.7003 21.0513 29.6601 21.0264ZM29.6554 22.9839C29.7193 22.8519 29.6767 22.7821 29.7477 22.7149C29.8447 22.6975 29.7216 23.0586 29.6554 22.9839ZM29.7548 22.6302C29.8376 22.5705 29.9063 22.4086 29.9986 22.4086C29.9276 22.553 29.8542 22.695 29.7548 22.6302ZM30.5644 15.8738C30.5644 15.8713 30.5644 15.8713 30.5644 15.8738C30.5644 15.8738 30.5644 15.8763 30.5644 15.8788C30.5644 15.8763 30.5644 15.8738 30.5644 15.8738ZM30.6544 15.697C30.6709 15.6347 30.6733 15.8688 30.6946 16.0207C30.607 15.9784 30.626 15.7941 30.6544 15.697Z"
       fill="#010A35"
       id="path134" />
    <path
       fill-rule="evenodd"
       clip-rule="evenodd"
       d="M8.70226 3.03333C8.64544 3.12547 8.27851 3.2475 8.2572 3.28735C8.33769 3.27738 8.82299 3.05325 8.70226 3.03333Z"
       fill="#010A35"
       id="path136" />
    <path
       fill-rule="evenodd"
       clip-rule="evenodd"
       d="M16.6872 0.136986C16.6635 0.087178 16.467 0.114572 16.4528 0.0697452C16.7037 0.0124661 16.8647 0.194265 17.1204 0.219169C17.1299 0.194265 17.1204 0.159399 17.1654 0.16189C17.2032 0.196755 17.2245 0.234111 17.2743 0.263996C17.5441 0.251544 18.0436 0.4184 18.2709 0.346179C18.2141 0.298862 17.9821 0.278938 18.1289 0.22913C17.9324 0.186794 18.0957 0.28641 17.9963 0.29139C17.9916 0.273958 17.9679 0.261506 17.9205 0.256525C17.9916 0.174342 17.6625 0.199246 17.5323 0.132005C17.4305 0.144457 17.5962 0.206717 17.4826 0.209207C17.4021 0.127024 17.2388 0.087178 17.2459 0.174342C17.2719 0.146947 16.9286 0.136986 17.0541 0.0821972C16.628 0.0398605 16.673 -0.00496663 16.3392 1.41573e-05C16.3699 0.0772164 16.3415 0.0523124 16.3723 0.129515C16.5286 0.0946492 16.583 0.16189 16.6872 0.136986Z"
       fill="#010A35"
       id="path138" />
    <path
       fill-rule="evenodd"
       clip-rule="evenodd"
       d="M21.2206 3.3521C21.3176 3.37949 21.4502 3.45919 21.5283 3.45919C21.4502 3.40938 21.2703 3.32471 21.2206 3.3521Z"
       fill="#010A35"
       id="path140" />
    <path
       fill-rule="evenodd"
       clip-rule="evenodd"
       d="M22.6907 3.43179C22.6528 3.49654 22.5013 3.36455 22.4279 3.36704C22.4682 3.44673 22.757 3.5314 22.6907 3.43179Z"
       fill="#010A35"
       id="path142" />
    <path
       fill-rule="evenodd"
       clip-rule="evenodd"
       d="M23.711 2.79674C23.7299 2.76685 23.8104 2.84654 23.8341 2.82662C23.7749 2.79923 23.7583 2.68467 23.8412 2.73199C23.8838 2.79923 23.9359 2.7544 24.0401 2.7793C23.8459 2.71206 23.5666 2.51532 23.479 2.55019C23.6258 2.58007 23.801 2.75689 23.711 2.79674Z"
       fill="#010A35"
       id="path144" />
    <path
       fill-rule="evenodd"
       clip-rule="evenodd"
       d="M23.7962 4.89114C23.7465 4.93348 23.8199 4.99325 23.9051 5.05551C23.8862 4.95589 24.085 5.16011 23.9974 5.05053C23.9241 4.99574 23.8838 5.01317 23.8933 4.94344C23.9099 4.95589 23.9359 4.95589 23.9051 4.92601C23.8767 4.93597 23.8483 4.94095 23.8104 4.93099C23.8175 4.92103 23.8223 4.90858 23.7962 4.89114Z"
       fill="#010A35"
       id="path146" />
    <path
       fill-rule="evenodd"
       clip-rule="evenodd"
       d="M24.059 5.15016C24.2247 5.35437 24.4236 5.68808 24.6319 5.72046C24.613 5.69805 24.5798 5.67065 24.5917 5.65322C24.6769 5.72295 24.7266 5.69306 24.8308 5.82256C24.8734 5.7877 24.8095 5.72793 24.7621 5.67314C24.6295 5.60839 24.1513 5.27717 24.194 5.15016C24.149 5.15265 24.0922 5.12277 24.059 5.15016Z"
       fill="#010A35"
       id="path148" />
    <path
       fill-rule="evenodd"
       clip-rule="evenodd"
       d="M25.4486 4.45035C25.5007 4.58234 25.9079 4.81395 25.9055 4.96586C25.9742 5.03061 26.0144 5.02065 26.0925 5.11777C26.057 5.12524 26.0168 5.11528 25.9813 5.12524C26.0428 5.17007 26.1067 5.21739 26.1683 5.27467C26.2275 5.33444 26.2866 5.39919 26.3482 5.46892C26.4689 5.60589 26.5897 5.7578 26.7104 5.90723C26.9542 6.20857 27.2028 6.50492 27.4443 6.71661C27.4679 6.97561 27.8017 7.04534 27.7686 7.23461C27.8017 7.17235 27.7828 7.18729 27.8467 7.16986C27.6478 7.00549 27.4632 6.67427 27.4821 6.54477C27.475 6.53979 27.475 6.52983 27.4916 6.5099C27.4845 6.51737 27.4845 6.53232 27.4821 6.54477C27.5058 6.5622 27.6265 6.52485 27.6289 6.66182C27.6976 6.67676 27.6242 6.52485 27.6905 6.60703C27.7118 6.68921 27.726 6.76641 27.7331 6.83863C27.7946 6.91086 27.8514 6.95817 27.9082 7.01047C27.894 7.0304 27.8585 7.04285 27.8846 7.08269C27.9556 6.9781 28.0313 7.23461 28.0669 7.30185C28.0811 7.19725 27.9367 7.01047 27.9627 6.91086C27.8869 6.9258 27.9106 6.85607 27.8254 6.75645C27.8396 6.73653 27.8727 6.72408 27.8491 6.68423C27.8136 6.67178 27.7733 6.50243 27.662 6.46508C27.7047 6.54228 27.6905 6.55722 27.6407 6.53979C27.546 6.35301 27.359 6.20608 27.2809 5.98194C27.1838 6.04669 27.127 5.89478 27.0371 5.76278C27.011 5.78022 26.9921 5.82754 26.9519 5.79018C26.9021 5.72294 26.9376 5.69056 26.9305 5.64076C26.9732 5.69803 27.1176 5.79516 27.0536 5.69056C27.0087 5.72792 26.8808 5.46643 26.8359 5.50378C26.8974 5.56853 26.9092 5.61336 26.8737 5.64076C26.8453 5.52869 26.7861 5.60589 26.6985 5.47141C26.6512 5.4988 26.6062 5.53865 26.5447 5.51624C26.5518 5.36681 26.3671 5.37926 26.2748 5.27716C26.2346 5.15762 26.199 5.05551 26.2275 4.96586C26.1257 4.88866 26.1091 4.84881 26.0688 4.84134C26.1257 4.9036 26.0902 4.93847 26.102 4.98827C25.8937 4.84881 25.844 4.7741 25.664 4.57238C25.5883 4.57487 25.5149 4.54498 25.4486 4.45035ZM27.011 6.01431C27.0536 6.03673 27.101 6.07657 27.1578 6.15378C27.1365 6.26086 27.0134 5.97945 26.9921 6.08903C26.9637 6.04918 26.9968 6.03673 27.011 6.01431Z"
       fill="#010A35"
       id="path150" />
    <path
       fill-rule="evenodd"
       clip-rule="evenodd"
       d="M25.2924 6.24094C25.3374 6.31316 25.3232 6.36795 25.3208 6.42523C25.3776 6.5099 25.3989 6.45013 25.4463 6.50492C25.4203 6.52982 25.4297 6.56469 25.4534 6.60454C25.522 6.48002 25.3398 6.38538 25.3705 6.26335C25.3516 6.28577 25.3137 6.23098 25.2924 6.24094Z"
       fill="#010A35"
       id="path152" />
    <path
       fill-rule="evenodd"
       clip-rule="evenodd"
       d="M29.5014 10.5767C29.4872 10.3625 29.634 10.639 29.6482 10.507C29.5819 10.5294 29.5204 10.385 29.4541 10.375C29.5441 10.502 29.4352 10.4696 29.5014 10.5767Z"
       fill="#010A35"
       id="path154" />
    <path
       fill-rule="evenodd"
       clip-rule="evenodd"
       d="M29.5559 11.3089C29.5275 11.3089 29.5015 11.269 29.4683 11.3039C29.5133 11.4135 29.4802 11.4484 29.4802 11.5156C29.5038 11.4982 29.5867 11.6924 29.563 11.5679C29.4518 11.4309 29.5772 11.3985 29.5559 11.3089Z"
       fill="#010A35"
       id="path156" />
    <path
       fill-rule="evenodd"
       clip-rule="evenodd"
       d="M28.4598 25.92C28.5285 25.8702 28.635 25.8827 28.6066 25.8653C28.635 25.7557 28.5025 25.8229 28.4598 25.92Z"
       fill="#010A35"
       id="path158" />
    <path
       fill-rule="evenodd"
       clip-rule="evenodd"
       d="M27.1768 27.8376C27.0797 27.9646 26.9566 28.0219 26.9614 28.129C27.03 28.0842 27.1697 27.9497 27.1437 28.0717C27.1673 27.9671 27.449 27.7729 27.3733 27.7878C27.2952 27.8501 27.0963 28.0095 27.1768 27.8376Z"
       fill="#010A35"
       id="path160" />
    <path
       fill-rule="evenodd"
       clip-rule="evenodd"
       d="M28.5498 29.4888C28.5451 29.5386 28.5451 29.5336 28.5261 29.7079C28.6421 29.5411 28.7439 29.3792 28.68 29.2995C28.6469 29.3593 28.5119 29.4664 28.5498 29.4888Z"
       fill="#010A35"
       id="path162" />
    <path
       fill-rule="evenodd"
       clip-rule="evenodd"
       d="M23.5974 31.496C23.5429 31.5409 23.4932 31.5259 23.4956 31.5633C23.6329 31.5209 23.3819 31.6729 23.3938 31.7052C23.4837 31.6753 23.6992 31.5209 23.6542 31.5085C23.5145 31.6056 23.5666 31.5533 23.5974 31.496Z"
       fill="#010A35"
       id="path164" />
    <path
       fill-rule="evenodd"
       clip-rule="evenodd"
       d="M19.0474 33.451C19.1043 33.456 19.1966 33.4286 19.2179 33.4684C19.038 33.5282 18.7349 33.4859 18.8344 33.5755C18.8888 33.5108 19.0735 33.5357 19.1208 33.5606C19.154 33.5033 19.5043 33.3339 19.3978 33.3713C19.2321 33.4634 19.1019 33.3837 19.0474 33.451Z"
       fill="#010A35"
       id="path166" />
    <path
       fill-rule="evenodd"
       clip-rule="evenodd"
       d="M18.1218 33.5058C18.1242 33.6054 17.9774 33.7175 18.1384 33.7598C18.1171 33.7224 18.181 33.7075 18.2023 33.6801C18.0768 33.6577 18.0934 33.5332 18.3207 33.4958C18.3444 33.4186 18.1952 33.4983 18.1218 33.5058Z"
       fill="#010A35"
       id="path168" />
    <path
       fill-rule="evenodd"
       clip-rule="evenodd"
       d="M17.4424 33.715C17.3642 33.7474 17.5323 33.7847 17.5087 33.8544L17.3524 33.8818L17.3335 33.7772C17.2151 33.8644 16.9831 33.8793 17.0802 33.9466C17.0162 33.9242 16.9168 33.9565 16.886 33.9989C17.1891 33.979 17.2648 33.8893 17.5158 33.8943C17.5158 33.8694 17.5181 33.8445 17.5868 33.8395C17.4684 33.8021 17.5797 33.71 17.4424 33.715Z"
       fill="#010A35"
       id="path170" />
    <path
       fill-rule="evenodd"
       clip-rule="evenodd"
       d="M15.764 34.9079C15.8421 34.9353 16.041 34.8904 15.9818 35C16.28 34.9701 15.861 34.8332 15.764 34.9079Z"
       fill="#010A35"
       id="path172" />
    <path
       fill-rule="evenodd"
       clip-rule="evenodd"
       d="M14.1234 33.7847C14.1684 33.7972 14.211 33.8121 14.2394 33.832C14.6726 33.8121 14.2086 33.7797 14.1234 33.7847Z"
       fill="#010A35"
       id="path174" />
    <path
       fill-rule="evenodd"
       clip-rule="evenodd"
       d="M13.8867 33.8793C13.9198 33.9441 14.0973 33.969 14.1991 33.9565C14.1707 33.9092 14.0287 33.8719 14.1234 33.827C13.9151 33.8021 13.7896 33.827 13.6547 33.847C13.7683 33.9242 13.5387 33.9192 13.6097 33.9491C13.6618 33.9217 13.7967 33.9291 13.8464 33.9615C13.8961 33.9117 13.8275 33.8943 13.8867 33.8793Z"
       fill="#010A35"
       id="path176" />
    <path
       fill-rule="evenodd"
       clip-rule="evenodd"
       d="M13.3493 33.6801C13.3517 33.7324 13.2854 33.7449 13.2286 33.7523C13.2215 33.7075 13.0581 33.7225 13.0392 33.6826C12.9966 33.6951 13.0202 33.7573 12.9184 33.7299C12.2461 33.6203 11.7442 33.5531 11.2779 33.4112C11.0435 33.3464 10.8139 33.2817 10.5701 33.2144C10.4493 33.1795 10.3239 33.1447 10.1937 33.1073C10.0658 33.06 9.93325 33.0127 9.79121 32.9604C9.76754 33.0999 9.67048 32.8956 9.59473 32.933C9.63497 33.065 9.72493 33.0749 9.89538 33.1771C9.94746 33.1248 9.81015 33.0999 9.80779 33.055C9.8575 33.0749 9.89301 33.0749 9.92378 33.0749C9.84803 33.1447 10.099 33.202 9.96403 33.2244C10.241 33.3041 10.5535 33.3464 10.892 33.4236C11.0625 33.461 11.2376 33.5008 11.4247 33.5456C11.517 33.568 11.6117 33.593 11.7111 33.6179C11.8105 33.6378 11.91 33.6577 12.0141 33.6801C12.0165 33.6428 12.052 33.6303 12.0993 33.6303C12.1869 33.6975 12.1988 33.6677 12.3692 33.6951C12.3171 33.7499 12.3361 33.7698 12.4331 33.8121C12.4426 33.7897 12.4331 33.7523 12.4805 33.7548C12.6817 33.7847 12.9492 33.7972 13.1836 33.7872C13.3943 33.7772 13.5766 33.7349 13.6712 33.6951C13.5955 33.71 13.4392 33.6751 13.3493 33.6801Z"
       fill="#010A35"
       id="path178" />
    <path
       fill-rule="evenodd"
       clip-rule="evenodd"
       d="M8.39447 30.2284C8.52941 30.2832 8.67855 30.3903 8.52467 30.3629C8.59806 30.4227 8.69512 30.4899 8.7543 30.4526C8.85136 30.5497 8.8632 30.7066 9.01471 30.7439C9.00287 30.7788 8.98393 30.8012 8.95079 30.8062C9.06205 30.8436 9.11887 30.8062 9.21119 30.8162C9.27038 30.8535 9.20646 30.9033 9.31536 30.9357C9.36507 30.8983 9.54499 30.9457 9.71307 31.0129C9.7036 31.0229 9.69413 31.0353 9.69176 31.0453C9.68939 31.0727 9.70833 31.1001 9.71543 31.1299C9.732 31.1125 9.75805 31.0951 9.75805 31.0776C9.75805 31.0627 9.75568 31.0453 9.74858 31.0303C9.93559 31.1125 10.0942 31.2146 10.0279 31.257C10.125 31.2819 10.222 31.3217 10.3167 31.364H10.3144C10.3025 31.3665 10.2907 31.384 10.2789 31.3939C10.2575 31.4139 10.267 31.4437 10.3073 31.4537C10.3949 31.4761 10.4943 31.4487 10.5629 31.5359C10.6434 31.4761 10.7121 31.5035 10.7949 31.5483C10.8423 31.5732 10.8778 31.5483 10.8967 31.496C10.9038 31.4935 10.9086 31.4935 10.9157 31.4911C10.9109 31.4886 10.9062 31.4861 10.9015 31.4836C10.9062 31.4661 10.9062 31.4487 10.9086 31.4263C10.9677 31.4388 11.034 31.4562 11.0435 31.4163C11.0009 31.4064 10.9535 31.3964 10.9086 31.3865C10.9015 31.3416 10.8825 31.2794 10.8588 31.2968C10.8257 31.3217 10.7902 31.3367 10.7547 31.3466C10.7215 31.3391 10.6908 31.3317 10.6576 31.3217C10.5274 31.2769 10.3925 31.2271 10.2623 31.1748C10.0019 31.0727 9.75094 30.9731 9.55446 30.8983C9.57813 30.8809 9.60654 30.866 9.64205 30.8635C9.74147 30.8959 9.77698 31.0029 9.83853 30.9382C9.73674 30.9008 9.69176 30.8535 9.62311 30.8112C9.57103 30.8585 9.47633 30.8361 9.38401 30.7987C9.29168 30.7564 9.19936 30.7041 9.13781 30.7116C9.18752 30.7066 9.20646 30.6593 9.17568 30.6144C9.04075 30.5671 8.86557 30.46 8.79218 30.3554C8.81112 30.3305 8.85846 30.348 8.87977 30.328C8.68328 30.2309 8.59806 30.2708 8.39447 30.2284Z"
       fill="#010A35"
       id="path180" />
    <path
       fill-rule="evenodd"
       clip-rule="evenodd"
       d="M9.28223 31.8945C9.47161 31.9169 9.63496 31.9368 9.81487 32.0738C9.82434 32.0464 9.81251 32.024 9.7983 32.0016C9.85748 32.024 9.89299 32.019 9.9143 31.9991C9.69414 31.9468 9.59235 31.8895 9.37692 31.8422C9.60655 31.9244 9.33667 31.8945 9.28223 31.8945Z"
       fill="#010A35"
       id="path182" />
    <path
       fill-rule="evenodd"
       clip-rule="evenodd"
       d="M8.93658 31.638C8.8774 31.6106 8.83242 31.5832 8.80875 31.5533C8.74956 31.5932 8.92238 31.76 8.87977 31.6803C8.78744 31.623 8.94369 31.6753 8.93658 31.638Z"
       fill="#010A35"
       id="path184" />
    <path
       fill-rule="evenodd"
       clip-rule="evenodd"
       d="M8.15064 31.765C8.05831 31.882 8.46313 31.9767 8.47733 32.0888L8.49153 32.0489C8.51284 32.0589 8.53415 32.0663 8.53415 32.0464C8.45366 31.9941 8.33766 31.9468 8.19562 31.8571C8.20509 31.8273 8.22876 31.7949 8.15064 31.765Z"
       fill="#010A35"
       id="path186" />
    <path
       fill-rule="evenodd"
       clip-rule="evenodd"
       d="M6.97645 32.7163C7.01433 32.7213 7.13269 32.6864 7.05694 32.6416C6.95988 32.6715 6.9149 32.5968 6.83678 32.6192C6.89833 32.6566 6.92437 32.6864 6.9291 32.7188C6.7989 32.684 6.806 32.6516 6.6758 32.5719C6.64976 32.6018 6.69474 32.6366 6.6758 32.669C6.56454 32.5669 6.45091 32.5818 6.35858 32.547C6.46748 32.6068 6.44854 32.6566 6.55507 32.7188C6.69237 32.7039 6.77996 32.7935 7.03327 32.8907C7.04037 32.8483 7.10192 32.8782 7.13506 32.8707C7.04274 32.8184 7.0238 32.7686 6.97645 32.7163Z"
       fill="#010A35"
       id="path188" />
    <path
       fill-rule="evenodd"
       clip-rule="evenodd"
       d="M7.9613 28.7815C8.04179 28.8014 8.07257 28.906 8.09861 28.8687C7.97787 28.784 8.04653 28.7641 8.03942 28.7093C7.97551 28.7242 7.9613 28.7043 7.9613 28.7815Z"
       fill="#010A35"
       id="path190" />
    <path
       fill-rule="evenodd"
       clip-rule="evenodd"
       d="M24.5514 3.35457C24.6887 3.47162 24.7526 3.43924 24.8544 3.48407C24.9349 3.56874 24.9396 3.64096 24.987 3.72066C25.0651 3.74805 25.148 3.82276 25.2427 3.90743C25.3326 3.99958 25.4344 4.10169 25.5528 4.18138C25.4013 4.05437 25.4107 3.97218 25.3752 3.87755C25.2356 3.82027 25.1835 3.72315 25.0556 3.69575C25.0793 3.66587 25.0556 3.64096 25.0036 3.62851C25.0367 3.59115 25.0675 3.55131 24.9988 3.49403C24.8947 3.48656 24.7432 3.37947 24.639 3.36951C24.6224 3.32219 24.6201 3.27737 24.5869 3.22507C24.5727 3.24997 24.5467 3.25246 24.5206 3.25246C24.5822 3.2948 24.5869 3.32966 24.5514 3.35457Z"
       fill="#010A35"
       id="path192" />
    <path
       fill-rule="evenodd"
       clip-rule="evenodd"
       d="M10.0469 33.4161C9.96874 33.3564 9.87641 33.2991 9.77935 33.2468C9.58287 33.1422 9.3556 33.06 9.13781 33.0525C9.12361 33.2269 8.96263 33.2393 8.7472 33.1945C8.79455 33.0999 8.55308 33.0376 8.53178 32.9504C8.51284 33.0426 8.38027 32.943 8.385 32.9953C8.37553 32.9579 8.34476 32.9205 8.29741 32.8832C8.27137 32.9853 8.04648 32.8334 7.8997 32.7811C7.87366 32.8558 7.91864 32.8558 7.85236 32.8981C7.99913 33.0426 8.36843 33.2368 8.4868 33.314C8.8703 33.3439 9.28222 33.8146 9.76988 33.9316C10.0966 34.0064 10.3096 33.8569 10.2433 33.573C10.1936 33.5257 10.125 33.4734 10.0469 33.4161Z"
       fill="#010A35"
       id="path194" />
  </g>
  <defs
     id="defs201">
    <clipPath
       id="clip0">
      <rect
         width="31"
         height="35"
         fill="white"
         id="rect198" />
    </clipPath>
  </defs>
  <path
     d="m 7.5200598,8.4958825 2.0921,5.4866795 H 22.66767 l -3.7499,-9.8336225 z"
     fill="#ee2529"
     id="path2-4"
     style="stroke-width:1" />
  <path
     d="m 3.4838764,12.571402 c -0.054246,0.11841 -0.054246,0.25657 -0.00984,0.37992 l 1.134842,2.97034 c 0.1036,-0.1233 0.16282,-0.2862 0.16282,-0.4589 0,-0.8141 0.66612,-1.4802 1.48023,-1.4802 h 2.30422 l -1.95883,-5.1363895 -1.5493,0.59208 c -0.12334,0.04441 -0.22204,0.13816 -0.27632,0.25661 -0.04935,0.11841 -0.05428,0.25653 -0.00988,0.3799095 0.16776,0.4342 0.15298,0.90293 -0.03453,1.32726 -0.19244,0.42432 -0.5328901,0.74505 -0.9670901,0.9128 -0.123346,0.04441 -0.2220004,0.13817 -0.2763233,0.25657 z"
     fill="#ee2529"
     id="path4-0" />
  <path
     d="m 27.53757,12.097762 c 0.0543,-0.11845 0.0592,-0.25163 0.0099,-0.37498 l -2.6447,-6.9422595 c -0.0987,-0.25657 -0.3848,-0.38486 -0.6365,-0.2862 -0.898,0.34048 -1.8996,-0.10853 -2.24,-1.001587 -0.0987,-0.2565693 -0.3849,-0.3848923 -0.6365,-0.2861999 l -1.5493,0.5921159 3.8781,10.1839105 h 0.0198 c 0.8141,0 1.4802,0.6661 1.4802,1.4802 0,0.0198 0,0.0395 0.0049,0.0593 l 0.75,-0.2862 c 0.1234,-0.0494 0.222,-0.1382 0.2763,-0.2616 0.0543,-0.1184 0.0593,-0.2516 0.0099,-0.3749 -0.3404,-0.898 0.1085,-1.89965 1.0016,-2.24009 0.1234,-0.04935 0.222,-0.1431 0.2763,-0.26151 z"
     fill="#ee2529"
     id="path6-2" />
  <path
     d="M 21.09417,14.969362 H 8.8986598 v 12.873 H 21.09417 Z m -4.0057,6.2889 -0.7803,0.762 0.1859,1.0794 c 0.0219,0.1349 -0.0365,0.2734 -0.1458,0.3537 -0.0656,0.0473 -0.1386,0.0692 -0.2152,0.0692 -0.0583,0 -0.1166,-0.0109 -0.1713,-0.0401 l -0.9663,-0.5068 -0.9663,0.5068 c -0.1239,0.0656 -0.2698,0.0547 -0.3828,-0.0291 -0.1131,-0.0803 -0.1677,-0.2188 -0.1459,-0.3537 l 0.1859,-1.0794 -0.7839,-0.762 c -0.09842,-0.0948 -0.13491,-0.2407 -0.09115,-0.3719 0.04376,-0.135 0.15677,-0.2298 0.29535,-0.248 l 1.0793,-0.1568 0.485,-0.9808 c 0.1203,-0.248 0.5287,-0.248 0.6527,0 l 0.4849,0.9808 1.0793,0.1568 c 0.1386,0.0182 0.2516,0.113 0.2954,0.248 0.0401,0.1312 0.0073,0.2771 -0.0948,0.3719 z"
     fill="#ee2529"
     id="path8-4" />
  <path
     d="m 5.7585798,15.462762 c 0,0.9573 -0.77962,1.7368 -1.7368381,1.7368 -0.271347,0 -0.4933852,0.2221 -0.4933852,0.4935 v 7.4307 c 0,0.2714 0.2220382,0.4934 0.4933852,0.4934 0.9572181,0 1.7368381,0.7746 1.7368381,1.7319 0,0.2762 0.222,0.4933 0.49339,0.4933 h 1.65992 v -12.873 h -1.65992 c -0.27139,0 -0.49339,0.2221 -0.49339,0.4934 z"
     fill="#ee2529"
     id="path10-1" />
  <path
     d="m 23.73837,27.842362 c 0.2763,0 0.4934,-0.2171 0.4934,-0.4933 0,-0.9573 0.7795,-1.7319 1.7367,-1.7319 0.2714,0 0.4935,-0.222 0.4935,-0.4934 v -7.4307 c 0,-0.2714 -0.2221,-0.4935 -0.4935,-0.4935 -0.9572,0 -1.7367,-0.7795 -1.7367,-1.7368 0,-0.2713 -0.2171,-0.4934 -0.4934,-0.4934 h -1.6574 v 12.873 z"
     fill="#ee2529"
     id="path12-5" />
</svg>
