<?xml version="1.0" encoding="UTF-8" standalone="no"?>
<svg
   xmlns:dc="http://purl.org/dc/elements/1.1/"
   xmlns:cc="http://creativecommons.org/ns#"
   xmlns:rdf="http://www.w3.org/1999/02/22-rdf-syntax-ns#"
   xmlns:svg="http://www.w3.org/2000/svg"
   xmlns="http://www.w3.org/2000/svg"
   xmlns:sodipodi="http://sodipodi.sourceforge.net/DTD/sodipodi-0.dtd"
   xmlns:inkscape="http://www.inkscape.org/namespaces/inkscape"
   width="269"
   height="33"
   viewBox="0 0 269 33"
   fill="none"
   version="1.1"
   id="svg43"
   sodipodi:docname="social-icons.svg"
   inkscape:version="1.0.1 (3bc2e813f5, 2020-09-07)">
  <metadata
     id="metadata47">
    <rdf:RDF>
      <cc:Work
         rdf:about="">
        <dc:format>image/svg+xml</dc:format>
        <dc:type
           rdf:resource="http://purl.org/dc/dcmitype/StillImage" />
        <dc:title></dc:title>
      </cc:Work>
    </rdf:RDF>
  </metadata>
  <sodipodi:namedview
     pagecolor="#ffffff"
     bordercolor="#666666"
     borderopacity="1"
     objecttolerance="10"
     gridtolerance="10"
     guidetolerance="10"
     inkscape:pageopacity="0"
     inkscape:pageshadow="2"
     inkscape:window-width="748"
     inkscape:window-height="480"
     id="namedview45"
     showgrid="false"
     inkscape:zoom="1.5969047"
     inkscape:cx="136.70177"
     inkscape:cy="37.482196"
     inkscape:window-x="0"
     inkscape:window-y="0"
     inkscape:window-maximized="0"
     inkscape:current-layer="svg43" />
  <path
     d="M32.9861 5.26641C31.802 5.79153 30.5295 6.14644 29.1939 6.30606C30.5572 5.48889 31.604 4.19498 32.097 2.65327C30.8213 3.40982 29.4083 3.95931 27.9044 4.25548C26.6999 2.97228 24.984 2.17041 23.085 2.17041C19.4386 2.17041 16.4823 5.12657 16.4823 8.77276C16.4823 9.29024 16.5408 9.79417 16.6534 10.2774C11.166 10.0021 6.30098 7.37349 3.04454 3.37898C2.47621 4.35413 2.15061 5.4883 2.15061 6.69829C2.15061 8.98889 3.31634 11.0098 5.08794 12.1938C4.00555 12.1595 2.98756 11.8625 2.09729 11.368C2.09682 11.3956 2.09682 11.4232 2.09682 11.451C2.09682 14.65 4.3727 17.3186 7.39313 17.925C6.83905 18.076 6.25578 18.1566 5.65355 18.1566C5.22813 18.1566 4.81449 18.1153 4.41143 18.0382C5.25156 20.6613 7.68989 22.5702 10.5791 22.6235C8.31943 24.3943 5.47251 25.4498 2.37922 25.4498C1.84632 25.4498 1.32073 25.4186 0.804199 25.3576C3.7261 27.2309 7.19667 28.3239 10.9253 28.3239C23.0696 28.3239 29.7106 18.2632 29.7106 9.53838C29.7106 9.2521 29.7042 8.96735 29.6915 8.68424C30.9814 7.75336 32.1009 6.59046 32.9861 5.26641Z"
     fill="#010A35"
     id="path2" />
  <path
     d="M62.6205 13.536C61.7009 13.536 60.9749 14.3427 60.9749 15.3268C60.9749 16.311 61.7171 17.1176 62.6205 17.1176C63.5401 17.1176 64.2661 16.311 64.2661 15.3268C64.2823 14.3427 63.5401 13.536 62.6205 13.536ZM68.5092 13.536C67.5896 13.536 66.8636 14.3427 66.8636 15.3268C66.8636 16.311 67.6058 17.1176 68.5092 17.1176C69.4288 17.1176 70.1548 16.311 70.1548 15.3268C70.1548 14.3427 69.4288 13.536 68.5092 13.536Z"
     fill="#010A35"
     id="path4" />
  <path
     d="M76.3501 0H54.7313C52.9082 0 51.4239 1.48428 51.4239 3.32349V25.1359C51.4239 26.9751 52.9082 28.4594 54.7313 28.4594H73.0266L72.1715 25.4747L74.2366 27.3946L76.1887 29.2015L79.6574 32.2669V3.32349C79.6574 1.48428 78.1732 0 76.3501 0ZM70.1226 21.0703C70.1226 21.0703 69.5418 20.3765 69.0578 19.7635C71.1712 19.1665 71.9779 17.8436 71.9779 17.8436C71.3164 18.2792 70.6872 18.5857 70.1226 18.7955C69.3159 19.1343 68.5415 19.3601 67.7832 19.4892C66.2344 19.7796 64.8147 19.6989 63.6047 19.4731C62.6851 19.2956 61.8945 19.0375 61.2331 18.7793C60.862 18.6341 60.4586 18.4567 60.0553 18.2308C60.0069 18.1985 59.9585 18.1824 59.9101 18.1501C59.8778 18.134 59.8617 18.1178 59.8456 18.1017C59.5552 17.9404 59.3938 17.8274 59.3938 17.8274C59.3938 17.8274 60.1682 19.1181 62.2172 19.7312C61.7332 20.3443 61.1362 21.0703 61.1362 21.0703C57.5708 20.9573 56.2156 18.618 56.2156 18.618C56.2156 13.423 58.5388 9.21219 58.5388 9.21219C60.862 7.46978 63.0723 7.51818 63.0723 7.51818L63.2336 7.71178C60.3296 8.55072 58.9905 9.82526 58.9905 9.82526C58.9905 9.82526 59.3454 9.63166 59.9424 9.35739C61.6687 8.59912 63.04 8.38939 63.6047 8.34099C63.7015 8.32485 63.7821 8.30872 63.8789 8.30872C64.8631 8.17965 65.9763 8.14739 67.1379 8.27645C68.6706 8.45392 70.3162 8.90566 71.9941 9.82526C71.9941 9.82526 70.7195 8.61525 67.9768 7.77632L68.2027 7.51818C68.2027 7.51818 70.413 7.46978 72.7362 9.21219C72.7362 9.21219 75.0594 13.423 75.0594 18.618C75.0594 18.618 73.6881 20.9573 70.1226 21.0703Z"
     fill="#010A35"
     id="path6" />
  <path
     fill-rule="evenodd"
     clip-rule="evenodd"
     d="M162.5 0.266846C153.936 0.266846 147 7.37854 147 16.1589C147 23.1911 151.437 29.1308 157.598 31.2365C158.373 31.3755 158.664 30.8988 158.664 30.4816C158.664 30.1042 158.644 28.8527 158.644 27.5217C154.75 28.2567 153.742 26.5483 153.432 25.6544C153.258 25.1975 152.503 23.7871 151.844 23.4096C151.301 23.1117 150.526 22.3767 151.824 22.3568C153.045 22.3369 153.917 23.509 154.207 23.9857C155.602 26.3894 157.831 25.714 158.722 25.2968C158.858 24.2638 159.264 23.5686 159.71 23.1713C156.261 22.774 152.658 21.4033 152.658 15.3246C152.658 13.5963 153.258 12.166 154.246 11.0536C154.091 10.6563 153.549 9.02734 154.401 6.84218C154.401 6.84218 155.699 6.42502 158.664 8.47112C159.904 8.11355 161.221 7.93476 162.539 7.93476C163.856 7.93476 165.174 8.11355 166.414 8.47112C169.378 6.40515 170.676 6.84218 170.676 6.84218C171.529 9.02734 170.986 10.6563 170.831 11.0536C171.819 12.166 172.42 13.5764 172.42 15.3246C172.42 21.4231 168.797 22.774 165.348 23.1713C165.91 23.6679 166.394 24.6214 166.394 26.1113C166.394 28.2369 166.375 29.9453 166.375 30.4816C166.375 30.8988 166.666 31.3954 167.441 31.2365C173.563 29.1308 178 23.1713 178 16.1589C178 7.37854 171.064 0.266846 162.5 0.266846Z"
     fill="#010A35"
     id="path8" />
  <path
     d="M263.448 9.91376C262.314 9.27752 261.281 8.69843 260.171 8.0762C261.566 7.46045 262.906 6.91586 264.198 6.27854C264.781 5.99061 265.239 6.01434 265.785 6.32275C266.575 6.7692 267.402 7.15203 268.216 7.55534C268.396 7.64485 268.485 7.757 268.484 7.96944C268.476 9.42418 268.475 10.8778 268.484 12.3326C268.485 12.572 268.383 12.682 268.181 12.7715C265.217 14.0709 262.252 15.3736 259.292 16.6806C257.336 17.5444 255.383 18.4168 253.428 19.2838C251.412 20.1778 249.394 21.0707 247.377 21.9657C247.297 22.0013 247.22 22.0477 247.073 22.1264C248.101 22.7087 249.085 23.2663 250.159 23.8745C248.942 24.4158 247.781 24.8482 246.705 25.436C245.768 25.9471 244.977 25.9299 244.111 25.3227C243.603 24.9669 243.007 24.7318 242.438 24.473C242.185 24.3576 242.105 24.2088 242.107 23.9381C242.119 22.5373 242.116 21.1375 242.107 19.7367C242.105 19.4768 242.159 19.3226 242.428 19.2051C245.764 17.7428 249.092 16.2633 252.423 14.7902C256.059 13.1791 259.696 11.5723 263.448 9.91376Z"
     fill="#010A35"
     id="path10" />
  <path
     d="M255.184 10.3117C253.707 10.9695 252.349 11.5658 251.001 12.1816C250.771 12.2862 250.602 12.2452 250.402 12.1363C249.134 11.4504 247.864 10.7711 246.593 10.0917C246.47 10.0259 246.342 9.97198 246.177 9.89434C246.177 10.9361 246.17 11.9303 246.178 12.9257C246.189 14.2866 246.194 14.2866 244.97 14.8247C244.151 15.1849 243.327 15.5343 242.515 15.9117C242.17 16.0724 242.089 15.9861 242.092 15.6281C242.101 13.0961 242.101 10.564 242.094 8.03198C242.093 7.77964 242.184 7.6416 242.405 7.53377C243.529 6.98056 244.649 6.41764 245.768 5.85365C245.938 5.76738 246.093 5.73071 246.275 5.82238C249.206 7.30084 252.14 8.77822 255.184 10.3117Z"
     fill="#010A35"
     id="path12" />
  <path
     d="M255.509 21.5312C256.911 20.9101 258.251 20.318 259.591 19.7238C259.838 19.6138 260.04 19.7346 260.249 19.8435C261.466 20.4776 262.682 21.1117 263.901 21.7415C264.449 22.0251 264.501 21.9895 264.489 21.3856C264.468 20.2717 264.455 19.1577 264.417 18.0448C264.406 17.7181 264.488 17.5369 264.816 17.3999C265.891 16.9546 266.947 16.4639 268.011 15.9937C268.155 15.9301 268.291 15.8298 268.505 15.8697C268.505 16.1318 268.505 16.3992 268.505 16.6656C268.504 19.0197 268.496 21.3727 268.511 23.7268C268.513 24.0622 268.415 24.2358 268.111 24.3824C266.99 24.9238 265.882 25.4942 264.774 26.0615C264.606 26.1477 264.472 26.11 264.32 26.0324C261.429 24.5701 258.536 23.111 255.645 21.6498C255.615 21.6347 255.593 21.6045 255.509 21.5312Z"
     fill="#010A35"
     id="path14" />
  <path
     d="M262.204 4.64377C261.04 5.16355 259.892 5.5852 258.837 6.174C257.867 6.71534 257.017 6.75201 256.141 6.0791C255.554 5.62726 255.016 5.71137 254.381 6.07263C253.144 6.77789 253.123 6.73583 251.868 6.10175C250.8 5.56255 249.729 5.02768 248.661 4.49064C248.702 4.25987 248.892 4.24909 249.019 4.18438C250.964 3.19443 252.915 2.21311 254.863 1.22747C255.106 1.10453 255.321 1.01287 255.609 1.16384C257.714 2.26918 259.828 3.35619 261.938 4.45182C262.015 4.49064 262.078 4.55103 262.204 4.64377Z"
     fill="#010A35"
     id="path16" />
  <path
     d="M262.309 27.4105C260.874 28.1071 259.548 28.752 258.219 29.3936C257.365 29.8066 256.504 30.2067 255.653 30.6262C255.432 30.7351 255.239 30.7955 255 30.6758C252.922 29.6406 250.843 28.6107 248.764 27.5787C248.704 27.5485 248.65 27.5032 248.52 27.4137C249.562 26.9457 250.585 26.5769 251.516 26.0463C252.604 25.4263 253.592 25.3713 254.608 26.1315C255.052 26.4637 255.498 26.4335 256.001 26.1747C256.649 25.8404 257.351 25.3626 258.018 25.382C258.686 25.4015 259.339 25.9557 259.997 26.2782C260.735 26.6384 261.472 27.0007 262.309 27.4105Z"
     fill="#010A35"
     id="path18" />
  <path
     d="M108.864 26.2717C107.995 26.2717 108.142 25.9434 107.843 25.1155L105.287 16.7015L124.959 5.026"
     fill="#010A35"
     id="path20" />
  <path
     d="M108.828 26.2717C109.499 26.2717 109.795 25.9629 110.169 25.5965L113.746 22.0951L109.285 19.3865"
     fill="#010A35"
     id="path22" />
  <path
     d="M109.414 19.4834L120.204 27.5106C121.435 28.1947 122.324 27.8404 122.631 26.3596L127.022 5.5187C127.472 3.70338 126.335 2.87975 125.157 3.41828L99.3678 13.432C97.6074 14.143 97.6179 15.132 99.0469 15.5726L105.665 17.6528L120.987 7.91906C121.71 7.47736 122.374 7.71461 121.829 8.20169"
     fill="#010A35"
     id="path24" />
  <g
     clip-path="url(#clip0)"
     id="g36">
    <path
       d="M196.991 15.7293C197.299 15.1833 197.68 14.6851 198.136 14.2665C199.284 13.2121 200.522 12.2941 201.938 11.6503C202.296 11.4877 202.218 11.2101 202.168 10.9326C201.882 9.3526 201.621 7.76581 201.294 6.19494C201.09 5.21785 201.159 4.28397 201.46 3.3501C201.939 2.50153 202.538 1.79061 203.452 1.39476C205 0.723647 206.698 1.07285 207.864 2.32522C207.94 2.40599 208.025 2.47765 208.105 2.55386C208.904 3.16582 209.13 4.03031 209.132 4.99376C209.136 6.28026 209.127 7.56675 209.137 8.85324C209.142 9.49592 209.215 9.56417 209.845 9.57555C210.27 9.58351 210.696 9.58351 211.121 9.57555C211.782 9.56417 211.863 9.4891 211.869 8.82594C211.88 7.48258 211.889 6.13921 211.869 4.79584C211.843 3.00999 213.381 1.46756 214.896 1.11494C215.733 0.920431 216.596 0.972756 217.403 1.27419C217.783 1.41637 218.183 1.60178 218.52 1.83156C219.169 2.2729 219.589 2.98041 219.792 3.74025C220.027 4.61725 219.944 5.52497 219.807 6.4122C219.681 7.22209 219.461 8.01378 219.345 8.82708C219.254 9.46066 219.15 10.092 218.998 10.7153C218.906 11.0952 219.108 11.3546 219.442 11.532C220.517 12.1019 221.514 12.7309 222.355 13.6295C223.171 14.5009 223.942 15.5394 224.412 16.653C224.797 17.5652 225.001 18.5492 224.991 19.5433C224.983 20.3191 225.019 21.0971 224.969 21.8695C224.818 24.1774 223.647 25.928 221.955 27.3408C219.404 29.4679 216.387 30.4393 213.179 30.826C209.577 31.2594 206.045 30.9056 202.664 29.494C200.274 28.4965 198.18 27.0803 196.863 24.7075C196.411 23.8931 196.092 23.0138 196.064 22.0754C196.031 21.022 195.949 19.9642 196.036 18.9109C196.129 17.82 196.445 16.6985 196.991 15.7293Z"
       fill="#010A35"
       id="path26" />
    <path
       d="M197.236 20.1814C196.989 17.6653 198.121 15.8112 199.947 14.2972C200.873 13.5283 201.913 12.9447 203.019 12.4989C203.492 12.3089 203.607 12.0541 203.508 11.5525C203.119 9.56756 202.763 7.57469 202.407 5.58409C202.113 3.93929 203.167 2.43554 204.689 2.30586C206.405 2.16026 207.679 3.33415 207.687 5.08701C207.696 6.90585 207.706 8.72355 207.677 10.5412C207.669 11.0963 207.863 11.2237 208.365 11.1623C209.804 10.986 211.248 10.994 212.687 11.1589C213.154 11.2124 213.258 11.0372 213.255 10.6004C213.239 8.74402 213.227 6.88765 213.256 5.03241C213.289 2.9474 215.295 1.66546 217.102 2.54701C218.21 3.08731 218.783 4.32603 218.542 5.63869C218.176 7.62815 217.839 9.62443 217.439 11.6071C217.335 12.1258 217.498 12.2964 217.93 12.4716C219.476 13.0983 220.869 13.9685 222.034 15.2118C223.376 16.6416 223.958 18.3194 223.783 20.2827C223.597 22.7487 221.969 24.1535 220.138 25.3706C218.033 26.7686 215.659 27.4602 213.2 27.7423C209.198 28.203 205.298 27.773 201.664 25.8347C199.998 24.9463 198.582 23.7656 197.656 22.0355C197.339 21.4429 197.363 20.8014 197.236 20.1814Z"
       fill="#F5EEDE"
       id="path28" />
    <path
       d="M197.236 20.1814C197.996 23.3311 200.24 25.0532 202.972 26.1771C207.865 28.1916 212.833 28.1893 217.763 26.3056C220.039 25.4366 222.016 24.0921 223.224 21.8137C223.482 21.3268 223.547 20.774 223.784 20.2838C224.125 23.6621 222.395 25.8404 219.748 27.4317C216.845 29.1766 213.65 29.7886 210.321 29.7647C207.283 29.7431 204.37 29.1402 201.667 27.6626C200.899 27.2429 200.182 26.7435 199.526 26.152C197.761 24.5607 196.964 22.586 197.236 20.1814Z"
       fill="#DFD6C0"
       id="path30" />
    <path
       d="M217.011 18.7618C216.996 19.4295 216.835 20.062 216.39 20.5875C215.944 21.1153 215.275 21.1426 214.772 20.6682C213.796 19.7457 213.799 17.7495 214.776 16.811C215.231 16.3742 215.867 16.3731 216.317 16.827C216.841 17.3536 216.987 18.0293 217.011 18.7618Z"
       fill="#010A35"
       id="path32" />
    <path
       d="M206.802 18.7811C206.8 19.4215 206.673 20.021 206.253 20.5215C205.705 21.1721 204.919 21.1551 204.399 20.4885C203.703 19.5956 203.692 17.9314 204.375 17.0305C204.921 16.3117 205.745 16.3082 206.298 17.0249C206.654 17.4844 206.804 18.0099 206.802 18.7811Z"
       fill="#010A35"
       id="path34" />
  </g>
  <defs
     id="defs41">
    <clipPath
       id="clip0">
      <rect
         width="29"
         height="30"
         fill="white"
         transform="translate(196 1)"
         id="rect38" />
    </clipPath>
  </defs>
</svg>
