<?xml version="1.0" encoding="UTF-8" standalone="no"?>
<svg
   xmlns:dc="http://purl.org/dc/elements/1.1/"
   xmlns:cc="http://creativecommons.org/ns#"
   xmlns:rdf="http://www.w3.org/1999/02/22-rdf-syntax-ns#"
   xmlns:svg="http://www.w3.org/2000/svg"
   xmlns="http://www.w3.org/2000/svg"
   xmlns:sodipodi="http://sodipodi.sourceforge.net/DTD/sodipodi-0.dtd"
   xmlns:inkscape="http://www.inkscape.org/namespaces/inkscape"
   width="31"
   height="35"
   viewBox="0 0 31 35"
   fill="none"
   version="1.1"
   id="svg203"
   sodipodi:docname="stadistics.svg"
   inkscape:version="1.0.1 (3bc2e813f5, 2020-09-07)">
  <metadata
     id="metadata207">
    <rdf:RDF>
      <cc:Work
         rdf:about="">
        <dc:format>image/svg+xml</dc:format>
        <dc:type
           rdf:resource="http://purl.org/dc/dcmitype/StillImage" />
        <dc:title></dc:title>
      </cc:Work>
    </rdf:RDF>
  </metadata>
  <sodipodi:namedview
     pagecolor="#ffffff"
     bordercolor="#666666"
     borderopacity="1"
     objecttolerance="10"
     gridtolerance="10"
     guidetolerance="10"
     inkscape:pageopacity="0"
     inkscape:pageshadow="2"
     inkscape:window-width="1200"
     inkscape:window-height="1312"
     id="namedview205"
     showgrid="false"
     showguides="true"
     inkscape:guide-bbox="true"
     inkscape:zoom="2.8284271"
     inkscape:cx="22.727316"
     inkscape:cy="55.039216"
     inkscape:window-x="3591"
     inkscape:window-y="0"
     inkscape:window-maximized="0"
     inkscape:current-layer="svg203">
    <sodipodi:guide
       position="15.511364,35.487216"
       orientation="1,0"
       id="guide209" />
    <sodipodi:guide
       position="15.511364,19.507812"
       orientation="0,-1"
       id="guide211" />
  </sodipodi:namedview>
  <g
     clip-path="url(#clip0)"
     id="g196">
    <path
       fill-rule="evenodd"
       clip-rule="evenodd"
       d="M2.36258 23.3798C2.33654 23.3873 2.30103 23.4072 2.29156 23.4321C2.27736 23.477 2.27736 23.5293 2.26789 23.6314C2.21107 23.7634 2.35074 23.8854 2.40519 24.0348C2.4123 24.0523 2.47385 24.0722 2.48568 24.0597C2.60405 23.9526 2.71768 23.8406 2.82658 23.7235C2.84315 23.7061 2.84315 23.6538 2.83131 23.6314C2.71531 23.467 2.58511 23.3226 2.36258 23.3798Z"
       fill="#010A35"
       id="path2" />
    <path
       fill-rule="evenodd"
       clip-rule="evenodd"
       d="M1.88201 23.848C1.84887 23.7385 1.76601 23.6588 1.63581 23.6762C1.6074 23.6862 1.57426 23.6886 1.55295 23.7086C1.54585 23.716 1.55532 23.7658 1.57189 23.7808C1.66895 23.8729 1.7305 23.975 1.70209 24.122C1.69026 24.1842 1.69736 24.2515 1.70683 24.3162C1.7092 24.3386 1.74707 24.3685 1.77311 24.3685C1.89148 24.3785 2.02405 24.2116 1.96487 24.117C1.90805 24.0298 1.90805 23.9402 1.88201 23.848Z"
       fill="#010A35"
       id="path4" />
    <path
       fill-rule="evenodd"
       clip-rule="evenodd"
       d="M3.44445 24.8616C3.42078 24.8293 3.39474 24.772 3.34266 24.8019C3.30478 24.8243 3.24797 24.8965 3.2527 24.904C3.33319 25.0185 3.21719 25.1057 3.22666 25.2078C3.22666 25.2203 3.24323 25.2327 3.2598 25.2551C3.29294 25.2352 3.32845 25.2128 3.36396 25.1929C3.53915 25.0907 3.55808 25.016 3.44445 24.8616Z"
       fill="#010A35"
       id="path6" />
    <path
       fill-rule="evenodd"
       clip-rule="evenodd"
       d="M1.38491 22.3115C1.36834 22.3065 1.32809 22.3364 1.32572 22.3538C1.31626 22.4011 1.32336 22.4509 1.32336 22.5007C1.32572 22.5007 1.32809 22.5007 1.33283 22.5007C1.33283 22.5655 1.32809 22.6327 1.33519 22.6975C1.33993 22.7398 1.36834 22.7548 1.39201 22.7398C1.47723 22.6825 1.52458 22.6053 1.51748 22.4958C1.51038 22.4285 1.44883 22.3264 1.38491 22.3115Z"
       fill="#010A35"
       id="path8" />
    <path
       fill-rule="evenodd"
       clip-rule="evenodd"
       d="M9.09286 29.033C9.09522 29.033 9.09049 29.0056 9.08339 28.9957C8.98396 28.8562 8.83009 28.8313 8.69988 28.7591C8.67148 28.8039 8.64544 28.8263 8.6407 28.8537C8.63833 28.8811 8.65254 28.9309 8.66911 28.9334C8.70699 28.9434 8.74486 28.9558 8.78037 28.9658C8.79694 28.9882 8.81588 29.0081 8.84666 29.028C8.85849 29.0131 8.85376 28.9982 8.84666 28.9857C8.90347 29.0056 8.95792 29.028 9.01 29.0604C9.02894 29.0729 9.06682 29.0455 9.09286 29.033Z"
       fill="#010A35"
       id="path10" />
    <path
       fill-rule="evenodd"
       clip-rule="evenodd"
       d="M2.11402 24.5777C2.06194 24.5603 1.99329 24.6126 1.98856 24.6773C1.97672 24.7969 2.00749 24.8616 2.07851 24.8666C2.12823 24.8716 2.24659 24.7869 2.25606 24.7396C2.2679 24.6973 2.18504 24.6026 2.11402 24.5777Z"
       fill="#010A35"
       id="path12" />
    <path
       fill-rule="evenodd"
       clip-rule="evenodd"
       d="M3.01599 24.2266C3.01126 24.2141 2.99469 24.2066 2.98522 24.1967C2.97575 24.2091 2.95681 24.2216 2.95681 24.234C2.95444 24.3611 2.95207 24.4856 2.95444 24.6126C2.95444 24.625 2.96865 24.6474 2.97811 24.6499C2.98995 24.6524 3.00415 24.6375 3.01599 24.6275C3.13672 24.5254 3.14146 24.5005 3.06571 24.3536C3.04677 24.3137 3.03493 24.2689 3.01599 24.2266Z"
       fill="#010A35"
       id="path14" />
    <path
       fill-rule="evenodd"
       clip-rule="evenodd"
       d="M2.4549 23.0362C2.45253 23.0237 2.43596 22.9988 2.42649 23.0013C2.35547 23.0088 2.27498 23.1308 2.28445 23.218C2.28682 23.2329 2.30339 23.2454 2.31286 23.2578C2.37678 23.2479 2.46437 23.1159 2.4549 23.0362Z"
       fill="#010A35"
       id="path16" />
    <path
       fill-rule="evenodd"
       clip-rule="evenodd"
       d="M2.48096 25.1281C2.46912 25.1704 2.45018 25.2128 2.4999 25.2476C2.51884 25.2352 2.55908 25.2178 2.55671 25.2103C2.54488 25.1704 2.52594 25.1331 2.50937 25.0957C2.4999 25.1082 2.48569 25.1156 2.48096 25.1281Z"
       fill="#010A35"
       id="path18" />
    <path
       fill-rule="evenodd"
       clip-rule="evenodd"
       d="M10.0587 31.3541C10.0848 31.3541 10.1132 31.3317 10.1392 31.3192C10.1132 31.3068 10.0871 31.2818 10.0611 31.2818C10.054 31.2818 10.0469 31.2868 10.0374 31.2893C9.99245 31.2619 9.93327 31.2345 9.91907 31.2619C9.94274 31.2769 9.95221 31.2943 9.94037 31.3142C9.97352 31.3292 10.0043 31.3391 10.028 31.3416C10.0374 31.3491 10.0493 31.3541 10.0587 31.3541Z"
       fill="#010A35"
       id="path20" />
    <path
       fill-rule="evenodd"
       clip-rule="evenodd"
       d="M4.68493 8.62175C4.66836 8.63172 4.66363 8.6616 4.65652 8.68651C4.6802 8.67903 4.70624 8.67654 4.71807 8.65911C4.73465 8.63421 4.71097 8.60432 4.68493 8.62175Z"
       fill="#010A35"
       id="path22" />
    <path
       fill-rule="evenodd"
       clip-rule="evenodd"
       d="M4.65635 8.68649C4.65169 8.68649 4.64702 8.68896 4.64468 8.68896C4.64468 8.69142 4.64468 8.69634 4.64468 8.69881C4.64702 8.69881 4.65169 8.69881 4.65402 8.69634C4.65402 8.69388 4.65402 8.68896 4.65635 8.68649Z"
       fill="#010A35"
       id="path24" />
    <path
       fill-rule="evenodd"
       clip-rule="evenodd"
       d="M4.58315 8.76122C4.58552 8.77367 4.61866 8.77865 4.64233 8.78861C4.64233 8.75873 4.64233 8.73133 4.64233 8.70145C4.60919 8.70394 4.57131 8.70892 4.58315 8.76122Z"
       fill="#010A35"
       id="path26" />
    <path
       fill-rule="evenodd"
       clip-rule="evenodd"
       d="M4.64233 8.78613C4.64233 8.79106 4.64233 8.79352 4.64233 8.79845C4.64467 8.79845 4.647 8.79845 4.647 8.79845C4.64933 8.79598 4.64933 8.79352 4.64933 8.79106C4.64933 8.7886 4.64467 8.7886 4.64233 8.78613Z"
       fill="#010A35"
       id="path28" />
    <path
       fill-rule="evenodd"
       clip-rule="evenodd"
       d="M1.44881 11.5231C1.44645 11.5231 1.44408 11.553 1.44645 11.5554C1.46538 11.5654 1.48669 11.5729 1.50563 11.5803C1.50326 11.5455 1.50089 11.5131 1.44881 11.5231Z"
       fill="#010A35"
       id="path30" />
    <path
       fill-rule="evenodd"
       clip-rule="evenodd"
       d="M1.508 11.5804C1.508 11.5853 1.51036 11.5903 1.51036 11.5978C1.5151 11.5978 1.51983 11.5978 1.52457 11.5978C1.52457 11.5928 1.5222 11.5903 1.5222 11.5853C1.5151 11.5828 1.51273 11.5804 1.508 11.5804Z"
       fill="#010A35"
       id="path32" />
    <path
       fill-rule="evenodd"
       clip-rule="evenodd"
       d="M1.08664 12.2752C1.09848 12.2652 1.10794 12.2528 1.11978 12.2428C1.10321 12.1955 1.07954 12.193 1.05823 12.2403C1.0535 12.2453 1.0748 12.2627 1.08664 12.2752Z"
       fill="#010A35"
       id="path34" />
    <path
       fill-rule="evenodd"
       clip-rule="evenodd"
       d="M0.788339 12.7209C0.776502 12.7234 0.769401 12.7583 0.762299 12.7832C0.788339 12.7832 0.816747 12.7832 0.842787 12.7832C0.838053 12.7483 0.835685 12.7085 0.788339 12.7209Z"
       fill="#010A35"
       id="path36" />
    <path
       fill-rule="evenodd"
       clip-rule="evenodd"
       d="M0.668353 12.8828C0.663362 12.8828 0.658372 12.8828 0.655877 12.8828C0.655877 12.888 0.653381 12.8959 0.653381 12.9011C0.658372 12.8985 0.663362 12.8959 0.668353 12.8959C0.665858 12.8906 0.668353 12.8854 0.668353 12.8828Z"
       fill="#010A35"
       id="path38" />
    <path
       fill-rule="evenodd"
       clip-rule="evenodd"
       d="M0.750428 12.7957C0.700714 12.8031 0.672307 12.8305 0.667572 12.8828C0.69598 12.8828 0.72202 12.8828 0.750428 12.8828C0.750428 12.8529 0.750428 12.8255 0.750428 12.7957Z"
       fill="#010A35"
       id="path40" />
    <path
       fill-rule="evenodd"
       clip-rule="evenodd"
       d="M0.653402 12.9003C0.634464 12.9077 0.615525 12.9152 0.596587 12.9252C0.591852 12.9277 0.596587 12.9551 0.596587 12.9551C0.643933 12.9625 0.648668 12.9302 0.653402 12.9003Z"
       fill="#010A35"
       id="path42" />
    <path
       fill-rule="evenodd"
       clip-rule="evenodd"
       d="M6.21659 28.3482C6.22606 28.3382 6.24263 28.3307 6.24263 28.3208C6.24263 28.3108 6.22843 28.3009 6.21896 28.2909C6.20949 28.3058 6.20002 28.3208 6.19055 28.3332C6.20239 28.3382 6.20949 28.3432 6.21659 28.3482Z"
       fill="#010A35"
       id="path44" />
    <path
       fill-rule="evenodd"
       clip-rule="evenodd"
       d="M7.7009 28.8164C7.7151 28.8537 7.73641 28.8612 7.75298 28.8363C7.75771 28.8288 7.75535 28.8164 7.75535 28.8039C7.74588 28.7989 7.73404 28.7865 7.72931 28.789C7.71747 28.794 7.7009 28.8114 7.7009 28.8164Z"
       fill="#010A35"
       id="path46" />
    <path
       fill-rule="evenodd"
       clip-rule="evenodd"
       d="M9.41247 31.115C9.4101 31.125 9.42904 31.1374 9.43614 31.1474C9.44797 31.1374 9.45744 31.1275 9.46928 31.1175C9.45981 31.105 9.45034 31.0951 9.44087 31.0826C9.4314 31.0951 9.41483 31.105 9.41247 31.115Z"
       fill="#010A35"
       id="path48" />
    <path
       fill-rule="evenodd"
       clip-rule="evenodd"
       d="M11.1785 31.3167C11.1714 31.3068 11.1595 31.2844 11.1548 31.2868C11.1122 31.3018 11.1098 31.3267 11.1501 31.3491C11.1524 31.3491 11.169 31.3267 11.1785 31.3167Z"
       fill="#010A35"
       id="path50" />
    <path
       fill-rule="evenodd"
       clip-rule="evenodd"
       d="M26.495 5.90721C26.5424 5.82503 26.5163 5.71047 26.4074 5.57599C26.3246 5.64572 26.4808 5.80012 26.495 5.90721Z"
       fill="#010A35"
       id="path52" />
    <path
       fill-rule="evenodd"
       clip-rule="evenodd"
       d="M15.7119 1.77817C15.5249 1.76073 15.9415 1.72587 15.7166 1.68353C15.7213 1.75326 15.5272 1.68851 15.4467 1.70346C15.4065 1.77817 15.6693 1.8479 15.7119 1.77817Z"
       fill="#010A35"
       id="path54" />
    <path
       fill-rule="evenodd"
       clip-rule="evenodd"
       d="M9.47637 2.35095C9.33907 2.39827 9.32486 2.46302 9.36748 2.53275C9.50478 2.48543 9.51898 2.42068 9.47637 2.35095Z"
       fill="#010A35"
       id="path56" />
    <path
       fill-rule="evenodd"
       clip-rule="evenodd"
       d="M17.6365 1.92759C17.5371 1.93755 17.4684 1.97241 17.3572 1.96743C17.3596 1.8977 16.6896 1.73832 16.5618 1.85039C16.9098 1.90268 17.227 1.94502 17.5466 2.00728C17.7075 2.03716 17.8685 2.06705 18.039 2.09693C18.2071 2.1318 18.3799 2.16916 18.5669 2.209C18.4935 2.09693 18.3159 2.06207 18.1289 2.03467C17.9443 2.00977 17.7502 2.00479 17.6365 1.92759Z"
       fill="#010A35"
       id="path58" />
    <path
       fill-rule="evenodd"
       clip-rule="evenodd"
       d="M16.4221 1.64618C16.2422 1.62875 16.2279 1.73085 16.0386 1.70346C16.1072 1.78315 15.8918 1.80806 16.0291 1.83047C16.0977 1.72587 16.3416 1.74331 16.4221 1.64618Z"
       fill="#010A35"
       id="path60" />
    <path
       fill-rule="evenodd"
       clip-rule="evenodd"
       d="M0.776515 12.6388C0.830964 12.4072 0.899616 12.2627 0.94933 12.1357C0.911453 12.1257 0.854637 12.2627 0.814393 12.3972C0.774148 12.5317 0.762312 12.6662 0.776515 12.6388Z"
       fill="#010A35"
       id="path62" />
    <path
       fill-rule="evenodd"
       clip-rule="evenodd"
       d="M7.9613 5.71798C8.04416 5.65821 8.07967 5.70553 8.17199 5.63082C8.16016 5.5561 7.90685 5.66568 7.9613 5.71798Z"
       fill="#010A35"
       id="path64" />
    <path
       fill-rule="evenodd"
       clip-rule="evenodd"
       d="M18.3727 0.458248L18.4887 0.488133C18.5053 0.450777 18.4532 0.430853 18.4651 0.395988C18.3917 0.381046 18.3325 0.376065 18.3017 0.398478C18.4177 0.418402 18.4343 0.435834 18.3727 0.458248Z"
       fill="#010A35"
       id="path66" />
    <path
       fill-rule="evenodd"
       clip-rule="evenodd"
       d="M19.3575 2.86893L19.5233 2.9287C19.5659 2.84403 19.3694 2.7992 19.3575 2.86893Z"
       fill="#010A35"
       id="path68" />
    <path
       fill-rule="evenodd"
       clip-rule="evenodd"
       d="M20.0938 2.17913C20.0701 2.14924 19.8831 2.05212 19.8476 2.08698C19.947 2.10441 20.0228 2.21897 20.0938 2.17913Z"
       fill="#010A35"
       id="path70" />
    <path
       fill-rule="evenodd"
       clip-rule="evenodd"
       d="M20.2358 3.13044C20.134 3.0881 20.0488 3.06818 19.992 3.08312C20.0725 3.09557 20.2358 3.21511 20.2358 3.13044Z"
       fill="#010A35"
       id="path72" />
    <path
       fill-rule="evenodd"
       clip-rule="evenodd"
       d="M20.6714 3.08562C20.714 3.06071 20.6406 3.0134 20.572 2.986C20.501 2.96359 20.4394 2.9611 20.5081 3.01091C20.5578 2.9611 20.5814 3.07068 20.6714 3.08562Z"
       fill="#010A35"
       id="path74" />
    <path
       fill-rule="evenodd"
       clip-rule="evenodd"
       d="M20.7354 3.1155C20.875 3.19519 20.9082 3.1678 20.9934 3.24251C21.0455 3.18274 20.7401 3.05822 20.7354 3.1155Z"
       fill="#010A35"
       id="path76" />
    <path
       fill-rule="evenodd"
       clip-rule="evenodd"
       d="M22.4161 3.94727C22.3475 3.88501 22.3191 3.88501 22.2907 3.79536C22.2765 3.82026 22.2267 3.77792 22.2102 3.79287C22.2291 3.8352 22.3404 3.96968 22.4161 3.94727Z"
       fill="#010A35"
       id="path78" />
    <path
       fill-rule="evenodd"
       clip-rule="evenodd"
       d="M23.4222 2.49042C23.337 2.45307 23.1713 2.2887 23.1618 2.37586C23.2613 2.43314 23.3867 2.53774 23.4222 2.49042Z"
       fill="#010A35"
       id="path80" />
    <path
       fill-rule="evenodd"
       clip-rule="evenodd"
       d="M23.3583 5.02563C23.4625 5.11031 23.5477 5.19498 23.6164 5.27716C23.6353 5.2174 23.4341 5.0356 23.3583 5.02563Z"
       fill="#010A35"
       id="path82" />
    <path
       fill-rule="evenodd"
       clip-rule="evenodd"
       d="M24.8403 5.04058C24.9137 5.10533 24.9799 5.15514 25.032 5.1651C25.0036 5.08292 24.8876 5.02564 24.8403 5.04058Z"
       fill="#010A35"
       id="path84" />
    <path
       fill-rule="evenodd"
       clip-rule="evenodd"
       d="M25.2403 6.24344C25.1693 6.16624 25.0486 6.08157 25.0841 6.03425C25.1385 6.06911 25.2238 6.20111 25.2569 6.17122C25.1338 5.9421 24.845 5.88233 24.6319 5.72046C24.7385 5.89479 25.0983 6.17122 25.2403 6.24344Z"
       fill="#010A35"
       id="path86" />
    <path
       fill-rule="evenodd"
       clip-rule="evenodd"
       d="M27.8444 7.37407C27.9107 7.4712 27.9817 7.42388 27.9722 7.37656L27.9012 7.27695C27.8515 7.29687 27.9083 7.3666 27.8444 7.37407Z"
       fill="#010A35"
       id="path88" />
    <path
       fill-rule="evenodd"
       clip-rule="evenodd"
       d="M28.4954 9.20952C28.3273 9.04515 28.3794 8.93806 28.2208 8.77618C28.2113 8.85339 28.4078 9.27427 28.4954 9.20952Z"
       fill="#010A35"
       id="path90" />
    <path
       fill-rule="evenodd"
       clip-rule="evenodd"
       d="M29.2837 10.8581C29.3145 10.8407 29.3429 10.8382 29.3713 10.8606C29.2648 10.6589 29.2364 10.4721 29.118 10.3177C29.1322 10.385 29.002 10.2953 28.9618 10.1733C28.9428 10.1907 28.9073 10.1932 28.9239 10.238C29.0588 10.4796 29.2435 10.5194 29.2837 10.8581Z"
       fill="#010A35"
       id="path92" />
    <path
       fill-rule="evenodd"
       clip-rule="evenodd"
       d="M29.4542 10.7336L29.5252 10.9229C29.6009 10.9577 29.4897 10.6489 29.4542 10.7336Z"
       fill="#010A35"
       id="path94" />
    <path
       fill-rule="evenodd"
       clip-rule="evenodd"
       d="M29.4045 11.2441C29.4305 11.2242 29.4779 11.2267 29.466 11.1744C29.3595 11.2118 29.4637 10.9503 29.3477 10.9652C29.369 11.0623 29.3761 11.0972 29.4045 11.2441Z"
       fill="#010A35"
       id="path96" />
    <path
       fill-rule="evenodd"
       clip-rule="evenodd"
       d="M28.2113 26.3882C28.1427 26.4306 28.1758 26.4878 28.0811 26.5949C28.1072 26.6771 28.2516 26.5999 28.2374 26.5053C28.2066 26.5426 28.1687 26.57 28.1356 26.585C28.1261 26.5451 28.2421 26.4206 28.2113 26.3882Z"
       fill="#010A35"
       id="path98" />
    <path
       fill-rule="evenodd"
       clip-rule="evenodd"
       d="M22.2693 32.0016C22.4161 31.9045 22.5676 31.8322 22.5511 31.775C22.4445 31.892 22.2457 31.9244 22.1794 32.0016C22.222 31.9817 22.2646 31.9642 22.2693 32.0016Z"
       fill="#010A35"
       id="path100" />
    <path
       fill-rule="evenodd"
       clip-rule="evenodd"
       d="M18.6379 33.456C18.7255 33.4261 18.7965 33.3887 18.8131 33.3414C18.7113 33.3713 18.5693 33.3887 18.6379 33.456Z"
       fill="#010A35"
       id="path102" />
    <path
       fill-rule="evenodd"
       clip-rule="evenodd"
       d="M15.184 34.0736C14.8928 34.1159 14.7484 34.101 14.514 34.1159C14.7081 34.1608 14.9756 34.1931 15.1484 34.1184C15.0751 34.1109 15.1627 34.096 15.184 34.0736Z"
       fill="#010A35"
       id="path104" />
    <path
       fill-rule="evenodd"
       clip-rule="evenodd"
       d="M14.7863 33.9366C14.8715 33.8918 15.0183 33.8669 15.094 33.8046C14.9141 33.827 14.8218 33.8171 14.7863 33.9366Z"
       fill="#010A35"
       id="path106" />
    <path
       fill-rule="evenodd"
       clip-rule="evenodd"
       d="M14.4738 33.9466C14.5543 33.8968 14.6348 34.0238 14.7484 33.9565C14.7531 33.9042 14.7271 33.8694 14.6679 33.847C14.5614 33.8694 14.4596 33.8968 14.3175 33.8968C14.3507 33.974 14.3223 33.9491 14.3554 34.0238C14.2915 34.0138 14.2489 34.0487 14.3152 34.0636C14.3649 34.0088 14.5472 34.0263 14.5898 33.969C14.5448 33.9665 14.4785 33.9715 14.4738 33.9466Z"
       fill="#010A35"
       id="path108" />
    <path
       fill-rule="evenodd"
       clip-rule="evenodd"
       d="M13.837 34.1508C14.0335 34.2803 13.8464 34.1782 13.9956 34.1583C14.0879 34.1458 14.2205 34.2056 14.2749 34.1284C14.0926 34.1483 14.0051 34.1085 13.837 34.1508Z"
       fill="#010A35"
       id="path110" />
    <path
       fill-rule="evenodd"
       clip-rule="evenodd"
       d="M12.6083 34.0263C12.7409 34.0387 13.0818 34.0786 13.0463 34.0462C12.8711 34.0188 12.7078 34.0014 12.6083 34.0263Z"
       fill="#010A35"
       id="path112" />
    <path
       fill-rule="evenodd"
       clip-rule="evenodd"
       d="M12.0804 33.7523C12.1775 33.7648 12.2059 33.7324 12.2769 33.7822C12.3243 33.7075 12.0544 33.6627 12.0804 33.7523Z"
       fill="#010A35"
       id="path114" />
    <path
       fill-rule="evenodd"
       clip-rule="evenodd"
       d="M11.7064 33.3464C11.839 33.3489 11.8674 33.3887 11.9384 33.3663C11.9123 33.3464 11.6827 33.2667 11.7064 33.3464Z"
       fill="#010A35"
       id="path116" />
    <path
       fill-rule="evenodd"
       clip-rule="evenodd"
       d="M11.2566 30.973C11.3584 31.0004 11.4602 31.0776 11.5501 31.0503L11.5643 30.988C11.4318 30.9531 11.3655 30.9855 11.2566 30.973Z"
       fill="#010A35"
       id="path118" />
    <path
       fill-rule="evenodd"
       clip-rule="evenodd"
       d="M9.7131 31.3167C9.83384 31.3317 9.88829 31.3939 9.95457 31.384C9.9309 31.369 9.92143 31.3516 9.93326 31.3317C9.83147 31.2943 9.71547 31.2395 9.7131 31.3167Z"
       fill="#010A35"
       id="path120" />
    <path
       fill-rule="evenodd"
       clip-rule="evenodd"
       d="M8.95557 31.6928C8.99108 31.7152 9.00054 31.7401 9.00765 31.765C9.17336 31.7824 9.22544 31.8048 9.34854 31.8073C9.19703 31.7326 9.17336 31.7476 9.07867 31.6803C9.10707 31.775 8.9603 31.643 8.95557 31.6928Z"
       fill="#010A35"
       id="path122" />
    <path
       fill-rule="evenodd"
       clip-rule="evenodd"
       d="M8.41345 29.038C8.51288 29.0878 8.56496 29.1401 8.62651 29.1924C8.69279 29.0305 8.85614 29.3717 8.9603 29.2472C8.88691 29.2273 8.7212 29.1874 8.77565 29.1077C8.89875 29.0978 9.05263 29.3045 9.08814 29.1949C8.89402 29.1202 8.76855 29.0679 8.64545 28.9359C8.72357 29.0953 8.53182 28.9658 8.5981 29.1028C8.53655 29.0804 8.42292 28.9558 8.41345 29.038Z"
       fill="#010A35"
       id="path124" />
    <path
       fill-rule="evenodd"
       clip-rule="evenodd"
       d="M4.95719 28.8562C4.86723 28.911 4.9927 29.0056 5.06845 29.0181C4.97376 28.9508 5.04952 28.9235 4.95719 28.8562Z"
       fill="#010A35"
       id="path126" />
    <path
       fill-rule="evenodd"
       clip-rule="evenodd"
       d="M3.7238 28.2984C3.8256 28.3307 3.59123 28.0344 3.52021 28.007C3.51784 28.0991 3.48233 28.1788 3.52021 28.2859C3.57229 28.276 3.61254 28.2212 3.68356 28.2834C3.69303 28.3332 3.92266 28.6296 3.95817 28.5574C3.89662 28.4553 3.81139 28.3905 3.7238 28.2984Z"
       fill="#010A35"
       id="path128" />
    <path
       fill-rule="evenodd"
       clip-rule="evenodd"
       d="M9.45508 29.9146C9.45745 29.9146 9.45981 29.9171 9.46218 29.9171C9.45981 29.9146 9.45745 29.9146 9.45745 29.9121L9.45508 29.9146Z"
       fill="#010A35"
       id="path130" />
    <path
       fill-rule="evenodd"
       clip-rule="evenodd"
       d="M16.5144 32.9903L16.5168 33.0077C16.5783 32.9928 16.6399 32.9753 16.6991 32.9604C16.6375 32.9703 16.576 32.9803 16.5144 32.9903Z"
       fill="#010A35"
       id="path132" />
    <path
       fill-rule="evenodd"
       clip-rule="evenodd"
       d="M31 17.0243C30.974 16.5711 30.9479 16.1253 30.9243 15.6945C30.9172 15.5874 30.9101 15.4803 30.903 15.3757C30.8888 15.2711 30.8769 15.1665 30.8627 15.0644C30.8343 14.8602 30.8083 14.661 30.7822 14.4692C30.6852 14.3148 30.7017 13.732 30.5124 13.6C30.5029 13.3684 30.5005 13.2863 30.4058 13.0746C30.536 13.1343 30.3537 12.8255 30.4508 12.8455C30.3632 12.6736 30.3987 12.4296 30.3064 12.3698C30.3514 12.6238 30.4461 12.7658 30.3727 12.8679C30.3372 12.6263 30.2188 12.3947 30.2638 12.2079C30.1951 12.0286 29.9986 11.7223 30.0247 11.548C29.9324 11.5629 29.9679 11.3313 29.8779 11.2541C29.84 11.2516 29.8519 11.3313 29.8235 11.279C29.7311 11.1445 29.743 10.9229 29.6554 10.8183C29.6696 10.8656 29.6838 10.9104 29.6459 10.9129C29.5891 10.8008 29.6364 10.7859 29.5796 10.6738C29.5133 10.6888 29.6104 10.8531 29.608 10.9303C29.6956 10.9826 29.859 11.4234 29.8329 11.4982C29.7548 11.3786 29.6933 11.3562 29.7051 11.1993C29.6435 11.1943 29.6956 11.2915 29.6577 11.3089C29.7027 11.4359 29.7643 11.4135 29.8093 11.5529C29.7501 11.548 29.7004 11.4733 29.6435 11.4459C29.6862 11.5853 29.7548 11.5181 29.7998 11.6451C29.7785 11.6949 29.698 11.5554 29.724 11.675C29.7406 11.6874 29.7524 11.7024 29.7595 11.7198C29.7477 11.7223 29.7359 11.7248 29.724 11.7298C29.7004 11.7422 29.6743 11.7572 29.6506 11.7696C29.6554 11.7522 29.6649 11.7397 29.6814 11.7323C29.6199 11.6277 29.6317 11.6052 29.6199 11.4957C29.5749 11.5156 29.6104 11.6874 29.6364 11.7771C29.5844 11.807 29.5323 11.8344 29.4778 11.8618C29.4731 11.8642 29.4636 11.8568 29.4542 11.8468C29.4447 11.8095 29.4329 11.7746 29.421 11.7372C29.4186 11.6949 29.4115 11.6526 29.3737 11.6202C29.3287 11.5081 29.2932 11.3985 29.3405 11.3139C29.2151 11.2491 29.0707 10.7386 29.0872 10.6016C29.0399 10.6116 28.9854 10.5443 28.9381 10.4646C28.9381 10.4348 28.9381 10.4074 28.9428 10.3775C28.9476 10.3376 28.9168 10.3227 28.8765 10.3327C28.8481 10.2579 28.8363 10.1982 28.8529 10.1882C28.7937 10.1309 28.7369 10.0712 28.6777 10.0064C28.6587 9.9566 28.6398 9.90679 28.6185 9.85699C28.6232 9.85699 28.628 9.85948 28.6327 9.86197C28.5593 9.69511 28.4836 9.5407 28.4031 9.39128C28.4007 9.38879 28.4007 9.3863 28.3983 9.38381C28.2232 9.04263 28.0196 8.7114 27.7947 8.40508C27.7166 8.26562 27.6361 8.11869 27.5508 7.95681C27.5248 7.97923 27.4917 7.96428 27.4585 7.92942C27.4419 7.77003 27.2857 7.60816 27.1579 7.46372C27.1271 7.35414 27.0774 7.24954 27.0135 7.14744C27.0182 7.13996 27.0229 7.13249 27.0324 7.12502C26.9874 7.06276 26.9685 7.05529 26.9543 7.06276C26.9353 7.03537 26.914 7.01046 26.8951 6.98556C26.8099 6.87598 26.7152 6.7689 26.6276 6.66181C26.5353 6.55721 26.4477 6.45261 26.379 6.34304C26.166 5.99189 25.9529 5.63078 25.7114 5.28711C25.4605 4.95589 25.1788 4.64459 24.8071 4.44785C24.7337 4.38559 24.729 4.49516 24.6627 4.44536C24.4449 4.23118 24.1561 4.03693 23.8649 3.83023C23.5619 3.64345 23.2589 3.43924 22.9701 3.26491C22.5676 3.00093 22.2173 2.66472 21.7651 2.48791C21.5 2.39327 21.2609 2.32603 21.036 2.30611C20.8111 2.28867 20.6028 2.3086 20.4063 2.37584C20.0133 2.20151 19.457 2.39327 19.1043 2.10688C19.0167 2.11933 19.0072 2.21396 18.8628 2.16415C18.7586 2.14174 18.7705 2.09193 18.7208 2.05707C18.6971 2.17163 18.7563 2.15917 18.6734 2.24136C18.9788 2.26875 19.1114 2.32603 19.3883 2.29615C19.457 2.32852 19.4736 2.37086 19.5848 2.39825C20.2003 2.40821 20.9342 2.46798 21.7083 2.74193C22.4516 3.01587 23.0695 3.58119 23.614 3.74307C23.7134 3.82774 23.6069 3.89249 23.6684 3.97218C23.9667 4.05685 24.0875 4.34325 24.3834 4.53252C24.587 4.67447 24.8403 4.6944 25.0604 4.87619C25.2782 5.06796 25.4274 5.25723 25.5836 5.45646C25.7327 5.66067 25.8866 5.87484 26.1115 6.12139C26.1139 6.13633 26.1162 6.14879 26.1186 6.16373C26.0097 6.06909 25.934 5.97944 25.7611 5.83998C25.7848 5.79515 25.8511 5.90473 25.8795 5.87982C25.754 5.74285 25.6428 5.65818 25.5481 5.57102C25.4534 5.48136 25.3753 5.39171 25.3066 5.25224C25.2545 5.33692 25.1149 5.16757 25.0486 5.20742C25.1954 5.35435 25.3847 5.53864 25.3824 5.69304C25.238 5.61086 25.2616 5.47389 25.1764 5.46891C25.2664 5.64822 25.3729 5.74534 25.4984 5.83749C25.6238 5.92963 25.7493 6.03174 25.8913 6.20109C25.8724 6.2235 25.8487 6.22101 25.8227 6.21603C25.8961 6.353 26.0429 6.44514 26.1518 6.52733C26.1754 6.56717 26.2038 6.60453 26.2299 6.64189C26.2109 6.62943 26.192 6.61947 26.1683 6.61449C26.192 6.66679 26.2228 6.72158 26.2417 6.77388C26.2204 6.76142 26.2015 6.75395 26.1896 6.75644C26.2157 6.78384 26.2393 6.81123 26.2607 6.83863C26.2654 6.86602 26.2678 6.89341 26.2607 6.91583C26.0713 6.80625 25.8961 6.75395 25.7256 6.71162C25.6996 6.67177 25.6807 6.63192 25.6665 6.59706L25.6238 6.64189C25.6499 6.6643 25.6665 6.68422 25.6807 6.70165C25.6546 6.69667 25.6309 6.6892 25.6049 6.68422C25.5931 6.67177 25.5812 6.65932 25.5718 6.64438C25.5931 6.62196 25.5528 6.51986 25.522 6.58959C25.5552 6.62445 25.5623 6.64936 25.5505 6.66928C25.4913 6.63192 25.4226 6.60951 25.3753 6.5597C25.3232 6.50491 25.3043 6.41775 25.2616 6.35549C25.2025 6.27082 25.0249 6.27082 24.9847 6.36794C24.9705 6.40032 24.9563 6.42771 24.9397 6.4576C24.8852 6.42771 24.8308 6.39285 24.7763 6.35549C24.7977 6.25089 24.7834 6.14381 24.7385 6.03672C24.7314 6.02178 24.684 6.01929 24.6556 6.01929C24.6438 6.01929 24.6248 6.03174 24.6201 6.04419C24.6177 6.04917 24.6154 6.05415 24.613 6.06162C24.5301 6.02427 24.4449 5.97446 24.4236 5.86986C24.3999 5.89726 24.3881 5.92465 24.3976 5.95952C24.4615 6.00434 24.523 6.0417 24.5964 6.1189C24.5964 6.12637 24.5964 6.13384 24.5988 6.13633C24.6343 6.17369 24.6509 6.21603 24.6651 6.25836C24.497 6.08902 24.3408 5.94707 24.1869 5.83998C24.1514 5.81507 24.1159 5.79515 24.0827 5.77274C24.0875 5.76776 24.0922 5.76278 24.0969 5.7578C24.0875 5.74534 24.078 5.73289 24.0685 5.72044C24.059 5.7304 24.0496 5.73787 24.0425 5.74783C23.9312 5.68059 23.8247 5.62829 23.7205 5.58347C23.6826 5.54113 23.6471 5.50377 23.6187 5.46891C23.5808 5.43902 23.5382 5.41412 23.4956 5.38673C22.8707 4.78654 22.0516 4.20628 21.1544 3.78042C20.1743 3.30476 19.1208 3.01587 18.2402 2.91625C18.039 2.81664 17.8496 2.74193 17.6413 2.6971C17.4329 2.64978 17.2104 2.61492 16.9453 2.61492C16.673 2.35841 16.138 2.32105 15.6172 2.35093C15.487 2.35841 15.3568 2.36588 15.2313 2.37335C15.1059 2.38331 14.9828 2.39576 14.8691 2.40074C14.6395 2.40821 14.4406 2.40074 14.2939 2.34844C14.0453 2.67469 13.2073 2.59499 12.9137 2.48542C12.8782 2.60246 12.7551 2.65476 12.6107 2.67469C12.4663 2.6971 12.2982 2.69461 12.1657 2.68465C12.1562 2.63982 12.3598 2.54269 12.1467 2.5925C12.0449 2.60495 12.0544 2.65476 12.007 2.68714C11.9029 2.63733 11.7727 2.61492 11.7088 2.53024C11.517 2.55764 11.5052 2.63982 11.3134 2.66721C11.3489 2.5925 11.3679 2.51281 11.4791 2.46051C11.7443 2.34844 11.8035 2.43561 11.9573 2.44059C11.936 2.36339 11.839 2.36339 11.9834 2.30611C12.0899 2.48542 12.3053 2.18906 12.4687 2.33599C12.374 2.3609 12.3006 2.39078 12.2745 2.44059C12.4687 2.36837 12.7054 2.29864 12.8758 2.23887C12.8214 2.24883 12.7433 2.24385 12.819 2.21645C11.8792 2.1791 11.0009 2.35841 10.1747 2.66223C9.34618 2.96855 8.56733 3.3969 7.78375 3.90743C7.66065 3.89249 7.4831 3.97965 7.31029 4.05187C6.89601 4.42045 6.57879 4.64708 6.64981 5.00819C7.15641 4.62217 7.53518 4.26605 8.43713 3.78789C8.65729 3.75801 8.85141 3.79287 8.96504 3.93732C8.30693 4.39555 7.47126 4.65704 6.90548 5.20244C6.82499 5.28213 6.81552 5.34439 6.73503 5.41163C6.245 5.82255 5.95855 5.97695 5.61529 6.2484C4.94771 6.77637 4.38665 7.51601 3.84454 8.17597C3.72617 8.3229 3.50128 8.38765 3.48707 8.63171C3.65042 8.46236 3.8185 8.28306 3.95817 8.10375C4.10257 7.92693 4.23278 7.76007 4.31563 7.61065C4.50028 7.45375 4.74885 7.23958 4.98558 7.0005C5.23652 6.77637 5.48035 6.52733 5.69578 6.34304C5.81888 6.27082 5.93488 6.1961 6.04614 6.12139C6.15977 6.04917 6.2663 5.97695 6.37046 5.90224C6.57642 5.74783 6.77764 5.59841 6.9836 5.44151C7.39551 5.12772 7.84293 4.80646 8.45607 4.52754C8.591 4.6421 8.71647 4.5375 8.92006 4.45034C8.98635 4.62467 9.16389 4.61968 9.38879 4.53252C9.49295 4.43041 9.26095 4.45283 9.36985 4.36815C9.51899 4.35819 9.66103 4.35819 9.73205 4.47524C9.61368 4.52754 9.48822 4.60474 9.41246 4.59229C9.51189 4.70934 9.76993 4.56739 9.83858 4.73673C9.63262 4.85378 9.44087 4.98826 9.25622 5.12025C9.0763 5.26221 8.90112 5.40167 8.73068 5.54362C8.38978 5.83251 8.05599 6.10894 7.66538 6.34304C7.52098 6.34553 7.40025 6.28078 7.244 6.31315C7.24163 6.48001 7.55412 6.33308 7.66302 6.42273C7.58253 6.54725 7.45706 6.66928 7.34343 6.79629C7.31029 6.83614 7.27714 6.87598 7.244 6.91334C7.2369 6.91583 7.2298 6.91832 7.22033 6.92081C7.07356 6.95817 6.90311 7.01046 6.83682 7.17234C6.82499 7.19973 6.81078 7.22464 6.79895 7.24954C6.68768 7.3392 6.58589 7.42885 6.49356 7.5185C6.48883 7.52099 6.48409 7.52348 6.47699 7.52598C6.46752 7.54092 6.45569 7.55088 6.44622 7.56333C6.42965 7.58076 6.40834 7.5982 6.39177 7.61812C6.2734 7.71525 6.12189 7.72023 5.96802 7.71774C5.91357 7.71774 5.88516 7.75011 5.87096 7.80241C5.86149 7.83229 5.84729 7.86467 5.82835 7.88708C5.781 7.94187 5.73839 8.039 5.64843 7.93689C5.56558 7.95681 5.52296 8.02405 5.49456 8.09628C5.44247 8.23076 5.37146 8.32539 5.21758 8.31543C5.18917 8.31294 5.15129 8.32539 5.13236 8.34531C5.02583 8.46485 4.86958 8.53957 4.81987 8.70891C4.7891 8.81849 4.70387 8.79608 4.63522 8.80853C4.62338 8.83592 4.61391 8.87328 4.59734 8.88075C4.36298 8.95546 4.1878 9.11236 4.02209 9.29167C3.93449 9.3863 3.85401 9.47845 3.72854 9.53074C3.56046 9.60296 3.3616 9.66772 3.39475 9.93917C3.39948 9.97403 3.34267 10.0189 3.30952 10.0562C3.25271 10.116 3.19589 10.1708 3.13434 10.2256C3.10357 10.253 3.07516 10.3177 3.02545 10.2554C2.9923 10.2131 2.90708 10.1882 2.97336 10.1035C2.9923 10.0786 3.00651 10.0463 3.00651 10.0164C3.00651 9.98649 2.98757 9.9566 2.9781 9.92921C2.9639 9.93917 2.95206 9.94664 2.93785 9.9566C2.83369 10.0388 2.76977 10.1583 2.77688 10.2828C2.78161 10.3476 2.79818 10.3949 2.75084 10.4447C2.67272 10.5244 2.6017 10.6166 2.47623 10.6141C2.32472 10.6116 2.43598 10.7012 2.42415 10.756C2.40047 10.8606 2.34366 10.9976 2.2608 11.0424C2.18742 11.0698 2.1306 11.1321 2.08325 11.2018C2.10219 11.1072 2.1235 11.0125 2.15901 10.9204C2.35313 10.3576 2.82186 9.75239 3.01361 9.19454C3.24797 9.11236 3.06096 9.02768 3.31899 8.82347C3.28822 8.75125 3.25034 8.61428 3.17459 8.65412C3.14144 8.64416 3.10357 8.67654 3.06569 8.70891C2.95206 9.0227 2.76978 9.2045 2.69639 9.50086C2.13533 10.1035 1.81575 10.8208 1.58375 11.5953C1.56244 11.5978 1.54351 11.6003 1.51983 11.5978C1.5222 11.6301 1.53877 11.6551 1.56008 11.67C1.55534 11.6874 1.55061 11.7024 1.54587 11.7198C1.52457 11.7945 1.50563 11.8692 1.48669 11.9439C1.44645 11.9713 1.4062 11.9962 1.36122 12.0186C1.28073 12.056 1.22629 12.1307 1.22392 12.2478C1.21918 12.5815 1.21208 12.584 0.923269 12.7583C0.899596 12.7732 0.873555 12.7807 0.847515 12.7882C0.840413 12.8479 0.809638 12.8828 0.755189 12.8903C0.762291 12.97 0.880657 13.0447 0.755189 13.1319C0.691272 13.1767 0.634456 13.2414 0.594212 13.3112C0.577641 13.341 0.561069 13.3684 0.542131 13.3958C0.542131 13.3834 0.539764 13.3734 0.537396 13.3635C0.532662 13.3834 0.52556 13.4083 0.518458 13.4307C0.492417 13.4631 0.461642 13.493 0.416663 13.5179C0.326705 13.5677 0.411928 13.6598 0.447438 13.7271C0.300665 13.9138 0.449805 14.1903 0.276991 14.3696C0.274624 14.5016 0.29593 14.641 0.265155 14.7656C0.229645 14.9075 0.16336 15.0345 0.184666 15.1914C0.201237 15.306 0.142054 15.3757 0.0378925 15.4081C0.0236886 15.418 1.5475e-05 15.4778 0.00948474 15.4927C0.0757696 15.5998 0.0331579 15.6995 0.00711742 15.8016C0.127851 15.9585 0.0994427 16.1477 0.0923408 16.327C0.0852388 16.5038 0.13732 16.6931 0.00948474 16.8525C-0.0141884 16.8824 0.0118521 16.9521 0.0615657 16.972C0.120749 16.9969 0.182299 17.0119 0.177564 17.0991C0.175197 17.1663 0.177564 17.231 0.182299 17.2983C0.19887 17.5722 0.146789 17.8561 0.276991 18.1201C0.293563 18.1525 0.267522 18.2148 0.253318 18.2596C0.239114 18.2994 0.187033 18.3268 0.23438 18.3816C0.307767 18.4638 0.288828 18.5684 0.281726 18.6655C0.267522 18.8747 0.26989 18.9693 0.314869 19.054C0.381153 19.181 0.433234 19.3205 0.549233 19.4176C0.594212 19.455 0.64866 19.5197 0.651027 19.5745C0.658129 19.7264 0.686537 19.8659 0.755189 19.9954C0.726781 20.2544 0.845147 20.4686 0.951676 20.6852C0.96588 20.7126 0.989554 20.7624 0.999023 20.7599C1.18131 20.7101 1.20971 20.9094 1.32098 20.9716C1.43224 21.0339 1.54824 21.0912 1.66424 21.1484C1.68554 21.2032 1.70685 21.2605 1.72816 21.3178C1.72105 21.3352 1.72579 21.3502 1.74473 21.3601C1.76367 21.4149 1.7826 21.4722 1.80154 21.532C1.73526 21.6042 1.69028 21.6714 1.7613 21.7984C1.83705 21.9329 1.86309 22.0998 1.90097 22.2542C1.91281 22.3065 1.92701 22.3513 1.97199 22.3662C2.03827 22.3887 2.07852 22.4036 2.03354 22.4932C2.0004 22.563 2.01697 22.6701 1.97199 22.7249C1.86073 22.8568 2.0075 22.9291 2.01934 23.0312C2.02407 23.0835 2.10456 23.0785 2.1377 23.0511C2.22529 22.9789 2.29631 22.8892 2.38154 22.817C2.46439 22.7473 2.41705 22.6975 2.391 22.6178C2.33892 22.4609 2.3697 22.294 2.391 22.1297C2.39337 22.1172 2.40994 22.1072 2.41941 22.0948C2.43125 22.1072 2.45019 22.1197 2.45019 22.1321C2.45729 22.2641 2.58039 22.3139 2.62774 22.4136C2.65141 22.4609 2.53541 22.5381 2.62774 22.5655C2.76978 22.6078 2.82659 22.7099 2.87157 22.8394C2.92602 22.9913 2.9781 23.1432 3.04202 23.2902C3.11067 23.452 3.19116 23.6114 3.26691 23.7708C3.28585 23.8132 3.32136 23.863 3.31663 23.9028C3.29532 24.0722 3.37107 24.1967 3.4847 24.2888C3.60544 24.3859 3.60544 24.508 3.60307 24.6449C3.6007 24.7271 3.58887 24.8143 3.65515 24.8766C3.78535 24.9986 3.83033 25.1779 3.92266 25.3248C3.9629 25.3896 3.97237 25.2949 3.98894 25.2626C4.00078 25.2377 4.02209 25.2177 4.03866 25.1953C4.04813 25.2078 4.06706 25.2227 4.06706 25.2352C4.06233 25.4294 4.11441 25.6212 4.01498 25.8129C3.94633 25.9449 3.98894 26.0919 4.06943 26.2313C4.20437 26.4629 4.22094 26.4978 4.43163 26.5725C4.60918 26.6348 4.63996 26.6696 4.64469 26.8415C4.64942 26.9909 4.63285 27.1428 4.77016 27.2474C4.79383 27.2648 4.8246 27.2997 4.8246 27.3271C4.82224 27.5587 4.98795 27.6758 5.12052 27.8127C5.21995 27.9148 5.30044 28.0493 5.45194 28.0842C5.5206 28.2361 5.6437 28.3407 5.73839 28.4702C5.84255 28.6146 6.05324 28.6246 6.10532 28.8238C6.11243 28.8562 6.1503 28.8462 6.16687 28.8039C6.17871 28.774 6.17634 28.7392 6.19055 28.7093C6.19528 28.6993 6.20238 28.6894 6.20712 28.6794C6.2805 28.7417 6.36336 28.8039 6.44385 28.8637C6.38703 28.8039 6.32075 28.6968 6.2521 28.6047C6.25446 28.5972 6.2592 28.5922 6.2592 28.5848C6.2734 28.5051 6.21659 28.4802 6.1503 28.4602C6.11006 28.4478 6.05798 28.4079 6.04377 28.3706C6.0343 28.3432 6.0201 28.3208 6.00826 28.2959C6.01537 28.2959 6.02483 28.2984 6.0343 28.3008C6.01773 28.2784 6.00353 28.2685 5.98932 28.2585C5.90884 28.1265 5.7881 28.0294 5.70525 27.8999C5.64606 27.8053 5.54427 27.7106 5.54427 27.6135C5.5419 27.494 5.62476 27.3744 5.66974 27.2549C5.68631 27.2101 5.70051 27.1652 5.71945 27.1204C5.72419 27.1055 5.73839 27.093 5.75023 27.083C5.80231 27.0457 5.76443 27.0656 5.77627 27.1204C5.80231 27.2449 5.86622 27.2748 5.97512 27.2723C6.07692 27.2698 6.04851 27.3221 6.02247 27.3919C5.98222 27.5039 6.09822 27.4491 6.13373 27.484C6.16924 27.5164 6.17634 27.5487 6.13136 27.5537C5.97986 27.5637 6.02247 27.6484 6.05798 27.7355C5.97986 27.8127 5.97749 27.9099 6.00116 28.0095C6.00353 28.0244 6.01537 28.0443 6.0272 28.0493C6.03667 28.0543 6.05561 28.0394 6.06508 28.0294C6.09822 27.9945 6.14793 27.9622 6.1574 27.9198C6.20238 27.7305 6.31128 27.6583 6.49356 27.6583C6.56222 27.6957 6.63087 27.7156 6.68532 27.6982C6.66638 27.743 6.65691 27.7853 6.67111 27.8327C6.65928 27.8252 6.65217 27.8202 6.64981 27.8177C6.65928 27.8302 6.67111 27.8401 6.68058 27.8526C6.69005 27.875 6.70425 27.8949 6.73029 27.9173C6.75634 27.9397 6.74687 27.9895 6.73029 28.0344C6.70662 28.0169 6.68295 27.997 6.65454 27.9796C6.69005 27.8974 6.53144 27.7231 6.52197 27.8227C6.68295 27.8426 6.51724 27.9148 6.55038 27.9497C6.60483 27.9796 6.64981 28.0418 6.69952 28.1016C6.65454 28.2012 6.61666 28.3058 6.58352 28.4104C6.53144 28.5773 6.53381 28.7367 6.69005 28.8512C6.83682 28.9583 6.8747 29.1077 6.84629 29.2846C6.83919 29.3319 6.84866 29.3842 6.84156 29.434C6.83919 29.4564 6.84156 29.4763 6.84156 29.4962C6.81789 29.4913 6.79184 29.4863 6.76344 29.4763C6.79184 29.5062 6.82025 29.5286 6.84866 29.5485C6.85103 29.5635 6.85576 29.5784 6.8605 29.5909C6.67348 29.4937 6.48173 29.3319 6.28761 29.1575C6.1361 29.0181 5.98222 28.8736 5.83782 28.7392C5.69814 28.5997 5.57031 28.4652 5.44484 28.3706C5.49219 28.4154 5.30044 28.3133 5.24835 28.2137C5.24835 28.3855 5.5206 28.6918 5.56321 28.9284C5.67684 29.038 5.74549 29.1302 5.7597 29.2198C5.80941 29.2597 5.85202 29.287 5.88753 29.2945C5.83071 29.4688 6.53617 29.952 6.3965 29.9993C6.52197 30.0541 6.6356 30.0715 6.80605 30.1811C6.84393 30.1462 6.77291 30.1064 6.82735 30.0715C6.91495 30.1313 6.98833 30.1662 7.03331 30.1537C6.84866 30.0242 6.77291 30.0989 6.60956 30.0043C6.67111 29.9595 6.60009 29.8698 6.52434 29.8623C6.43911 29.8897 6.61903 29.9495 6.58115 29.9819C6.53381 29.947 6.53144 30.0093 6.46989 29.9495C6.59062 29.8997 6.21895 29.7702 6.19055 29.6332C6.21659 29.6033 6.24736 29.5909 6.29471 29.6083C6.4912 29.7951 6.42965 29.6581 6.54328 29.693C6.64034 29.7528 6.59062 29.8001 6.65691 29.8573C6.72556 29.7851 6.8889 29.8897 7.0049 29.9868C7.16825 30.0466 7.33869 30.0591 7.4973 30.079C7.50677 30.0865 7.51388 30.0939 7.52335 30.1014C7.6133 30.1861 7.71983 30.2533 7.82163 30.3255C7.8453 30.343 7.87844 30.328 7.88081 30.2857C7.88554 30.1886 7.92579 30.0765 7.8595 29.9993C7.76955 29.8947 7.70089 29.7478 7.52571 29.7627C7.48784 29.7652 7.43102 29.7353 7.40735 29.7005C7.3742 29.6506 7.34343 29.5983 7.31029 29.5485C7.31739 29.5436 7.32923 29.5411 7.34343 29.5361C7.31739 29.5236 7.29845 29.5112 7.27951 29.4987C7.2298 29.419 7.18245 29.3369 7.13274 29.2547C7.18008 29.1202 7.2227 28.9832 7.27714 28.8512C7.29845 28.8039 7.31029 28.7616 7.29608 28.7143C7.29135 28.7018 7.27004 28.6819 7.27004 28.6819C7.09723 28.8288 7.06882 28.6171 6.98833 28.5524C6.92678 28.5051 6.92441 28.4254 6.92915 28.3507C7.03094 28.3133 7.07119 28.52 7.18719 28.4702C7.19666 28.4802 7.20849 28.4926 7.22033 28.5026C7.28425 28.5997 7.39551 28.7192 7.52098 28.8114C7.65118 28.911 7.77428 28.9982 7.83346 29.0529C7.82399 29.0305 7.89265 29.0007 7.91632 29.0106C7.98024 29.1152 8.3164 29.1625 8.16015 29.1874C8.26195 29.2621 8.30929 29.2273 8.36848 29.2173C8.11754 29.1152 7.92105 28.9434 7.73877 28.921C7.708 28.8014 7.54939 28.7267 7.43102 28.647C7.38604 28.6146 7.3458 28.5872 7.31502 28.5574C7.33396 28.5549 7.35763 28.5424 7.37657 28.5349C7.38367 28.5325 7.38841 28.5076 7.38367 28.5001C7.36947 28.4702 7.34343 28.4478 7.33396 28.4179C7.31976 28.3731 7.30555 28.3183 7.35763 28.2884C7.39788 28.266 7.44286 28.256 7.48784 28.2909C7.52334 28.3183 7.56122 28.3382 7.5991 28.3606C7.60383 28.4104 7.59673 28.4677 7.6204 28.5026C7.64171 28.5349 7.69616 28.5499 7.73877 28.5574C7.80269 28.5673 7.86661 28.5599 7.92816 28.5798C7.89738 28.5922 7.86424 28.5872 7.93999 28.6321C7.9684 28.6321 8.00154 28.6371 8.03469 28.647C8.04652 28.6545 8.05836 28.657 8.0702 28.6595C8.24774 28.7242 8.45843 28.8911 8.59337 28.916C8.51052 28.8587 8.43003 28.8064 8.3519 28.7516C8.39925 28.7541 8.4466 28.7541 8.49631 28.7516C8.50815 28.7516 8.52235 28.7342 8.52709 28.7217C8.52945 28.7167 8.51998 28.6968 8.51288 28.6918C8.4466 28.6445 8.37795 28.647 8.31166 28.6918C8.30456 28.6968 8.30219 28.7068 8.29746 28.7167C8.25248 28.6869 8.20987 28.6545 8.16725 28.6246C8.20987 28.5922 8.25011 28.5549 8.30219 28.5648C8.35664 28.5748 8.41346 28.5723 8.47027 28.5673C8.51998 28.6196 8.57443 28.6694 8.63598 28.6993C8.65255 28.6445 8.74725 28.7491 8.75435 28.6744C8.76145 28.657 8.75672 28.6395 8.74725 28.6221C8.84194 28.6744 8.93427 28.6669 9.03133 28.6644C9.13312 28.662 9.19704 28.6794 9.23491 28.8064C9.25385 28.8711 9.29883 28.921 9.36038 28.9484C9.35091 28.9857 9.38642 29.0305 9.4314 29.0754C9.32961 29.0704 9.29173 29.1725 9.16626 29.1302C9.21834 29.16 9.25622 29.1899 9.26332 29.2248C9.22308 29.2572 9.13549 29.2123 9.10708 29.2621C9.22308 29.292 9.35091 29.3742 9.46691 29.4863C9.50716 29.3817 9.67523 29.5062 9.72258 29.5411C9.66577 29.5784 9.57818 29.5485 9.50479 29.4813C9.52373 29.5959 9.37932 29.4514 9.37695 29.5361C9.48585 29.6183 9.88829 29.546 9.97825 29.7702C9.72021 29.6332 9.63499 29.7029 9.46218 29.6706C9.37459 29.7627 9.40299 29.8374 9.47401 29.9047L9.49532 29.8499C9.5616 29.8723 9.56871 29.9022 9.60658 29.9271C9.58054 29.9345 9.55687 29.9445 9.59238 29.9669C9.56634 30.0118 9.55213 29.9221 9.48112 29.9096C9.57107 29.9918 9.72021 30.064 9.80544 30.1512C10.08 30.2259 10.4422 30.4899 10.6719 30.4974C10.5819 30.4376 10.357 30.3928 10.3618 30.2708C10.4588 30.196 10.5298 30.3878 10.5914 30.3106C10.4636 30.2334 10.3902 30.2583 10.3641 30.1587C10.4044 30.1736 10.4044 30.1338 10.4375 30.1413C10.5535 30.211 10.6766 30.3206 10.6411 30.3729C10.6506 30.3056 10.7145 30.4575 10.7405 30.3878C10.7003 30.3529 10.7145 30.3056 10.7074 30.2633C10.5559 30.2135 10.4659 30.1462 10.4636 30.0616C10.6624 30.0441 10.795 30.1487 10.9441 30.1637C10.9725 30.2234 11.008 30.2782 11.053 30.3255C11.0933 30.3679 11.1359 30.3579 11.1808 30.3405C11.2187 30.3255 11.24 30.2633 11.2968 30.3006C11.375 30.3504 11.4697 30.3828 11.5336 30.4476C11.678 30.602 11.8461 30.7066 12.0354 30.7838C12.0378 30.7838 12.0378 30.7863 12.0378 30.7888C12.0331 30.7962 12.026 30.8037 12.0236 30.8137C11.8437 30.7838 11.7159 30.8311 11.5359 30.7315C11.543 30.7489 11.5573 30.7564 11.5691 30.7688C11.4555 30.7439 11.3395 30.7215 11.2211 30.6991C11.1406 30.8286 11.356 30.6966 11.3466 30.8037C11.2708 30.8236 11.0222 30.7663 11.0175 30.6767C11.0743 30.7041 11.1335 30.7315 11.1879 30.7489C11.1714 30.7016 11.0956 30.6717 11.0293 30.6418V30.6393C11.027 30.6393 11.0222 30.6368 11.0199 30.6368C10.9796 30.6169 10.9417 30.597 10.9252 30.5671C10.9015 30.5796 10.7429 30.5547 10.8139 30.5945C10.8163 30.5945 10.8234 30.597 10.8258 30.5995C10.589 30.5447 10.3689 30.46 10.1582 30.3953C9.89066 30.3006 9.63499 30.2259 9.36985 30.2259C9.31777 30.1089 9.21361 30.064 9.10471 30.0541C8.823 29.9669 8.60521 29.7876 8.45844 29.6357C8.36848 29.7478 8.23591 29.4464 8.10334 29.4415C8.1057 29.4091 8.0844 29.3892 8.13174 29.3867C7.85003 29.3667 7.8311 29.043 7.53518 28.9384C7.64881 29.028 7.37184 28.9683 7.59673 29.1003C7.65828 29.0828 7.56359 28.9857 7.63934 29.028C7.56832 29.1326 7.81689 29.2597 7.8524 29.4091C8.06783 29.4066 8.17672 29.6083 8.40399 29.7478C8.40872 29.7951 8.40872 29.9395 8.51052 29.9196C8.38268 29.8648 8.56496 29.8648 8.58627 29.8399C8.70937 29.8997 8.8088 29.9868 8.91059 30.0641C8.83957 30.079 8.78039 30.1014 8.74725 30.1238C8.77565 30.1363 8.80169 30.1462 8.8301 30.1587C8.82774 30.1811 8.83247 30.1936 8.79223 30.2209C8.9248 30.3156 8.95794 30.2608 9.03369 30.2708C8.93663 30.3778 9.36985 30.4949 9.45271 30.6144C9.46218 30.5696 9.50005 30.5671 9.57107 30.5945C9.5474 30.6169 9.51899 30.6119 9.54977 30.6543C10.1724 30.8809 10.7476 31.0552 11.3182 31.2345C11.5288 31.2196 12.1017 31.3018 12.0354 31.506C12.7291 31.7376 13.4724 31.7849 14.2513 31.8546C14.514 31.7575 14.836 31.8073 15.0751 31.8297C15.0396 31.8248 15.1461 31.7774 15.2124 31.8023C15.4586 31.887 15.0443 31.9717 14.8384 31.9617C15.0183 31.9592 14.8431 32.1012 14.8076 32.151C14.4146 32.1908 14.095 32.1734 13.7494 32.2108C13.6571 32.1983 13.6476 32.1435 13.5411 32.1361C13.3872 32.2108 13.2333 32.0564 13.0534 32.0514C12.9492 32.0464 12.864 32.1286 12.7622 32.1136C12.6462 32.0987 12.5539 31.9966 12.4568 31.9817C12.3976 31.9717 12.2911 31.9941 12.2414 31.9891C12.2461 31.9891 12.2722 31.9518 12.2817 31.9543C12.1775 31.9368 12.1159 31.9866 12.026 31.9767C12.0094 31.9742 12.0094 31.9094 12.0023 31.9069C11.8839 31.8422 11.7111 31.9119 11.5738 31.8845C11.4862 31.7999 11.7088 31.8198 11.5596 31.7725C11.5359 31.8397 11.3915 31.7899 11.33 31.8223C11.2566 31.6828 10.9394 31.7301 11.008 31.628C10.8873 31.6131 10.7192 31.6006 10.5582 31.5608C10.3996 31.5209 10.2434 31.4761 10.1392 31.4338C10.1771 31.4512 10.1653 31.4786 10.1558 31.506C9.9025 31.4114 9.81964 31.3815 9.6705 31.369C9.6776 31.3491 9.70601 31.3566 9.71785 31.3416C9.52609 31.2719 9.34618 31.2196 9.1923 31.1474C9.03843 31.0751 8.90349 31.0054 8.79459 30.9382C8.75198 30.9481 8.71647 30.9706 8.66439 30.9681C8.60284 30.8784 8.57443 30.8884 8.49395 30.9058C8.44423 30.8386 8.50578 30.7738 8.39688 30.7639C8.48448 30.8734 8.24064 30.7639 8.16725 30.7414C8.18383 30.7041 8.08913 30.6717 8.13648 30.6319C8.14832 30.5845 8.24064 30.6593 8.25958 30.6244C8.04652 30.5223 8.02048 30.5796 7.9613 30.6617C8.02522 30.7315 8.15542 30.7987 8.2288 30.8684C8.3377 30.7912 8.65966 31.0303 8.71884 31.1125C8.67623 31.0926 8.67623 31.1324 8.63835 31.1175C8.64309 31.0926 8.66676 31.0652 8.62888 31.0428C8.38742 31.0677 8.20987 30.8983 7.95893 30.7539C7.99918 30.8684 7.86897 30.7788 7.8311 30.851C8.0915 30.983 8.35664 31.11 8.591 31.232C8.50341 31.1424 8.71174 31.2221 8.75435 31.2196C8.80643 31.2794 8.97214 31.4263 9.02896 31.4238C8.99108 31.4014 9.00528 31.3765 9.01712 31.3491C9.11892 31.511 9.34618 31.5483 9.5332 31.6529C9.32014 31.5583 9.40299 31.6455 9.23728 31.6056C9.37932 31.6903 9.45507 31.75 9.59001 31.7177L9.57107 31.7774C9.74389 31.8073 9.94748 31.8995 10.1629 31.9966C10.2718 32.0439 10.3807 32.0962 10.492 32.1361C10.6056 32.1709 10.7192 32.1958 10.8305 32.2083C10.8305 32.2332 10.8115 32.2656 10.8518 32.2805C11.2424 32.3029 11.7656 32.5893 11.9692 32.5395C11.9715 32.6242 11.7869 32.6142 11.7064 32.5445C11.704 32.6939 11.9337 32.6366 12.0283 32.6341C12.0236 32.6341 12.0283 32.6765 12.0212 32.6765C12.1704 32.679 12.2485 32.5943 12.4048 32.6092C12.6036 32.6267 12.6462 32.7462 12.909 32.7487C12.8427 32.6391 13.1789 32.7811 13.2807 32.7387C13.0842 32.7064 13.1978 32.6964 13.3564 32.7113C13.515 32.7238 13.7233 32.7412 13.7186 32.8134C13.5979 32.801 13.5766 32.8533 13.4937 32.8633C13.6973 32.8657 13.6002 32.8906 13.6358 32.9778C13.8015 32.9629 13.818 33.0226 13.9317 33.0351C13.9175 32.9678 13.7683 32.9678 13.7139 32.918C13.7636 32.9205 13.7944 32.9131 13.8251 32.9031C13.9104 32.933 13.9624 33.0426 14.0453 32.9554C14.0406 32.9928 14.0524 33.0226 14.0808 33.0426C13.7802 33.0525 13.5742 33.0625 13.373 33.055C13.1741 33.0326 12.98 32.9928 12.7054 32.9106C12.535 32.918 12.3645 32.8732 12.1941 32.8334C12.0212 32.7935 11.8484 32.7636 11.6661 32.7711C11.6685 32.7313 11.5478 32.7263 11.5691 32.6815C11.1027 32.6217 10.6671 32.2954 10.2647 32.3228C10.3641 32.3652 10.5133 32.3851 10.5038 32.4449C10.3902 32.4175 9.87172 32.293 10.028 32.1933C9.94037 32.1734 9.85752 32.1635 9.73915 32.1087C9.65866 32.1734 9.92144 32.1809 9.89776 32.2357C9.73442 32.1859 9.36275 32.0887 9.28226 31.9368C8.95794 31.8248 8.68806 31.6828 8.44423 31.5608C8.20276 31.4338 7.99207 31.3043 7.81689 31.1499C7.75061 31.237 7.76955 31.0727 7.70089 31.0428C7.6062 31.0179 7.68669 31.1524 7.62277 31.1175C7.58963 31.0976 7.57779 31.11 7.54939 31.0976C7.41682 31.0378 7.45706 30.9805 7.38367 30.9232C7.31739 30.9506 7.16825 30.8361 7.04278 30.7614C7.09249 30.607 6.81552 30.5497 6.69005 30.4625C6.42965 30.2957 6.16451 30.0441 5.89937 29.8225C5.64133 29.5934 5.38329 29.3916 5.20338 29.2248C5.45431 29.5286 5.59635 29.5535 5.79047 29.8324C5.99169 29.937 6.18818 30.0989 6.38703 30.2708C6.59062 30.4351 6.80605 30.5945 7.01911 30.7215C6.98833 30.7639 7.03805 30.8112 7.03331 30.8535C6.98123 30.856 6.89601 30.8062 6.84156 30.8062C6.94572 30.9257 7.35053 31.0253 7.50441 31.2669C7.55175 31.2171 7.64171 31.3142 7.7151 31.3591C7.88554 31.2868 8.38978 31.5508 8.57443 31.6704C8.55076 31.7027 8.26431 31.5209 8.35427 31.6081C8.45607 31.6579 8.5626 31.7077 8.53656 31.7675C8.47264 31.75 8.3448 31.6455 8.3235 31.6853C8.42056 31.7675 8.65966 31.8422 8.55076 31.9368C8.69043 32.0215 8.53419 31.8397 8.6857 31.9094C8.68806 31.9294 8.70464 31.9468 8.74725 31.9617C8.75672 32.0738 8.64782 32.0265 8.591 32.0489C8.72594 32.1759 8.76619 32.1012 8.78749 32.0738C8.87508 32.1784 8.66913 32.1037 8.74251 32.1908C8.87745 32.2979 9.04316 32.3627 9.12365 32.3926C9.08341 32.3726 9.07394 32.3477 9.06447 32.3253C9.12365 32.3627 9.23491 32.3253 9.24438 32.3951C9.20177 32.3826 9.14259 32.3527 9.12839 32.3726C9.31304 32.5046 9.65866 32.5818 9.75099 32.7213C9.84805 32.7288 9.70364 32.6366 9.81254 32.6541C10.0303 32.7014 9.98062 32.7935 10.1179 32.8558C10.1463 32.8334 10.1037 32.7362 10.1818 32.7686C10.3073 32.8284 10.5488 32.8383 10.4991 32.9305C10.4564 32.9355 10.2102 32.8707 10.3002 32.9205C10.5204 32.9405 10.6577 33.0251 10.7689 32.9604C10.9133 33.0251 10.7169 33.065 10.8542 33.1123C10.9086 33.1148 10.8778 33.0351 10.9465 33.05C10.9867 33.0998 11.3679 33.2916 11.1998 33.1596C11.356 33.2194 11.3868 33.2244 11.6117 33.2841C11.6235 33.2542 11.6117 33.2044 11.6638 33.2094C11.9739 33.3165 12.2745 33.3489 12.5634 33.3912C12.8522 33.4261 13.1315 33.4659 13.4132 33.5207C13.4298 33.4859 13.3611 33.4634 13.418 33.4585C13.631 33.5033 13.8062 33.5431 13.953 33.4659C13.953 33.4958 13.934 33.5108 13.9127 33.5282C14.0713 33.4983 14.2702 33.5531 14.4122 33.5929C14.3057 33.6726 14.1092 33.5929 14.0619 33.7249C14.3317 33.7249 14.4501 33.5556 14.7579 33.6029C14.8099 33.5556 14.6584 33.5207 14.7555 33.5182C14.8715 33.5481 14.9046 33.5431 14.9851 33.5008C14.9851 33.573 15.1011 33.573 15.1792 33.5979C15.4799 33.5033 15.7853 33.6303 16.0552 33.4834C16.209 33.4859 16.3795 33.4883 16.557 33.4734C16.7346 33.451 16.9169 33.4236 17.0944 33.3887C17.4519 33.3215 17.788 33.2368 18.02 33.1521C18.065 33.1995 18.2331 33.1223 18.2307 33.2094C18.4272 33.0774 18.5763 33.1721 18.7065 33.0376C18.6592 33.0475 18.6166 33.055 18.6213 33.0177C18.7065 32.9753 18.716 32.9778 18.8746 32.9255C18.8865 32.9554 18.8888 32.9977 18.967 32.9654C19.0498 32.801 19.3812 32.8458 19.5659 32.8134C19.5635 32.7711 19.502 32.7885 19.4712 32.7761C19.6132 32.7263 19.8665 32.6042 19.9352 32.6964C19.85 32.7537 19.7789 32.659 19.7482 32.7462C19.8002 32.7313 19.805 32.7736 19.8405 32.7786C20.198 32.5146 20.7495 32.3353 21.0099 32.2456C21.1023 32.2083 21.1165 32.1211 21.1591 32.1012C21.268 32.0514 21.3934 32.0937 21.5663 31.9642C21.5355 31.9866 21.616 31.9418 21.7036 31.892C21.7391 31.8746 22.0776 31.6479 22.2054 31.6753C22.2457 31.7152 21.9498 31.8447 22.0634 31.8223C22.1841 31.75 22.2149 31.7052 22.3404 31.6753C22.3001 31.6355 22.3356 31.5932 22.3901 31.5608C22.4422 31.5259 22.5156 31.4985 22.5558 31.501C22.4682 31.5981 22.3167 31.6853 22.3025 31.77C22.5061 31.633 22.8351 31.2943 22.9038 31.4761C22.8943 31.4587 22.9488 31.4163 22.9701 31.4338C22.8612 31.5658 22.9369 31.5682 22.8446 31.6878C23.0151 31.4711 23.2234 31.3715 23.4222 31.2619C23.6187 31.1499 23.8152 31.0478 23.9194 30.7912C23.9502 30.8186 23.9099 30.856 23.9359 30.8834C24.0354 30.8087 23.988 30.7614 24.1301 30.6767C24.1466 30.714 24.1916 30.6866 24.2106 30.719C24.2863 30.6493 24.3763 30.5746 24.4047 30.5123C24.2721 30.6294 24.1869 30.6418 24.1253 30.602C24.3502 30.4625 24.3952 30.3081 24.6461 30.2384C24.5112 30.323 24.5917 30.3629 24.4544 30.4451C24.5136 30.46 24.5443 30.5422 24.6556 30.4426C24.6414 30.4152 24.5988 30.3903 24.6367 30.3529C24.6698 30.4401 25.1054 30.1437 25.264 29.9844C25.2451 29.8972 25.1527 30.0093 25.1243 29.9445C25.1741 29.9296 25.2427 29.8648 25.3114 29.7951C25.2829 29.8897 25.2995 29.8673 25.3634 29.9171C25.47 29.8424 25.3587 29.8275 25.4392 29.7602C25.4865 29.8225 25.6191 29.6457 25.683 29.6706C25.7635 29.4962 25.8393 29.5037 25.8558 29.5585C25.9269 29.4091 25.9837 29.3817 26.0168 29.2572C26.0926 29.2397 26.0334 29.2796 26.0736 29.3169C26.1825 29.18 26.1754 29.1999 26.2891 29.1326C26.3175 29.0729 26.3175 29.0206 26.3411 28.9558C26.4193 28.9309 26.4595 28.8413 26.4122 28.9683C26.7365 28.6595 26.6607 28.3855 26.8335 28.256C26.7365 28.1365 26.8998 28.0344 27.0348 27.9522C27.0348 27.88 26.9093 27.9821 26.9732 27.8999C27.0774 27.8426 27.1366 27.7729 27.2147 27.6334C27.2857 27.6459 27.2265 27.7256 27.2478 27.7629C27.2739 27.6683 27.378 27.5886 27.3733 27.5537C27.3307 27.5936 27.2904 27.6135 27.2549 27.6135C27.3117 27.5363 27.2975 27.4965 27.3804 27.4043L27.4277 27.4417C27.5366 27.0955 27.8894 26.7668 27.8988 26.5899C27.9556 26.4729 27.9888 26.5501 28.0409 26.4928C28.0196 26.4754 27.9935 26.4829 27.9675 26.4928C27.9935 26.3907 28.3534 26.0595 28.1379 26.2189C28.2397 26.0595 28.3368 26.052 28.3534 25.925C28.3013 26.0047 28.261 25.9773 28.3013 25.8926C28.2989 25.9574 28.3415 25.9524 28.3936 25.8553C28.3841 25.803 28.4173 25.7233 28.4409 25.6486C28.4338 25.7706 28.564 25.5066 28.5759 25.4469C28.5569 25.4718 28.5356 25.5166 28.5191 25.5066C28.5522 25.4319 28.6209 25.2227 28.6966 25.1903C28.7085 25.2252 28.6232 25.3273 28.654 25.3522C28.7511 25.2501 28.7179 25.1804 28.7747 25.0509C28.9144 25.0559 28.8647 24.6449 29.0186 24.6773C28.9144 24.8068 28.9026 24.9513 28.8789 25.0733C28.8529 25.1928 28.8245 25.2949 28.7085 25.3398C28.8055 25.402 28.6777 25.4867 28.6209 25.6635C28.699 25.6561 28.6327 25.7432 28.6516 25.7756C28.7582 25.6187 28.6895 25.6635 28.6966 25.6137C28.7345 25.5913 28.7747 25.4867 28.8102 25.5365C28.7889 25.5788 28.7511 25.6361 28.7676 25.6536C28.8363 25.4967 28.9002 25.4344 28.9594 25.4319C28.9902 25.3248 29.0375 25.2476 29.0991 25.143C29.1559 25.0335 29.2245 24.899 29.3074 24.6848C29.3074 24.6001 29.2269 24.7097 29.2695 24.5752C29.5702 24.1245 29.6175 23.6114 29.7832 23.2329C29.7524 23.1308 29.6506 23.2628 29.7098 23.0735C29.769 22.9888 29.7998 23.0287 29.8377 23.076C29.885 22.6925 30.0768 22.5032 30.1833 22.1072C30.0649 21.898 30.3585 21.3925 30.2827 21.1136C30.2661 21.3053 30.2093 21.5444 30.1194 21.6191C30.0862 21.4523 30.1715 20.9841 30.2922 21.0737C30.2733 20.8421 30.465 20.6852 30.3608 20.5881C30.5052 20.5707 30.5715 20.1075 30.5644 19.836C30.5644 19.8758 30.5952 19.7787 30.607 19.6766C30.6378 19.4076 30.6804 19.1063 30.7112 18.81C30.723 18.5783 30.7207 18.3467 30.7017 18.1351C30.723 18.1351 30.7467 18.1375 30.7751 18.1475C30.7586 17.8935 30.742 17.642 30.7254 17.3929C30.7301 17.3979 30.7349 17.4004 30.7467 17.3954C30.7136 17.2709 30.723 17.2261 30.7065 17.109C30.6994 17.0243 30.6946 16.9422 30.6875 16.8575C30.7278 16.7529 30.7586 16.5636 30.768 16.4565C30.7728 16.5362 30.8248 16.5038 30.8154 16.6159C30.787 16.7952 30.7988 17.0169 30.8745 17.1464C30.8603 17.231 30.8414 17.2335 30.813 17.1887C30.8627 17.6669 30.7988 18.023 30.884 18.4613C30.8154 18.3517 30.813 18.8623 30.8888 18.7502C30.8319 19.0266 30.7728 19.3803 30.742 19.7314C30.7254 19.9082 30.7136 20.0825 30.7112 20.2469C30.7088 20.3291 30.7088 20.4088 30.7112 20.4835C30.7088 20.5582 30.7088 20.6279 30.7112 20.6952C30.7372 20.491 30.8509 20.1324 30.7964 19.9506C30.8698 20.0576 30.8367 19.7712 30.8059 19.7414L30.8651 19.7488C30.9787 18.8722 30.9905 17.9308 31 17.0243ZM25.3374 5.50876C25.406 5.47389 25.4487 5.58347 25.4747 5.64075C25.4368 5.67063 25.3469 5.53366 25.3374 5.50876ZM8.73541 31.1449C8.74251 31.0353 8.90822 31.1947 8.92243 31.1673C9.00528 31.247 8.82063 31.2022 8.73541 31.1449ZM9.88356 31.8522C9.93327 31.7426 9.99482 31.887 10.1321 31.9219C10.1037 31.9617 9.95931 31.8671 9.88356 31.8522ZM10.17 31.5334C10.1866 31.4786 10.3428 31.5433 10.3783 31.5882C10.3618 31.6305 10.2339 31.5433 10.17 31.5334ZM12.651 32.6043C12.6841 32.5918 12.7362 32.5943 12.7977 32.6043C12.7906 32.6341 12.7859 32.664 12.8261 32.674C12.793 32.7188 12.5989 32.6615 12.651 32.6043ZM13.8109 32.8408C13.7873 32.7811 13.8867 32.801 13.8867 32.7611C13.5979 32.6864 13.2972 32.7313 13.2049 32.5594C13.4535 32.6341 13.5553 32.5744 13.7494 32.542C13.7967 32.5644 13.818 32.6018 13.8914 32.6117C13.8346 32.659 13.8015 32.6391 13.7091 32.6242C13.7352 32.7064 13.8322 32.7537 13.9956 32.7661C14.0193 32.8433 13.9364 32.8558 13.8109 32.8408ZM29.4873 21.1459C29.5323 21.1509 29.4636 21.2829 29.4613 21.3402C29.4494 21.3203 29.4376 21.2979 29.4329 21.268C29.4471 21.2331 29.4613 21.2007 29.4731 21.1659C29.4778 21.1659 29.4826 21.1609 29.4873 21.1459ZM29.163 23.8729C29.0825 24.0149 29.1038 23.9974 29.0328 24.1668C28.9736 24.2141 28.912 24.1469 28.9902 24.0149C29.0517 24.1743 29.0517 23.848 29.163 23.8729ZM19.4522 31.6953C19.4428 31.7476 19.2676 31.7824 19.1871 31.8123C19.2203 31.7002 19.3126 31.7426 19.4522 31.6953ZM17.575 32.5793C17.3714 32.5993 17.2767 32.5694 17.0494 32.5619C17.1536 32.4498 17.369 32.4997 17.5821 32.4274C17.5821 32.4772 17.5418 32.5146 17.575 32.5793ZM16.4647 32.5918C16.4363 32.664 16.3416 32.5943 16.3179 32.5843C16.3014 32.537 16.4197 32.5544 16.4174 32.5121C16.5452 32.5021 16.3369 32.6067 16.4647 32.5918ZM16.9027 32.5644C16.8861 32.6167 16.7914 32.6391 16.7748 32.6914C16.718 32.6366 16.4623 32.7387 16.4363 32.659C16.602 32.6989 16.7109 32.5495 16.9027 32.5644ZM16.6328 32.2631C16.5168 32.293 16.4126 32.3328 16.2209 32.3602C16.138 32.2531 16.3037 32.2133 16.512 32.1585C16.7204 32.1087 16.976 32.0738 17.0755 32.0439C17.2317 32.0738 17.2743 32.1535 17.0684 32.2158C17.0731 32.1983 17.1015 32.1884 17.0968 32.1684C16.8695 32.2058 16.7464 32.2332 16.6328 32.2631ZM16.2848 32.6092C16.022 32.6815 15.4089 32.6839 15.5556 32.5744C15.7403 32.6516 15.9818 32.5445 16.2848 32.6092ZM17.2672 32.1186C17.2459 32.0663 17.3311 32.0514 17.3951 32.0315C17.4045 32.0887 17.3335 32.146 17.2672 32.1186ZM17.5324 31.4786C17.2885 31.516 17.0423 31.5409 16.8529 31.5682C16.7701 31.6031 16.8955 31.6554 16.9689 31.6355C16.9453 31.7002 16.8245 31.6529 16.7653 31.6704C16.7559 31.633 16.8009 31.6205 16.7867 31.5807C16.7653 31.5359 16.6186 31.6006 16.5476 31.5981C16.763 31.4587 16.9879 31.4089 17.2483 31.3765C17.3785 31.3615 17.5182 31.3466 17.6649 31.3292C17.8117 31.3043 17.9679 31.2644 18.1384 31.2146C18.1431 31.2445 18.1479 31.2744 18.1881 31.2669C18.1005 31.3142 17.9987 31.3566 17.8875 31.3939C17.833 31.4138 17.7738 31.4313 17.7146 31.4462C17.6555 31.4587 17.5939 31.4686 17.5324 31.4786ZM9.48348 28.9708C9.49769 28.9683 9.51426 28.9708 9.52846 28.9782C9.52609 28.9832 9.52846 28.9882 9.52373 28.9932C9.47875 28.9832 9.45744 28.9782 9.44561 28.9708C9.45744 28.9708 9.46928 28.9733 9.48348 28.9708ZM7.58016 28.1215C7.57069 28.1315 7.55886 28.1415 7.54939 28.1514C7.53992 28.1464 7.53045 28.1415 7.52098 28.1365C7.52571 28.129 7.53045 28.1215 7.53518 28.1141C7.53992 28.1066 7.54465 28.0991 7.54939 28.0917C7.56122 28.0991 7.57069 28.1116 7.58016 28.1215ZM13.6405 4.85378C13.6144 4.88118 13.5742 4.89612 13.5127 4.9011C13.5032 4.9011 13.4937 4.9011 13.4842 4.9011C13.4582 4.89114 13.4156 4.89861 13.373 4.90359C13.4582 4.85627 13.5482 4.84631 13.6405 4.85378ZM30.1454 13.1941C30.1715 13.2863 30.1502 13.3261 30.1265 13.3635C30.0981 13.2514 30.091 13.1343 30.0578 13.0223C30.0602 12.9999 30.0626 12.9799 30.0673 12.965C30.1312 13.2016 30.0436 13.1817 30.1454 13.1941ZM30.1928 13.3909C30.2046 13.4631 30.2164 13.5154 30.2259 13.5627C30.2212 13.5602 30.2188 13.5577 30.2117 13.5577C30.1975 13.5378 30.1857 13.5179 30.1762 13.4979C30.1573 13.4332 30.1454 13.3759 30.1928 13.3909ZM30.0649 18.663C30.0697 18.6082 30.0602 18.5759 30.0436 18.5559C30.0507 18.4638 30.0626 18.3766 30.0815 18.3119C30.0957 18.3368 30.1075 18.3642 30.1194 18.3916C30.1241 18.3542 30.1099 18.2994 30.1052 18.2496C30.1075 18.2446 30.1099 18.2372 30.1123 18.2322C30.1099 18.2222 30.1075 18.2098 30.1052 18.1973C30.1075 18.1799 30.1146 18.1649 30.1288 18.155C30.1336 18.2297 30.1833 18.2272 30.1596 18.3542C30.0247 18.5086 30.1123 18.4239 30.0649 18.663ZM17.6247 5.06796C17.601 5.07294 17.5892 5.06546 17.5821 5.0555C17.5963 5.05052 17.6128 5.04803 17.6294 5.04305C17.6271 5.05301 17.627 5.06796 17.6247 5.06796ZM27.2739 9.08994C27.2123 9.08496 27.1602 9.06753 27.1555 8.98784C27.1555 8.98535 27.1555 8.98535 27.1555 8.98286C27.1957 9.01523 27.236 9.0501 27.2739 9.08994ZM30.0271 17.4452C30.0223 17.383 30.0176 17.3182 30.0128 17.2535C30.0152 17.2485 30.0176 17.2435 30.0176 17.2385C30.0318 17.1912 30.072 17.1514 30.1099 17.1115C30.1099 17.1763 30.1099 17.2435 30.1123 17.3082C30.117 17.4527 30.1265 17.5922 30.1478 17.7241C30.117 17.7266 30.0791 17.7192 30.0839 17.8013C30.1146 17.8088 30.1596 17.7889 30.162 17.8412C30.1478 17.9582 30.1217 18.0529 30.0886 18.1276C30.046 17.9383 30.0365 17.6992 30.0271 17.4452ZM30.1004 16.8874C30.1004 16.8973 30.1004 16.9098 30.1028 16.9197C30.0981 16.9098 30.0981 16.8973 30.1004 16.8874ZM28.1356 10.0737C28.0906 10.0238 28.1001 9.95411 28.1569 9.90679C28.1616 9.9043 28.1663 9.90181 28.1734 9.90181C28.2397 9.98649 28.3013 10.0836 28.3605 10.1932C28.2729 10.2106 28.2255 10.1758 28.1356 10.0737ZM28.0693 9.78227C28.0006 9.76235 27.9556 9.71503 27.932 9.64281C27.977 9.68515 28.0243 9.73246 28.0693 9.78227ZM30.0389 18.5908C30.046 18.6381 30.0436 18.6904 30.0342 18.7427C30.0342 18.6929 30.0365 18.6431 30.0389 18.5908ZM30.4863 14.9299C30.4958 14.9 30.51 14.8677 30.5266 14.8378C30.5289 14.905 30.5195 14.9623 30.4934 14.9847C30.4934 14.9648 30.4887 14.9474 30.4863 14.9299ZM30.4413 14.5389C30.4413 14.5265 30.4413 14.509 30.4437 14.4991C30.4579 14.5165 30.4697 14.5439 30.4816 14.5788C30.4697 14.5663 30.4555 14.5539 30.4413 14.5389ZM30.3206 14.1081C30.2709 14.2226 30.3419 14.3596 30.3774 14.3447C30.3727 14.397 30.3585 14.4144 30.3419 14.4169C30.3253 14.3945 30.3088 14.3721 30.2946 14.3497C30.2898 14.3347 30.2875 14.3198 30.2851 14.3048C30.2661 14.2799 30.2448 14.2575 30.2235 14.2376C30.2117 14.2152 30.1999 14.1953 30.1951 14.1828C30.1786 14.1405 30.2259 14.0832 30.2756 14.0907C30.2875 14.0931 30.3017 14.0956 30.3135 14.1006C30.3159 14.1031 30.3182 14.1056 30.3206 14.1081ZM30.0389 12.97C30.0365 12.9675 30.0365 12.9625 30.0342 12.9575C30.0271 12.9401 30.0271 12.9276 30.0294 12.9127C30.0342 12.9351 30.0365 12.9525 30.0389 12.97ZM13.8701 4.90359C13.8464 4.9011 13.8275 4.89612 13.8086 4.88616C13.8299 4.89114 13.8488 4.89861 13.8701 4.90359ZM18.6781 31.7426C18.7065 31.8322 18.5716 31.7625 18.4769 31.8198C18.5124 31.755 18.5858 31.75 18.6781 31.7426ZM26.4358 27.8302C26.4737 27.8999 26.3317 27.9472 26.2488 28.0817C26.2251 28.0543 26.1849 28.0892 26.1636 28.0568C26.2559 27.9721 26.3506 27.8775 26.4358 27.8302ZM26.6205 27.5786C26.6394 27.601 26.6607 27.621 26.6915 27.5886C26.7365 27.6284 26.5873 27.7903 26.5329 27.8102C26.5045 27.7555 26.54 27.6758 26.6205 27.5786ZM29.5489 20.9517C29.556 20.9567 29.5631 20.9592 29.5702 20.9641C29.5465 21.0214 29.537 21.0264 29.5252 21.0189C29.5346 20.9965 29.5417 20.9741 29.5489 20.9517ZM29.9868 19.3703C29.9844 19.3379 29.9821 19.308 29.9773 19.2806C29.9892 19.2682 30.001 19.2582 30.0128 19.2532C30.0105 19.2906 29.9986 19.328 29.9868 19.3703ZM30.0578 19.1138C30.0507 19.064 30.0436 18.9992 30.0389 18.9295C30.0507 18.8722 30.0649 18.8199 30.0957 18.7452C30.0862 18.922 30.0697 18.9793 30.0768 19.1088C30.072 19.1113 30.0649 19.1138 30.0578 19.1138ZM30.5384 15.6596C30.5573 15.5625 30.5644 15.4654 30.5479 15.3458C30.6591 15.3931 30.6118 15.6721 30.555 15.7717C30.5479 15.7318 30.5431 15.697 30.5384 15.6596ZM30.5052 15.0619C30.5408 15.1067 30.5621 15.1939 30.5786 15.296C30.51 15.3433 30.4839 15.1292 30.5052 15.0619ZM30.2212 13.087L30.143 13.1094C30.1146 13.0422 30.1596 12.9301 30.0933 12.9127C30.0791 12.7757 30.143 12.9451 30.162 12.9351C30.1715 12.8828 30.1454 12.8529 30.1123 12.8131C30.1265 12.8006 30.1383 12.7882 30.1502 12.7757C30.1999 12.8604 30.2354 12.96 30.2212 13.087ZM30.0697 12.4096C30.0436 12.4071 30.0294 12.3349 30.0152 12.2776C30.0176 12.2776 30.0199 12.2776 30.0223 12.2776C30.0413 12.2752 30.0578 12.2602 30.0697 12.2428C30.117 12.3549 30.0602 12.3474 30.0697 12.4096ZM29.743 12.0186C29.7501 12.0137 29.769 12.0162 29.7785 12.0236C29.8471 12.0709 29.8921 12.1307 29.9087 12.2204C29.9158 12.2627 29.9489 12.2776 29.9868 12.2801C29.9939 12.3125 29.9986 12.3474 29.9986 12.3922C29.9797 12.3972 29.9844 12.4321 29.9702 12.4445C29.9205 12.2627 29.8258 12.3275 29.9418 12.4121C29.9466 12.437 29.9513 12.4619 29.956 12.4868C29.8921 12.4844 29.8282 12.4844 29.7643 12.4769C29.7453 12.4744 29.7169 12.4246 29.7217 12.4022C29.7359 12.3424 29.788 12.2826 29.7809 12.2328C29.7714 12.1755 29.7027 12.1332 29.7169 12.0585C29.7193 12.0411 29.7311 12.0261 29.743 12.0186ZM29.0683 10.6987C29.0446 10.6863 29.0209 10.6763 28.9973 10.6888C28.9831 10.6514 28.9665 10.6215 28.9523 10.5941C28.9476 10.5692 28.9452 10.5418 28.9452 10.5169C28.9831 10.5742 29.028 10.6415 29.0683 10.6987ZM26.4903 6.98556C26.5045 7.00299 26.5211 7.02292 26.5353 7.04035C26.5329 7.04533 26.5305 7.0528 26.5258 7.05778C26.4429 7.04035 26.4027 6.92579 26.353 6.81621C26.398 6.87349 26.4429 6.93077 26.4903 6.98556ZM25.1172 6.52235C25.1243 6.52733 25.1291 6.53729 25.1338 6.54725C25.1172 6.53978 25.1007 6.53231 25.0841 6.52733C25.0912 6.51736 25.1054 6.51487 25.1172 6.52235ZM13.0984 4.94344C13.0984 4.96087 13.0984 4.9783 13.1007 4.99324C13.1386 4.99324 13.1623 4.97083 13.1765 4.94095C13.2404 4.94095 13.3043 4.94344 13.3706 4.94593C13.3469 5.00071 13.2996 5.03558 13.2546 5.06796C13.1789 5.12025 13.1244 5.09037 13.0984 5.00321C13.0723 5.01317 13.0439 5.02064 13.0179 5.03309C12.8924 5.10033 12.8474 5.09784 12.7812 5.00819C12.7788 5.0057 12.7764 5.00071 12.7741 4.99822C12.8806 4.96087 12.9895 4.94593 13.0984 4.94344ZM12.1751 5.09535C12.284 5.07294 12.3882 5.06297 12.4829 5.06297C12.4592 5.08539 12.4284 5.10033 12.3787 5.09784C12.3479 5.09784 12.3053 5.09784 12.2911 5.11776C12.1846 5.25972 12.0141 5.14267 11.8958 5.23232C11.8129 5.29458 11.7656 5.26221 11.7253 5.21489C11.8745 5.1601 12.0307 5.12274 12.1751 5.09535ZM4.30143 25.138C4.28722 25.1356 4.27539 25.0882 4.27776 25.0633C4.28012 25.0509 4.28722 25.0384 4.29433 25.026C4.30143 25.0135 4.3109 25.0036 4.318 24.9911C4.32984 25.016 4.34877 25.0384 4.35351 25.0633C4.36061 25.1032 4.35588 25.1505 4.30143 25.138ZM4.73701 26.3882C4.73228 26.4106 4.70387 26.4256 4.6873 26.4455C4.67783 26.4331 4.65889 26.4231 4.65889 26.4106C4.65416 26.3658 4.65416 26.321 4.65179 26.2762C4.64942 26.2762 4.64706 26.2762 4.64469 26.2762C4.64469 26.2737 4.64469 26.2687 4.64469 26.2662C4.62338 26.2562 4.60208 26.2463 4.58314 26.2338C4.5784 26.2313 4.58551 26.2014 4.58787 26.2014C4.63995 26.194 4.64232 26.2288 4.64469 26.2662C4.64706 26.2662 4.64942 26.2687 4.65179 26.2687C4.65179 26.2712 4.65179 26.2737 4.65179 26.2762C4.72044 26.2787 4.75359 26.3135 4.73701 26.3882ZM5.02109 26.6647C4.99742 26.6497 4.97375 26.6348 4.94771 26.6198C4.97375 26.6049 4.99979 26.58 5.02583 26.5825C5.05187 26.5825 5.07554 26.6099 5.10158 26.6273C5.07554 26.6373 5.0495 26.6497 5.02109 26.6647ZM5.21285 26.8788C5.21048 26.9162 5.20811 26.9535 5.15366 26.9436C5.14893 26.9436 5.14419 26.9137 5.14893 26.9112C5.17023 26.8963 5.19154 26.8888 5.21285 26.8788C5.21285 26.8763 5.21285 26.8714 5.21285 26.8689C5.21521 26.8689 5.21758 26.8689 5.21995 26.8689C5.21758 26.8091 5.21048 26.7493 5.25782 26.702C5.28623 26.6746 5.37856 26.6746 5.37619 26.702C5.37382 26.7269 5.36672 26.7568 5.35252 26.7742C5.31701 26.8191 5.28623 26.8739 5.21758 26.8689C5.21758 26.8714 5.21758 26.8739 5.21758 26.8763C5.21758 26.8763 5.21521 26.8763 5.21285 26.8788ZM5.58925 26.971C5.52296 27.1304 5.38329 27.2524 5.36909 27.4417C5.36909 27.4516 5.31227 27.4666 5.2886 27.4591C5.26493 27.4516 5.22942 27.4143 5.23178 27.3968C5.27676 27.2101 5.35488 27.0357 5.46615 26.8813C5.47562 26.8689 5.52533 26.8813 5.55374 26.8888C5.55374 26.8888 5.55374 26.8888 5.55611 26.8888C5.56321 26.8963 5.57031 26.9037 5.57978 26.9112C5.58215 26.9162 5.58451 26.9187 5.58925 26.9212C5.58688 26.9386 5.59398 26.9585 5.58925 26.971ZM7.00727 28.2087C6.9907 28.2461 6.96703 28.261 6.93152 28.2486C6.94099 28.2162 6.95992 28.1888 7.00727 28.1813C7.08776 28.1689 7.12327 28.2212 7.1138 28.2959C7.1138 28.3058 7.11617 28.3108 7.11617 28.3183C7.08776 28.2884 7.05698 28.2535 7.00727 28.2087ZM7.59673 28.3631C7.59673 28.3656 7.59436 28.3706 7.59436 28.3731L7.58726 28.3656C7.58963 28.3656 7.59436 28.3631 7.59673 28.3631C7.5991 28.3556 7.60147 28.3482 7.60383 28.3407C7.61094 28.3457 7.61804 28.3482 7.62277 28.3531C7.61567 28.3556 7.6062 28.3606 7.59673 28.3631ZM10.7973 30.988C10.5038 30.846 10.2174 30.7041 9.86935 30.6368C9.75572 30.5821 9.64446 30.5048 9.52373 30.4252C9.51189 30.4152 9.49769 30.4052 9.48348 30.3978C9.53793 30.4102 9.59238 30.4227 9.64446 30.4351C9.77466 30.465 9.90013 30.4949 10.0256 30.5347C10.1534 30.5696 10.286 30.6144 10.428 30.6817C10.6671 30.5696 11.0057 31.0154 11.2329 30.983C11.143 30.8311 11.5265 30.9556 11.7466 30.983C11.7111 31.0502 11.7372 31.1374 11.7514 31.2594C11.401 31.2221 11.0956 31.105 10.7973 30.988ZM15.2266 31.77C15.2976 31.7227 15.3402 31.8173 15.4681 31.7974C15.4657 31.7774 15.4254 31.7849 15.3994 31.7799C15.4065 31.75 15.5012 31.7675 15.4988 31.7326C15.4586 31.6878 15.2834 31.7376 15.1911 31.7301C15.3308 31.6255 15.6787 31.633 15.7924 31.5658C15.8492 31.6081 15.8255 31.6778 15.8042 31.6928C15.8421 31.7625 15.88 31.6903 15.9439 31.7251C16.0362 31.6903 15.8326 31.6903 15.8658 31.6255C16.1262 31.6056 16.1877 31.628 16.3014 31.5533C16.4126 31.5707 16.3014 31.5907 16.5049 31.5433C16.5405 31.6853 16.2919 31.6131 16.2114 31.6654C16.3369 31.755 16.6399 31.5234 16.6612 31.6679C16.5547 31.6803 16.4434 31.7052 16.3274 31.7301C16.2114 31.7476 16.0907 31.7675 15.9676 31.7849C15.7214 31.8173 15.4657 31.8322 15.2266 31.77ZM15.3047 32.6316C15.2716 32.6964 15.3876 32.664 15.4515 32.6665C15.3331 32.7014 15.139 32.7113 14.9236 32.7188C14.7058 32.7113 14.4667 32.6989 14.2536 32.7138C14.5069 32.5569 14.9212 32.7039 15.3047 32.6316ZM14.1424 32.7711C14.3483 32.806 14.398 32.791 14.6182 32.811C14.4122 32.7039 15.0751 32.7587 15.1295 32.8085C14.9567 32.8682 14.7531 32.8558 14.5614 32.8433C14.3696 32.8334 14.1921 32.8234 14.0666 32.8732C14.0382 32.8035 14.1258 32.811 14.1424 32.7711ZM14.0287 32.9554C14.0595 32.8832 14.1589 32.938 14.2134 32.9629C14.2015 33.0127 14.05 32.9678 14.0287 32.9554ZM16.5262 33.0749L16.5168 33.0077C16.5002 33.0127 16.4836 33.0152 16.4671 33.0201C16.3866 33.0351 16.3037 33.0451 16.2161 33.0575C16.0433 33.0799 15.861 33.0998 15.6764 33.1123C15.3047 33.1347 14.9117 33.1546 14.5448 33.0824C14.5046 33.0874 14.5188 33.1247 14.4714 33.1223C14.3838 33.1123 14.3175 33.0899 14.2489 33.07C14.2584 33.0052 14.4335 33.0426 14.5472 33.0401C14.5495 33.0102 14.5519 32.9803 14.5093 32.9753C14.8691 32.9654 15.5201 32.9679 16.0504 32.8159C16.1712 32.8309 16.2871 32.8483 16.3558 32.9006C16.4623 32.8757 16.325 32.8359 16.344 32.796C16.4363 32.7761 16.5215 32.8583 16.5665 32.791C16.6754 32.7935 16.6115 32.8159 16.6138 32.8682C16.7961 32.8085 16.9263 32.7611 17.0471 32.7562C17.0731 32.6815 16.9287 32.7437 16.8577 32.7437C16.9618 32.6516 17.2199 32.6366 17.3311 32.664C17.3737 32.7387 17.1844 32.8309 17.3951 32.8035C17.2459 32.9056 16.8009 32.8309 16.7369 32.9355C17.0258 32.9429 17.5087 32.7836 17.6791 32.8832C17.2956 33.0426 16.9429 32.9778 16.5262 33.0749ZM18.2165 32.5669C18.2118 32.5295 18.1621 32.5345 18.1621 32.4947C18.2994 32.4349 18.2852 32.527 18.4225 32.4673C18.3941 32.5121 18.2757 32.532 18.2165 32.5669ZM19.1895 32.1859C18.7515 32.2581 18.3751 32.3776 17.9277 32.4723C17.9419 32.5096 18.0508 32.4523 18.0792 32.4748C18.0887 32.5395 17.8685 32.5719 17.859 32.5071C17.7667 32.5669 17.762 32.5868 17.8164 32.664C17.6507 32.6192 17.6176 32.5644 17.6744 32.5171C17.7336 32.4673 17.8851 32.4299 18.0934 32.3826C18.0555 32.3602 17.9727 32.3826 17.9064 32.3901C17.8756 32.3303 18.065 32.3303 18.0697 32.2805C18.1195 32.273 18.1123 32.3253 18.1242 32.3527C18.4627 32.2382 18.4864 32.2207 18.8557 32.1062C18.9243 32.1684 19.0332 32.0564 19.1279 32.1161C19.2179 32.0713 19.0072 32.1012 19.1019 32.0364C19.3552 31.9817 19.3481 32.0414 19.599 31.9094C19.5848 31.8522 19.3836 32.019 19.4073 31.9169C19.5754 31.887 19.6937 31.8223 19.8097 31.7376C19.8381 31.7799 19.831 31.8148 19.8121 31.8497C19.9044 31.8198 19.9139 31.7774 19.8855 31.7301C20.0512 31.6405 20.108 31.6828 20.1885 31.7002C20.0654 31.9119 19.3954 32.0215 19.1895 32.1859ZM22.48 31.2545C22.4753 31.1449 22.6245 31.1349 22.7073 31.0353C22.7381 31.1001 22.5487 31.1797 22.48 31.2545ZM23.524 31.0204C23.4625 31.1748 23.4672 30.9905 23.3702 31.0727C23.3654 31.0428 23.4435 31.0029 23.4909 30.9681C23.5051 30.9955 23.5169 31.0204 23.5572 30.9979C23.5643 31.0229 23.5311 31.0303 23.524 31.0204ZM23.4057 30.6991L23.5335 30.6144L23.569 30.6667C23.5027 30.6991 23.427 30.7514 23.4057 30.6991ZM23.5548 30.5746C23.5288 30.5298 23.6329 30.4625 23.7134 30.3978L23.7489 30.4476C23.6755 30.5098 23.6045 30.5671 23.5548 30.5746ZM23.5004 30.475C23.3015 30.6194 23.0979 30.7539 22.9961 30.846C23.008 30.7589 23.1784 30.6244 23.382 30.4775C23.5832 30.328 23.8081 30.1487 23.9573 30.0192C23.8768 30.1487 23.6897 30.3156 23.5004 30.475ZM24.9089 30.1587C24.8379 30.1114 24.8284 30.1139 24.8474 30.0217C24.9207 30.0167 25.0344 30.0516 24.9089 30.1587ZM25.0225 29.9844C24.9894 29.9844 24.9397 30.0267 24.9207 29.9868C24.9563 29.9744 24.9918 29.9619 24.9823 29.937C25.0178 29.9121 25.0273 29.9495 25.0675 29.9146C25.0628 29.942 25.0581 29.9694 25.077 29.9893C25.0415 30.0142 24.9776 30.0267 25.0225 29.9844ZM25.5647 29.693C25.5552 29.6631 25.6262 29.6108 25.6665 29.566C25.6451 29.5535 25.6025 29.6033 25.5647 29.6357C25.5126 29.6332 25.6049 29.5012 25.5102 29.5734C25.5173 29.5236 25.6712 29.5112 25.7233 29.5087C25.6262 29.6158 25.6925 29.6208 25.5647 29.693ZM26.2512 28.4577L26.2962 28.5001L26.166 28.6495C26.1115 28.6171 26.2204 28.5225 26.2512 28.4577ZM26.4642 28.7143C26.4879 28.6171 26.4264 28.6918 26.3553 28.7765C26.3269 28.6819 26.5258 28.5997 26.6063 28.515C26.6371 28.5499 26.5021 28.652 26.4642 28.7143ZM26.5802 28.1664C26.5542 28.3457 26.5092 28.51 26.2512 28.6744C26.2772 28.5574 26.514 28.3955 26.4311 28.2461C26.6702 28.0169 26.817 27.7903 26.9472 27.6982C26.9424 27.865 26.7294 28.1041 26.5802 28.1664ZM27.2644 27.342C27.1318 27.4989 27.0584 27.5363 27.004 27.6957L26.9259 27.6309C27.0821 27.479 27.2028 27.2125 27.3851 27.0332C27.3851 27.1503 27.2289 27.23 27.2644 27.342ZM28.8387 24.7421C28.7724 24.7396 28.815 24.6524 28.7463 24.6499C28.8055 24.6101 28.8576 24.3984 28.9191 24.4681C28.8765 24.3835 29.0209 24.2291 29.0849 24.102C28.9641 24.3411 28.9499 24.5752 28.8387 24.7421ZM28.8647 25.4469C28.8363 25.4269 28.8031 25.4469 28.7724 25.4892C28.7369 25.4618 28.7842 25.3796 28.8363 25.2925C28.8387 25.3746 28.886 25.285 28.8884 25.3672C28.9333 25.3049 28.9831 25.138 29.0233 25.2078C28.9712 25.2377 28.9191 25.3522 28.8647 25.4469ZM29.0754 25.0011C29.0683 24.8741 29.1275 24.8492 29.1961 24.7396C29.2032 24.8666 29.144 24.894 29.0754 25.0011ZM29.2151 23.5043C29.2032 23.462 29.2127 23.3948 29.2482 23.3026C29.305 23.3151 29.2671 23.4645 29.2151 23.5043ZM29.1819 22.9365C29.1796 22.8295 29.234 22.7946 29.2648 22.6302C29.3216 22.6526 29.2269 22.8917 29.1819 22.9365ZM29.3831 22.0898C29.44 22.1446 29.3287 22.2392 29.3358 22.3637C29.2506 22.3687 29.3689 22.1795 29.3831 22.0898ZM29.3737 22.7523C29.3524 22.6028 29.3808 22.5331 29.4163 22.3065C29.4281 22.3712 29.395 22.5804 29.4802 22.3687C29.5465 22.4484 29.4092 22.6128 29.3737 22.7523ZM29.6601 21.0264C29.582 21.4124 29.6175 21.5594 29.6104 21.7461C29.5938 21.8358 29.5441 21.7735 29.5228 21.8433C29.6293 21.8059 29.556 22.0973 29.5062 22.2915C29.4423 22.2567 29.4068 22.2567 29.4044 22.2168C29.44 22.1844 29.4684 22.0475 29.4589 21.9852C29.3855 22.0798 29.4258 21.8532 29.3784 21.8383C29.4115 21.7636 29.4305 21.7661 29.4471 21.8184C29.4731 21.5245 29.608 21.1858 29.6293 20.8944C29.6506 20.9044 29.6578 20.9716 29.6885 20.9069C29.6057 20.9492 29.7075 20.7749 29.6554 20.7799C29.6293 20.8222 29.6128 20.8097 29.6033 20.7749C29.6317 20.6852 29.6601 20.5956 29.6838 20.5034C29.7572 20.476 29.6483 20.6703 29.7004 20.6703C29.7311 20.4984 29.8732 20.237 29.8022 20.1722C29.7595 20.3415 29.7619 20.4138 29.6862 20.4935C29.6885 20.4885 29.6885 20.4835 29.6909 20.4785C29.724 20.3291 29.7501 20.1747 29.7714 20.0153C29.8022 20.0153 29.8282 20.0004 29.8542 19.978C29.8542 19.9804 29.8542 19.9804 29.8519 19.9829C29.9087 20.0676 29.8968 20.1772 29.8732 20.2892C29.8471 20.4013 29.8045 20.5134 29.8164 20.6155C29.7666 20.7051 29.7406 20.6952 29.7122 20.7151C29.7643 20.7923 29.7004 21.1534 29.6743 21.2306C29.608 21.2356 29.7004 21.0513 29.6601 21.0264ZM29.6554 22.9839C29.7193 22.8519 29.6767 22.7821 29.7477 22.7149C29.8448 22.6975 29.7217 23.0586 29.6554 22.9839ZM29.7548 22.6302C29.8377 22.5705 29.9063 22.4086 29.9986 22.4086C29.9276 22.553 29.8542 22.695 29.7548 22.6302ZM30.5644 15.8738C30.5644 15.8713 30.5644 15.8713 30.5644 15.8738C30.5644 15.8738 30.5644 15.8763 30.5644 15.8788C30.5644 15.8763 30.5644 15.8738 30.5644 15.8738ZM30.6544 15.697C30.671 15.6347 30.6733 15.8688 30.6946 16.0207C30.607 15.9784 30.626 15.7941 30.6544 15.697Z"
       fill="#010A35"
       id="path134" />
    <path
       fill-rule="evenodd"
       clip-rule="evenodd"
       d="M8.70229 3.03333C8.64547 3.12547 8.27854 3.2475 8.25723 3.28735C8.33772 3.27738 8.82302 3.05325 8.70229 3.03333Z"
       fill="#010A35"
       id="path136" />
    <path
       fill-rule="evenodd"
       clip-rule="evenodd"
       d="M16.6872 0.136986C16.6636 0.087178 16.4671 0.114572 16.4529 0.0697452C16.7038 0.0124661 16.8648 0.194265 17.1204 0.219169C17.1299 0.194265 17.1204 0.159399 17.1654 0.16189C17.2033 0.196755 17.2246 0.234111 17.2743 0.263996C17.5442 0.251544 18.0437 0.4184 18.271 0.346179C18.2141 0.298862 17.9822 0.278938 18.1289 0.22913C17.9324 0.186794 18.0958 0.28641 17.9964 0.29139C17.9916 0.273958 17.9679 0.261506 17.9206 0.256525C17.9916 0.174342 17.6626 0.199246 17.5324 0.132005C17.4306 0.144457 17.5963 0.206717 17.4826 0.209207C17.4022 0.127024 17.2388 0.087178 17.2459 0.174342C17.272 0.146947 16.9287 0.136986 17.0542 0.0821972C16.628 0.0398605 16.673 -0.00496663 16.3392 1.41573e-05C16.37 0.0772164 16.3416 0.0523124 16.3724 0.129515C16.5286 0.0946492 16.5831 0.16189 16.6872 0.136986Z"
       fill="#010A35"
       id="path138" />
    <path
       fill-rule="evenodd"
       clip-rule="evenodd"
       d="M21.2206 3.3521C21.3177 3.37949 21.4503 3.45919 21.5284 3.45919C21.4503 3.40938 21.2704 3.32471 21.2206 3.3521Z"
       fill="#010A35"
       id="path140" />
    <path
       fill-rule="evenodd"
       clip-rule="evenodd"
       d="M22.6907 3.43179C22.6528 3.49654 22.5013 3.36455 22.4279 3.36704C22.4682 3.44673 22.757 3.5314 22.6907 3.43179Z"
       fill="#010A35"
       id="path142" />
    <path
       fill-rule="evenodd"
       clip-rule="evenodd"
       d="M23.7111 2.79674C23.73 2.76685 23.8105 2.84654 23.8342 2.82662C23.775 2.79923 23.7584 2.68467 23.8413 2.73199C23.8839 2.79923 23.936 2.7544 24.0401 2.7793C23.846 2.71206 23.5667 2.51532 23.4791 2.55019C23.6258 2.58007 23.801 2.75689 23.7111 2.79674Z"
       fill="#010A35"
       id="path144" />
    <path
       fill-rule="evenodd"
       clip-rule="evenodd"
       d="M23.7963 4.89114C23.7466 4.93348 23.82 4.99325 23.9052 5.05551C23.8862 4.95589 24.0851 5.16011 23.9975 5.05053C23.9241 4.99574 23.8839 5.01317 23.8933 4.94344C23.9099 4.95589 23.936 4.95589 23.9052 4.92601C23.8768 4.93597 23.8484 4.94095 23.8105 4.93099C23.8176 4.92103 23.8223 4.90858 23.7963 4.89114Z"
       fill="#010A35"
       id="path146" />
    <path
       fill-rule="evenodd"
       clip-rule="evenodd"
       d="M24.0591 5.15016C24.2248 5.35437 24.4236 5.68808 24.6319 5.72046C24.613 5.69805 24.5799 5.67065 24.5917 5.65322C24.6769 5.72295 24.7266 5.69306 24.8308 5.82256C24.8734 5.7877 24.8095 5.72793 24.7621 5.67314C24.6296 5.60839 24.1514 5.27717 24.194 5.15016C24.149 5.15265 24.0922 5.12277 24.0591 5.15016Z"
       fill="#010A35"
       id="path148" />
    <path
       fill-rule="evenodd"
       clip-rule="evenodd"
       d="M25.4486 4.45035C25.5007 4.58234 25.9079 4.81395 25.9055 4.96586C25.9742 5.03061 26.0144 5.02065 26.0925 5.11777C26.057 5.12524 26.0168 5.11528 25.9813 5.12524C26.0428 5.17007 26.1068 5.21739 26.1683 5.27467C26.2275 5.33444 26.2867 5.39919 26.3482 5.46892C26.469 5.60589 26.5897 5.7578 26.7104 5.90723C26.9543 6.20857 27.2028 6.50492 27.4443 6.71661C27.468 6.97561 27.8017 7.04534 27.7686 7.23461C27.8017 7.17235 27.7828 7.18729 27.8467 7.16986C27.6479 7.00549 27.4632 6.67427 27.4822 6.54477C27.4751 6.53979 27.4751 6.52983 27.4916 6.5099C27.4845 6.51737 27.4845 6.53232 27.4822 6.54477C27.5058 6.5622 27.6266 6.52485 27.6289 6.66182C27.6976 6.67676 27.6242 6.52485 27.6905 6.60703C27.7118 6.68921 27.726 6.76641 27.7331 6.83863C27.7946 6.91086 27.8515 6.95817 27.9083 7.01047C27.8941 7.0304 27.8586 7.04285 27.8846 7.08269C27.9556 6.9781 28.0314 7.23461 28.0669 7.30185C28.0811 7.19725 27.9367 7.01047 27.9627 6.91086C27.887 6.9258 27.9106 6.85607 27.8254 6.75645C27.8396 6.73653 27.8728 6.72408 27.8491 6.68423C27.8136 6.67178 27.7733 6.50243 27.6621 6.46508C27.7047 6.54228 27.6905 6.55722 27.6408 6.53979C27.5461 6.35301 27.3591 6.20608 27.2809 5.98194C27.1839 6.04669 27.1271 5.89478 27.0371 5.76278C27.0111 5.78022 26.9921 5.82754 26.9519 5.79018C26.9022 5.72294 26.9377 5.69056 26.9306 5.64076C26.9732 5.69803 27.1176 5.79516 27.0537 5.69056C27.0087 5.72792 26.8809 5.46643 26.8359 5.50378C26.8974 5.56853 26.9093 5.61336 26.8738 5.64076C26.8454 5.52869 26.7862 5.60589 26.6986 5.47141C26.6512 5.4988 26.6063 5.53865 26.5447 5.51624C26.5518 5.36681 26.3672 5.37926 26.2748 5.27716C26.2346 5.15762 26.1991 5.05551 26.2275 4.96586C26.1257 4.88866 26.1091 4.84881 26.0689 4.84134C26.1257 4.9036 26.0902 4.93847 26.102 4.98827C25.8937 4.84881 25.844 4.7741 25.6641 4.57238C25.5883 4.57487 25.5149 4.54498 25.4486 4.45035ZM27.0111 6.01431C27.0537 6.03673 27.101 6.07657 27.1578 6.15378C27.1365 6.26086 27.0134 5.97945 26.9921 6.08903C26.9637 6.04918 26.9969 6.03673 27.0111 6.01431Z"
       fill="#010A35"
       id="path150" />
    <path
       fill-rule="evenodd"
       clip-rule="evenodd"
       d="M25.2924 6.24094C25.3374 6.31316 25.3232 6.36795 25.3208 6.42523C25.3776 6.5099 25.3989 6.45013 25.4463 6.50492C25.4203 6.52982 25.4297 6.56469 25.4534 6.60454C25.522 6.48002 25.3398 6.38538 25.3705 6.26335C25.3516 6.28577 25.3137 6.23098 25.2924 6.24094Z"
       fill="#010A35"
       id="path152" />
    <path
       fill-rule="evenodd"
       clip-rule="evenodd"
       d="M29.5015 10.5767C29.4873 10.3625 29.6341 10.639 29.6483 10.507C29.582 10.5294 29.5204 10.385 29.4542 10.375C29.5441 10.502 29.4352 10.4696 29.5015 10.5767Z"
       fill="#010A35"
       id="path154" />
    <path
       fill-rule="evenodd"
       clip-rule="evenodd"
       d="M29.556 11.3089C29.5276 11.3089 29.5015 11.269 29.4684 11.3039C29.5134 11.4135 29.4802 11.4484 29.4802 11.5156C29.5039 11.4982 29.5867 11.6924 29.5631 11.5679C29.4518 11.4309 29.5773 11.3985 29.556 11.3089Z"
       fill="#010A35"
       id="path156" />
    <path
       fill-rule="evenodd"
       clip-rule="evenodd"
       d="M28.4599 25.92C28.5286 25.8702 28.6351 25.8827 28.6067 25.8653C28.6351 25.7557 28.5025 25.8229 28.4599 25.92Z"
       fill="#010A35"
       id="path158" />
    <path
       fill-rule="evenodd"
       clip-rule="evenodd"
       d="M27.1768 27.8376C27.0797 27.9646 26.9566 28.0219 26.9614 28.129C27.03 28.0842 27.1697 27.9497 27.1437 28.0717C27.1673 27.9671 27.449 27.7729 27.3733 27.7878C27.2952 27.8501 27.0963 28.0095 27.1768 27.8376Z"
       fill="#010A35"
       id="path160" />
    <path
       fill-rule="evenodd"
       clip-rule="evenodd"
       d="M28.5498 29.4888C28.5451 29.5386 28.5451 29.5336 28.5262 29.7079C28.6422 29.5411 28.744 29.3792 28.68 29.2995C28.6469 29.3593 28.5119 29.4664 28.5498 29.4888Z"
       fill="#010A35"
       id="path162" />
    <path
       fill-rule="evenodd"
       clip-rule="evenodd"
       d="M23.5974 31.496C23.543 31.5409 23.4933 31.5259 23.4956 31.5633C23.6329 31.5209 23.382 31.6729 23.3938 31.7052C23.4838 31.6753 23.6992 31.5209 23.6542 31.5085C23.5146 31.6056 23.5667 31.5533 23.5974 31.496Z"
       fill="#010A35"
       id="path164" />
    <path
       fill-rule="evenodd"
       clip-rule="evenodd"
       d="M19.0474 33.451C19.1043 33.456 19.1966 33.4286 19.2179 33.4684C19.038 33.5282 18.7349 33.4859 18.8344 33.5755C18.8888 33.5108 19.0735 33.5357 19.1208 33.5606C19.154 33.5033 19.5043 33.3339 19.3978 33.3713C19.2321 33.4634 19.1019 33.3837 19.0474 33.451Z"
       fill="#010A35"
       id="path166" />
    <path
       fill-rule="evenodd"
       clip-rule="evenodd"
       d="M18.1218 33.5058C18.1242 33.6054 17.9774 33.7175 18.1384 33.7598C18.1171 33.7224 18.181 33.7075 18.2023 33.6801C18.0768 33.6577 18.0934 33.5332 18.3207 33.4958C18.3444 33.4186 18.1952 33.4983 18.1218 33.5058Z"
       fill="#010A35"
       id="path168" />
    <path
       fill-rule="evenodd"
       clip-rule="evenodd"
       d="M17.4424 33.715C17.3643 33.7474 17.5324 33.7847 17.5087 33.8544L17.3524 33.8818L17.3335 33.7772C17.2151 33.8644 16.9831 33.8793 17.0802 33.9466C17.0163 33.9242 16.9169 33.9565 16.8861 33.9989C17.1891 33.979 17.2648 33.8893 17.5158 33.8943C17.5158 33.8694 17.5182 33.8445 17.5868 33.8395C17.4684 33.8021 17.5797 33.71 17.4424 33.715Z"
       fill="#010A35"
       id="path170" />
    <path
       fill-rule="evenodd"
       clip-rule="evenodd"
       d="M15.764 34.9079C15.8421 34.9353 16.041 34.8904 15.9818 35C16.28 34.9701 15.861 34.8332 15.764 34.9079Z"
       fill="#010A35"
       id="path172" />
    <path
       fill-rule="evenodd"
       clip-rule="evenodd"
       d="M14.1234 33.7847C14.1684 33.7972 14.211 33.8121 14.2394 33.832C14.6726 33.8121 14.2086 33.7797 14.1234 33.7847Z"
       fill="#010A35"
       id="path174" />
    <path
       fill-rule="evenodd"
       clip-rule="evenodd"
       d="M13.8867 33.8793C13.9198 33.9441 14.0974 33.969 14.1992 33.9565C14.1708 33.9092 14.0287 33.8719 14.1234 33.827C13.9151 33.8021 13.7896 33.827 13.6547 33.847C13.7683 33.9242 13.5387 33.9192 13.6097 33.9491C13.6618 33.9217 13.7967 33.9291 13.8464 33.9615C13.8962 33.9117 13.8275 33.8943 13.8867 33.8793Z"
       fill="#010A35"
       id="path176" />
    <path
       fill-rule="evenodd"
       clip-rule="evenodd"
       d="M13.3493 33.6801C13.3517 33.7324 13.2854 33.7449 13.2286 33.7523C13.2215 33.7075 13.0581 33.7225 13.0392 33.6826C12.9966 33.6951 13.0203 33.7573 12.9185 33.7299C12.2461 33.6203 11.7443 33.5531 11.2779 33.4112C11.0436 33.3464 10.8139 33.2817 10.5701 33.2144C10.4494 33.1795 10.3239 33.1447 10.1937 33.1073C10.0659 33.06 9.93328 33.0127 9.79124 32.9604C9.76757 33.0999 9.67051 32.8956 9.59476 32.933C9.635 33.065 9.72496 33.0749 9.89541 33.1771C9.94749 33.1248 9.81018 33.0999 9.80782 33.055C9.85753 33.0749 9.89304 33.0749 9.92381 33.0749C9.84806 33.1447 10.099 33.202 9.96406 33.2244C10.241 33.3041 10.5535 33.3464 10.892 33.4236C11.0625 33.461 11.2377 33.5008 11.4247 33.5456C11.517 33.568 11.6117 33.593 11.7111 33.6179C11.8106 33.6378 11.91 33.6577 12.0142 33.6801C12.0165 33.6428 12.052 33.6303 12.0994 33.6303C12.187 33.6975 12.1988 33.6677 12.3693 33.6951C12.3172 33.7499 12.3361 33.7698 12.4332 33.8121C12.4426 33.7897 12.4332 33.7523 12.4805 33.7548C12.6817 33.7847 12.9492 33.7972 13.1836 33.7872C13.3943 33.7772 13.5766 33.7349 13.6713 33.6951C13.5955 33.71 13.4393 33.6751 13.3493 33.6801Z"
       fill="#010A35"
       id="path178" />
    <path
       fill-rule="evenodd"
       clip-rule="evenodd"
       d="M8.3945 30.2284C8.52944 30.2832 8.67858 30.3903 8.5247 30.3629C8.59809 30.4227 8.69515 30.4899 8.75433 30.4526C8.85139 30.5497 8.86323 30.7066 9.01474 30.7439C9.0029 30.7788 8.98396 30.8012 8.95082 30.8062C9.06208 30.8436 9.1189 30.8062 9.21123 30.8162C9.27041 30.8535 9.20649 30.9033 9.31539 30.9357C9.3651 30.8983 9.54502 30.9457 9.7131 31.0129C9.70363 31.0229 9.69416 31.0353 9.69179 31.0453C9.68942 31.0727 9.70836 31.1001 9.71546 31.1299C9.73204 31.1125 9.75808 31.0951 9.75808 31.0776C9.75808 31.0627 9.75571 31.0453 9.74861 31.0303C9.93562 31.1125 10.0942 31.2146 10.0279 31.257C10.125 31.2819 10.2221 31.3217 10.3168 31.364H10.3144C10.3026 31.3665 10.2907 31.384 10.2789 31.3939C10.2576 31.4139 10.267 31.4437 10.3073 31.4537C10.3949 31.4761 10.4943 31.4487 10.563 31.5359C10.6435 31.4761 10.7121 31.5035 10.795 31.5483C10.8423 31.5732 10.8778 31.5483 10.8968 31.496C10.9039 31.4935 10.9086 31.4935 10.9157 31.4911C10.911 31.4886 10.9062 31.4861 10.9015 31.4836C10.9062 31.4661 10.9062 31.4487 10.9086 31.4263C10.9678 31.4388 11.0341 31.4562 11.0435 31.4163C11.0009 31.4064 10.9536 31.3964 10.9086 31.3865C10.9015 31.3416 10.8826 31.2794 10.8589 31.2968C10.8257 31.3217 10.7902 31.3367 10.7547 31.3466C10.7216 31.3391 10.6908 31.3317 10.6577 31.3217C10.5275 31.2769 10.3925 31.2271 10.2623 31.1748C10.0019 31.0727 9.75097 30.9731 9.55449 30.8983C9.57816 30.8809 9.60657 30.866 9.64208 30.8635C9.7415 30.8959 9.77701 31.0029 9.83856 30.9382C9.73677 30.9008 9.69179 30.8535 9.62314 30.8112C9.57106 30.8585 9.47636 30.8361 9.38404 30.7987C9.29171 30.7564 9.19939 30.7041 9.13784 30.7116C9.18755 30.7066 9.20649 30.6593 9.17572 30.6144C9.04078 30.5671 8.8656 30.46 8.79221 30.3554C8.81115 30.3305 8.85849 30.348 8.8798 30.328C8.68331 30.2309 8.59809 30.2708 8.3945 30.2284Z"
       fill="#010A35"
       id="path180" />
    <path
       fill-rule="evenodd"
       clip-rule="evenodd"
       d="M9.28226 31.8945C9.47164 31.9169 9.63499 31.9368 9.8149 32.0738C9.82437 32.0464 9.81254 32.024 9.79833 32.0016C9.85751 32.024 9.89302 32.019 9.91433 31.9991C9.69417 31.9468 9.59238 31.8895 9.37695 31.8422C9.60658 31.9244 9.33671 31.8945 9.28226 31.8945Z"
       fill="#010A35"
       id="path182" />
    <path
       fill-rule="evenodd"
       clip-rule="evenodd"
       d="M8.93664 31.638C8.87746 31.6106 8.83248 31.5832 8.80881 31.5533C8.74963 31.5932 8.92244 31.76 8.87983 31.6803C8.7875 31.623 8.94375 31.6753 8.93664 31.638Z"
       fill="#010A35"
       id="path184" />
    <path
       fill-rule="evenodd"
       clip-rule="evenodd"
       d="M8.1507 31.765C8.05838 31.882 8.46319 31.9767 8.47739 32.0888L8.4916 32.0489C8.5129 32.0589 8.53421 32.0663 8.53421 32.0464C8.45372 31.9941 8.33772 31.9468 8.19568 31.8571C8.20515 31.8273 8.22882 31.7949 8.1507 31.765Z"
       fill="#010A35"
       id="path186" />
    <path
       fill-rule="evenodd"
       clip-rule="evenodd"
       d="M6.97648 32.7163C7.01436 32.7213 7.13272 32.6864 7.05697 32.6416C6.95991 32.6715 6.91493 32.5968 6.83681 32.6192C6.89836 32.6566 6.9244 32.6864 6.92914 32.7188C6.79893 32.684 6.80604 32.6516 6.67583 32.5719C6.64979 32.6018 6.69477 32.6366 6.67583 32.669C6.56457 32.5669 6.45094 32.5818 6.35861 32.547C6.46751 32.6068 6.44857 32.6566 6.5551 32.7188C6.6924 32.7039 6.77999 32.7935 7.0333 32.8907C7.0404 32.8483 7.10195 32.8782 7.13509 32.8707C7.04277 32.8184 7.02383 32.7686 6.97648 32.7163Z"
       fill="#010A35"
       id="path188" />
    <path
       fill-rule="evenodd"
       clip-rule="evenodd"
       d="M7.9613 28.7815C8.04179 28.8014 8.07257 28.906 8.09861 28.8687C7.97787 28.784 8.04653 28.7641 8.03942 28.7093C7.97551 28.7242 7.9613 28.7043 7.9613 28.7815Z"
       fill="#010A35"
       id="path190" />
    <path
       fill-rule="evenodd"
       clip-rule="evenodd"
       d="M24.5514 3.35457C24.6887 3.47162 24.7527 3.43924 24.8545 3.48407C24.9349 3.56874 24.9397 3.64096 24.987 3.72066C25.0651 3.74805 25.148 3.82276 25.2427 3.90743C25.3326 3.99958 25.4344 4.10169 25.5528 4.18138C25.4013 4.05437 25.4108 3.97218 25.3753 3.87755C25.2356 3.82027 25.1835 3.72315 25.0557 3.69575C25.0793 3.66587 25.0557 3.64096 25.0036 3.62851C25.0367 3.59115 25.0675 3.55131 24.9989 3.49403C24.8947 3.48656 24.7432 3.37947 24.639 3.36951C24.6225 3.32219 24.6201 3.27737 24.5869 3.22507C24.5727 3.24997 24.5467 3.25246 24.5207 3.25246C24.5822 3.2948 24.5869 3.32966 24.5514 3.35457Z"
       fill="#010A35"
       id="path192" />
    <path
       fill-rule="evenodd"
       clip-rule="evenodd"
       d="M10.0469 33.4161C9.96877 33.3564 9.87644 33.2991 9.77938 33.2468C9.5829 33.1422 9.35563 33.06 9.13784 33.0525C9.12364 33.2269 8.96266 33.2393 8.74723 33.1945C8.79458 33.0999 8.55311 33.0376 8.53181 32.9504C8.51287 33.0426 8.3803 32.943 8.38503 32.9953C8.37556 32.9579 8.34479 32.9205 8.29744 32.8832C8.2714 32.9853 8.04651 32.8334 7.89973 32.7811C7.87369 32.8558 7.91867 32.8558 7.85239 32.8981C7.99916 33.0426 8.36846 33.2368 8.48683 33.314C8.87033 33.3439 9.28225 33.8146 9.76991 33.9316C10.0966 34.0064 10.3097 33.8569 10.2434 33.573C10.1937 33.5257 10.125 33.4734 10.0469 33.4161Z"
       fill="#010A35"
       id="path194" />
  </g>
  <defs
     id="defs201">
    <clipPath
       id="clip0">
      <rect
         width="31"
         height="35"
         fill="white"
         id="rect198" />
    </clipPath>
    <clipPath
       id="clip0-0">
      <rect
         width="26"
         height="26"
         fill="#ffffff"
         id="rect10"
         x="0"
         y="0" />
    </clipPath>
  </defs>
  <g
     clip-path="url(#clip0-0)"
     id="g8"
     transform="translate(2.5117188,2.4921795)">
    <path
       d="M 6.5,10.2123 H 0.930126 C 0.418828,10.2123 0.00543933,10.6257 0,11.1425 v 13.9247 c 0,0.5167 0.418828,0.9301 0.930126,0.9301 H 6.5 c 0.51674,0 0.93013,-0.4189 0.93013,-0.9301 V 11.1425 C 7.43013,10.6257 7.0113,10.2123 6.5,10.2123 Z"
       fill="#ee2529"
       id="path2-2" />
    <path
       d="m 15.7849,0.00271606 h -5.5698 c -0.51133,0 -0.93016,0.41338894 -0.93016,0.92468594 V 25.0672 c 0,0.5167 0.41883,0.9301 0.93016,0.9301 h 5.5698 c 0.5168,0 0.9302,-0.4188 0.9302,-0.9301 V 0.932842 c 0,-0.516737 -0.4189,-0.93012594 -0.9302,-0.93012594 z"
       fill="#ee2529"
       id="path4-4" />
    <path
       d="M 25.0699,8 H 19.5 C 18.9833,8 18.5699,8.40064 18.5699,8.90145 V 25.0958 c 0,0.5008 0.4188,0.9015 0.9301,0.9015 h 5.5699 C 25.5866,25.9973 26,25.5914 26,25.0958 V 8.90145 C 26,8.40064 25.5812,8 25.0699,8 Z"
       fill="#ee2529"
       id="path6-4" />
  </g>
</svg>
