<svg width="30" height="25" viewBox="0 0 30 25" fill="none" xmlns="http://www.w3.org/2000/svg">
<path d="M10.8638 23.2717C9.99468 23.2717 10.1424 22.9434 9.84267 22.1155L7.28711 13.7015L26.959 2.026" fill="#010A35"/>
<path d="M10.8281 23.2717C11.4987 23.2717 11.7949 22.9629 12.1693 22.5965L15.746 19.0951L11.2845 16.3865" fill="#010A35"/>
<path d="M11.4143 16.4834L22.2039 24.5106C23.4353 25.1947 24.3237 24.8404 24.6305 23.3596L29.0225 2.5187C29.472 0.703383 28.3353 -0.120251 27.1572 0.418279L1.36776 10.432C-0.392596 11.143 -0.38211 12.132 1.04692 12.5726L7.66509 14.6528L22.9868 4.91906C23.7102 4.47736 24.3742 4.71461 23.8293 5.20169" fill="#010A35"/>
</svg>
