<svg width="33" height="27" viewBox="0 0 33 27" fill="none" xmlns="http://www.w3.org/2000/svg">
<path d="M32.9861 3.26641C31.802 3.79153 30.5295 4.14644 29.1939 4.30606C30.5572 3.48889 31.604 2.19498 32.097 0.653274C30.8213 1.40982 29.4083 1.95931 27.9044 2.25548C26.6999 0.972279 24.984 0.17041 23.085 0.17041C19.4386 0.17041 16.4823 3.12657 16.4823 6.77276C16.4823 7.29024 16.5408 7.79417 16.6534 8.27739C11.166 8.00205 6.30098 5.37349 3.04454 1.37898C2.47621 2.35413 2.15061 3.4883 2.15061 4.69829C2.15061 6.98889 3.31634 9.0098 5.08794 10.1938C4.00555 10.1595 2.98756 9.86253 2.09729 9.36801C2.09682 9.39555 2.09682 9.42322 2.09682 9.451C2.09682 12.65 4.3727 15.3186 7.39313 15.925C6.83905 16.076 6.25578 16.1566 5.65355 16.1566C5.22813 16.1566 4.81449 16.1153 4.41143 16.0382C5.25156 18.6613 7.68989 20.5702 10.5791 20.6235C8.31943 22.3943 5.47251 23.4498 2.37922 23.4498C1.84632 23.4498 1.32073 23.4186 0.804199 23.3576C3.7261 25.2309 7.19667 26.3239 10.9253 26.3239C23.0696 26.3239 29.7106 16.2632 29.7106 7.53838C29.7106 7.2521 29.7042 6.96735 29.6915 6.68424C30.9814 5.75336 32.1009 4.59046 32.9861 3.26641Z" fill="#010A35"/>
</svg>
