<?xml version="1.0" encoding="UTF-8" standalone="no"?>
<svg
   xmlns:dc="http://purl.org/dc/elements/1.1/"
   xmlns:cc="http://creativecommons.org/ns#"
   xmlns:rdf="http://www.w3.org/1999/02/22-rdf-syntax-ns#"
   xmlns:svg="http://www.w3.org/2000/svg"
   xmlns="http://www.w3.org/2000/svg"
   xmlns:sodipodi="http://sodipodi.sourceforge.net/DTD/sodipodi-0.dtd"
   xmlns:inkscape="http://www.inkscape.org/namespaces/inkscape"
   width="30.99939"
   height="36.44096"
   viewBox="0 0 30.99939 36.44096"
   fill="none"
   version="1.1"
   id="svg203"
   sodipodi:docname="winners.svg"
   inkscape:version="1.0.1 (3bc2e813f5, 2020-09-07)">
  <metadata
     id="metadata207">
    <rdf:RDF>
      <cc:Work
         rdf:about="">
        <dc:format>image/svg+xml</dc:format>
        <dc:type
           rdf:resource="http://purl.org/dc/dcmitype/StillImage" />
        <dc:title></dc:title>
      </cc:Work>
    </rdf:RDF>
  </metadata>
  <sodipodi:namedview
     pagecolor="#ffffff"
     bordercolor="#666666"
     borderopacity="1"
     objecttolerance="10"
     gridtolerance="10"
     guidetolerance="10"
     inkscape:pageopacity="0"
     inkscape:pageshadow="2"
     inkscape:window-width="2400"
     inkscape:window-height="1321"
     id="namedview205"
     showgrid="false"
     showguides="true"
     inkscape:guide-bbox="true"
     inkscape:snap-global="false"
     fit-margin-top="0"
     fit-margin-left="0"
     fit-margin-right="0"
     fit-margin-bottom="0"
     inkscape:zoom="17.778685"
     inkscape:cx="10.2769"
     inkscape:cy="31.431856"
     inkscape:window-x="2391"
     inkscape:window-y="-9"
     inkscape:window-maximized="1"
     inkscape:current-layer="svg203">
    <sodipodi:guide
       position="15.490867,20.169344"
       orientation="1,0"
       id="guide209" />
    <sodipodi:guide
       position="15.152799,18.160821"
       orientation="0,-1"
       id="guide211" />
  </sodipodi:namedview>
  <g
     clip-path="url(#clip0)"
     id="g196"
     transform="translate(-6.1036274e-4,0.78013908)">
    <path
       fill-rule="evenodd"
       clip-rule="evenodd"
       d="m 2.36255,23.3798 c -0.02604,0.0075 -0.06155,0.0274 -0.07102,0.0523 -0.0142,0.0448 -0.0142,0.0971 -0.02367,0.1992 -0.05682,0.132 0.08285,0.2541 0.1373,0.4035 0.0071,0.0174 0.06866,0.0373 0.08049,0.0249 0.11837,-0.1071 0.232,-0.2192 0.3409,-0.3362 0.01657,-0.0174 0.01657,-0.0697 0.00473,-0.0922 -0.116,-0.1643 -0.2462,-0.3088 -0.46873,-0.2515 z"
       fill="#010a35"
       id="path2" />
    <path
       fill-rule="evenodd"
       clip-rule="evenodd"
       d="m 1.88198,23.848 c -0.03314,-0.1096 -0.116,-0.1893 -0.2462,-0.1718 -0.02841,0.0099 -0.06155,0.0124 -0.08286,0.0324 -0.0071,0.0074 0.00237,0.0572 0.01894,0.0722 0.09706,0.0921 0.15861,0.1942 0.1302,0.3412 -0.01183,0.0622 -0.00473,0.1295 0.00474,0.1942 0.00237,0.0224 0.04024,0.0523 0.06628,0.0523 0.11837,0.01 0.25094,-0.1569 0.19176,-0.2515 C 1.90802,24.0298 1.90802,23.9402 1.88198,23.848 Z"
       fill="#010a35"
       id="path4" />
    <path
       fill-rule="evenodd"
       clip-rule="evenodd"
       d="M 3.44442,24.8616 C 3.42075,24.8292 3.39471,24.7719 3.34263,24.8018 c -0.03788,0.0224 -0.0947,0.0947 -0.08996,0.1021 0.08049,0.1146 -0.03551,0.2018 -0.02604,0.3039 0,0.0124 0.01657,0.0249 0.03314,0.0473 0.03314,-0.0199 0.06865,-0.0424 0.10416,-0.0623 0.17518,-0.1021 0.19412,-0.1768 0.08049,-0.3312 z"
       fill="#010a35"
       id="path6" />
    <path
       fill-rule="evenodd"
       clip-rule="evenodd"
       d="M 1.38485,22.3114 C 1.36828,22.3065 1.32803,22.3363 1.32566,22.3538 1.31619,22.4011 1.3233,22.4509 1.3233,22.5007 c 0.00236,0 0.00473,0 0.00947,0 0,0.0648 -0.00474,0.132 0.00236,0.1968 0.00474,0.0423 0.03315,0.0572 0.05682,0.0423 C 1.47717,22.6825 1.52452,22.6053 1.51742,22.4957 1.51031,22.4285 1.44876,22.3264 1.38485,22.3114 Z"
       fill="#010a35"
       id="path8" />
    <path
       fill-rule="evenodd"
       clip-rule="evenodd"
       d="m 9.09286,29.033 c 0.00236,0 -0.00237,-0.0274 -0.00947,-0.0373 -0.09943,-0.1395 -0.2533,-0.1644 -0.38351,-0.2366 -0.0284,0.0448 -0.05444,0.0672 -0.05918,0.0946 -0.00237,0.0274 0.01184,0.0772 0.02841,0.0797 0.03788,0.01 0.07575,0.0224 0.11126,0.0324 0.01657,0.0224 0.03551,0.0423 0.06629,0.0622 0.01183,-0.0149 0.0071,-0.0299 0,-0.0423 0.05681,0.0199 0.11126,0.0423 0.16334,0.0747 0.01894,0.0125 0.05682,-0.0149 0.08286,-0.0274 z"
       fill="#010a35"
       id="path10" />
    <path
       fill-rule="evenodd"
       clip-rule="evenodd"
       d="m 2.11402,24.5777 c -0.05208,-0.0174 -0.12073,0.0349 -0.12546,0.0996 -0.01184,0.1196 0.01893,0.1843 0.08995,0.1893 0.04972,0.005 0.16808,-0.0797 0.17755,-0.127 0.01184,-0.0424 -0.07102,-0.137 -0.14204,-0.1619 z"
       fill="#010a35"
       id="path12" />
    <path
       fill-rule="evenodd"
       clip-rule="evenodd"
       d="m 3.01596,24.2266 c -0.00473,-0.0125 -0.0213,-0.02 -0.03077,-0.0299 -0.00947,0.0124 -0.02841,0.0249 -0.02841,0.0373 -0.00237,0.127 -0.00474,0.2516 -0.00237,0.3786 0,0.0124 0.0142,0.0348 0.02367,0.0373 0.01184,0.0025 0.02604,-0.0124 0.03788,-0.0224 0.12073,-0.1021 0.12547,-0.127 0.04971,-0.2739 C 3.04674,24.3137 3.0349,24.2689 3.01596,24.2266 Z"
       fill="#010a35"
       id="path14" />
    <path
       fill-rule="evenodd"
       clip-rule="evenodd"
       d="M 2.4549,23.0361 C 2.45253,23.0237 2.43596,22.9988 2.42649,23.0013 c -0.07102,0.0075 -0.15151,0.1295 -0.14204,0.2166 0.00237,0.015 0.01894,0.0274 0.02841,0.0399 0.06392,-0.01 0.15151,-0.142 0.14204,-0.2217 z"
       fill="#010a35"
       id="path16" />
    <path
       fill-rule="evenodd"
       clip-rule="evenodd"
       d="M 2.4809,25.1281 C 2.46906,25.1704 2.45012,25.2128 2.49984,25.2476 2.51877,25.2352 2.55902,25.2177 2.55665,25.2103 2.54481,25.1704 2.52588,25.1331 2.50931,25.0957 2.49984,25.1082 2.48563,25.1156 2.4809,25.1281 Z"
       fill="#010a35"
       id="path18" />
    <path
       fill-rule="evenodd"
       clip-rule="evenodd"
       d="m 10.0587,31.3541 c 0.026,0 0.0544,-0.0225 0.0805,-0.0349 -0.0261,-0.0125 -0.0521,-0.0374 -0.0782,-0.0374 -0.0071,0 -0.0142,0.005 -0.0236,0.0075 -0.04501,-0.0274 -0.10419,-0.0548 -0.11839,-0.0274 0.02367,0.015 0.03314,0.0324 0.0213,0.0523 0.03314,0.015 0.06389,0.0249 0.08759,0.0274 0.0095,0.0075 0.0213,0.0125 0.0308,0.0125 z"
       fill="#010a35"
       id="path20" />
    <path
       fill-rule="evenodd"
       clip-rule="evenodd"
       d="M 4.6849,8.62174 C 4.66833,8.6317 4.6636,8.66159 4.65649,8.68649 4.68017,8.67902 4.70621,8.67653 4.71804,8.6591 4.73462,8.63419 4.71094,8.60431 4.6849,8.62174 Z"
       fill="#010a35"
       id="path22" />
    <path
       fill-rule="evenodd"
       clip-rule="evenodd"
       d="m 4.65632,8.68649 c -0.00466,0 -0.00933,0.00247 -0.01167,0.00247 0,0.00246 0,0.00738 0,0.00985 0.00234,0 0.00701,0 0.00934,-0.00247 0,-0.00246 0,-0.00738 0.00233,-0.00985 z"
       fill="#010a35"
       id="path24" />
    <path
       fill-rule="evenodd"
       clip-rule="evenodd"
       d="m 4.58309,8.76121 c 0.00236,0.01245 0.03551,0.01743 0.05918,0.02739 0,-0.02988 0,-0.05728 0,-0.08716 C 4.60913,8.70393 4.57125,8.70891 4.58309,8.76121 Z"
       fill="#010a35"
       id="path26" />
    <path
       fill-rule="evenodd"
       clip-rule="evenodd"
       d="m 4.64227,8.78611 c 0,0.00493 0,0.00739 0,0.01231 0.00234,0 0.00467,0 0.00467,0 0.00233,-0.00246 0.00233,-0.00492 0.00233,-0.00738 0,-0.00247 -0.00466,-0.00247 -0.007,-0.00493 z"
       fill="#010a35"
       id="path28" />
    <path
       fill-rule="evenodd"
       clip-rule="evenodd"
       d="m 1.44878,11.523 c -0.00236,0 -0.00473,0.0299 -0.00236,0.0324 0.01893,0.01 0.04024,0.0175 0.05918,0.0249 C 1.50323,11.5455 1.50086,11.5131 1.44878,11.523 Z"
       fill="#010a35"
       id="path30" />
    <path
       fill-rule="evenodd"
       clip-rule="evenodd"
       d="m 1.50793,11.5803 c 0,0.005 0.00237,0.01 0.00237,0.0175 0.00474,0 0.00947,0 0.01421,0 0,-0.005 -0.00237,-0.0075 -0.00237,-0.0125 -0.0071,-0.0025 -0.00947,-0.005 -0.01421,-0.005 z"
       fill="#010a35"
       id="path32" />
    <path
       fill-rule="evenodd"
       clip-rule="evenodd"
       d="m 1.08658,12.2752 c 0.01183,-0.01 0.0213,-0.0225 0.03314,-0.0324 -0.01657,-0.0473 -0.04024,-0.0498 -0.06155,-0.0025 -0.00473,0.005 0.01657,0.0224 0.02841,0.0349 z"
       fill="#010a35"
       id="path34" />
    <path
       fill-rule="evenodd"
       clip-rule="evenodd"
       d="m 0.788309,12.7209 c -0.011837,0.0025 -0.018939,0.0374 -0.026041,0.0623 0.026041,0 0.054448,0 0.080489,0 C 0.838022,12.7483 0.835655,12.7085 0.788309,12.7209 Z"
       fill="#010a35"
       id="path36" />
    <path
       fill-rule="evenodd"
       clip-rule="evenodd"
       d="m 0.668353,12.8828 c -0.004991,0 -0.009981,0 -0.012476,0 0,0.0052 -0.002496,0.0131 -0.002496,0.0183 0.004991,-0.0026 0.009981,-0.0052 0.014972,-0.0052 -0.002495,-0.0053 0,-0.0105 0,-0.0131 z"
       fill="#010a35"
       id="path38" />
    <path
       fill-rule="evenodd"
       clip-rule="evenodd"
       d="m 0.750398,12.7956 c -0.049714,0.0075 -0.078122,0.0349 -0.082856,0.0872 0.028407,0 0.054448,0 0.082856,0 0,-0.0299 0,-0.0573 0,-0.0872 z"
       fill="#010a35"
       id="path40" />
    <path
       fill-rule="evenodd"
       clip-rule="evenodd"
       d="m 0.653341,12.9002 c -0.018938,0.0075 -0.037877,0.015 -0.056815,0.0249 -0.004735,0.0025 0,0.0299 0,0.0299 0.047346,0.0075 0.052081,-0.0249 0.056815,-0.0548 z"
       fill="#010a35"
       id="path42" />
    <path
       fill-rule="evenodd"
       clip-rule="evenodd"
       d="m 6.21653,28.3481 c 0.00947,-0.0099 0.02604,-0.0174 0.02604,-0.0273 0,-0.01 -0.0142,-0.02 -0.02367,-0.0299 -0.00947,0.0149 -0.01894,0.0299 -0.02841,0.0423 0.01184,0.005 0.01894,0.01 0.02604,0.0149 z"
       fill="#010a35"
       id="path44" />
    <path
       fill-rule="evenodd"
       clip-rule="evenodd"
       d="m 7.70087,28.8164 c 0.0142,0.0373 0.03551,0.0448 0.05208,0.0199 C 7.75768,28.8288 7.75532,28.8164 7.75532,28.8039 7.74585,28.7989 7.73401,28.7865 7.72928,28.789 7.71744,28.7939 7.70087,28.8114 7.70087,28.8164 Z"
       fill="#010a35"
       id="path46" />
    <path
       fill-rule="evenodd"
       clip-rule="evenodd"
       d="m 9.41243,31.115 c -0.00236,0.0099 0.01658,0.0224 0.02368,0.0324 0.01183,-0.01 0.0213,-0.02 0.03314,-0.0299 C 9.45978,31.105 9.45031,31.0951 9.44084,31.0826 9.43137,31.0951 9.4148,31.105 9.41243,31.115 Z"
       fill="#010a35"
       id="path48" />
    <path
       fill-rule="evenodd"
       clip-rule="evenodd"
       d="m 11.1784,31.3167 c -0.0071,-0.01 -0.0189,-0.0324 -0.0236,-0.0299 -0.0426,0.015 -0.045,0.0399 -0.0048,0.0623 0.0024,0 0.019,-0.0224 0.0284,-0.0324 z"
       fill="#010a35"
       id="path50" />
    <path
       fill-rule="evenodd"
       clip-rule="evenodd"
       d="M 26.495,5.9072 C 26.5423,5.82502 26.5163,5.71046 26.4074,5.57598 26.3245,5.64571 26.4808,5.80012 26.495,5.9072 Z"
       fill="#010a35"
       id="path52" />
    <path
       fill-rule="evenodd"
       clip-rule="evenodd"
       d="m 15.7119,1.77814 c -0.187,-0.01744 0.2296,-0.0523 0.0047,-0.09464 0.0047,0.06973 -0.1894,0.00498 -0.2699,0.01993 -0.0402,0.07471 0.2226,0.14444 0.2652,0.07471 z"
       fill="#010a35"
       id="path54" />
    <path
       fill-rule="evenodd"
       clip-rule="evenodd"
       d="M 9.47637,2.35093 C 9.33907,2.39825 9.32486,2.463 9.36748,2.53273 9.50478,2.48541 9.51898,2.42066 9.47637,2.35093 Z"
       fill="#010a35"
       id="path56" />
    <path
       fill-rule="evenodd"
       clip-rule="evenodd"
       d="M 17.6365,1.92756 C 17.537,1.93753 17.4684,1.97239 17.3571,1.96741 17.3595,1.89768 16.6895,1.73829 16.5617,1.85036 c 0.348,0.0523 0.6652,0.09464 0.9848,0.1569 0.161,0.02988 0.322,0.05977 0.4924,0.08965 0.1681,0.03487 0.3409,0.07222 0.5279,0.11207 C 18.4934,2.09691 18.3159,2.06205 18.1289,2.03465 17.9442,2.00975 17.7501,2.00477 17.6365,1.92756 Z"
       fill="#010a35"
       id="path58" />
    <path
       fill-rule="evenodd"
       clip-rule="evenodd"
       d="m 16.4221,1.64615 c -0.1799,-0.01743 -0.1942,0.08468 -0.3835,0.05728 0.0686,0.0797 -0.1468,0.1046 -0.0095,0.12701 0.0686,-0.10459 0.3125,-0.08716 0.393,-0.18429 z"
       fill="#010a35"
       id="path60" />
    <path
       fill-rule="evenodd"
       clip-rule="evenodd"
       d="m 0.776454,12.6388 c 0.054449,-0.2316 0.123101,-0.3761 0.172815,-0.5031 -0.037877,-0.01 -0.094693,0.127 -0.134937,0.2615 -0.040245,0.1345 -0.052081,0.269 -0.037878,0.2416 z"
       fill="#010a35"
       id="path62" />
    <path
       fill-rule="evenodd"
       clip-rule="evenodd"
       d="M 7.96127,5.71795 C 8.04413,5.65818 8.07964,5.7055 8.17196,5.63079 8.16013,5.55607 7.90682,5.66565 7.96127,5.71795 Z"
       fill="#010a35"
       id="path64" />
    <path
       fill-rule="evenodd"
       clip-rule="evenodd"
       d="m 18.3727,0.458229 0.116,0.029884 C 18.5053,0.450758 18.4532,0.430834 18.465,0.395969 18.3917,0.381027 18.3325,0.376046 18.3017,0.398459 c 0.116,0.019923 0.1326,0.037356 0.071,0.05977 z"
       fill="#010a35"
       id="path66" />
    <path
       fill-rule="evenodd"
       clip-rule="evenodd"
       d="M 19.3575,2.86893 19.5233,2.9287 C 19.5659,2.84403 19.3694,2.7992 19.3575,2.86893 Z"
       fill="#010a35"
       id="path68" />
    <path
       fill-rule="evenodd"
       clip-rule="evenodd"
       d="M 20.0938,2.1791 C 20.0701,2.14921 19.8831,2.05209 19.8476,2.08696 19.947,2.10439 20.0228,2.21895 20.0938,2.1791 Z"
       fill="#010a35"
       id="path70" />
    <path
       fill-rule="evenodd"
       clip-rule="evenodd"
       d="M 20.2358,3.13042 C 20.134,3.08808 20.0488,3.06816 19.9919,3.0831 c 0.0805,0.01246 0.2439,0.13199 0.2439,0.04732 z"
       fill="#010a35"
       id="path72" />
    <path
       fill-rule="evenodd"
       clip-rule="evenodd"
       d="M 20.6714,3.0856 C 20.714,3.0607 20.6406,3.01338 20.572,2.98599 20.501,2.96357 20.4394,2.96108 20.5081,3.01089 20.5578,2.96108 20.5814,3.07066 20.6714,3.0856 Z"
       fill="#010a35"
       id="path74" />
    <path
       fill-rule="evenodd"
       clip-rule="evenodd"
       d="m 20.7353,3.11548 c 0.1397,0.07969 0.1728,0.0523 0.258,0.12701 C 21.0454,3.18272 20.74,3.0582 20.7353,3.11548 Z"
       fill="#010a35"
       id="path76" />
    <path
       fill-rule="evenodd"
       clip-rule="evenodd"
       d="M 22.4161,3.94727 C 22.3474,3.88501 22.319,3.88501 22.2906,3.79535 22.2764,3.82026 22.2267,3.77792 22.2101,3.79286 c 0.019,0.04234 0.1302,0.17682 0.206,0.15441 z"
       fill="#010a35"
       id="path78" />
    <path
       fill-rule="evenodd"
       clip-rule="evenodd"
       d="M 23.4222,2.49039 C 23.337,2.45304 23.1713,2.28867 23.1618,2.37583 c 0.0994,0.05728 0.2249,0.16188 0.2604,0.11456 z"
       fill="#010a35"
       id="path80" />
    <path
       fill-rule="evenodd"
       clip-rule="evenodd"
       d="m 23.3583,5.02562 c 0.1041,0.08467 0.1894,0.16935 0.258,0.25153 0.019,-0.05977 -0.1823,-0.24157 -0.258,-0.25153 z"
       fill="#010a35"
       id="path82" />
    <path
       fill-rule="evenodd"
       clip-rule="evenodd"
       d="M 24.8402,5.04056 C 24.9136,5.10531 24.9799,5.15512 25.032,5.16508 25.0036,5.0829 24.8876,5.02562 24.8402,5.04056 Z"
       fill="#010a35"
       id="path84" />
    <path
       fill-rule="evenodd"
       clip-rule="evenodd"
       d="m 25.2403,6.24341 c -0.071,-0.0772 -0.1918,-0.16187 -0.1562,-0.20919 0.0544,0.03487 0.1396,0.16686 0.1728,0.13697 -0.1231,-0.22911 -0.4119,-0.28888 -0.625,-0.45076 0.1065,0.17433 0.4664,0.45076 0.6084,0.52298 z"
       fill="#010a35"
       id="path86" />
    <path
       fill-rule="evenodd"
       clip-rule="evenodd"
       d="m 27.8444,7.37406 c 0.0662,0.09712 0.1373,0.04981 0.1278,0.00249 l -0.071,-0.09962 c -0.0497,0.01993 0.0071,0.08966 -0.0568,0.09713 z"
       fill="#010a35"
       id="path88" />
    <path
       fill-rule="evenodd"
       clip-rule="evenodd"
       d="m 28.4953,9.20948 c -0.168,-0.16436 -0.116,-0.27145 -0.2746,-0.43333 -0.0094,0.07721 0.187,0.49809 0.2746,0.43333 z"
       fill="#010a35"
       id="path90" />
    <path
       fill-rule="evenodd"
       clip-rule="evenodd"
       d="m 29.2837,10.8581 c 0.0308,-0.0174 0.0592,-0.0199 0.0876,0.0025 -0.1066,-0.2017 -0.135,-0.3885 -0.2533,-0.5429 0.0142,0.0672 -0.116,-0.0224 -0.1563,-0.1444 -0.0189,0.0174 -0.0544,0.0199 -0.0379,0.0647 0.135,0.2416 0.3196,0.2814 0.3599,0.6201 z"
       fill="#010a35"
       id="path92" />
    <path
       fill-rule="evenodd"
       clip-rule="evenodd"
       d="m 29.4541,10.7336 0.071,0.1893 c 0.0758,0.0348 -0.0355,-0.274 -0.071,-0.1893 z"
       fill="#010a35"
       id="path94" />
    <path
       fill-rule="evenodd"
       clip-rule="evenodd"
       d="m 29.4044,11.2441 c 0.0261,-0.0199 0.0734,-0.0174 0.0616,-0.0697 -0.1066,0.0374 -0.0024,-0.2241 -0.1184,-0.2092 0.0213,0.0971 0.0284,0.132 0.0568,0.2789 z"
       fill="#010a35"
       id="path96" />
    <path
       fill-rule="evenodd"
       clip-rule="evenodd"
       d="m 28.2113,26.3882 c -0.0687,0.0424 -0.0356,0.0996 -0.1302,0.2067 0.026,0.0822 0.1704,0.005 0.1562,-0.0896 -0.0308,0.0373 -0.0687,0.0647 -0.1018,0.0797 -0.0095,-0.0399 0.1065,-0.1644 0.0758,-0.1968 z"
       fill="#010a35"
       id="path98" />
    <path
       fill-rule="evenodd"
       clip-rule="evenodd"
       d="m 22.2693,32.0016 c 0.1468,-0.0972 0.2983,-0.1694 0.2818,-0.2267 -0.1066,0.1171 -0.3054,0.1495 -0.3717,0.2267 0.0426,-0.02 0.0852,-0.0374 0.0899,0 z"
       fill="#010a35"
       id="path100" />
    <path
       fill-rule="evenodd"
       clip-rule="evenodd"
       d="m 18.6379,33.456 c 0.0876,-0.0299 0.1586,-0.0673 0.1751,-0.1146 -0.1017,0.0299 -0.2438,0.0473 -0.1751,0.1146 z"
       fill="#010a35"
       id="path102" />
    <path
       fill-rule="evenodd"
       clip-rule="evenodd"
       d="m 15.1839,34.0736 c -0.2912,0.0423 -0.4356,0.0274 -0.6699,0.0423 0.1941,0.0448 0.4616,0.0772 0.6344,0.0025 -0.0734,-0.0075 0.0142,-0.0224 0.0355,-0.0448 z"
       fill="#010a35"
       id="path104" />
    <path
       fill-rule="evenodd"
       clip-rule="evenodd"
       d="m 14.7863,33.9366 c 0.0852,-0.0448 0.232,-0.0697 0.3077,-0.132 -0.1799,0.0224 -0.2722,0.0125 -0.3077,0.132 z"
       fill="#010a35"
       id="path106" />
    <path
       fill-rule="evenodd"
       clip-rule="evenodd"
       d="m 14.4738,33.9466 c 0.0804,-0.0498 0.1609,0.0772 0.2746,0.0099 0.0047,-0.0523 -0.0213,-0.0871 -0.0805,-0.1095 -0.1066,0.0224 -0.2084,0.0498 -0.3504,0.0498 0.0332,0.0772 0.0047,0.0523 0.0379,0.127 -0.0639,-0.01 -0.1065,0.0249 -0.0403,0.0398 0.0498,-0.0548 0.232,-0.0373 0.2747,-0.0946 -0.045,-0.0025 -0.1113,0.0025 -0.116,-0.0224 z"
       fill="#010a35"
       id="path108" />
    <path
       fill-rule="evenodd"
       clip-rule="evenodd"
       d="m 13.837,34.1508 c 0.1965,0.1295 0.0094,0.0274 0.1586,0.0075 0.0923,-0.0125 0.2249,0.0473 0.2793,-0.0299 -0.1823,0.0199 -0.2698,-0.02 -0.4379,0.0224 z"
       fill="#010a35"
       id="path110" />
    <path
       fill-rule="evenodd"
       clip-rule="evenodd"
       d="m 12.6083,34.0263 c 0.1325,0.0124 0.4734,0.0523 0.4379,0.0199 -0.1752,-0.0274 -0.3385,-0.0448 -0.4379,-0.0199 z"
       fill="#010a35"
       id="path112" />
    <path
       fill-rule="evenodd"
       clip-rule="evenodd"
       d="m 12.0804,33.7523 c 0.097,0.0125 0.1255,-0.0199 0.1965,0.0299 0.0473,-0.0747 -0.2226,-0.1195 -0.1965,-0.0299 z"
       fill="#010a35"
       id="path114" />
    <path
       fill-rule="evenodd"
       clip-rule="evenodd"
       d="m 11.7064,33.3464 c 0.1325,0.0025 0.1609,0.0423 0.232,0.0199 -0.0261,-0.0199 -0.2557,-0.0996 -0.232,-0.0199 z"
       fill="#010a35"
       id="path116" />
    <path
       fill-rule="evenodd"
       clip-rule="evenodd"
       d="m 11.2566,30.973 c 0.1018,0.0274 0.2036,0.1046 0.2935,0.0772 l 0.0142,-0.0622 c -0.1325,-0.0349 -0.1988,-0.0025 -0.3077,-0.015 z"
       fill="#010a35"
       id="path118" />
    <path
       fill-rule="evenodd"
       clip-rule="evenodd"
       d="m 9.71307,31.3167 c 0.12074,0.015 0.17519,0.0772 0.24147,0.0672 C 9.93087,31.369 9.9214,31.3516 9.93323,31.3317 9.83144,31.2943 9.71544,31.2395 9.71307,31.3167 Z"
       fill="#010a35"
       id="path120" />
    <path
       fill-rule="evenodd"
       clip-rule="evenodd"
       d="m 8.95557,31.6928 c 0.03551,0.0224 0.04497,0.0473 0.05208,0.0722 0.16571,0.0174 0.21779,0.0398 0.34089,0.0423 -0.15151,-0.0747 -0.17518,-0.0597 -0.26987,-0.127 0.0284,0.0946 -0.11837,-0.0373 -0.1231,0.0125 z"
       fill="#010a35"
       id="path122" />
    <path
       fill-rule="evenodd"
       clip-rule="evenodd"
       d="m 8.41345,29.038 c 0.09943,0.0498 0.15151,0.1021 0.21306,0.1544 0.06628,-0.1619 0.22963,0.1793 0.33379,0.0548 C 8.88691,29.2273 8.7212,29.1874 8.77565,29.1077 8.89875,29.0978 9.05263,29.3045 9.08814,29.1949 8.89402,29.1202 8.76855,29.0679 8.64545,28.9359 8.72357,29.0953 8.53182,28.9658 8.5981,29.1028 8.53655,29.0803 8.42292,28.9558 8.41345,29.038 Z"
       fill="#010a35"
       id="path124" />
    <path
       fill-rule="evenodd"
       clip-rule="evenodd"
       d="M 4.95713,28.8562 C 4.86717,28.911 4.99264,29.0056 5.06839,29.0181 4.9737,28.9508 5.04945,28.9234 4.95713,28.8562 Z"
       fill="#010a35"
       id="path126" />
    <path
       fill-rule="evenodd"
       clip-rule="evenodd"
       d="m 3.72377,28.2984 c 0.1018,0.0323 -0.13257,-0.264 -0.20359,-0.2914 -0.00237,0.0921 -0.03788,0.1718 0,0.2789 0.05208,-0.01 0.09233,-0.0647 0.16335,-0.0025 0.00947,0.0498 0.2391,0.3462 0.27461,0.274 -0.06156,-0.1022 -0.14678,-0.1669 -0.23437,-0.259 z"
       fill="#010a35"
       id="path128" />
    <path
       fill-rule="evenodd"
       clip-rule="evenodd"
       d="m 9.45502,29.9146 c 0.00236,0 0.00473,0.0025 0.0071,0.0025 -0.00237,-0.0025 -0.00473,-0.0025 -0.00473,-0.005 z"
       fill="#010a35"
       id="path130" />
    <path
       fill-rule="evenodd"
       clip-rule="evenodd"
       d="m 16.5144,32.9903 0.0024,0.0174 c 0.0615,-0.015 0.1231,-0.0324 0.1823,-0.0473 -0.0616,0.0099 -0.1231,0.0199 -0.1847,0.0299 z"
       fill="#010a35"
       id="path132" />
    <path
       fill-rule="evenodd"
       clip-rule="evenodd"
       d="M 31,17.0243 C 30.9739,16.5711 30.9479,16.1253 30.9242,15.6945 30.9171,15.5874 30.91,15.4803 30.9029,15.3757 30.8887,15.2711 30.8769,15.1665 30.8627,15.0644 30.8343,14.8602 30.8082,14.6609 30.7822,14.4692 30.6851,14.3148 30.7017,13.732 30.5123,13.6 c -0.0095,-0.2316 -0.0118,-0.3137 -0.1065,-0.5254 0.1302,0.0597 -0.0521,-0.2491 0.045,-0.2291 -0.0876,-0.1719 -0.0521,-0.4159 -0.1444,-0.4757 0.0449,0.254 0.1396,0.396 0.0662,0.4981 -0.0355,-0.2416 -0.1538,-0.4732 -0.1088,-0.66 -0.0687,-0.1793 -0.2652,-0.4856 -0.2391,-0.6599 -0.0924,0.0149 -0.0569,-0.2167 -0.1468,-0.2939 -0.0379,-0.0025 -0.0261,0.0772 -0.0545,0.0249 -0.0923,-0.1345 -0.0805,-0.3561 -0.168,-0.4607 0.0142,0.0473 0.0284,0.0921 -0.0095,0.0946 -0.0568,-0.1121 -0.0095,-0.127 -0.0663,-0.2391 -0.0663,0.015 0.0308,0.1793 0.0284,0.2565 0.0876,0.0523 0.2509,0.4931 0.2249,0.5678 -0.0781,-0.1195 -0.1397,-0.1419 -0.1278,-0.2988 -0.0616,-0.005 -0.0095,0.0921 -0.0474,0.1096 0.045,0.127 0.1065,0.1046 0.1515,0.244 -0.0592,-0.0049 -0.1089,-0.0797 -0.1657,-0.1071 0.0426,0.1395 0.1113,0.0723 0.1563,0.1993 -0.0213,0.0498 -0.1018,-0.0897 -0.0758,0.0299 0.0166,0.0124 0.0284,0.0274 0.0355,0.0448 -0.0118,0.0025 -0.0237,0.005 -0.0355,0.01 -0.0237,0.0124 -0.0497,0.0273 -0.0734,0.0398 0.0048,-0.0174 0.0142,-0.0299 0.0308,-0.0374 -0.0616,-0.1046 -0.0497,-0.127 -0.0616,-0.2365 -0.0449,0.0199 -0.0094,0.1917 0.0166,0.2814 -0.0521,0.0299 -0.1042,0.0573 -0.1586,0.0846 -0.0047,0.0025 -0.0142,-0.0049 -0.0237,-0.0149 -0.0094,-0.0374 -0.0213,-0.0722 -0.0331,-0.1096 -0.0024,-0.0423 -0.0095,-0.0846 -0.0474,-0.117 -0.0449,-0.1121 -0.0804,-0.2217 -0.0331,-0.3063 -0.1255,-0.0648 -0.2699,-0.5753 -0.2533,-0.7123 -0.0473,0.01 -0.1018,-0.0573 -0.1491,-0.137 0,-0.0299 0,-0.0572 0.0047,-0.0871 0.0047,-0.0399 -0.0261,-0.0548 -0.0663,-0.0449 -0.0284,-0.0747 -0.0402,-0.1344 -0.0237,-0.1444 -0.0592,-0.0573 -0.116,-0.117 -0.1751,-0.1818 -0.019,-0.04981 -0.0379,-0.09961 -0.0592,-0.14942 0.0047,0 0.0094,0.00249 0.0142,0.00498 C 28.5593,9.6951 28.4835,9.5407 28.403,9.39127 28.4007,9.38878 28.4007,9.38629 28.3983,9.3838 28.2231,9.04262 28.0195,8.7114 27.7946,8.40508 27.7165,8.26561 27.636,8.11868 27.5508,7.95681 27.5248,7.97922 27.4916,7.96428 27.4585,7.92941 27.4419,7.77003 27.2857,7.60815 27.1578,7.46371 27.1271,7.35413 27.0773,7.24953 27.0134,7.14743 27.0182,7.13996 27.0229,7.13249 27.0324,7.12501 26.9874,7.06275 26.9684,7.05528 26.9542,7.06275 26.9353,7.03536 26.914,7.01046 26.8951,6.98555 26.8098,6.87597 26.7151,6.76889 26.6276,6.6618 26.5352,6.5572 26.4476,6.45261 26.379,6.34303 26.1659,5.99188 25.9529,5.63078 25.7114,5.2871 25.4605,4.95588 25.1788,4.64458 24.8071,4.44784 24.7337,4.38558 24.729,4.49516 24.6627,4.44535 24.4449,4.23118 24.1561,4.03692 23.8649,3.83022 23.5619,3.64344 23.2589,3.43923 22.9701,3.2649 22.5676,3.00092 22.2172,2.66472 21.7651,2.4879 21.4999,2.39326 21.2608,2.32602 21.036,2.3061 20.8111,2.28867 20.6027,2.30859 20.4062,2.37583 20.0133,2.2015 19.457,2.39326 19.1042,2.10687 19.0166,2.11932 19.0072,2.21395 18.8628,2.16415 18.7586,2.14173 18.7704,2.09193 18.7207,2.05706 c -0.0237,0.11456 0.0355,0.10211 -0.0473,0.18429 0.3054,0.02739 0.4379,0.08467 0.7149,0.05479 0.0687,0.03237 0.0852,0.07471 0.1965,0.1021 0.6155,0.00997 1.3494,0.06974 2.1235,0.34368 0.7433,0.27394 1.3612,0.83926 1.9057,1.00114 0.0994,0.08467 -0.0071,0.14942 0.0544,0.22911 0.2983,0.08468 0.419,0.37107 0.7149,0.56034 0.2036,0.14196 0.4569,0.16188 0.6771,0.34368 0.2178,0.19176 0.3669,0.38103 0.5232,0.58026 0.1491,0.20421 0.303,0.41839 0.5279,0.66493 0.0023,0.01495 0.0047,0.0274 0.0071,0.04234 -0.1089,-0.09463 -0.1847,-0.18429 -0.3575,-0.32375 0.0237,-0.04483 0.09,0.06475 0.1184,0.03985 C 25.754,5.74285 25.6427,5.65817 25.5481,5.57101 25.4534,5.48135 25.3752,5.3917 25.3066,5.25224 25.2545,5.33691 25.1148,5.16756 25.0486,5.20741 25.1953,5.35434 25.3847,5.53863 25.3823,5.69304 25.2379,5.61085 25.2616,5.47388 25.1764,5.4689 c 0.0899,0.17931 0.1965,0.27644 0.3219,0.36858 0.1255,0.09214 0.251,0.19425 0.393,0.3636 -0.0189,0.02241 -0.0426,0.01992 -0.0686,0.01494 0.0734,0.13697 0.2201,0.22912 0.329,0.3113 0.0237,0.03985 0.0521,0.0772 0.0781,0.11456 -0.0189,-0.01245 -0.0378,-0.02242 -0.0615,-0.0274 0.0237,0.0523 0.0544,0.10709 0.0734,0.15939 -0.0213,-0.01245 -0.0403,-0.01993 -0.0521,-0.01743 0.026,0.02739 0.0497,0.05478 0.071,0.08218 0.0048,0.02739 0.0071,0.05479 0,0.0772 C 26.0712,6.80624 25.8961,6.75395 25.7256,6.71161 25.6996,6.67176 25.6806,6.63192 25.6664,6.59705 l -0.0426,0.04483 c 0.0261,0.02241 0.0426,0.04233 0.0568,0.05977 C 25.6546,6.69667 25.6309,6.6892 25.6049,6.68421 25.593,6.67176 25.5812,6.65931 25.5717,6.64437 25.593,6.62195 25.5528,6.51985 25.522,6.58958 25.5552,6.62444 25.5623,6.64935 25.5504,6.66927 25.4912,6.63192 25.4226,6.6095 25.3752,6.55969 25.3232,6.50491 25.3042,6.41774 25.2616,6.35548 25.2024,6.27081 25.0249,6.27081 24.9846,6.36793 24.9704,6.40031 24.9562,6.4277 24.9397,6.45759 24.8852,6.4277 24.8308,6.39284 24.7763,6.35548 24.7976,6.25089 24.7834,6.1438 24.7384,6.03671 24.7313,6.02177 24.684,6.01928 24.6556,6.01928 c -0.0119,0 -0.0308,0.01245 -0.0355,0.0249 -0.0024,0.00498 -0.0048,0.00996 -0.0071,0.01744 -0.0829,-0.03736 -0.1681,-0.08717 -0.1894,-0.19177 -0.0237,0.0274 -0.0355,0.05479 -0.0261,0.08966 0.064,0.04483 0.1255,0.08218 0.1989,0.15938 0,0.00748 0,0.01495 0.0024,0.01744 0.0355,0.03735 0.052,0.07969 0.0663,0.12203 C 24.497,6.08901 24.3407,5.94706 24.1869,5.83997 24.1513,5.81507 24.1158,5.79514 24.0827,5.77273 24.0874,5.76775 24.0922,5.76277 24.0969,5.75779 24.0874,5.74534 24.078,5.73288 24.0685,5.72043 24.059,5.73039 24.0495,5.73786 24.0424,5.74783 23.9312,5.68058 23.8247,5.62829 23.7205,5.58346 23.6826,5.54112 23.6471,5.50377 23.6187,5.4689 23.5808,5.43902 23.5382,5.41411 23.4956,5.38672 22.8706,4.78653 22.0515,4.20627 21.1543,3.78041 20.1743,3.30475 19.1208,3.01586 18.2402,2.91625 18.0389,2.81663 17.8495,2.74192 17.6412,2.69709 17.4329,2.64977 17.2104,2.61491 16.9452,2.61491 16.673,2.3584 16.138,2.32104 15.6172,2.35093 15.487,2.3584 15.3568,2.36587 15.2313,2.37334 15.1058,2.3833 14.9827,2.39575 14.8691,2.40073 c -0.2296,0.00748 -0.4285,0 -0.5753,-0.05229 -0.2485,0.32624 -1.0866,0.24655 -1.3801,0.13697 -0.0355,0.11705 -0.1586,0.16934 -0.303,0.18927 C 12.4663,2.69709 12.2982,2.6946 12.1656,2.68464 12.1562,2.63981 12.3597,2.54269 12.1467,2.5925 12.0449,2.60495 12.0544,2.65475 12.007,2.68713 11.9028,2.63732 11.7726,2.61491 11.7087,2.53024 11.517,2.55763 11.5051,2.63981 11.3134,2.66721 11.3489,2.5925 11.3678,2.5128 11.4791,2.4605 11.7442,2.34844 11.8034,2.4356 11.9573,2.44058 11.936,2.36338 11.8389,2.36338 11.9833,2.3061 c 0.1066,0.17931 0.322,-0.11705 0.4853,0.02988 -0.0947,0.02491 -0.168,0.05479 -0.1941,0.1046 C 12.4686,2.36836 12.7054,2.29863 12.8758,2.23886 12.8214,2.24882 12.7432,2.24384 12.819,2.21645 11.8792,2.17909 11.0009,2.3584 10.1747,2.66223 9.34615,2.96854 8.5673,3.39689 7.78372,3.90742 7.66062,3.89248 7.48307,3.97965 7.31026,4.05187 6.89598,4.42045 6.57876,4.64707 6.64978,5.00818 7.15638,4.62217 7.53515,4.26604 8.4371,3.78788 8.65726,3.758 8.85138,3.79287 8.96501,3.93731 8.3069,4.39554 7.47123,4.65703 6.90545,5.20243 6.82496,5.28212 6.81549,5.34438 6.735,5.41162 6.24496,5.82254 5.95852,5.97694 5.61526,6.24839 4.94768,6.77636 4.38662,7.51601 3.84451,8.17596 3.72614,8.32289 3.50125,8.38764 3.48704,8.6317 3.65039,8.46236 3.81847,8.28305 3.95814,8.10374 4.10254,7.92692 4.23275,7.76006 4.3156,7.61064 4.50025,7.45375 4.74882,7.23957 4.98555,7.00049 5.23649,6.77636 5.48032,6.52732 5.69575,6.34303 5.81885,6.27081 5.93485,6.1961 6.04611,6.12138 6.15974,6.04916 6.26627,5.97694 6.37043,5.90223 6.57639,5.74783 6.77761,5.5984 6.98357,5.44151 7.39548,5.12772 7.8429,4.80646 8.45604,4.52753 8.59097,4.64209 8.71644,4.53749 8.92003,4.45033 8.98632,4.62466 9.16386,4.61968 9.38876,4.53251 9.49292,4.43041 9.26092,4.45282 9.36982,4.36815 9.51896,4.35819 9.661,4.35819 9.73202,4.47523 9.61365,4.52753 9.48819,4.60473 9.41243,4.59228 9.51186,4.70933 9.7699,4.56738 9.83855,4.73673 9.63259,4.85377 9.44084,4.98826 9.25619,5.12025 9.07627,5.2622 8.90109,5.40166 8.73065,5.54361 8.38975,5.8325 8.05596,6.10893 7.66535,6.34303 7.52095,6.34552 7.40021,6.28077 7.24397,6.31315 7.2416,6.48 7.55409,6.33307 7.66299,6.42272 7.5825,6.54724 7.45703,6.66927 7.3434,6.79628 7.31026,6.83613 7.27711,6.87597 7.24397,6.91333 7.23687,6.91582 7.22977,6.91831 7.2203,6.9208 7.07352,6.95816 6.90308,7.01046 6.83679,7.17233 6.82496,7.19973 6.81075,7.22463 6.79892,7.24953 6.68765,7.33919 6.58586,7.42884 6.49353,7.5185 6.4888,7.52099 6.48406,7.52348 6.47696,7.52597 6.46749,7.54091 6.45566,7.55087 6.44619,7.56332 6.42962,7.58076 6.40831,7.59819 6.39174,7.61811 6.27337,7.71524 6.12186,7.72022 5.96799,7.71773 5.91354,7.71773 5.88513,7.7501 5.87093,7.8024 5.86146,7.83229 5.84726,7.86466 5.82832,7.88707 5.78097,7.94186 5.73836,8.03899 5.6484,7.93688 5.56554,7.95681 5.52293,8.02405 5.49452,8.09627 5.44244,8.23075 5.37143,8.32538 5.21755,8.31542 5.18914,8.31293 5.15126,8.32538 5.13233,8.34531 5.0258,8.46485 4.86955,8.53956 4.81984,8.70891 4.78907,8.81848 4.70384,8.79607 4.63519,8.80852 4.62335,8.83592 4.61388,8.87327 4.59731,8.88074 4.36295,8.95545 4.18777,9.11235 4.02205,9.29166 3.93446,9.38629 3.85398,9.47844 3.72851,9.53074 3.56043,9.60296 3.36157,9.66771 3.39472,9.93916 3.39945,9.97403 3.34263,10.0189 3.30949,10.0562 3.25268,10.116 3.19586,10.1708 3.13431,10.2256 3.10354,10.253 3.07513,10.3177 3.02541,10.2554 2.99227,10.2131 2.90705,10.1882 2.97333,10.1035 2.99227,10.0786 3.00648,10.0462 3.00648,10.0164 3.00648,9.98648 2.98754,9.95659 2.97807,9.9292 2.96386,9.93916 2.95203,9.94663 2.93782,9.95659 2.83366,10.0388 2.76974,10.1583 2.77685,10.2828 2.78158,10.3476 2.79815,10.3949 2.75081,10.4447 2.67268,10.5244 2.60167,10.6165 2.4762,10.6141 2.32469,10.6116 2.43595,10.7012 2.42412,10.756 2.40044,10.8606 2.34363,10.9976 2.26077,11.0424 2.18738,11.0698 2.13057,11.1321 2.08322,11.2018 2.10216,11.1072 2.12347,11.0125 2.15898,10.9204 2.3531,10.3575 2.82183,9.75238 3.01358,9.19453 3.24794,9.11235 3.06092,9.02768 3.31896,8.82346 3.28819,8.75124 3.25031,8.61427 3.17456,8.65412 3.14141,8.64416 3.10354,8.67653 3.06566,8.70891 2.95203,9.0227 2.76974,9.20449 2.69636,9.50085 2.1353,10.1035 1.81572,10.8208 1.58372,11.5953 1.56241,11.5978 1.54347,11.6003 1.5198,11.5978 1.52217,11.6301 1.53874,11.655 1.56005,11.67 1.55531,11.6874 1.55058,11.7024 1.54584,11.7198 1.52454,11.7945 1.5056,11.8692 1.48666,11.9439 1.44642,11.9713 1.40617,11.9962 1.36119,12.0186 1.2807,12.056 1.22625,12.1307 1.22389,12.2478 1.21915,12.5815 1.21205,12.584 0.923238,12.7583 c -0.023673,0.0149 -0.049713,0.0224 -0.075754,0.0299 -0.007102,0.0597 -0.037877,0.0946 -0.092325,0.1021 0.007102,0.0797 0.125467,0.1544 0,0.2415 -0.063918,0.0449 -0.120733,0.1096 -0.160978,0.1794 -0.016571,0.0298 -0.033142,0.0572 -0.052081,0.0846 0,-0.0124 -0.002367,-0.0224 -0.004734,-0.0323 -0.004735,0.0199 -0.011837,0.0448 -0.018939,0.0672 -0.02604,0.0324 -0.056815,0.0623 -0.101794,0.0872 -0.089958,0.0498 -0.004735,0.1419 0.030775,0.2092 -0.146774,0.1867 0.002367,0.4632 -0.170447,0.6425 -0.002367,0.132 0.018938,0.2714 -0.011837,0.3959 -0.035509,0.142 -0.101794,0.269 -0.080488,0.4259 0.016571,0.1146 -0.042612,0.1843 -0.146774,0.2167 -0.0142039,0.0099 -0.0378770426,0.0697 -0.02840778,0.0846 0.06628488,0.1071 0.02367318,0.2067 -0.00236732,0.3089 0.1207331,0.1568 0.0923253,0.3461 0.0852234,0.5254 -0.007102,0.1768 0.0449787,0.3661 -0.08285608,0.5255 -0.02367312,0.0299 0.00236728,0.0996 0.05208098,0.1195 0.0591828,0.0249 0.1207328,0.0399 0.1159988,0.127 -0.002368,0.0673 0,0.132 0.004734,0.1993 0.016571,0.2739 -0.035509,0.5578 0.094693,0.8218 0.016571,0.0324 -0.009469,0.0946 -0.023673,0.1395 -0.014204,0.0398 -0.066285,0.0672 -0.018939,0.122 0.073387,0.0822 0.054448,0.1868 0.047347,0.2839 -0.014204,0.2092 -0.011837,0.3038 0.033142,0.3885 0.066285,0.127 0.118366,0.2665 0.234364,0.3636 0.044979,0.0374 0.099428,0.1021 0.101795,0.1569 0.007102,0.1519 0.03551,0.2914 0.104162,0.4209 -0.028408,0.259 0.089958,0.4731 0.196487,0.6898 0.014204,0.0274 0.037877,0.0772 0.047346,0.0747 0.182288,-0.0498 0.210688,0.1494 0.321958,0.2117 0.11126,0.0623 0.22726,0.1195 0.34326,0.1768 0.0213,0.0548 0.04261,0.1121 0.06392,0.1694 -0.00711,0.0174 -0.00237,0.0323 0.01657,0.0423 0.01894,0.0548 0.03787,0.1121 0.05681,0.1718 -0.06628,0.0723 -0.11126,0.1395 -0.04024,0.2665 0.07575,0.1345 0.10179,0.3014 0.13967,0.4558 0.01184,0.0523 0.02604,0.0971 0.07102,0.112 0.06628,0.0224 0.10653,0.0374 0.06155,0.127 -0.03314,0.0698 -0.01657,0.1769 -0.06155,0.2316 -0.11126,0.132 0.03551,0.2043 0.04735,0.3064 0.00473,0.0523 0.08522,0.0473 0.11836,0.0199 0.08759,-0.0722 0.15861,-0.1619 0.24383,-0.2341 0.08286,-0.0697 0.03551,-0.1195 0.00947,-0.1992 -0.05208,-0.1569 -0.0213,-0.3238 0,-0.4882 0.00237,-0.0124 0.01894,-0.0224 0.02841,-0.0348 0.01184,0.0124 0.03078,0.0249 0.03078,0.0373 0.0071,0.132 0.1302,0.1818 0.17755,0.2814 0.02367,0.0474 -0.09233,0.1246 0,0.152 0.14203,0.0423 0.19885,0.1444 0.24383,0.2739 0.05445,0.1519 0.10653,0.3038 0.17045,0.4508 0.06865,0.1618 0.14914,0.3212 0.22489,0.4806 0.01894,0.0424 0.05445,0.0922 0.04971,0.132 -0.0213,0.1694 0.05445,0.2939 0.16808,0.386 0.12074,0.0971 0.12074,0.2192 0.11837,0.3561 -0.00237,0.0822 -0.0142,0.1694 0.05208,0.2316 0.1302,0.1221 0.17518,0.3014 0.26751,0.4483 0.04024,0.0648 0.04971,-0.0299 0.06628,-0.0622 0.01184,-0.0249 0.03314,-0.0449 0.04972,-0.0673 0.00947,0.0125 0.0284,0.0274 0.0284,0.0399 -0.00473,0.1942 0.04735,0.386 -0.05208,0.5777 -0.06865,0.132 -0.02604,0.279 0.05445,0.4184 0.13494,0.2316 0.15151,0.2665 0.3622,0.3412 0.17755,0.0623 0.20832,0.0971 0.21306,0.269 0.00473,0.1494 -0.01184,0.3013 0.12547,0.4059 0.02367,0.0174 0.05444,0.0523 0.05444,0.0797 -0.00236,0.2316 0.16335,0.3487 0.29592,0.4856 0.09943,0.1021 0.17992,0.2366 0.33142,0.2715 0.06866,0.1519 0.19176,0.2565 0.28645,0.386 0.10416,0.1444 0.31485,0.1544 0.36693,0.3536 0.0071,0.0324 0.04498,0.0224 0.06155,-0.0199 0.01184,-0.0299 0.00947,-0.0647 0.02368,-0.0946 0.00473,-0.01 0.01183,-0.02 0.01657,-0.0299 0.07338,0.0622 0.15624,0.1245 0.23673,0.1843 -0.05682,-0.0598 -0.1231,-0.1669 -0.19175,-0.259 0.00236,-0.0075 0.0071,-0.0125 0.0071,-0.02 C 6.27337,28.5051 6.21656,28.4802 6.15027,28.4602 6.11003,28.4478 6.05795,28.4079 6.04374,28.3706 6.03427,28.3432 6.02007,28.3208 6.00823,28.2959 c 0.0071,0 0.01657,0.0025 0.02604,0.0049 C 6.0177,28.2784 6.0035,28.2685 5.98929,28.2585 5.90881,28.1265 5.78807,28.0294 5.70522,27.8999 5.64603,27.8053 5.54424,27.7106 5.54424,27.6135 5.54187,27.494 5.62473,27.3744 5.66971,27.2549 5.68628,27.2101 5.70048,27.1652 5.71942,27.1204 5.72415,27.1055 5.73836,27.093 5.7502,27.083 c 0.05208,-0.0373 0.0142,-0.0174 0.02604,0.0374 0.02604,0.1245 0.08995,0.1544 0.19885,0.1519 0.10179,-0.0025 0.07339,0.0498 0.04735,0.1195 -0.04025,0.1121 0.07575,0.0573 0.11126,0.0922 0.03551,0.0324 0.04261,0.0647 -0.00237,0.0697 -0.1515,0.01 -0.10889,0.0947 -0.07338,0.1818 -0.07812,0.0772 -0.08049,0.1744 -0.05682,0.274 0.00237,0.0149 0.0142,0.0348 0.02604,0.0398 0.00947,0.005 0.02841,-0.0099 0.03788,-0.0199 0.03314,-0.0349 0.08285,-0.0673 0.09232,-0.1096 0.04498,-0.1893 0.15388,-0.2615 0.33616,-0.2615 0.06865,0.0374 0.13731,0.0573 0.19176,0.0399 -0.01894,0.0448 -0.02841,0.0871 -0.01421,0.1344 -0.01184,-0.0074 -0.01894,-0.0124 -0.0213,-0.0149 0.00946,0.0125 0.0213,0.0224 0.03077,0.0349 0.00947,0.0224 0.02367,0.0423 0.04971,0.0647 0.02604,0.0224 0.01658,0.0722 0,0.1171 C 6.70659,28.0169 6.68292,27.997 6.65451,27.9796 6.69002,27.8974 6.53141,27.7231 6.52194,27.8227 c 0.16098,0.0199 -0.00473,0.0921 0.02841,0.127 0.05445,0.0299 0.09943,0.0921 0.14914,0.1519 -0.04498,0.0996 -0.08286,0.2042 -0.116,0.3088 -0.05208,0.1669 -0.04971,0.3263 0.10653,0.4408 0.14677,0.1071 0.18465,0.2565 0.15624,0.4333 -0.0071,0.0474 0.00237,0.0997 -0.00473,0.1495 -0.00237,0.0224 0,0.0423 0,0.0622 -0.02368,-0.0049 -0.04972,-0.0099 -0.07812,-0.0199 0.0284,0.0299 0.05681,0.0523 0.08522,0.0722 0.00237,0.015 0.0071,0.0299 0.01184,0.0424 C 6.67345,29.4937 6.4817,29.3319 6.28758,29.1575 6.13607,29.0181 5.98219,28.8736 5.83779,28.7392 5.69811,28.5997 5.57028,28.4652 5.44481,28.3706 c 0.04735,0.0448 -0.1444,-0.0573 -0.19649,-0.1569 0,0.1718 0.27225,0.4781 0.31486,0.7147 0.11363,0.1096 0.18228,0.2017 0.19648,0.2914 0.04972,0.0398 0.09233,0.0672 0.12784,0.0747 -0.05682,0.1743 0.64864,0.6575 0.50897,0.7048 0.12547,0.0548 0.2391,0.0722 0.40955,0.1818 0.03788,-0.0349 -0.03314,-0.0747 0.0213,-0.1096 0.08759,0.0598 0.16098,0.0946 0.20596,0.0822 C 6.84863,30.0242 6.77288,30.0989 6.60953,30.0043 6.67108,29.9594 6.60006,29.8698 6.52431,29.8623 6.43908,29.8897 6.619,29.9495 6.58112,29.9819 6.53378,29.947 6.53141,30.0093 6.46986,29.9495 6.59059,29.8997 6.21892,29.7702 6.19052,29.6332 c 0.02604,-0.0299 0.05681,-0.0423 0.10416,-0.0249 0.19649,0.1868 0.13494,0.0498 0.24857,0.0847 0.09706,0.0597 0.04734,0.1071 0.11363,0.1643 0.06865,-0.0722 0.23199,0.0324 0.34799,0.1295 0.16335,0.0598 0.33379,0.0723 0.4924,0.0922 0.00947,0.0075 0.01658,0.0149 0.02604,0.0224 0.08996,0.0847 0.19649,0.1519 0.29829,0.2241 C 7.84527,30.343 7.87841,30.328 7.88078,30.2857 7.88551,30.1886 7.92576,30.0765 7.85947,29.9993 7.76952,29.8947 7.70086,29.7478 7.52568,29.7627 7.48781,29.7652 7.43099,29.7353 7.40732,29.7004 7.37417,29.6506 7.3434,29.5983 7.31026,29.5485 7.31736,29.5436 7.3292,29.5411 7.3434,29.5361 7.31736,29.5236 7.29842,29.5112 7.27948,29.4987 7.22977,29.419 7.18242,29.3368 7.13271,29.2547 7.18005,29.1202 7.22267,28.9832 7.27711,28.8512 7.29842,28.8039 7.31026,28.7616 7.29605,28.7142 7.29132,28.7018 7.27001,28.6819 7.27001,28.6819 7.0972,28.8288 7.06879,28.6171 6.9883,28.5524 6.92675,28.5051 6.92438,28.4254 6.92912,28.3506 c 0.10179,-0.0373 0.14204,0.1694 0.25804,0.1196 0.00947,0.01 0.0213,0.0224 0.03314,0.0324 0.06392,0.0971 0.17518,0.2166 0.30065,0.3088 0.1302,0.0996 0.2533,0.1868 0.31248,0.2415 -0.00947,-0.0224 0.05919,-0.0523 0.08286,-0.0423 0.06392,0.1046 0.40008,0.1519 0.24383,0.1768 0.1018,0.0747 0.14914,0.0399 0.20833,0.0299 C 8.11751,29.1152 7.92102,28.9434 7.73874,28.9209 7.70796,28.8014 7.54936,28.7267 7.43099,28.647 7.38601,28.6146 7.34577,28.5872 7.31499,28.5574 7.33393,28.5549 7.3576,28.5424 7.37654,28.5349 7.38364,28.5324 7.38838,28.5075 7.38364,28.5001 7.36944,28.4702 7.3434,28.4478 7.33393,28.4179 7.31973,28.3731 7.30552,28.3183 7.3576,28.2884 7.39785,28.266 7.44283,28.256 7.4878,28.2909 c 0.03551,0.0274 0.07339,0.0473 0.11127,0.0697 0.00473,0.0498 -0.00237,0.1071 0.0213,0.142 0.02131,0.0323 0.07576,0.0473 0.11837,0.0548 0.06392,0.0099 0.12784,0.0024 0.18939,0.0224 -0.03078,0.0124 -0.06392,0.0074 0.01183,0.0523 0.02841,0 0.06155,0.0049 0.09469,0.0149 0.01184,0.0075 0.02368,0.01 0.03551,0.0125 0.17755,0.0647 0.38824,0.2316 0.52318,0.2565 C 8.51048,28.8587 8.43,28.8064 8.35187,28.7516 c 0.04735,0.0025 0.0947,0.0025 0.14441,0 0.01184,0 0.02604,-0.0174 0.03078,-0.0299 0.00236,-0.005 -0.00711,-0.0249 -0.01421,-0.0299 -0.06628,-0.0473 -0.13493,-0.0448 -0.20122,0 -0.0071,0.005 -0.00947,0.015 -0.0142,0.0249 -0.04498,-0.0298 -0.08759,-0.0622 -0.13021,-0.0921 0.04262,-0.0324 0.08286,-0.0697 0.13494,-0.0598 0.05445,0.01 0.11126,0.0075 0.16808,0.0025 0.04971,0.0523 0.10416,0.1021 0.16571,0.132 0.01657,-0.0548 0.11127,0.0498 0.11837,-0.0249 0.0071,-0.0174 0.00237,-0.0349 -0.0071,-0.0523 0.09469,0.0523 0.18701,0.0448 0.28407,0.0423 0.1018,-0.0025 0.16572,0.015 0.20359,0.142 0.01894,0.0647 0.06392,0.1145 0.12547,0.1419 -0.00947,0.0374 0.02604,0.0822 0.07102,0.1271 -0.10179,-0.005 -0.13967,0.0971 -0.26514,0.0547 0.05208,0.0299 0.08996,0.0598 0.09706,0.0947 -0.04024,0.0324 -0.12783,-0.0125 -0.15624,0.0373 0.116,0.0299 0.24383,0.1121 0.35983,0.2242 0.04025,-0.1046 0.20832,0.0199 0.25567,0.0548 -0.05681,0.0373 -0.1444,0.0074 -0.21779,-0.0598 0.01894,0.1145 -0.12547,-0.0299 -0.12784,0.0548 0.1089,0.0822 0.51134,0.0099 0.6013,0.2341 -0.25804,-0.137 -0.34326,-0.0673 -0.51607,-0.0996 -0.08759,0.0921 -0.05919,0.1668 0.01183,0.2341 l 0.02131,-0.0548 c 0.06628,0.0224 0.07339,0.0523 0.11126,0.0772 -0.02604,0.0074 -0.04971,0.0174 -0.0142,0.0398 -0.02604,0.0448 -0.04025,-0.0448 -0.11127,-0.0573 0.08996,0.0822 0.2391,0.1544 0.32433,0.2416 0.27459,0.0747 0.63679,0.3387 0.86639,0.3462 -0.0899,-0.0598 -0.3148,-0.1046 -0.3101,-0.2267 0.0971,-0.0747 0.1681,0.1171 0.2297,0.0399 -0.1279,-0.0772 -0.2013,-0.0523 -0.2273,-0.1519 0.0402,0.0149 0.0402,-0.0249 0.0734,-0.0175 0.116,0.0698 0.2391,0.1794 0.2036,0.2317 0.0094,-0.0673 0.0734,0.0846 0.0994,0.0149 -0.0402,-0.0349 -0.026,-0.0822 -0.0331,-0.1245 -0.1516,-0.0498 -0.2415,-0.1171 -0.2439,-0.2017 0.1989,-0.0175 0.3314,0.0871 0.4806,0.1021 0.0284,0.0597 0.0639,0.1145 0.1089,0.1618 0.0402,0.0424 0.0828,0.0324 0.1278,0.015 0.0379,-0.015 0.0592,-0.0772 0.116,-0.0399 0.0781,0.0498 0.1728,0.0822 0.2367,0.147 0.1445,0.1544 0.3125,0.259 0.5019,0.3362 0.0024,0 0.0024,0.0025 0.0024,0.0049 -0.0047,0.0075 -0.0119,0.015 -0.0142,0.025 -0.1799,-0.0299 -0.3078,0.0174 -0.4877,-0.0822 0.0071,0.0174 0.0213,0.0249 0.0332,0.0373 -0.1137,-0.0249 -0.2297,-0.0473 -0.348,-0.0697 -0.0805,0.1295 0.1349,-0.0025 0.1254,0.1046 -0.0757,0.0199 -0.3243,-0.0374 -0.329,-0.127 0.0568,0.0274 0.116,0.0548 0.1704,0.0722 -0.0166,-0.0473 -0.0923,-0.0772 -0.1586,-0.1071 v -0.0025 c -0.0024,0 -0.0071,-0.0025 -0.0095,-0.0025 -0.0402,-0.0199 -0.0781,-0.0398 -0.0947,-0.0697 -0.0236,0.0125 -0.1822,-0.0125 -0.1112,0.0274 0.0024,0 0.0095,0.0025 0.0118,0.005 C 10.589,30.5447 10.3688,30.46 10.1581,30.3953 9.89063,30.3006 9.63496,30.2259 9.36982,30.2259 9.31774,30.1089 9.21358,30.064 9.10468,30.0541 8.82297,29.9669 8.60518,29.7876 8.4584,29.6357 8.36845,29.7478 8.23588,29.4464 8.10331,29.4414 8.10567,29.4091 8.08437,29.3891 8.13171,29.3867 7.85,29.3667 7.83107,29.043 7.53515,28.9384 7.64878,29.028 7.37181,28.9683 7.5967,29.1003 7.65825,29.0828 7.56356,28.9857 7.63931,29.028 c -0.07102,0.1046 0.17755,0.2316 0.21306,0.3811 0.21543,-0.0025 0.32432,0.1992 0.55159,0.3387 0.00473,0.0473 0.00473,0.1917 0.10653,0.1718 -0.12784,-0.0548 0.05444,-0.0548 0.07575,-0.0797 0.1231,0.0598 0.22253,0.1469 0.32432,0.2241 -0.07102,0.015 -0.1302,0.0374 -0.16334,0.0598 0.0284,0.0125 0.05444,0.0224 0.08285,0.0349 -0.00236,0.0224 0.00237,0.0348 -0.03787,0.0622 0.13257,0.0947 0.16571,0.0399 0.24146,0.0498 -0.09706,0.1071 0.33616,0.2242 0.41902,0.3437 0.00947,-0.0448 0.04734,-0.0473 0.11836,-0.0199 -0.02367,0.0224 -0.05208,0.0174 -0.0213,0.0598 0.62256,0.2266 1.19786,0.4009 1.76836,0.5802 0.2107,-0.0149 0.7836,0.0673 0.7173,0.2715 0.6936,0.2316 1.437,0.2789 2.2158,0.3486 0.2628,-0.0971 0.5848,-0.0473 0.8239,-0.0249 -0.0356,-0.0049 0.071,-0.0523 0.1373,-0.0274 0.2462,0.0847 -0.1681,0.1694 -0.3741,0.1594 0.1799,-0.0025 0.0048,0.1395 -0.0308,0.1893 -0.3929,0.0398 -0.7125,0.0224 -1.0581,0.0598 -0.0924,-0.0125 -0.1018,-0.0673 -0.2084,-0.0748 -0.1538,0.0748 -0.3077,-0.0796 -0.4876,-0.0846 -0.1042,-0.005 -0.1894,0.0772 -0.2912,0.0622 -0.116,-0.0149 -0.2083,-0.117 -0.3054,-0.132 -0.0592,-0.0099 -0.1657,0.0125 -0.2154,0.0075 0.0047,0 0.0308,-0.0373 0.0402,-0.0348 -0.1041,-0.0175 -0.1657,0.0323 -0.2557,0.0224 -0.0165,-0.0025 -0.0165,-0.0673 -0.0236,-0.0698 -0.1184,-0.0647 -0.2912,0.005 -0.4285,-0.0224 -0.0876,-0.0847 0.1349,-0.0647 -0.0142,-0.112 -0.0237,0.0672 -0.1681,0.0174 -0.2296,0.0498 -0.0734,-0.1395 -0.3906,-0.0922 -0.322,-0.1943 -0.1207,-0.0149 -0.2888,-0.0274 -0.4498,-0.0672 -0.1586,-0.0399 -0.3148,-0.0847 -0.419,-0.127 0.0379,0.0174 0.026,0.0448 0.0166,0.0722 C 9.90247,31.4113 9.81961,31.3815 9.67047,31.369 9.67757,31.3491 9.70598,31.3566 9.71782,31.3416 9.52606,31.2719 9.34615,31.2196 9.19227,31.1474 9.0384,31.0751 8.90346,31.0054 8.79456,30.9382 8.75195,30.9481 8.71644,30.9705 8.66436,30.9681 8.60281,30.8784 8.5744,30.8884 8.49391,30.9058 8.4442,30.8386 8.50575,30.7738 8.39685,30.7638 c 0.08759,0.1096 -0.15624,0 -0.22963,-0.0224 0.01658,-0.0373 -0.07812,-0.0697 -0.03077,-0.1095 0.01184,-0.0474 0.10416,0.0273 0.1231,-0.0075 -0.21306,-0.1021 -0.2391,-0.0448 -0.29828,0.0373 0.06392,0.0698 0.19412,0.137 0.2675,0.2067 0.1089,-0.0772 0.43086,0.1619 0.49004,0.2441 C 8.6762,31.0926 8.6762,31.1324 8.63832,31.1175 8.64305,31.0926 8.66673,31.0652 8.62885,31.0428 8.38739,31.0677 8.20984,30.8983 7.9589,30.7539 c 0.04024,0.1145 -0.08996,0.0249 -0.12783,0.0971 0.2604,0.132 0.52554,0.259 0.7599,0.381 -0.08759,-0.0896 0.12074,-0.0099 0.16335,-0.0124 0.05208,0.0598 0.21779,0.2067 0.27461,0.2042 -0.03788,-0.0224 -0.02368,-0.0473 -0.01184,-0.0747 0.1018,0.1619 0.32906,0.1992 0.51608,0.3038 -0.21306,-0.0946 -0.13021,-0.0075 -0.29592,-0.0473 0.14204,0.0847 0.21779,0.1444 0.35273,0.1121 l -0.01894,0.0597 c 0.17282,0.0299 0.37641,0.1221 0.59186,0.2192 0.1089,0.0473 0.2178,0.0996 0.329,0.1394 0.1137,0.0349 0.2273,0.0598 0.3386,0.0723 0,0.0249 -0.019,0.0573 0.0213,0.0722 0.3906,0.0224 0.9137,0.3088 1.1173,0.259 0.0024,0.0847 -0.1822,0.0747 -0.2627,0.005 -0.0024,0.1494 0.2272,0.0921 0.3219,0.0896 -0.0047,0 0,0.0424 -0.0071,0.0424 0.1492,0.0025 0.2273,-0.0822 0.3835,-0.0673 0.1989,0.0175 0.2415,0.137 0.5043,0.1395 -0.0663,-0.1096 0.2698,0.0324 0.3716,-0.01 -0.1965,-0.0323 -0.0828,-0.0423 0.0758,-0.0274 0.1586,0.0125 0.3669,0.0299 0.3622,0.1021 -0.1208,-0.0124 -0.1421,0.0399 -0.2249,0.0498 0.2036,0.0025 0.1065,0.0274 0.142,0.1146 0.1657,-0.0149 0.1823,0.0448 0.2959,0.0573 -0.0142,-0.0673 -0.1633,-0.0673 -0.2178,-0.1171 0.0498,0.0025 0.0805,-0.0049 0.1113,-0.0149 0.0852,0.0299 0.1373,0.1395 0.2202,0.0523 -0.0048,0.0373 0.0071,0.0672 0.0355,0.0872 -0.3007,0.0099 -0.5066,0.0199 -0.7078,0.0124 -0.1989,-0.0224 -0.393,-0.0623 -0.6676,-0.1444 -0.1705,0.0074 -0.3409,-0.0374 -0.5114,-0.0772 -0.1728,-0.0399 -0.3456,-0.0698 -0.5279,-0.0623 0.0024,-0.0398 -0.1183,-0.0448 -0.097,-0.0897 -0.4664,-0.0597 -0.902,-0.386 -1.3044,-0.3586 0.0994,0.0424 0.2485,0.0623 0.2391,0.1221 C 10.3901,32.4175 9.87169,32.2929 10.0279,32.1933 9.94034,32.1734 9.85749,32.1634 9.73912,32.1087 9.65863,32.1734 9.92141,32.1809 9.89773,32.2357 9.73439,32.1859 9.36272,32.0887 9.28223,31.9368 8.95791,31.8248 8.68803,31.6828 8.4442,31.5608 8.20273,31.4338 7.99204,31.3043 7.81686,31.1499 7.75058,31.237 7.76952,31.0727 7.70086,31.0428 7.60617,31.0179 7.68666,31.1523 7.62274,31.1175 7.5896,31.0976 7.57776,31.11 7.54936,31.0976 7.41679,31.0378 7.45703,30.9805 7.38364,30.9232 7.31736,30.9506 7.16822,30.8361 7.04275,30.7614 7.09246,30.6069 6.81549,30.5497 6.69002,30.4625 6.42962,30.2956 6.16448,30.0441 5.89934,29.8225 5.6413,29.5934 5.38326,29.3916 5.20335,29.2248 c 0.25093,0.3038 0.39297,0.3287 0.58709,0.6076 0.20122,0.1046 0.39771,0.2665 0.59656,0.4383 0.20359,0.1644 0.41902,0.3238 0.63208,0.4508 -0.03078,0.0423 0.01893,0.0897 0.0142,0.132 -0.05208,0.0025 -0.1373,-0.0473 -0.19175,-0.0473 0.10416,0.1195 0.50897,0.2191 0.66285,0.4607 0.04734,-0.0498 0.1373,0.0473 0.21069,0.0921 0.17044,-0.0722 0.67468,0.1918 0.85933,0.3113 -0.02367,0.0324 -0.31012,-0.1494 -0.22016,-0.0622 0.1018,0.0498 0.20833,0.0996 0.18229,0.1594 C 8.47261,31.75 8.34477,31.6454 8.32347,31.6853 c 0.09706,0.0822 0.33616,0.1569 0.22726,0.2515 0.13967,0.0847 -0.01657,-0.0971 0.13494,-0.0274 0.00236,0.0199 0.01894,0.0374 0.06155,0.0523 0.00947,0.1121 -0.09943,0.0648 -0.15625,0.0872 0.13494,0.127 0.17519,0.0523 0.19649,0.0249 0.08759,0.1046 -0.11836,0.0299 -0.04498,0.117 0.13494,0.1071 0.30065,0.1719 0.38114,0.2018 -0.04024,-0.02 -0.04971,-0.0449 -0.05918,-0.0673 0.05918,0.0374 0.17044,0 0.17991,0.0698 -0.04261,-0.0125 -0.10179,-0.0424 -0.11599,-0.0225 0.18465,0.132 0.53027,0.2092 0.6226,0.3487 0.09706,0.0075 -0.04735,-0.0847 0.06155,-0.0672 0.21779,0.0473 0.16808,0.1394 0.30539,0.2017 0.0284,-0.0224 -0.0142,-0.1196 0.0639,-0.0872 0.1255,0.0598 0.3669,0.0697 0.3172,0.1619 -0.0426,0.005 -0.2888,-0.0598 -0.1988,-0.01 0.2201,0.0199 0.3574,0.1046 0.4687,0.0399 0.1444,0.0647 -0.0521,0.1046 0.0852,0.1519 0.0545,0.0025 0.0237,-0.0772 0.0924,-0.0623 0.0402,0.0498 0.4213,0.2416 0.2533,0.1096 0.1562,0.0598 0.187,0.0648 0.4119,0.1245 0.0118,-0.0299 0,-0.0797 0.052,-0.0747 0.3102,0.1071 0.6108,0.1395 0.8996,0.1818 0.2888,0.0349 0.5682,0.0747 0.8499,0.1295 0.0166,-0.0349 -0.0521,-0.0573 0.0047,-0.0622 0.2131,0.0448 0.3883,0.0846 0.535,0.0074 0,0.0299 -0.0189,0.0448 -0.0402,0.0623 0.1586,-0.0299 0.3575,0.0249 0.4995,0.0647 -0.1065,0.0797 -0.303,0 -0.3504,0.132 0.2699,0 0.3883,-0.1693 0.696,-0.122 0.0521,-0.0473 -0.0994,-0.0822 -0.0023,-0.0847 0.116,0.0299 0.1491,0.0249 0.2296,-0.0174 0,0.0722 0.116,0.0722 0.1941,0.0971 0.3007,-0.0946 0.606,0.0324 0.8759,-0.1145 0.1539,0.0024 0.3243,0.0049 0.5019,-0.01 0.1775,-0.0224 0.3598,-0.0498 0.5374,-0.0847 0.3574,-0.0672 0.6936,-0.1519 0.9256,-0.2366 0.045,0.0473 0.2131,-0.0299 0.2107,0.0573 0.1965,-0.132 0.3456,-0.0373 0.4758,-0.1718 -0.0473,0.0099 -0.0899,0.0174 -0.0852,-0.0199 0.0852,-0.0424 0.0947,-0.0399 0.2533,-0.0922 0.0118,0.0299 0.0142,0.0722 0.0923,0.0399 0.0829,-0.1644 0.4143,-0.1196 0.599,-0.152 -0.0024,-0.0423 -0.064,-0.0249 -0.0947,-0.0373 0.142,-0.0498 0.3953,-0.1719 0.464,-0.0797 -0.0853,0.0573 -0.1563,-0.0374 -0.1871,0.0498 0.0521,-0.0149 0.0568,0.0274 0.0924,0.0324 0.3574,-0.264 0.909,-0.4433 1.1694,-0.533 0.0923,-0.0373 0.1065,-0.1245 0.1492,-0.1444 0.1089,-0.0498 0.2343,-0.0075 0.4071,-0.137 -0.0307,0.0224 0.0497,-0.0224 0.1373,-0.0722 0.0355,-0.0174 0.3741,-0.2441 0.5019,-0.2167 0.0403,0.0399 -0.2557,0.1694 -0.142,0.147 0.1207,-0.0723 0.1515,-0.1171 0.2769,-0.147 -0.0402,-0.0398 -0.0047,-0.0822 0.0498,-0.1145 0.052,-0.0349 0.1254,-0.0623 0.1657,-0.0598 -0.0876,0.0971 -0.2391,0.1843 -0.2533,0.269 0.2036,-0.137 0.5326,-0.4757 0.6013,-0.2939 -0.0095,-0.0174 0.0449,-0.0598 0.0663,-0.0423 -0.1089,0.132 -0.0332,0.1344 -0.1255,0.254 0.1704,-0.2167 0.3788,-0.3163 0.5776,-0.4259 0.1965,-0.112 0.393,-0.2142 0.4971,-0.4707 0.0308,0.0274 -0.0094,0.0648 0.0166,0.0922 0.0994,-0.0747 0.0521,-0.122 0.1941,-0.2067 0.0166,0.0373 0.0616,0.0099 0.0805,0.0423 0.0758,-0.0697 0.1657,-0.1444 0.1941,-0.2067 -0.1325,0.1171 -0.2177,0.1295 -0.2793,0.0897 0.2249,-0.1395 0.2699,-0.2939 0.5208,-0.3636 -0.1349,0.0846 -0.0544,0.1245 -0.1917,0.2067 0.0591,0.0149 0.0899,0.0971 0.2012,-0.0025 -0.0142,-0.0274 -0.0568,-0.0523 -0.019,-0.0897 0.0332,0.0872 0.4688,-0.2092 0.6274,-0.3685 -0.019,-0.0872 -0.1113,0.0249 -0.1397,-0.0399 0.0497,-0.0149 0.1184,-0.0797 0.187,-0.1494 -0.0284,0.0946 -0.0118,0.0722 0.0521,0.122 0.1065,-0.0747 -0.0047,-0.0896 0.0758,-0.1569 0.0473,0.0623 0.1799,-0.1145 0.2438,-0.0896 0.0805,-0.1744 0.1562,-0.1669 0.1728,-0.1121 0.071,-0.1494 0.1278,-0.1768 0.161,-0.3013 0.0757,-0.0175 0.0166,0.0224 0.0568,0.0597 0.1089,-0.1369 0.1018,-0.117 0.2154,-0.1843 0.0284,-0.0597 0.0284,-0.112 0.0521,-0.1768 0.0781,-0.0249 0.1184,-0.1145 0.071,0.0125 0.3244,-0.3088 0.2486,-0.5828 0.4214,-0.7123 -0.097,-0.1195 0.0663,-0.2216 0.2012,-0.3038 0,-0.0722 -0.1254,0.0299 -0.0615,-0.0523 0.1041,-0.0573 0.1633,-0.127 0.2414,-0.2665 0.0711,0.0125 0.0119,0.0922 0.0332,0.1295 0.026,-0.0946 0.1302,-0.1743 0.1255,-0.2092 -0.0427,0.0399 -0.0829,0.0598 -0.1184,0.0598 0.0568,-0.0772 0.0426,-0.1171 0.1255,-0.2092 l 0.0473,0.0374 c 0.1089,-0.3462 0.4616,-0.6749 0.4711,-0.8518 0.0568,-0.117 0.09,-0.0398 0.142,-0.0971 -0.0213,-0.0174 -0.0473,-0.0099 -0.0733,0 0.026,-0.1021 0.3858,-0.4333 0.1704,-0.2739 0.1018,-0.1594 0.1989,-0.1669 0.2154,-0.2939 -0.0521,0.0797 -0.0923,0.0523 -0.0521,-0.0324 -0.0023,0.0648 0.0403,0.0598 0.0924,-0.0373 -0.0095,-0.0523 0.0236,-0.132 0.0473,-0.2067 -0.0071,0.122 0.1231,-0.142 0.135,-0.2018 -0.019,0.025 -0.0403,0.0698 -0.0569,0.0598 0.0332,-0.0747 0.1018,-0.2839 0.1776,-0.3163 0.0118,0.0349 -0.0734,0.137 -0.0426,0.1619 0.097,-0.1021 0.0639,-0.1718 0.1207,-0.3013 0.1397,0.005 0.09,-0.406 0.2438,-0.3736 -0.1041,0.1295 -0.116,0.274 -0.1396,0.396 -0.0261,0.1195 -0.0545,0.2216 -0.1705,0.2665 0.0971,0.0622 -0.0307,0.1469 -0.0876,0.3237 0.0782,-0.0075 0.0119,0.0797 0.0308,0.1121 0.1065,-0.1569 0.0379,-0.1121 0.045,-0.1619 0.0379,-0.0224 0.0781,-0.127 0.1136,-0.0772 -0.0213,0.0423 -0.0592,0.0996 -0.0426,0.1171 0.0687,-0.1569 0.1326,-0.2192 0.1918,-0.2217 0.0307,-0.1071 0.0781,-0.1843 0.1396,-0.2889 0.0568,-0.1096 0.1255,-0.244 0.2084,-0.4582 0,-0.0847 -0.0805,0.0249 -0.0379,-0.1096 0.3006,-0.4507 0.348,-0.9638 0.5137,-1.3423 -0.0308,-0.1021 -0.1326,0.0299 -0.0734,-0.1594 0.0592,-0.0847 0.09,-0.0448 0.1278,0.0025 0.0474,-0.3835 0.2391,-0.5728 0.3457,-0.9688 -0.1184,-0.2092 0.1751,-0.7147 0.0994,-0.9936 -0.0166,0.1917 -0.0734,0.4308 -0.1634,0.5055 -0.0331,-0.1668 0.0521,-0.635 0.1729,-0.5454 -0.019,-0.2316 0.1728,-0.3885 0.0686,-0.4856 0.1444,-0.0174 0.2107,-0.4807 0.2036,-0.7521 0,0.0398 0.0308,-0.0573 0.0426,-0.1594 0.0308,-0.269 0.0734,-0.5703 0.1042,-0.8667 0.0118,-0.2316 0.0094,-0.4632 -0.0095,-0.6749 0.0213,0 0.045,0.0025 0.0734,0.0125 -0.0166,-0.254 -0.0332,-0.5055 -0.0497,-0.7546 0.0047,0.005 0.0094,0.0075 0.0213,0.0025 -0.0332,-0.1245 -0.0237,-0.1693 -0.0403,-0.2864 -0.0071,-0.0847 -0.0118,-0.1668 -0.0189,-0.2515 0.0402,-0.1046 0.071,-0.2939 0.0805,-0.401 0.0047,0.0797 0.0568,0.0473 0.0473,0.1594 -0.0284,0.1793 -0.0165,0.401 0.0592,0.5305 -0.0142,0.0846 -0.0331,0.0871 -0.0615,0.0423 0.0497,0.4782 -0.0142,0.8343 0.071,1.2726 -0.0687,-0.1096 -0.071,0.4009 0.0047,0.2889 -0.0568,0.2764 -0.116,0.63 -0.1468,0.9812 -0.0165,0.1768 -0.0284,0.3511 -0.0307,0.5155 -0.0024,0.0822 -0.0024,0.1619 0,0.2366 -0.0024,0.0747 -0.0024,0.1444 0,0.2117 0.026,-0.2042 0.1396,-0.5629 0.0852,-0.7447 0.0734,0.1071 0.0402,-0.1793 0.0095,-0.2091 l 0.0592,0.0074 C 30.9787,18.8722 30.9905,17.9308 31,17.0243 Z M 25.3374,5.50875 C 25.406,5.47388 25.4486,5.58346 25.4747,5.64074 25.4368,5.67062 25.3468,5.53365 25.3374,5.50875 Z M 8.73538,31.1449 c 0.0071,-0.1096 0.17281,0.0498 0.18702,0.0224 0.08285,0.0797 -0.1018,0.0349 -0.18702,-0.0224 z m 1.14815,0.7072 C 9.93324,31.7426 9.99479,31.887 10.1321,31.9219 10.1037,31.9617 9.95928,31.8671 9.88353,31.8521 Z M 10.17,31.5334 c 0.0165,-0.0548 0.1728,0.0099 0.2083,0.0548 -0.0166,0.0423 -0.1444,-0.0449 -0.2083,-0.0548 z m 2.4809,1.0708 c 0.0332,-0.0124 0.0852,-0.0099 0.1468,0 -0.0071,0.0299 -0.0118,0.0598 0.0284,0.0698 -0.0331,0.0448 -0.2273,-0.0125 -0.1752,-0.0698 z m 1.16,0.2366 c -0.0237,-0.0597 0.0758,-0.0398 0.0758,-0.0797 -0.2889,-0.0747 -0.5895,-0.0298 -0.6818,-0.2017 0.2485,0.0747 0.3503,0.015 0.5445,-0.0174 0.0473,0.0224 0.0686,0.0598 0.142,0.0697 -0.0568,0.0473 -0.09,0.0274 -0.1823,0.0125 0.0261,0.0822 0.1231,0.1295 0.2865,0.1419 0.0236,0.0772 -0.0592,0.0897 -0.1847,0.0747 z M 29.4873,21.1459 c 0.045,0.005 -0.0237,0.137 -0.0261,0.1943 -0.0118,-0.0199 -0.0236,-0.0423 -0.0284,-0.0722 0.0142,-0.0349 0.0284,-0.0673 0.0403,-0.1021 0.0047,0 0.0094,-0.005 0.0142,-0.02 z m -0.3243,2.727 c -0.0805,0.142 -0.0592,0.1245 -0.1303,0.2939 -0.0591,0.0473 -0.1207,-0.0199 -0.0426,-0.1519 0.0616,0.1594 0.0616,-0.1669 0.1729,-0.142 z m -9.7108,7.8223 c -0.0094,0.0523 -0.1846,0.0872 -0.2651,0.1171 0.0331,-0.1121 0.1254,-0.0697 0.2651,-0.1171 z m -1.8773,0.8841 c -0.2036,0.02 -0.2982,-0.0099 -0.5255,-0.0174 0.1042,-0.1121 0.3196,-0.0623 0.5326,-0.1345 0,0.0498 -0.0402,0.0872 -0.0071,0.1519 z m -1.1102,0.0125 c -0.0284,0.0722 -0.1231,0.0025 -0.1468,-0.0075 -0.0166,-0.0473 0.1018,-0.0299 0.0994,-0.0722 0.1279,-0.01 -0.0805,0.0946 0.0474,0.0797 z m 0.4379,-0.0274 c -0.0166,0.0523 -0.1112,0.0747 -0.1278,0.127 -0.0568,-0.0548 -0.3125,0.0473 -0.3385,-0.0324 0.1657,0.0399 0.2746,-0.1095 0.4663,-0.0946 z m -0.2699,-0.3013 c -0.116,0.0298 -0.2201,0.0697 -0.4119,0.0971 -0.0828,-0.1071 0.0829,-0.1469 0.2912,-0.2017 0.2083,-0.0498 0.464,-0.0847 0.5634,-0.1146 0.1563,0.0299 0.1989,0.1096 -0.0071,0.1718 0.0048,-0.0174 0.0332,-0.0274 0.0284,-0.0473 -0.2272,0.0374 -0.3503,0.0648 -0.464,0.0947 z m -0.3479,0.3461 c -0.2628,0.0722 -0.876,0.0747 -0.7292,-0.0348 0.1847,0.0772 0.4261,-0.0299 0.7292,0.0348 z m 0.9824,-0.4906 c -0.0213,-0.0523 0.0639,-0.0672 0.1278,-0.0871 0.0095,0.0572 -0.0615,0.1145 -0.1278,0.0871 z m 0.2651,-0.64 c -0.2438,0.0373 -0.49,0.0622 -0.6794,0.0896 -0.0828,0.0349 0.0426,0.0872 0.116,0.0673 -0.0237,0.0647 -0.1444,0.0174 -0.2036,0.0348 -0.0095,-0.0373 0.0355,-0.0498 0.0213,-0.0896 -0.0213,-0.0448 -0.1681,0.0199 -0.2391,0.0174 0.2154,-0.1394 0.4403,-0.1892 0.7007,-0.2216 0.1303,-0.015 0.2699,-0.0299 0.4167,-0.0473 0.1468,-0.0249 0.303,-0.0648 0.4735,-0.1146 0.0047,0.0299 0.0094,0.0598 0.0497,0.0523 -0.0876,0.0473 -0.1894,0.0897 -0.3007,0.127 -0.0544,0.0199 -0.1136,0.0374 -0.1728,0.0523 -0.0592,0.0125 -0.1207,0.0224 -0.1823,0.0324 z M 9.48345,28.9708 c 0.01421,-0.0025 0.03078,0 0.04498,0.0074 -0.00237,0.005 0,0.01 -0.00473,0.015 -0.04498,-0.01 -0.06629,-0.015 -0.07812,-0.0224 0.01183,0 0.02367,0.0024 0.03787,0 z M 7.58013,28.1215 c -0.00947,0.01 -0.02131,0.02 -0.03077,0.0299 -0.00947,-0.005 -0.01894,-0.0099 -0.02841,-0.0149 0.00473,-0.0075 0.00947,-0.015 0.0142,-0.0224 0.00474,-0.0075 0.00947,-0.015 0.01421,-0.0224 0.01183,0.0074 0.0213,0.0199 0.03077,0.0298 z M 13.6405,4.85377 c -0.0261,0.0274 -0.0663,0.04234 -0.1279,0.04732 -0.0094,0 -0.0189,0 -0.0284,0 C 13.4582,4.89113 13.4156,4.8986 13.373,4.90358 13.4582,4.85626 13.5481,4.8463 13.6405,4.85377 Z m 16.5049,8.34033 c 0.026,0.0922 0.0047,0.132 -0.019,0.1694 -0.0284,-0.1121 -0.0355,-0.2292 -0.0686,-0.3412 0.0024,-0.0224 0.0047,-0.0424 0.0095,-0.0573 0.0639,0.2366 -0.0237,0.2167 0.0781,0.2291 z m 0.0473,0.1967 c 0.0119,0.0723 0.0237,0.1246 0.0332,0.1719 -0.0048,-0.0025 -0.0071,-0.005 -0.0142,-0.005 -0.0142,-0.0199 -0.0261,-0.0398 -0.0355,-0.0598 -0.019,-0.0647 -0.0308,-0.122 0.0165,-0.1071 z m -0.1278,5.2722 c 0.0047,-0.0548 -0.0047,-0.0872 -0.0213,-0.1071 0.0071,-0.0921 0.0189,-0.1793 0.0379,-0.244 0.0142,0.0249 0.026,0.0523 0.0378,0.0797 0.0048,-0.0374 -0.0094,-0.0922 -0.0142,-0.142 0.0024,-0.005 0.0048,-0.0124 0.0071,-0.0174 -0.0023,-0.01 -0.0047,-0.0224 -0.0071,-0.0349 0.0024,-0.0174 0.0095,-0.0324 0.0237,-0.0423 0.0047,0.0747 0.0545,0.0722 0.0308,0.1992 -0.1349,0.1544 -0.0474,0.0697 -0.0947,0.3088 z M 17.6247,5.06795 C 17.601,5.07293 17.5891,5.06546 17.582,5.0555 17.5962,5.05051 17.6128,5.04802 17.6294,5.04304 17.627,5.05301 17.627,5.06795 17.6247,5.06795 Z m 9.6491,4.02199 C 27.2123,9.08495 27.1602,9.06752 27.1555,8.98783 c 0,-0.00249 0,-0.00249 0,-0.00498 0.0402,0.03237 0.0805,0.06724 0.1183,0.10709 z m 2.7532,8.35526 c -0.0047,-0.0622 -0.0094,-0.127 -0.0142,-0.1918 0.0024,-0.0049 0.0048,-0.0099 0.0048,-0.0149 0.0142,-0.0473 0.0544,-0.0872 0.0923,-0.127 0,0.0647 0,0.132 0.0023,0.1967 0.0048,0.1445 0.0142,0.2839 0.0356,0.4159 -0.0308,0.0025 -0.0687,-0.0049 -0.064,0.0772 0.0308,0.0075 0.0758,-0.0124 0.0782,0.0399 -0.0142,0.117 -0.0403,0.2117 -0.0734,0.2864 -0.0426,-0.1893 -0.0521,-0.4284 -0.0616,-0.6824 z m 0.0734,-0.5578 c 0,0.0099 0,0.0224 0.0024,0.0323 C 30.098,16.9098 30.098,16.8973 30.1004,16.8874 Z M 28.1355,10.0736 C 28.0906,10.0238 28.1,9.9541 28.1568,9.90679 28.1616,9.90429 28.1663,9.9018 28.1734,9.9018 c 0.0663,0.08468 0.1278,0.1818 0.187,0.2914 -0.0876,0.0174 -0.1349,-0.0175 -0.2249,-0.1196 z M 28.0693,9.78227 C 28.0006,9.76234 27.9556,9.71502 27.9319,9.6428 c 0.045,0.04234 0.0924,0.08966 0.1374,0.13947 z m 1.9696,8.80853 c 0.0071,0.0473 0.0047,0.0996 -0.0048,0.1519 0,-0.0498 0.0024,-0.0996 0.0048,-0.1519 z m 0.4474,-3.6609 c 0.0094,-0.0299 0.0237,-0.0622 0.0402,-0.0921 0.0024,0.0672 -0.0071,0.1245 -0.0331,0.1469 0,-0.0199 -0.0048,-0.0374 -0.0071,-0.0548 z m -0.045,-0.391 c 0,-0.0124 0,-0.0299 0.0024,-0.0398 0.0142,0.0174 0.026,0.0448 0.0378,0.0797 -0.0118,-0.0125 -0.026,-0.0249 -0.0402,-0.0399 z m -0.1207,-0.4308 c -0.0497,0.1145 0.0213,0.2515 0.0568,0.2366 -0.0047,0.0523 -0.019,0.0697 -0.0355,0.0722 -0.0166,-0.0224 -0.0332,-0.0448 -0.0474,-0.0672 -0.0047,-0.015 -0.0071,-0.0299 -0.0094,-0.0449 -0.019,-0.0249 -0.0403,-0.0473 -0.0616,-0.0672 -0.0118,-0.0224 -0.0237,-0.0424 -0.0284,-0.0548 -0.0166,-0.0423 0.0308,-0.0996 0.0805,-0.0922 0.0118,0.0025 0.026,0.005 0.0379,0.01 0.0023,0.0025 0.0047,0.005 0.0071,0.0075 z M 30.0389,12.97 c -0.0024,-0.0025 -0.0024,-0.0075 -0.0048,-0.0125 -0.0071,-0.0174 -0.0071,-0.0299 -0.0047,-0.0448 0.0047,0.0224 0.0071,0.0398 0.0095,0.0573 z M 13.8701,4.90358 C 13.8464,4.90109 13.8275,4.89611 13.8085,4.88615 c 0.0213,0.00498 0.0403,0.01245 0.0616,0.01743 z m 4.808,26.83902 c 0.0284,0.0896 -0.1065,0.0199 -0.2012,0.0772 0.0355,-0.0648 0.1089,-0.0698 0.2012,-0.0772 z m 7.7577,-3.9124 c 0.0379,0.0697 -0.1042,0.117 -0.187,0.2515 -0.0237,-0.0274 -0.0639,0.0075 -0.0852,-0.0249 0.0923,-0.0847 0.187,-0.1793 0.2722,-0.2266 z m 0.1847,-0.2516 c 0.0189,0.0224 0.0402,0.0424 0.071,0.01 0.045,0.0398 -0.1042,0.2017 -0.1586,0.2216 -0.0284,-0.0548 0.0071,-0.1344 0.0876,-0.2316 z m 2.9283,-6.6269 c 0.0071,0.005 0.0142,0.0075 0.0213,0.0124 -0.0236,0.0573 -0.0331,0.0623 -0.0449,0.0548 0.0094,-0.0224 0.0165,-0.0448 0.0236,-0.0672 z m 0.438,-1.5814 c -0.0024,-0.0324 -0.0048,-0.0623 -0.0095,-0.0897 0.0118,-0.0124 0.0237,-0.0224 0.0355,-0.0274 -0.0024,0.0374 -0.0142,0.0747 -0.026,0.1171 z m 0.071,-0.2565 c -0.0071,-0.0498 -0.0142,-0.1146 -0.0189,-0.1843 0.0118,-0.0573 0.026,-0.1096 0.0568,-0.1843 -0.0095,0.1768 -0.0261,0.2341 -0.019,0.3636 -0.0047,0.0025 -0.0118,0.005 -0.0189,0.005 z m 0.4806,-3.4542 c 0.0189,-0.0971 0.026,-0.1943 0.0094,-0.3138 0.1113,0.0473 0.0639,0.3262 0.0071,0.4259 -0.0071,-0.0399 -0.0118,-0.0747 -0.0165,-0.1121 z m -0.0332,-0.5977 c 0.0355,0.0448 0.0568,0.132 0.0734,0.2341 -0.0686,0.0473 -0.0947,-0.1669 -0.0734,-0.2341 z M 30.2211,13.087 30.143,13.1094 c -0.0284,-0.0672 0.0166,-0.1793 -0.0497,-0.1967 -0.0142,-0.137 0.0497,0.0324 0.0687,0.0224 0.0094,-0.0523 -0.0166,-0.0822 -0.0498,-0.122 0.0142,-0.0125 0.0261,-0.0249 0.0379,-0.0374 0.0497,0.0847 0.0852,0.1843 0.071,0.3113 z m -0.1515,-0.6774 c -0.026,-0.0025 -0.0402,-0.0747 -0.0544,-0.132 0.0024,0 0.0047,0 0.0071,0 0.0189,-0.0024 0.0355,-0.0174 0.0473,-0.0348 0.0474,0.112 -0.0094,0.1046 0,0.1668 z m -0.3267,-0.391 c 0.0071,-0.0049 0.0261,-0.0025 0.0356,0.005 0.0686,0.0473 0.1136,0.1071 0.1302,0.1968 0.0071,0.0423 0.0402,0.0572 0.0781,0.0597 0.0071,0.0324 0.0118,0.0673 0.0118,0.1121 -0.0189,0.005 -0.0142,0.0398 -0.0284,0.0523 -0.0497,-0.1818 -0.1444,-0.1171 -0.0284,-0.0324 0.0047,0.0249 0.0095,0.0498 0.0142,0.0747 -0.0639,-0.0025 -0.1278,-0.0025 -0.1918,-0.0099 -0.0189,-0.0025 -0.0473,-0.0523 -0.0426,-0.0747 0.0142,-0.0598 0.0663,-0.1196 0.0592,-0.1694 -0.0094,-0.0573 -0.0781,-0.0996 -0.0639,-0.1743 0.0024,-0.0174 0.0142,-0.0324 0.026,-0.0399 z m -0.6746,-1.3199 c -0.0237,-0.0124 -0.0474,-0.0224 -0.0711,-0.0099 -0.0142,-0.0374 -0.0307,-0.0673 -0.0449,-0.0947 -0.0048,-0.0249 -0.0071,-0.0523 -0.0071,-0.0772 0.0378,0.0573 0.0828,0.1246 0.1231,0.1818 z M 26.4902,6.98555 c 0.0143,0.01743 0.0308,0.03736 0.045,0.05479 -0.0023,0.00498 -0.0047,0.01245 -0.0094,0.01743 -0.0829,-0.01743 -0.1231,-0.13199 -0.1729,-0.24156 0.045,0.05727 0.09,0.11455 0.1373,0.16934 z m -1.373,-0.46321 c 0.0071,0.00498 0.0118,0.01494 0.0166,0.0249 C 25.1172,6.53977 25.1006,6.5323 25.0841,6.52732 25.0912,6.51736 25.1054,6.51487 25.1172,6.52234 Z M 13.0983,4.94343 c 0,0.01743 0,0.03486 0.0024,0.04981 0.0379,0 0.0616,-0.02242 0.0758,-0.0523 0.0639,0 0.1278,0.00249 0.1941,0.00498 -0.0237,0.05479 -0.071,0.08965 -0.116,0.12203 C 13.1788,5.12025 13.1244,5.09036 13.0983,5.0032 13.0723,5.01316 13.0439,5.02063 13.0179,5.03308 12.8924,5.10032 12.8474,5.09783 12.7811,5.00818 12.7788,5.00569 12.7764,5.00071 12.774,4.99822 12.8806,4.96086 12.9894,4.94592 13.0983,4.94343 Z m -0.9232,0.15191 c 0.1089,-0.02241 0.213,-0.03237 0.3077,-0.03237 -0.0236,0.02241 -0.0544,0.03735 -0.1041,0.03486 -0.0308,0 -0.0734,0 -0.0876,0.01993 -0.1065,0.14195 -0.277,0.0249 -0.3954,0.11455 C 11.8129,5.29457 11.7655,5.2622 11.7253,5.21488 11.8744,5.16009 12.0307,5.12274 12.1751,5.09534 Z M 4.3014,25.138 C 4.28719,25.1356 4.27536,25.0882 4.27772,25.0633 4.28009,25.0509 4.28719,25.0384 4.2943,25.026 c 0.0071,-0.0125 0.01657,-0.0224 0.02367,-0.0349 0.01184,0.0249 0.03077,0.0473 0.03551,0.0722 0.0071,0.0399 0.00237,0.0872 -0.05208,0.0747 z m 0.43558,1.2502 C 4.73225,26.4106 4.70384,26.4256 4.68727,26.4455 4.6778,26.433 4.65886,26.4231 4.65886,26.4106 4.65413,26.3658 4.65413,26.321 4.65176,26.2762 c -0.00237,0 -0.00473,0 -0.0071,0 0,-0.0025 0,-0.0075 0,-0.01 -0.02131,-0.01 -0.04261,-0.0199 -0.06155,-0.0324 -0.00474,-0.0025 0.00237,-0.0324 0.00473,-0.0324 0.05208,-0.0074 0.05445,0.0274 0.05682,0.0648 0.00237,0 0.00473,0.0025 0.0071,0.0025 0,0.0025 0,0.005 0,0.0075 0.06865,0.0024 0.1018,0.0373 0.08522,0.112 z m 0.28408,0.2765 C 4.99739,26.6497 4.97372,26.6348 4.94768,26.6198 4.97372,26.6049 4.99976,26.58 5.0258,26.5825 c 0.02604,0 0.04971,0.0274 0.07575,0.0448 -0.02604,0.01 -0.05208,0.0224 -0.08049,0.0374 z m 0.19175,0.2141 c -0.00236,0.0374 -0.00473,0.0747 -0.05918,0.0648 -0.00473,0 -0.00947,-0.0299 -0.00473,-0.0324 0.0213,-0.0149 0.04261,-0.0224 0.06391,-0.0324 0,-0.0025 0,-0.0074 0,-0.0099 0.00237,0 0.00474,0 0.00711,0 -0.00237,-0.0598 -0.00947,-0.1196 0.03787,-0.1669 0.02841,-0.0274 0.12074,-0.0274 0.11837,0 -0.00237,0.0249 -0.00947,0.0548 -0.02367,0.0722 -0.03551,0.0449 -0.06629,0.0996 -0.13494,0.0947 0,0.0025 0,0.0049 0,0.0074 0,0 -0.00237,0 -0.00474,0.0025 z m 0.37641,0.0922 c -0.06629,0.1594 -0.20596,0.2814 -0.22016,0.4707 0,0.0099 -0.05682,0.0249 -0.08049,0.0174 -0.02367,-0.0075 -0.05918,-0.0448 -0.05682,-0.0623 0.04498,-0.1867 0.1231,-0.3611 0.23437,-0.5155 0.00947,-0.0124 0.05918,0 0.08759,0.0075 0,0 0,0 0.00237,0 0.0071,0.0075 0.0142,0.0149 0.02367,0.0224 0.00237,0.005 0.00473,0.0075 0.00947,0.01 -0.00237,0.0174 0.00473,0.0373 0,0.0498 z m 1.41802,1.2377 C 6.99067,28.2461 6.967,28.261 6.93149,28.2485 c 0.00947,-0.0323 0.0284,-0.0597 0.07575,-0.0672 0.08049,-0.0124 0.116,0.0398 0.10653,0.1146 0,0.0099 0.00237,0.0149 0.00237,0.0224 -0.02841,-0.0299 -0.05919,-0.0648 -0.1089,-0.1096 z m 0.58946,0.1544 c 0,0.0025 -0.00237,0.0075 -0.00237,0.01 l -0.0071,-0.0075 c 0.00237,0 0.0071,-0.0025 0.00947,-0.0025 0.00237,-0.0075 0.00474,-0.0149 0.0071,-0.0224 0.0071,0.005 0.01421,0.0075 0.01894,0.0124 -0.0071,0.0025 -0.01657,0.0075 -0.02604,0.01 z m 3.2006,2.6249 C 10.5038,30.846 10.2173,30.7041 9.86932,30.6368 9.75569,30.582 9.64443,30.5048 9.5237,30.4251 9.51186,30.4152 9.49766,30.4052 9.48345,30.3978 c 0.05445,0.0124 0.1089,0.0249 0.16098,0.0373 0.1302,0.0299 0.25567,0.0598 0.38117,0.0996 0.1278,0.0349 0.2604,0.0797 0.4024,0.147 0.2391,-0.1121 0.5776,0.3337 0.8049,0.3013 -0.09,-0.1519 0.2935,-0.0274 0.5137,0 -0.0355,0.0672 -0.0095,0.1544 0.0047,0.2764 -0.3503,-0.0373 -0.6557,-0.1544 -0.954,-0.2714 z m 4.4293,0.782 c 0.071,-0.0474 0.1136,0.0473 0.2414,0.0274 -0.0023,-0.02 -0.0426,-0.0125 -0.0686,-0.0175 0.0071,-0.0299 0.1018,-0.0124 0.0994,-0.0473 -0.0402,-0.0448 -0.2154,0.005 -0.3077,-0.0025 0.1396,-0.1046 0.4876,-0.0971 0.6012,-0.1643 0.0569,0.0423 0.0332,0.112 0.0119,0.127 0.0379,0.0697 0.0757,-0.0025 0.1397,0.0323 0.0923,-0.0348 -0.1113,-0.0348 -0.0782,-0.0996 0.2604,-0.0199 0.322,0.0025 0.4356,-0.0722 0.1113,0.0174 0,0.0374 0.2036,-0.01 0.0355,0.142 -0.213,0.0698 -0.2935,0.1221 0.1254,0.0896 0.4284,-0.142 0.4498,0.0025 -0.1066,0.0124 -0.2178,0.0373 -0.3338,0.0622 -0.116,0.0174 -0.2368,0.0374 -0.3599,0.0548 -0.2462,0.0324 -0.5018,0.0473 -0.7409,-0.0149 z m 0.0781,0.8616 c -0.0332,0.0648 0.0828,0.0324 0.1468,0.0349 -0.1184,0.0349 -0.3125,0.0448 -0.528,0.0523 -0.2177,-0.0075 -0.4568,-0.0199 -0.6699,-0.005 0.2533,-0.1569 0.6676,-0.0099 1.0511,-0.0822 z m -1.1624,0.1395 c 0.206,0.0349 0.2557,0.0199 0.4759,0.0398 -0.206,-0.107 0.4569,-0.0523 0.5113,-0.0024 -0.1728,0.0597 -0.3764,0.0473 -0.5682,0.0348 -0.1917,-0.0099 -0.3693,-0.0199 -0.4947,0.0299 -0.0284,-0.0697 0.0592,-0.0623 0.0757,-0.1021 z m -0.1136,0.1843 c 0.0308,-0.0722 0.1302,-0.0174 0.1846,0.0075 -0.0118,0.0498 -0.1633,0.0049 -0.1846,-0.0075 z m 2.4975,0.1195 -0.0095,-0.0672 c -0.0165,0.005 -0.0331,0.0075 -0.0497,0.0124 -0.0805,0.015 -0.1633,0.0249 -0.2509,0.0374 -0.1728,0.0224 -0.3551,0.0423 -0.5397,0.0548 -0.3717,0.0224 -0.7647,0.0423 -1.1316,-0.0299 -0.0403,0.005 -0.0261,0.0423 -0.0734,0.0398 -0.0876,-0.0099 -0.1539,-0.0323 -0.2225,-0.0523 0.0094,-0.0647 0.1846,-0.0273 0.2982,-0.0298 0.0024,-0.0299 0.0048,-0.0598 -0.0378,-0.0648 0.3598,-0.0099 1.0108,-0.0075 1.5411,-0.1594 0.1207,0.015 0.2367,0.0324 0.3054,0.0847 0.1065,-0.0249 -0.0308,-0.0647 -0.0119,-0.1046 0.0924,-0.0199 0.1776,0.0623 0.2226,-0.005 0.1089,0.0025 0.0449,0.0249 0.0473,0.0772 0.1823,-0.0597 0.3125,-0.1071 0.4332,-0.112 0.0261,-0.0748 -0.1183,-0.0125 -0.1894,-0.0125 0.1042,-0.0921 0.3622,-0.1071 0.4735,-0.0797 0.0426,0.0747 -0.1468,0.1669 0.0639,0.1395 -0.1491,0.1021 -0.5942,0.0274 -0.6581,0.132 0.2888,0.0074 0.7718,-0.1519 0.9422,-0.0523 -0.3835,0.1594 -0.7362,0.0946 -1.1529,0.1917 z m 1.6903,-0.508 c -0.0048,-0.0374 -0.0545,-0.0324 -0.0545,-0.0722 0.1373,-0.0598 0.1231,0.0323 0.2604,-0.0274 -0.0284,0.0448 -0.1467,0.0647 -0.2059,0.0996 z m 0.9729,-0.381 c -0.4379,0.0722 -0.8143,0.1917 -1.2617,0.2864 0.0142,0.0373 0.1231,-0.02 0.1515,0.0024 0.0094,0.0648 -0.2107,0.0972 -0.2202,0.0324 -0.0923,0.0598 -0.097,0.0797 -0.0426,0.1569 -0.1657,-0.0448 -0.1988,-0.0996 -0.142,-0.1469 0.0591,-0.0498 0.2107,-0.0872 0.419,-0.1345 -0.0379,-0.0224 -0.1208,0 -0.187,0.0075 -0.0308,-0.0598 0.1586,-0.0598 0.1633,-0.1096 0.0497,-0.0075 0.0426,0.0448 0.0545,0.0722 0.3385,-0.1145 0.3622,-0.132 0.7315,-0.2465 0.0686,0.0622 0.1775,-0.0498 0.2722,0.0099 0.09,-0.0448 -0.1207,-0.0149 -0.026,-0.0797 0.2533,-0.0548 0.2462,0.005 0.4971,-0.127 -0.0142,-0.0573 -0.2154,0.1096 -0.1918,0.0075 0.1681,-0.0299 0.2865,-0.0946 0.4025,-0.1793 0.0284,0.0423 0.0213,0.0772 0.0024,0.1121 0.0923,-0.0299 0.1017,-0.0723 0.0733,-0.1196 0.1658,-0.0896 0.2226,-0.0473 0.3031,-0.0299 -0.1231,0.2117 -0.7931,0.3213 -0.9991,0.4857 z M 22.48,31.2545 c -0.0047,-0.1096 0.1444,-0.1196 0.2273,-0.2192 0.0308,0.0647 -0.1586,0.1444 -0.2273,0.2192 z m 1.044,-0.2341 c -0.0615,0.1544 -0.0568,-0.0299 -0.1539,0.0523 -0.0047,-0.0299 0.0734,-0.0698 0.1208,-0.1046 0.0142,0.0273 0.026,0.0523 0.0662,0.0298 0.0071,0.0249 -0.026,0.0324 -0.0331,0.0225 z m -0.1184,-0.3213 0.1279,-0.0847 0.0355,0.0523 c -0.0663,0.0324 -0.1421,0.0847 -0.1634,0.0324 z m 0.1492,-0.1245 c -0.0261,-0.0449 0.0781,-0.1121 0.1586,-0.1768 l 0.0355,0.0498 c -0.0734,0.0622 -0.1444,0.1195 -0.1941,0.127 z M 23.5003,30.475 c -0.1988,0.1444 -0.4024,0.2789 -0.5042,0.371 0.0118,-0.0871 0.1823,-0.2216 0.3859,-0.3686 0.2012,-0.1494 0.4261,-0.3287 0.5752,-0.4582 -0.0805,0.1295 -0.2675,0.2964 -0.4569,0.4558 z m 1.4086,-0.3163 c -0.071,-0.0473 -0.0805,-0.0448 -0.0616,-0.137 0.0734,-0.005 0.1871,0.0299 0.0616,0.137 z m 0.1136,-0.1743 c -0.0331,0 -0.0828,0.0423 -0.1018,0.0024 0.0355,-0.0124 0.071,-0.0249 0.0616,-0.0498 0.0355,-0.0249 0.0449,0.0125 0.0852,-0.0224 -0.0047,0.0274 -0.0095,0.0548 0.0095,0.0747 -0.0355,0.0249 -0.0995,0.0374 -0.0545,-0.0049 z m 0.5421,-0.2914 c -0.0094,-0.0299 0.0616,-0.0822 0.1018,-0.127 -0.0213,-0.0125 -0.0639,0.0373 -0.1018,0.0697 -0.0521,-0.0025 0.0403,-0.1345 -0.0544,-0.0623 0.0071,-0.0498 0.161,-0.0622 0.213,-0.0647 -0.097,0.1071 -0.0307,0.1121 -0.1586,0.1843 z m 0.6866,-1.2353 0.0449,0.0424 -0.1302,0.1494 c -0.0544,-0.0324 0.0545,-0.127 0.0853,-0.1918 z m 0.213,0.2565 c 0.0237,-0.0971 -0.0379,-0.0224 -0.1089,0.0623 -0.0284,-0.0946 0.1705,-0.1768 0.2509,-0.2615 0.0308,0.0349 -0.1041,0.137 -0.142,0.1992 z m 0.116,-0.5478 c -0.026,0.1793 -0.071,0.3436 -0.329,0.508 0.026,-0.117 0.2627,-0.2789 0.1799,-0.4283 0.2391,-0.2292 0.3858,-0.4558 0.516,-0.5479 -0.0047,0.1668 -0.2178,0.4059 -0.3669,0.4682 z m 0.6842,-0.8244 c -0.1326,0.1569 -0.206,0.1943 -0.2604,0.3537 l -0.0782,-0.0648 c 0.1563,-0.1519 0.277,-0.4184 0.4593,-0.5977 0,0.1171 -0.1562,0.1968 -0.1207,0.3088 z m 1.5742,-2.5999 c -0.0663,-0.0025 -0.0236,-0.0897 -0.0923,-0.0922 0.0592,-0.0398 0.1113,-0.2515 0.1728,-0.1818 -0.0426,-0.0846 0.1018,-0.2391 0.1657,-0.3661 -0.1207,0.2391 -0.1349,0.4732 -0.2462,0.6401 z m 0.0261,0.7047 c -0.0284,-0.0199 -0.0616,0 -0.0924,0.0424 -0.0355,-0.0274 0.0119,-0.1096 0.064,-0.1968 0.0023,0.0822 0.0497,-0.0074 0.052,0.0748 0.045,-0.0623 0.0947,-0.2292 0.135,-0.1594 -0.0521,0.0299 -0.1042,0.1444 -0.1586,0.239 z m 0.2107,-0.4457 c -0.0071,-0.127 0.052,-0.1519 0.1207,-0.2615 0.0071,0.127 -0.0521,0.1544 -0.1207,0.2615 z m 0.1396,-1.4968 c -0.0118,-0.0423 -0.0023,-0.1095 0.0332,-0.2017 0.0568,0.0125 0.0189,0.1619 -0.0332,0.2017 z m -0.0331,-0.5678 c -0.0024,-0.1071 0.0521,-0.1419 0.0828,-0.3063 0.0569,0.0224 -0.0378,0.2615 -0.0828,0.3063 z m 0.2012,-0.8467 c 0.0568,0.0548 -0.0544,0.1494 -0.0473,0.2739 -0.0853,0.005 0.0331,-0.1842 0.0473,-0.2739 z m -0.0095,0.6624 c -0.0213,-0.1494 0.0071,-0.2191 0.0427,-0.4457 0.0118,0.0647 -0.0214,0.2739 0.0639,0.0622 0.0663,0.0797 -0.071,0.2441 -0.1066,0.3835 z m 0.2865,-1.7258 c -0.0781,0.386 -0.0426,0.5329 -0.0497,0.7197 -0.0166,0.0897 -0.0663,0.0274 -0.0876,0.0971 0.1065,-0.0373 0.0331,0.2541 -0.0166,0.4483 -0.0639,-0.0348 -0.0994,-0.0348 -0.1018,-0.0747 0.0355,-0.0324 0.0639,-0.1693 0.0545,-0.2316 -0.0734,0.0946 -0.0332,-0.132 -0.0805,-0.1469 0.0331,-0.0747 0.0521,-0.0723 0.0686,-0.02 0.0261,-0.2938 0.161,-0.6325 0.1823,-0.9239 0.0213,0.01 0.0284,0.0772 0.0592,0.0125 -0.0829,0.0423 0.0189,-0.132 -0.0331,-0.127 -0.0261,0.0423 -0.0427,0.0298 -0.0521,-0.005 0.0284,-0.0897 0.0568,-0.1793 0.0805,-0.2715 0.0733,-0.0274 -0.0356,0.1669 0.0165,0.1669 0.0308,-0.1719 0.1728,-0.4334 0.1018,-0.4981 -0.0426,0.1693 -0.0402,0.2416 -0.116,0.3213 0.0024,-0.005 0.0024,-0.01 0.0048,-0.015 0.0331,-0.1494 0.0591,-0.3038 0.0805,-0.4632 0.0307,0 0.0568,-0.0149 0.0828,-0.0374 0,0.0025 0,0.0025 -0.0024,0.005 0.0569,0.0847 0.045,0.1943 0.0213,0.3063 -0.026,0.1121 -0.0686,0.2242 -0.0568,0.3263 -0.0497,0.0896 -0.0757,0.0797 -0.1041,0.0996 0.052,0.0772 -0.0119,0.4383 -0.0379,0.5155 -0.0663,0.005 0.026,-0.1793 -0.0142,-0.2042 z m -0.0047,1.9574 c 0.0639,-0.1319 0.0213,-0.2017 0.0923,-0.2689 0.097,-0.0174 -0.0261,0.3437 -0.0923,0.2689 z m 0.0994,-0.3536 c 0.0828,-0.0598 0.1515,-0.2216 0.2438,-0.2216 -0.071,0.1444 -0.1444,0.2864 -0.2438,0.2216 z m 0.8096,-6.7564 c 0,-0.0025 0,-0.0025 0,0 0,0 0,0.0025 0,0.005 0,-0.0025 0,-0.005 0,-0.005 z m 0.09,-0.1768 c 0.0165,-0.0623 0.0189,0.1718 0.0402,0.3237 C 30.607,15.9784 30.626,15.7941 30.6544,15.697 Z"
       fill="#010a35"
       id="path134" />
    <path
       fill-rule="evenodd"
       clip-rule="evenodd"
       d="M 8.70226,3.03331 C 8.64544,3.12545 8.27851,3.24748 8.2572,3.28733 8.33769,3.27736 8.82299,3.05323 8.70226,3.03331 Z"
       fill="#010a35"
       id="path136" />
    <path
       fill-rule="evenodd"
       clip-rule="evenodd"
       d="M 16.6872,0.136971 C 16.6635,0.0871627 16.467,0.114557 16.4528,0.0697299 c 0.2509,-0.057279 0.4119,0.1245201 0.6676,0.1494241 0.0095,-0.024904 0,-0.05977 0.045,-0.057279 0.0378,0.034865 0.0591,0.072221 0.1089,0.102106 0.2698,-0.012452 0.7693,0.154404 0.9966,0.082183 C 18.2141,0.298846 17.9821,0.278923 18.1289,0.229115 17.9324,0.186779 18.0957,0.286394 17.9963,0.291375 17.9916,0.273942 17.9679,0.26149 17.9205,0.25651 17.9916,0.174326 17.6625,0.19923 17.5323,0.13199 17.4305,0.144442 17.5962,0.206702 17.4826,0.209192 17.4021,0.127009 17.2388,0.0871627 17.2459,0.174327 17.2719,0.146932 16.9286,0.136971 17.0541,0.0821819 16.628,0.0398452 16.673,-0.00498189 16.3392,-1.10146e-6 16.3699,0.0772011 16.3415,0.0522972 16.3723,0.129499 16.5286,0.0946339 16.583,0.161875 16.6872,0.136971 Z"
       fill="#010a35"
       id="path138" />
    <path
       fill-rule="evenodd"
       clip-rule="evenodd"
       d="m 21.2206,3.35207 c 0.097,0.02739 0.2296,0.10709 0.3077,0.10709 -0.0781,-0.04981 -0.258,-0.13448 -0.3077,-0.10709 z"
       fill="#010a35"
       id="path140" />
    <path
       fill-rule="evenodd"
       clip-rule="evenodd"
       d="M 22.6907,3.43176 C 22.6528,3.49651 22.5013,3.36452 22.4279,3.36701 22.4682,3.4467 22.757,3.53137 22.6907,3.43176 Z"
       fill="#010a35"
       id="path142" />
    <path
       fill-rule="evenodd"
       clip-rule="evenodd"
       d="M 23.711,2.79671 C 23.7299,2.76683 23.8104,2.84652 23.8341,2.8266 23.7749,2.7992 23.7583,2.68465 23.8412,2.73196 23.8838,2.7992 23.9359,2.75438 24.0401,2.77928 23.8459,2.71204 23.5666,2.5153 23.479,2.55016 c 0.1468,0.02989 0.322,0.20671 0.232,0.24655 z"
       fill="#010a35"
       id="path144" />
    <path
       fill-rule="evenodd"
       clip-rule="evenodd"
       d="m 23.7962,4.89113 c -0.0497,0.04234 0.0237,0.1021 0.1089,0.16436 -0.0189,-0.09961 0.1799,0.1046 0.0923,-0.00498 -0.0733,-0.05478 -0.1136,-0.03735 -0.1041,-0.10708 0.0166,0.01245 0.0426,0.01245 0.0118,-0.01744 -0.0284,0.00997 -0.0568,0.01495 -0.0947,0.00498 0.0071,-0.00996 0.0119,-0.02241 -0.0142,-0.03984 z"
       fill="#010a35"
       id="path146" />
    <path
       fill-rule="evenodd"
       clip-rule="evenodd"
       d="m 24.059,5.15013 c 0.1657,0.20421 0.3646,0.53792 0.5729,0.5703 C 24.613,5.69801 24.5798,5.67062 24.5917,5.65319 24.6769,5.72292 24.7266,5.69303 24.8308,5.82253 24.8734,5.78767 24.8095,5.7279 24.7621,5.67311 24.6295,5.60836 24.1513,5.27714 24.194,5.15013 c -0.045,0.00249 -0.1018,-0.0274 -0.135,0 z"
       fill="#010a35"
       id="path148" />
    <path
       fill-rule="evenodd"
       clip-rule="evenodd"
       d="m 25.4486,4.45034 c 0.0521,0.13199 0.4593,0.36359 0.4569,0.51551 0.0687,0.06475 0.1089,0.05479 0.187,0.15191 -0.0355,0.00747 -0.0757,-0.00249 -0.1112,0.00747 0.0615,0.04483 0.1254,0.09215 0.187,0.14943 0.0592,0.05977 0.1183,0.12452 0.1799,0.19425 0.1207,0.13697 0.2415,0.28888 0.3622,0.43831 0.2438,0.30133 0.4924,0.59769 0.7339,0.80937 0.0236,0.25901 0.3574,0.32874 0.3243,0.51801 C 27.8017,7.17234 27.7828,7.18728 27.8467,7.16985 27.6478,7.00548 27.4632,6.67426 27.4821,6.54476 27.475,6.53978 27.475,6.52981 27.4916,6.50989 c -0.0071,0.00747 -0.0071,0.02242 -0.0095,0.03487 0.0237,0.01743 0.1444,-0.01993 0.1468,0.11705 0.0687,0.01494 -0.0047,-0.13698 0.0616,-0.05479 0.0213,0.08218 0.0355,0.15938 0.0426,0.2316 0.0615,0.07223 0.1183,0.11954 0.1751,0.17184 -0.0142,0.01992 -0.0497,0.03238 -0.0236,0.07222 0.071,-0.10459 0.1467,0.15192 0.1823,0.21916 C 28.0811,7.19724 27.9367,7.01046 27.9627,6.91085 27.8869,6.92579 27.9106,6.85606 27.8254,6.75644 27.8396,6.73652 27.8727,6.72407 27.8491,6.68422 27.8136,6.67177 27.7733,6.50242 27.662,6.46506 27.7047,6.54227 27.6905,6.55721 27.6407,6.53978 27.546,6.353 27.359,6.20606 27.2809,5.98193 27.1838,6.04668 27.127,5.89476 27.0371,5.76277 27.011,5.78021 26.9921,5.82752 26.9519,5.79017 26.9021,5.72293 26.9376,5.69055 26.9305,5.64074 26.9732,5.69802 27.1176,5.79515 27.0536,5.69055 27.0087,5.72791 26.8808,5.46642 26.8359,5.50377 26.8974,5.56852 26.9092,5.61335 26.8737,5.64074 26.8453,5.52868 26.7861,5.60588 26.6985,5.4714 26.6512,5.49879 26.6062,5.53864 26.5447,5.51622 26.5518,5.3668 26.3671,5.37925 26.2748,5.27715 26.2346,5.15761 26.199,5.0555 26.2275,4.96585 26.1257,4.88865 26.1091,4.8488 26.0688,4.84133 26.1257,4.90359 26.0902,4.93845 26.102,4.98826 25.8937,4.8488 25.844,4.77409 25.664,4.57237 25.5883,4.57486 25.5149,4.54497 25.4486,4.45034 Z M 27.011,6.0143 c 0.0426,0.02242 0.09,0.06226 0.1468,0.13947 C 27.1365,6.26085 27.0134,5.97944 26.9921,6.08902 26.9637,6.04917 26.9968,6.03672 27.011,6.0143 Z"
       fill="#010a35"
       id="path150" />
    <path
       fill-rule="evenodd"
       clip-rule="evenodd"
       d="m 25.2924,6.24093 c 0.045,0.07222 0.0308,0.12701 0.0284,0.18429 0.0568,0.08467 0.0781,0.0249 0.1255,0.07969 -0.026,0.0249 -0.0166,0.05977 0.0071,0.09962 C 25.522,6.48001 25.3398,6.38537 25.3705,6.26334 25.3516,6.28576 25.3137,6.23097 25.2924,6.24093 Z"
       fill="#010a35"
       id="path152" />
    <path
       fill-rule="evenodd"
       clip-rule="evenodd"
       d="m 29.5014,10.5767 c -0.0142,-0.2142 0.1326,0.0623 0.1468,-0.0697 -0.0663,0.0224 -0.1278,-0.1221 -0.1941,-0.132 0.09,0.127 -0.0189,0.0946 0.0473,0.2017 z"
       fill="#010a35"
       id="path154" />
    <path
       fill-rule="evenodd"
       clip-rule="evenodd"
       d="m 29.5559,11.3089 c -0.0284,0 -0.0544,-0.0399 -0.0876,-0.005 0.045,0.1096 0.0119,0.1444 0.0119,0.2117 0.0236,-0.0175 0.1065,0.1768 0.0828,0.0523 -0.1112,-0.137 0.0142,-0.1694 -0.0071,-0.259 z"
       fill="#010a35"
       id="path156" />
    <path
       fill-rule="evenodd"
       clip-rule="evenodd"
       d="m 28.4598,25.92 c 0.0687,-0.0498 0.1752,-0.0373 0.1468,-0.0548 0.0284,-0.1095 -0.1041,-0.0423 -0.1468,0.0548 z"
       fill="#010a35"
       id="path158" />
    <path
       fill-rule="evenodd"
       clip-rule="evenodd"
       d="m 27.1768,27.8376 c -0.0971,0.127 -0.2202,0.1843 -0.2154,0.2914 0.0686,-0.0448 0.2083,-0.1793 0.1823,-0.0573 0.0236,-0.1046 0.3053,-0.2988 0.2296,-0.2839 -0.0781,0.0623 -0.277,0.2217 -0.1965,0.0498 z"
       fill="#010a35"
       id="path160" />
    <path
       fill-rule="evenodd"
       clip-rule="evenodd"
       d="m 28.5498,29.4888 c -0.0047,0.0498 -0.0047,0.0448 -0.0237,0.2191 0.116,-0.1668 0.2178,-0.3287 0.1539,-0.4084 -0.0331,0.0598 -0.1681,0.1669 -0.1302,0.1893 z"
       fill="#010a35"
       id="path162" />
    <path
       fill-rule="evenodd"
       clip-rule="evenodd"
       d="m 23.5974,31.496 c -0.0545,0.0448 -0.1042,0.0299 -0.1018,0.0673 0.1373,-0.0424 -0.1137,0.1095 -0.1018,0.1419 0.0899,-0.0299 0.3054,-0.1843 0.2604,-0.1967 -0.1397,0.0971 -0.0876,0.0448 -0.0568,-0.0125 z"
       fill="#010a35"
       id="path164" />
    <path
       fill-rule="evenodd"
       clip-rule="evenodd"
       d="m 19.0474,33.451 c 0.0569,0.005 0.1492,-0.0224 0.1705,0.0174 -0.1799,0.0598 -0.483,0.0174 -0.3835,0.1071 0.0544,-0.0648 0.2391,-0.0399 0.2864,-0.0149 0.0332,-0.0573 0.3835,-0.2267 0.277,-0.1893 -0.1657,0.0921 -0.2959,0.0124 -0.3504,0.0797 z"
       fill="#010a35"
       id="path166" />
    <path
       fill-rule="evenodd"
       clip-rule="evenodd"
       d="m 18.1218,33.5058 c 0.0024,0.0996 -0.1444,0.2117 0.0166,0.254 -0.0213,-0.0374 0.0426,-0.0523 0.0639,-0.0797 -0.1255,-0.0224 -0.1089,-0.1469 0.1184,-0.1843 0.0237,-0.0772 -0.1255,0.0025 -0.1989,0.01 z"
       fill="#010a35"
       id="path168" />
    <path
       fill-rule="evenodd"
       clip-rule="evenodd"
       d="m 17.4424,33.715 c -0.0782,0.0323 0.0899,0.0697 0.0663,0.1394 l -0.1563,0.0274 -0.0189,-0.1046 c -0.1184,0.0872 -0.3504,0.1021 -0.2533,0.1694 -0.064,-0.0224 -0.1634,0.0099 -0.1942,0.0523 0.3031,-0.02 0.3788,-0.1096 0.6298,-0.1046 0,-0.0249 0.0023,-0.0498 0.071,-0.0548 C 17.4684,33.8021 17.5797,33.71 17.4424,33.715 Z"
       fill="#010a35"
       id="path170" />
    <path
       fill-rule="evenodd"
       clip-rule="evenodd"
       d="M 15.764,34.9079 C 15.8421,34.9353 16.041,34.8904 15.9818,35 16.28,34.9701 15.861,34.8332 15.764,34.9079 Z"
       fill="#010a35"
       id="path172" />
    <path
       fill-rule="evenodd"
       clip-rule="evenodd"
       d="m 14.1234,33.7847 c 0.045,0.0124 0.0876,0.0274 0.116,0.0473 0.4332,-0.0199 -0.0308,-0.0523 -0.116,-0.0473 z"
       fill="#010a35"
       id="path174" />
    <path
       fill-rule="evenodd"
       clip-rule="evenodd"
       d="m 13.8867,33.8793 c 0.0331,0.0648 0.2106,0.0897 0.3124,0.0772 -0.0284,-0.0473 -0.1704,-0.0846 -0.0757,-0.1295 -0.2083,-0.0249 -0.3338,0 -0.4687,0.02 0.1136,0.0772 -0.116,0.0722 -0.045,0.1021 0.0521,-0.0274 0.187,-0.02 0.2367,0.0124 0.0497,-0.0498 -0.0189,-0.0672 0.0403,-0.0822 z"
       fill="#010a35"
       id="path176" />
    <path
       fill-rule="evenodd"
       clip-rule="evenodd"
       d="m 13.3493,33.6801 c 0.0024,0.0523 -0.0639,0.0648 -0.1207,0.0722 -0.0071,-0.0448 -0.1705,-0.0299 -0.1894,-0.0697 -0.0426,0.0124 -0.019,0.0747 -0.1208,0.0473 -0.6723,-0.1096 -1.1742,-0.1768 -1.6405,-0.3188 -0.2344,-0.0647 -0.464,-0.1295 -0.7078,-0.1967 C 10.4493,33.1795 10.3239,33.1447 10.1937,33.1073 10.0658,33.06 9.93325,33.0127 9.79121,32.9604 9.76754,33.0998 9.67048,32.8956 9.59473,32.933 c 0.04024,0.132 0.1302,0.1419 0.30065,0.244 0.05208,-0.0523 -0.08523,-0.0772 -0.08759,-0.122 0.04971,0.0199 0.08522,0.0199 0.11599,0.0199 -0.07575,0.0698 0.17522,0.127 0.04025,0.1495 0.27697,0.0797 0.58947,0.122 0.92797,0.1992 0.1705,0.0373 0.3456,0.0772 0.5327,0.122 0.0923,0.0224 0.187,0.0473 0.2864,0.0722 0.0994,0.02 0.1989,0.0399 0.303,0.0623 0.0024,-0.0374 0.0379,-0.0498 0.0852,-0.0498 0.0876,0.0672 0.0995,0.0374 0.2699,0.0647 -0.0521,0.0548 -0.0331,0.0748 0.0639,0.1171 0.0095,-0.0224 0,-0.0598 0.0474,-0.0573 0.2012,0.0299 0.4687,0.0424 0.7031,0.0324 0.2107,-0.01 0.393,-0.0523 0.4876,-0.0922 -0.0757,0.015 -0.232,-0.0199 -0.3219,-0.0149 z"
       fill="#010a35"
       id="path178" />
    <path
       fill-rule="evenodd"
       clip-rule="evenodd"
       d="m 8.39447,30.2284 c 0.13494,0.0548 0.28408,0.1619 0.1302,0.1345 0.07339,0.0598 0.17045,0.127 0.22963,0.0896 0.09706,0.0972 0.1089,0.2541 0.26041,0.2914 -0.01184,0.0349 -0.03078,0.0573 -0.06392,0.0623 0.11126,0.0373 0.16808,0 0.2604,0.0099 0.05919,0.0374 -0.00473,0.0872 0.10417,0.1196 0.04971,-0.0374 0.22963,0.0099 0.39771,0.0772 -0.00947,0.0099 -0.01894,0.0224 -0.02131,0.0324 -0.00237,0.0273 0.01657,0.0547 0.02367,0.0846 0.01657,-0.0174 0.04262,-0.0348 0.04262,-0.0523 0,-0.0149 -0.00237,-0.0323 -0.00947,-0.0473 0.18701,0.0822 0.34562,0.1843 0.27932,0.2266 0.0971,0.0249 0.1941,0.0648 0.2888,0.1071 h -0.0023 c -0.0119,0.0025 -0.0237,0.0199 -0.0355,0.0299 -0.0214,0.0199 -0.0119,0.0498 0.0284,0.0598 0.0876,0.0224 0.187,-0.005 0.2556,0.0822 0.0805,-0.0598 0.1492,-0.0324 0.232,0.0124 0.0474,0.0249 0.0829,0 0.1018,-0.0523 0.0071,-0.0025 0.0119,-0.0025 0.019,-0.005 -0.0048,-0.0025 -0.0095,-0.0049 -0.0142,-0.0074 0.0047,-0.0175 0.0047,-0.0349 0.0071,-0.0573 0.0591,0.0124 0.1254,0.0299 0.1349,-0.01 -0.0426,-0.0099 -0.09,-0.0199 -0.1349,-0.0299 -0.0071,-0.0448 -0.0261,-0.1071 -0.0498,-0.0896 -0.0331,0.0249 -0.0686,0.0398 -0.1041,0.0498 -0.0332,-0.0075 -0.0639,-0.015 -0.0971,-0.0249 C 10.5274,31.2769 10.3925,31.227 10.2623,31.1748 10.0019,31.0726 9.75094,30.973 9.55446,30.8983 9.57813,30.8809 9.60654,30.8659 9.64205,30.8635 9.74147,30.8958 9.77698,31.0029 9.83853,30.9382 9.73674,30.9008 9.69176,30.8535 9.62311,30.8112 9.57103,30.8585 9.47633,30.8361 9.38401,30.7987 9.29168,30.7564 9.19936,30.7041 9.13781,30.7115 9.18752,30.7066 9.20646,30.6592 9.17568,30.6144 9.04075,30.5671 8.86557,30.46 8.79218,30.3554 8.81112,30.3305 8.85846,30.3479 8.87977,30.328 8.68328,30.2309 8.59806,30.2707 8.39447,30.2284 Z"
       fill="#010a35"
       id="path180" />
    <path
       fill-rule="evenodd"
       clip-rule="evenodd"
       d="m 9.28223,31.8945 c 0.18938,0.0224 0.35273,0.0423 0.53264,0.1793 C 9.82434,32.0464 9.81251,32.024 9.7983,32.0016 9.85748,32.024 9.89299,32.019 9.9143,31.9991 9.69414,31.9468 9.59235,31.8895 9.37692,31.8422 9.60655,31.9244 9.33667,31.8945 9.28223,31.8945 Z"
       fill="#010a35"
       id="path182" />
    <path
       fill-rule="evenodd"
       clip-rule="evenodd"
       d="M 8.93658,31.638 C 8.8774,31.6106 8.83242,31.5832 8.80875,31.5533 8.74956,31.5931 8.92238,31.76 8.87977,31.6803 8.78744,31.623 8.94369,31.6753 8.93658,31.638 Z"
       fill="#010a35"
       id="path184" />
    <path
       fill-rule="evenodd"
       clip-rule="evenodd"
       d="m 8.15064,31.765 c -0.09233,0.117 0.31249,0.2117 0.32669,0.3237 l 0.0142,-0.0398 C 8.51284,32.0588 8.53415,32.0663 8.53415,32.0464 8.45366,31.9941 8.33766,31.9468 8.19562,31.8571 8.20509,31.8272 8.22876,31.7949 8.15064,31.765 Z"
       fill="#010a35"
       id="path186" />
    <path
       fill-rule="evenodd"
       clip-rule="evenodd"
       d="M 6.97645,32.7163 C 7.01433,32.7213 7.13269,32.6864 7.05694,32.6416 6.95988,32.6715 6.9149,32.5968 6.83678,32.6192 6.89833,32.6565 6.92437,32.6864 6.9291,32.7188 6.7989,32.6839 6.806,32.6516 6.6758,32.5719 c -0.02604,0.0299 0.01894,0.0647 0,0.0971 -0.11126,-0.1021 -0.22489,-0.0872 -0.31722,-0.122 0.1089,0.0597 0.08996,0.1095 0.19649,0.1718 0.1373,-0.0149 0.22489,0.0747 0.4782,0.1718 0.0071,-0.0423 0.06865,-0.0124 0.10179,-0.0199 C 7.04274,32.8184 7.0238,32.7686 6.97645,32.7163 Z"
       fill="#010a35"
       id="path188" />
    <path
       fill-rule="evenodd"
       clip-rule="evenodd"
       d="M 7.9613,28.7815 C 8.04179,28.8014 8.07257,28.906 8.09861,28.8686 7.97787,28.784 8.04653,28.7641 8.03942,28.7093 7.97551,28.7242 7.9613,28.7043 7.9613,28.7815 Z"
       fill="#010a35"
       id="path190" />
    <path
       fill-rule="evenodd"
       clip-rule="evenodd"
       d="m 24.5514,3.35455 c 0.1373,0.11705 0.2012,0.08468 0.303,0.1295 0.0805,0.08468 0.0852,0.1569 0.1326,0.23659 0.0781,0.02739 0.161,0.10211 0.2557,0.18678 0.0899,0.09214 0.1917,0.19425 0.3101,0.27394 C 25.4013,4.05435 25.4107,3.97217 25.3752,3.87753 25.2356,3.82026 25.1835,3.72313 25.0556,3.69574 25.0793,3.66585 25.0556,3.64095 25.0036,3.6285 25.0367,3.59114 25.0675,3.55129 24.9988,3.49401 24.8947,3.48654 24.7432,3.37946 24.639,3.36949 24.6224,3.32218 24.6201,3.27735 24.5869,3.22505 c -0.0142,0.02491 -0.0402,0.0274 -0.0663,0.0274 0.0616,0.04233 0.0663,0.0772 0.0308,0.1021 z"
       fill="#010a35"
       id="path192" />
    <path
       fill-rule="evenodd"
       clip-rule="evenodd"
       d="M 10.0469,33.4161 C 9.96874,33.3563 9.87641,33.2991 9.77935,33.2468 9.58287,33.1422 9.3556,33.06 9.13781,33.0525 9.12361,33.2268 8.96263,33.2393 8.7472,33.1945 8.79455,33.0998 8.55308,33.0376 8.53178,32.9504 8.51284,33.0426 8.38027,32.9429 8.385,32.9952 8.37553,32.9579 8.34476,32.9205 8.29741,32.8832 8.27137,32.9853 8.04648,32.8334 7.8997,32.7811 c -0.02604,0.0747 0.01894,0.0747 -0.04734,0.117 0.14677,0.1445 0.51607,0.3387 0.63444,0.4159 0.3835,0.0299 0.79542,0.5006 1.28308,0.6176 0.32672,0.0747 0.53972,-0.0747 0.47342,-0.3586 -0.0497,-0.0473 -0.1183,-0.0996 -0.1964,-0.1569 z"
       fill="#010a35"
       id="path194" />
  </g>
  <defs
     id="defs201">
    <clipPath
       id="clip0">
      <rect
         width="31"
         height="35"
         fill="#ffffff"
         id="rect198"
         x="0"
         y="0" />
    </clipPath>
  </defs>
  <path
     d="m 27.214069,9.34066 -5.3262,5.1967 1.2596,7.3416 c 0.0431,0.2663 -0.0648,0.5398 -0.2879,0.7054 -0.1296,0.0863 -0.2735,0.1367 -0.4247,0.1367 -0.1151,0 -0.2303,-0.0288 -0.3311,-0.0864 l -6.593,-3.462 -6.5930104,3.462 c -0.23753,0.1296 -0.53266,0.108 -0.75579,-0.0503 -0.22312,-0.1656 -0.33106,-0.4391 -0.28787,-0.7054 l 1.25958,-7.3416 -5.326256,-5.1967 C 3.6059116,9.15358 3.5411146,8.86566 3.6202776,8.60655 3.7066456,8.34745 3.9297686,8.1531 4.2032786,8.11712 l 7.3704004,-1.07248 3.28929,-6.67216 c 0.2447,-0.49664 1.0509,-0.49664 1.2956,0 l 3.2893,6.67216 7.3704,1.07248 c 0.2735,0.03598 0.4966,0.23033 0.583,0.48943 0.0791,0.25911 0.0143,0.54703 -0.1872,0.73411 z"
     fill="#ee2529"
     id="path2-9" />
  <path
     d="m 7.8616786,22.72106 -3.61379,1.8978 -0.660412,6.7766 h 8.5485324 l -0.66006,-6.7767 z"
     fill="#ee2529"
     id="path4-3" />
  <path
     d="M 15.405969,31.39546 H 6.0058686 c -1.33154,0 -2.418392,1.0797 -2.418392,2.4184 v 1.9074 c 0,0.3958 0.323902,0.7197 0.719762,0.7197 H 17.104669 c 0.3958,0 0.7197,-0.3239 0.7197,-0.7197 v -1.9074 c 0,-1.3387 -1.0868,-2.4184 -2.4184,-2.4184 z"
     fill="#ee2529"
     id="path6-8" />
</svg>
