<svg width="115" height="42" viewBox="0 0 115 42" fill="none" xmlns="http://www.w3.org/2000/svg">
<g clip-path="url(#clip0)">
<path fill-rule="evenodd" clip-rule="evenodd" d="M14.37 27.4C14.34 27.41 14.29 27.43 14.28 27.46C14.26 27.51 14.26 27.57 14.25 27.69C14.18 27.84 14.35 27.99 14.42 28.16C14.43 28.18 14.5 28.2 14.52 28.19C14.66 28.06 14.81 27.93 14.94 27.8C14.96 27.78 14.96 27.72 14.94 27.69C14.8 27.5 14.64 27.33 14.37 27.4Z" fill="#010A35"/>
<path fill-rule="evenodd" clip-rule="evenodd" d="M13.78 27.95C13.74 27.82 13.64 27.73 13.48 27.75C13.45 27.76 13.41 27.77 13.38 27.79C13.37 27.8 13.38 27.86 13.4 27.87C13.52 27.98 13.6 28.1 13.56 28.27C13.55 28.34 13.55 28.42 13.57 28.5C13.57 28.53 13.62 28.56 13.65 28.56C13.8 28.57 13.96 28.38 13.89 28.27C13.81 28.16 13.81 28.05 13.78 27.95Z" fill="#010A35"/>
<path fill-rule="evenodd" clip-rule="evenodd" d="M15.7 29.14C15.67 29.1 15.64 29.03 15.57 29.07C15.52 29.1 15.45 29.18 15.46 29.19C15.56 29.32 15.42 29.43 15.43 29.55C15.43 29.57 15.45 29.58 15.47 29.61C15.51 29.59 15.56 29.56 15.6 29.54C15.82 29.41 15.84 29.32 15.7 29.14Z" fill="#010A35"/>
<path fill-rule="evenodd" clip-rule="evenodd" d="M13.16 26.15C13.14 26.15 13.09 26.18 13.09 26.2C13.08 26.26 13.09 26.31 13.09 26.37H13.1C13.1 26.45 13.09 26.52 13.1 26.6C13.1 26.65 13.14 26.67 13.17 26.65C13.28 26.58 13.33 26.49 13.32 26.36C13.32 26.28 13.24 26.17 13.16 26.15Z" fill="#010A35"/>
<path fill-rule="evenodd" clip-rule="evenodd" d="M22.67 34.02C22.67 34.02 22.67 33.99 22.66 33.98C22.54 33.82 22.35 33.79 22.19 33.7C22.15 33.75 22.12 33.78 22.12 33.81C22.12 33.84 22.14 33.9 22.15 33.9C22.2 33.91 22.24 33.93 22.29 33.94C22.31 33.97 22.33 33.99 22.37 34.01C22.39 33.99 22.38 33.98 22.37 33.96C22.44 33.98 22.51 34.01 22.57 34.05C22.59 34.07 22.63 34.04 22.67 34.02Z" fill="#010A35"/>
<path fill-rule="evenodd" clip-rule="evenodd" d="M14.06 28.8C14 28.78 13.91 28.84 13.9 28.92C13.89 29.06 13.92 29.14 14.01 29.14C14.07 29.14 14.22 29.05 14.23 28.99C14.25 28.94 14.15 28.83 14.06 28.8Z" fill="#010A35"/>
<path fill-rule="evenodd" clip-rule="evenodd" d="M15.17 28.39C15.16 28.38 15.14 28.37 15.13 28.35C15.12 28.36 15.1 28.38 15.1 28.39C15.1 28.54 15.1 28.69 15.1 28.83C15.1 28.85 15.12 28.87 15.13 28.87C15.14 28.87 15.16 28.85 15.18 28.84C15.33 28.72 15.33 28.69 15.24 28.52C15.21 28.49 15.2 28.44 15.17 28.39Z" fill="#010A35"/>
<path fill-rule="evenodd" clip-rule="evenodd" d="M14.48 27C14.48 26.98 14.46 26.96 14.44 26.96C14.35 26.97 14.25 27.11 14.27 27.21C14.27 27.23 14.29 27.24 14.3 27.26C14.39 27.25 14.49 27.09 14.48 27Z" fill="#010A35"/>
<path fill-rule="evenodd" clip-rule="evenodd" d="M14.52 29.45C14.51 29.5 14.48 29.55 14.54 29.59C14.56 29.58 14.61 29.55 14.61 29.55C14.6 29.5 14.57 29.46 14.55 29.42C14.54 29.42 14.52 29.43 14.52 29.45Z" fill="#010A35"/>
<path fill-rule="evenodd" clip-rule="evenodd" d="M23.86 36.74C23.89 36.74 23.93 36.71 23.96 36.7C23.93 36.68 23.9 36.66 23.86 36.66C23.85 36.66 23.84 36.67 23.83 36.67C23.78 36.64 23.7 36.6 23.68 36.64C23.71 36.66 23.72 36.68 23.71 36.7C23.75 36.72 23.79 36.73 23.82 36.73C23.83 36.74 23.84 36.74 23.86 36.74Z" fill="#010A35"/>
<path fill-rule="evenodd" clip-rule="evenodd" d="M17.23 10.1C17.21 10.11 17.2 10.15 17.19 10.18C17.22 10.17 17.25 10.17 17.27 10.15C17.29 10.12 17.26 10.09 17.23 10.1Z" fill="#010A35"/>
<path fill-rule="evenodd" clip-rule="evenodd" d="M17.2 10.18C17.19 10.18 17.19 10.18 17.18 10.18V10.19H17.19C17.19 10.19 17.19 10.18 17.2 10.18Z" fill="#010A35"/>
<path fill-rule="evenodd" clip-rule="evenodd" d="M17.11 10.27C17.11 10.29 17.15 10.29 17.18 10.3C17.18 10.27 17.18 10.23 17.18 10.2C17.14 10.2 17.09 10.21 17.11 10.27Z" fill="#010A35"/>
<path fill-rule="evenodd" clip-rule="evenodd" d="M17.18 10.3V10.31C17.18 10.31 17.18 10.31 17.19 10.31V10.3H17.18Z" fill="#010A35"/>
<path fill-rule="evenodd" clip-rule="evenodd" d="M13.24 13.5C13.24 13.5 13.23 13.53 13.24 13.54C13.26 13.55 13.29 13.56 13.31 13.57C13.31 13.53 13.31 13.49 13.24 13.5Z" fill="#010A35"/>
<path fill-rule="evenodd" clip-rule="evenodd" d="M13.32 13.57C13.32 13.58 13.32 13.58 13.32 13.59C13.33 13.59 13.33 13.59 13.34 13.59C13.34 13.58 13.34 13.58 13.34 13.58C13.33 13.57 13.32 13.57 13.32 13.57Z" fill="#010A35"/>
<path fill-rule="evenodd" clip-rule="evenodd" d="M12.8 14.39C12.81 14.38 12.83 14.36 12.84 14.35C12.82 14.29 12.79 14.29 12.76 14.35C12.76 14.35 12.78 14.37 12.8 14.39Z" fill="#010A35"/>
<path fill-rule="evenodd" clip-rule="evenodd" d="M12.43 14.91C12.41 14.91 12.41 14.95 12.4 14.98C12.43 14.98 12.47 14.98 12.5 14.98C12.49 14.94 12.49 14.89 12.43 14.91Z" fill="#010A35"/>
<path fill-rule="evenodd" clip-rule="evenodd" d="M12.28 15.1C12.27 15.1 12.27 15.1 12.26 15.1C12.26 15.11 12.26 15.11 12.26 15.12C12.27 15.12 12.27 15.12 12.28 15.11V15.1Z" fill="#010A35"/>
<path fill-rule="evenodd" clip-rule="evenodd" d="M12.38 14.99C12.32 15 12.28 15.03 12.28 15.09C12.31 15.09 12.35 15.09 12.38 15.09C12.38 15.06 12.38 15.03 12.38 14.99Z" fill="#010A35"/>
<path fill-rule="evenodd" clip-rule="evenodd" d="M12.26 15.12C12.24 15.13 12.21 15.14 12.19 15.15C12.19 15.15 12.19 15.18 12.19 15.19C12.25 15.19 12.26 15.15 12.26 15.12Z" fill="#010A35"/>
<path fill-rule="evenodd" clip-rule="evenodd" d="M19.12 33.22C19.13 33.21 19.15 33.2 19.15 33.19C19.15 33.18 19.13 33.17 19.12 33.15C19.11 33.17 19.1 33.18 19.09 33.2C19.1 33.21 19.11 33.22 19.12 33.22Z" fill="#010A35"/>
<path fill-rule="evenodd" clip-rule="evenodd" d="M20.95 33.77C20.97 33.81 20.99 33.82 21.01 33.79C21.02 33.78 21.01 33.77 21.01 33.75C21 33.74 20.99 33.73 20.98 33.73C20.97 33.75 20.95 33.77 20.95 33.77Z" fill="#010A35"/>
<path fill-rule="evenodd" clip-rule="evenodd" d="M23.06 36.47C23.06 36.48 23.08 36.5 23.09 36.51C23.1 36.5 23.12 36.49 23.13 36.48C23.12 36.47 23.11 36.45 23.09 36.44C23.08 36.44 23.06 36.45 23.06 36.47Z" fill="#010A35"/>
<path fill-rule="evenodd" clip-rule="evenodd" d="M25.24 36.7C25.23 36.69 25.22 36.66 25.21 36.66C25.16 36.68 25.15 36.71 25.2 36.73C25.21 36.74 25.22 36.71 25.24 36.7Z" fill="#010A35"/>
<path fill-rule="evenodd" clip-rule="evenodd" d="M44.12 6.92C44.18 6.82 44.15 6.69 44.01 6.53C43.91 6.62 44.1 6.8 44.12 6.92Z" fill="#010A35"/>
<path fill-rule="evenodd" clip-rule="evenodd" d="M30.83 2.08C30.6 2.06 31.11 2.02 30.84 1.97C30.84 2.05 30.6 1.98 30.5 2C30.45 2.09 30.77 2.16 30.83 2.08Z" fill="#010A35"/>
<path fill-rule="evenodd" clip-rule="evenodd" d="M23.14 2.75C22.97 2.81 22.95 2.88 23.01 2.96C23.17 2.91 23.19 2.84 23.14 2.75Z" fill="#010A35"/>
<path fill-rule="evenodd" clip-rule="evenodd" d="M33.2 2.26002C33.08 2.27002 32.99 2.31002 32.86 2.31002C32.86 2.23002 32.04 2.04002 31.88 2.17002C32.31 2.23002 32.7 2.28002 33.1 2.36002C33.3 2.39002 33.5 2.43002 33.71 2.47002C33.92 2.51002 34.13 2.56002 34.36 2.60002C34.27 2.47002 34.05 2.43002 33.82 2.40002C33.58 2.36002 33.34 2.35002 33.2 2.26002Z" fill="#010A35"/>
<path fill-rule="evenodd" clip-rule="evenodd" d="M31.7 1.93C31.48 1.91 31.46 2.03 31.23 2C31.31 2.09 31.05 2.12 31.22 2.15C31.3 2.02 31.6 2.04 31.7 1.93Z" fill="#010A35"/>
<path fill-rule="evenodd" clip-rule="evenodd" d="M12.41 14.81C12.48 14.54 12.56 14.37 12.62 14.22C12.57 14.21 12.5 14.37 12.45 14.53C12.41 14.69 12.4 14.84 12.41 14.81Z" fill="#010A35"/>
<path fill-rule="evenodd" clip-rule="evenodd" d="M21.27 6.70001C21.37 6.63001 21.42 6.69001 21.53 6.60001C21.52 6.51001 21.2 6.64001 21.27 6.70001Z" fill="#010A35"/>
<path fill-rule="evenodd" clip-rule="evenodd" d="M34.11 0.540007L34.25 0.570007C34.27 0.530007 34.21 0.500007 34.22 0.460007C34.13 0.440007 34.06 0.440007 34.02 0.460007C34.16 0.490007 34.18 0.510007 34.11 0.540007Z" fill="#010A35"/>
<path fill-rule="evenodd" clip-rule="evenodd" d="M35.32 3.36001L35.52 3.43001C35.58 3.33001 35.33 3.28001 35.32 3.36001Z" fill="#010A35"/>
<path fill-rule="evenodd" clip-rule="evenodd" d="M36.23 2.55002C36.2 2.52002 35.97 2.40002 35.93 2.44002C36.05 2.47002 36.14 2.60002 36.23 2.55002Z" fill="#010A35"/>
<path fill-rule="evenodd" clip-rule="evenodd" d="M36.41 3.67001C36.28 3.62001 36.18 3.60001 36.11 3.61001C36.2 3.63001 36.41 3.77001 36.41 3.67001Z" fill="#010A35"/>
<path fill-rule="evenodd" clip-rule="evenodd" d="M36.94 3.61001C36.99 3.58001 36.9 3.52001 36.82 3.49001C36.73 3.46001 36.66 3.46001 36.74 3.52001C36.8 3.47001 36.83 3.60001 36.94 3.61001Z" fill="#010A35"/>
<path fill-rule="evenodd" clip-rule="evenodd" d="M37.02 3.65C37.19 3.74 37.23 3.71 37.34 3.8C37.4 3.73 37.03 3.58 37.02 3.65Z" fill="#010A35"/>
<path fill-rule="evenodd" clip-rule="evenodd" d="M39.09 4.63C39 4.56 38.97 4.56 38.94 4.45C38.92 4.48 38.86 4.43 38.84 4.45C38.86 4.49 39 4.65 39.09 4.63Z" fill="#010A35"/>
<path fill-rule="evenodd" clip-rule="evenodd" d="M40.33 2.92003C40.22 2.88003 40.02 2.68003 40.01 2.79003C40.13 2.85003 40.29 2.98003 40.33 2.92003Z" fill="#010A35"/>
<path fill-rule="evenodd" clip-rule="evenodd" d="M40.25 5.89001C40.38 5.99001 40.48 6.09001 40.57 6.19001C40.6 6.11001 40.35 5.90001 40.25 5.89001Z" fill="#010A35"/>
<path fill-rule="evenodd" clip-rule="evenodd" d="M42.08 5.91002C42.17 5.99002 42.25 6.04002 42.32 6.05002C42.28 5.96002 42.14 5.89002 42.08 5.91002Z" fill="#010A35"/>
<path fill-rule="evenodd" clip-rule="evenodd" d="M42.57 7.32001C42.48 7.23001 42.33 7.13001 42.38 7.07001C42.45 7.11001 42.55 7.27001 42.59 7.23001C42.44 6.96001 42.08 6.89001 41.82 6.70001C41.95 6.91001 42.4 7.23001 42.57 7.32001Z" fill="#010A35"/>
<path fill-rule="evenodd" clip-rule="evenodd" d="M45.78 8.64002C45.86 8.75002 45.95 8.70002 45.94 8.64002L45.85 8.52002C45.79 8.55002 45.86 8.63002 45.78 8.64002Z" fill="#010A35"/>
<path fill-rule="evenodd" clip-rule="evenodd" d="M46.59 10.79C46.38 10.6 46.45 10.47 46.25 10.28C46.24 10.37 46.48 10.87 46.59 10.79Z" fill="#010A35"/>
<path fill-rule="evenodd" clip-rule="evenodd" d="M47.56 12.73C47.6 12.71 47.63 12.71 47.67 12.73C47.54 12.49 47.5 12.28 47.36 12.09C47.38 12.17 47.22 12.06 47.17 11.92C47.15 11.94 47.1 11.94 47.12 12C47.28 12.28 47.51 12.33 47.56 12.73Z" fill="#010A35"/>
<path fill-rule="evenodd" clip-rule="evenodd" d="M47.77 12.58L47.86 12.8C47.95 12.84 47.81 12.48 47.77 12.58Z" fill="#010A35"/>
<path fill-rule="evenodd" clip-rule="evenodd" d="M47.71 13.18C47.74 13.16 47.8 13.16 47.78 13.1C47.65 13.14 47.78 12.84 47.63 12.85C47.66 12.96 47.67 13 47.71 13.18Z" fill="#010A35"/>
<path fill-rule="evenodd" clip-rule="evenodd" d="M46.24 30.92C46.16 30.97 46.2 31.04 46.08 31.16C46.11 31.26 46.29 31.17 46.27 31.05C46.23 31.09 46.19 31.13 46.15 31.14C46.13 31.11 46.28 30.96 46.24 30.92Z" fill="#010A35"/>
<path fill-rule="evenodd" clip-rule="evenodd" d="M38.91 37.5C39.09 37.39 39.28 37.3 39.26 37.23C39.13 37.37 38.88 37.4 38.8 37.5C38.85 37.48 38.91 37.46 38.91 37.5Z" fill="#010A35"/>
<path fill-rule="evenodd" clip-rule="evenodd" d="M34.43 39.21C34.54 39.17 34.63 39.13 34.64 39.08C34.52 39.11 34.35 39.13 34.43 39.21Z" fill="#010A35"/>
<path fill-rule="evenodd" clip-rule="evenodd" d="M30.18 39.93C29.82 39.98 29.64 39.96 29.35 39.98C29.59 40.03 29.92 40.07 30.13 39.98C30.04 39.98 30.15 39.96 30.18 39.93Z" fill="#010A35"/>
<path fill-rule="evenodd" clip-rule="evenodd" d="M29.69 39.77C29.79 39.72 29.98 39.69 30.07 39.62C29.84 39.64 29.73 39.63 29.69 39.77Z" fill="#010A35"/>
<path fill-rule="evenodd" clip-rule="evenodd" d="M29.3 39.78C29.4 39.72 29.5 39.87 29.64 39.79C29.65 39.73 29.61 39.69 29.54 39.66C29.41 39.69 29.28 39.72 29.11 39.72C29.15 39.81 29.12 39.78 29.16 39.87C29.08 39.86 29.03 39.9 29.11 39.92C29.17 39.85 29.4 39.88 29.45 39.81C29.39 39.81 29.31 39.81 29.3 39.78Z" fill="#010A35"/>
<path fill-rule="evenodd" clip-rule="evenodd" d="M28.52 40.02C28.76 40.17 28.53 40.05 28.72 40.03C28.83 40.02 29 40.09 29.06 39.99C28.83 40.02 28.72 39.97 28.52 40.02Z" fill="#010A35"/>
<path fill-rule="evenodd" clip-rule="evenodd" d="M27 39.88C27.16 39.89 27.58 39.94 27.54 39.9C27.32 39.87 27.12 39.85 27 39.88Z" fill="#010A35"/>
<path fill-rule="evenodd" clip-rule="evenodd" d="M26.35 39.56C26.47 39.58 26.51 39.54 26.59 39.6C26.65 39.5 26.32 39.45 26.35 39.56Z" fill="#010A35"/>
<path fill-rule="evenodd" clip-rule="evenodd" d="M25.89 39.08C26.05 39.08 26.09 39.13 26.18 39.1C26.14 39.08 25.86 38.99 25.89 39.08Z" fill="#010A35"/>
<path fill-rule="evenodd" clip-rule="evenodd" d="M25.33 36.3C25.45 36.33 25.58 36.42 25.69 36.39L25.71 36.32C25.55 36.28 25.47 36.31 25.33 36.3Z" fill="#010A35"/>
<path fill-rule="evenodd" clip-rule="evenodd" d="M23.43 36.7C23.58 36.72 23.64 36.79 23.73 36.78C23.7 36.76 23.69 36.74 23.7 36.72C23.58 36.68 23.44 36.61 23.43 36.7Z" fill="#010A35"/>
<path fill-rule="evenodd" clip-rule="evenodd" d="M22.5 37.14C22.55 37.17 22.56 37.2 22.57 37.22C22.77 37.24 22.84 37.27 22.99 37.27C22.8 37.18 22.77 37.2 22.66 37.12C22.68 37.24 22.5 37.08 22.5 37.14Z" fill="#010A35"/>
<path fill-rule="evenodd" clip-rule="evenodd" d="M21.83 34.03C21.95 34.09 22.02 34.15 22.09 34.21C22.17 34.02 22.37 34.42 22.5 34.27C22.41 34.25 22.21 34.2 22.27 34.11C22.42 34.1 22.61 34.34 22.66 34.21C22.42 34.12 22.27 34.06 22.11 33.91C22.21 34.1 21.97 33.95 22.05 34.11C21.98 34.08 21.84 33.93 21.83 34.03Z" fill="#010A35"/>
<path fill-rule="evenodd" clip-rule="evenodd" d="M17.57 33.82C17.46 33.88 17.62 33.99 17.71 34.01C17.59 33.93 17.68 33.9 17.57 33.82Z" fill="#010A35"/>
<path fill-rule="evenodd" clip-rule="evenodd" d="M16.05 33.16C16.18 33.2 15.89 32.85 15.8 32.82C15.8 32.93 15.75 33.02 15.8 33.15C15.86 33.14 15.91 33.08 16 33.15C16.01 33.21 16.29 33.55 16.34 33.47C16.26 33.35 16.16 33.27 16.05 33.16Z" fill="#010A35"/>
<path fill-rule="evenodd" clip-rule="evenodd" d="M23.11 35.06H23.12V35.05L23.11 35.06Z" fill="#010A35"/>
<path fill-rule="evenodd" clip-rule="evenodd" d="M31.82 38.66V38.68C31.9 38.66 31.97 38.64 32.04 38.63C31.97 38.64 31.89 38.65 31.82 38.66Z" fill="#010A35"/>
<path fill-rule="evenodd" clip-rule="evenodd" d="M49.68 19.95C49.65 19.42 49.62 18.9 49.59 18.39C49.58 18.26 49.57 18.14 49.56 18.02C49.54 17.9 49.53 17.78 49.51 17.66C49.48 17.42 49.44 17.19 49.41 16.96C49.29 16.78 49.31 16.1 49.08 15.94C49.07 15.67 49.06 15.57 48.95 15.32C49.11 15.39 48.89 15.03 49.01 15.05C48.9 14.85 48.95 14.56 48.83 14.49C48.89 14.79 49 14.96 48.91 15.07C48.86 14.79 48.72 14.51 48.78 14.3C48.7 14.09 48.45 13.73 48.49 13.53C48.37 13.55 48.42 13.28 48.31 13.18C48.26 13.18 48.28 13.27 48.24 13.21C48.13 13.05 48.14 12.79 48.03 12.67C48.05 12.73 48.06 12.78 48.02 12.78C47.95 12.65 48.01 12.63 47.94 12.5C47.86 12.52 47.98 12.71 47.98 12.8C48.09 12.86 48.29 13.38 48.26 13.46C48.16 13.32 48.09 13.29 48.1 13.11C48.03 13.1 48.09 13.22 48.04 13.24C48.1 13.39 48.17 13.36 48.23 13.53C48.16 13.52 48.09 13.44 48.03 13.41C48.08 13.57 48.17 13.5 48.22 13.64C48.19 13.7 48.09 13.54 48.13 13.68C48.15 13.69 48.16 13.71 48.17 13.73C48.16 13.73 48.14 13.74 48.13 13.74C48.1 13.76 48.07 13.77 48.04 13.79C48.05 13.77 48.06 13.75 48.08 13.75C48 13.63 48.02 13.6 48 13.47C47.92 13.5 47.97 13.7 48 13.8C47.94 13.83 47.87 13.87 47.8 13.9C47.8 13.9 47.78 13.89 47.77 13.88C47.76 13.84 47.75 13.79 47.73 13.75C47.73 13.7 47.72 13.65 47.67 13.61C47.61 13.48 47.57 13.35 47.63 13.25C47.47 13.17 47.3 12.58 47.32 12.41C47.26 12.42 47.19 12.34 47.14 12.25C47.14 12.22 47.14 12.18 47.15 12.15C47.16 12.1 47.12 12.09 47.07 12.1C47.04 12.01 47.02 11.94 47.04 11.93C46.97 11.86 46.9 11.79 46.82 11.72C46.8 11.66 46.77 11.6 46.75 11.55C46.76 11.55 46.76 11.55 46.77 11.55C46.68 11.35 46.59 11.17 46.49 11C46.49 11 46.49 10.99 46.48 10.99C46.27 10.59 46.01 10.2 45.74 9.84001C45.64 9.68001 45.54 9.50001 45.44 9.31001C45.41 9.34001 45.37 9.32001 45.32 9.28001C45.3 9.09001 45.11 8.90001 44.95 8.74001C44.91 8.61001 44.85 8.49001 44.77 8.37001C44.78 8.36001 44.78 8.35001 44.79 8.34001C44.73 8.27001 44.71 8.26001 44.69 8.27001C44.67 8.24001 44.64 8.21001 44.62 8.18001C44.51 8.05001 44.4 7.93001 44.29 7.80001C44.18 7.68001 44.07 7.56001 43.98 7.43001C43.72 7.02001 43.45 6.59001 43.16 6.19001C42.85 5.80001 42.5 5.44001 42.04 5.21001C41.95 5.14001 41.94 5.26001 41.86 5.21001C41.59 4.96001 41.23 4.73001 40.88 4.49001C40.51 4.27001 40.13 4.03001 39.78 3.83001C39.28 3.52001 38.85 3.13001 38.29 2.92001C37.96 2.81001 37.67 2.73001 37.39 2.71001C37.11 2.69001 36.86 2.71001 36.61 2.79001C36.13 2.58001 35.44 2.80001 35 2.47001C34.89 2.48001 34.88 2.60001 34.7 2.54001C34.57 2.51001 34.59 2.45001 34.53 2.42001C34.5 2.56001 34.57 2.54001 34.47 2.63001C34.85 2.66001 35.01 2.73001 35.35 2.70001C35.43 2.74001 35.46 2.79001 35.59 2.82001C36.35 2.83001 37.25 2.90001 38.21 3.22001C39.13 3.54001 39.89 4.20001 40.56 4.39001C40.68 4.49001 40.55 4.56001 40.63 4.66001C41 4.76001 41.15 5.10001 41.51 5.32001C41.76 5.48001 42.07 5.51001 42.35 5.72001C42.62 5.94001 42.8 6.16001 43 6.39001C43.18 6.63001 43.37 6.88001 43.65 7.17001C43.65 7.19001 43.66 7.20001 43.66 7.22001C43.52 7.11001 43.43 7.00001 43.21 6.84001C43.24 6.79001 43.32 6.92001 43.36 6.89001C43.21 6.73001 43.07 6.63001 42.95 6.53001C42.83 6.43001 42.74 6.32001 42.65 6.16001C42.59 6.26001 42.41 6.06001 42.33 6.11001C42.51 6.28001 42.74 6.50001 42.74 6.68001C42.56 6.58001 42.59 6.42001 42.49 6.42001C42.6 6.63001 42.73 6.74001 42.89 6.85001C43.04 6.96001 43.2 7.08001 43.38 7.28001C43.36 7.31001 43.33 7.30001 43.3 7.30001C43.39 7.46001 43.57 7.57001 43.71 7.67001C43.74 7.72001 43.77 7.76001 43.81 7.81001C43.79 7.80001 43.76 7.78001 43.73 7.78001C43.76 7.84001 43.8 7.91001 43.82 7.97001C43.79 7.95001 43.77 7.95001 43.75 7.95001C43.78 7.98001 43.81 8.01001 43.84 8.05001C43.85 8.08001 43.85 8.11001 43.84 8.14001C43.61 8.01001 43.39 7.95001 43.18 7.90001C43.15 7.85001 43.12 7.81001 43.11 7.76001L43.06 7.81001C43.09 7.84001 43.11 7.86001 43.13 7.88001C43.1 7.87001 43.07 7.87001 43.04 7.86001C43.03 7.85001 43.01 7.83001 43 7.81001C43.03 7.78001 42.98 7.66001 42.94 7.75001C42.98 7.79001 42.99 7.82001 42.97 7.84001C42.9 7.80001 42.81 7.77001 42.75 7.71001C42.69 7.65001 42.66 7.54001 42.61 7.47001C42.54 7.37001 42.32 7.37001 42.27 7.48001C42.25 7.52001 42.24 7.55001 42.22 7.58001C42.15 7.55001 42.09 7.51001 42.02 7.46001C42.05 7.34001 42.03 7.21001 41.97 7.09001C41.96 7.07001 41.9 7.07001 41.87 7.07001C41.86 7.07001 41.83 7.09001 41.83 7.10001C41.83 7.11001 41.83 7.11001 41.82 7.12001C41.72 7.08001 41.61 7.02001 41.59 6.89001C41.56 6.92001 41.55 6.96001 41.56 6.99001C41.64 7.04001 41.72 7.09001 41.81 7.18001C41.81 7.19001 41.81 7.20001 41.81 7.20001C41.85 7.24001 41.88 7.29001 41.89 7.34001C41.68 7.14001 41.49 6.98001 41.3 6.85001C41.26 6.82001 41.21 6.80001 41.17 6.77001C41.18 6.76001 41.18 6.76001 41.19 6.75001C41.18 6.74001 41.17 6.72001 41.15 6.71001C41.14 6.72001 41.13 6.73001 41.12 6.74001C40.98 6.66001 40.85 6.60001 40.72 6.55001C40.67 6.50001 40.63 6.46001 40.59 6.42001C40.54 6.39001 40.49 6.36001 40.44 6.32001C39.67 5.62001 38.66 4.94001 37.55 4.44001C36.34 3.88001 35.04 3.55001 33.96 3.43001C33.71 3.31001 33.48 3.23001 33.22 3.17001C32.96 3.11001 32.69 3.07001 32.36 3.07001C32.02 2.77001 31.37 2.73001 30.72 2.76001C30.56 2.77001 30.4 2.78001 30.24 2.79001C30.08 2.80001 29.93 2.82001 29.79 2.82001C29.51 2.83001 29.26 2.82001 29.08 2.76001C28.77 3.14001 27.74 3.05001 27.38 2.92001C27.33 3.04001 27.18 3.10001 27 3.13001C26.82 3.15001 26.61 3.15001 26.45 3.14001C26.44 3.09001 26.69 2.97001 26.43 3.03001C26.31 3.04001 26.32 3.10001 26.26 3.14001C26.13 3.08001 25.97 3.06001 25.89 2.95001C25.65 2.98001 25.64 3.08001 25.4 3.11001C25.44 3.02001 25.47 2.93001 25.6 2.87001C25.93 2.74001 26 2.84001 26.19 2.85001C26.16 2.76001 26.04 2.76001 26.22 2.69001C26.35 2.90001 26.62 2.55001 26.82 2.72001C26.7 2.75001 26.61 2.79001 26.58 2.84001C26.82 2.75001 27.11 2.67001 27.32 2.60001C27.25 2.61001 27.16 2.61001 27.25 2.57001C26.1 2.54001 25.02 2.75001 24 3.10001C22.98 3.46001 22.02 3.96001 21.05 4.56001C20.9 4.54001 20.68 4.64001 20.47 4.73001C19.96 5.16001 19.57 5.43001 19.66 5.85001C20.29 5.40001 20.75 4.98001 21.86 4.42001C22.13 4.38001 22.37 4.43001 22.51 4.60001C21.7 5.14001 20.67 5.44001 19.97 6.08001C19.87 6.17001 19.86 6.25001 19.76 6.32001C19.16 6.80001 18.8 6.98001 18.38 7.30001C17.56 7.92001 16.86 8.79001 16.2 9.56001C16.06 9.73001 15.78 9.81001 15.76 10.1C15.96 9.90001 16.17 9.69001 16.34 9.48001C16.52 9.27001 16.68 9.08001 16.78 8.90001C17.01 8.71001 17.31 8.47001 17.61 8.19001C17.92 7.93001 18.22 7.64001 18.49 7.42001C18.64 7.34001 18.79 7.25001 18.92 7.16001C19.06 7.07001 19.19 6.99001 19.32 6.90001C19.57 6.72001 19.82 6.54001 20.08 6.36001C20.59 5.99001 21.14 5.61001 21.89 5.29001C22.06 5.43001 22.21 5.30001 22.46 5.20001C22.54 5.40001 22.76 5.40001 23.04 5.30001C23.17 5.18001 22.88 5.21001 23.02 5.11001C23.2 5.10001 23.38 5.10001 23.47 5.23001C23.32 5.29001 23.17 5.38001 23.08 5.37001C23.2 5.51001 23.52 5.34001 23.6 5.54001C23.35 5.68001 23.11 5.83001 22.88 5.99001C22.66 6.16001 22.44 6.32001 22.23 6.49001C21.81 6.83001 21.4 7.15001 20.92 7.43001C20.74 7.43001 20.59 7.36001 20.4 7.40001C20.4 7.59001 20.78 7.42001 20.92 7.53001C20.82 7.68001 20.67 7.82001 20.53 7.97001C20.49 8.02001 20.45 8.06001 20.41 8.11001C20.4 8.11001 20.39 8.12001 20.38 8.12001C20.2 8.16001 19.99 8.22001 19.91 8.42001C19.9 8.45001 19.88 8.48001 19.86 8.51001C19.72 8.61001 19.6 8.72001 19.48 8.83001C19.47 8.83001 19.47 8.84001 19.46 8.84001C19.45 8.86001 19.43 8.87001 19.42 8.88001C19.4 8.90001 19.37 8.92001 19.35 8.94001C19.2 9.05001 19.02 9.06001 18.83 9.06001C18.76 9.06001 18.73 9.10001 18.71 9.16001C18.7 9.20001 18.68 9.23001 18.66 9.26001C18.6 9.32001 18.55 9.44001 18.44 9.32001C18.34 9.34001 18.29 9.42001 18.25 9.51001C18.19 9.67001 18.1 9.78001 17.91 9.77001C17.88 9.77001 17.83 9.78001 17.81 9.81001C17.68 9.95001 17.49 10.04 17.43 10.24C17.39 10.37 17.29 10.34 17.2 10.36C17.19 10.39 17.17 10.44 17.15 10.44C16.86 10.53 16.65 10.71 16.44 10.92C16.33 11.03 16.23 11.14 16.08 11.2C15.87 11.28 15.63 11.36 15.67 11.68C15.68 11.72 15.61 11.77 15.57 11.82C15.5 11.89 15.43 11.95 15.35 12.02C15.3 12 15.27 12.08 15.2 12C15.16 11.95 15.06 11.92 15.13 11.82C15.15 11.79 15.17 11.75 15.17 11.72C15.17 11.69 15.15 11.65 15.13 11.62C15.11 11.63 15.1 11.64 15.08 11.65C14.95 11.75 14.87 11.89 14.88 12.03C14.89 12.11 14.91 12.16 14.85 12.22C14.75 12.31 14.67 12.42 14.51 12.42C14.32 12.42 14.46 12.52 14.45 12.59C14.42 12.71 14.35 12.87 14.25 12.92C14.14 12.97 14.07 13.05 14.02 13.13C14.04 13.02 14.07 12.91 14.11 12.8C14.35 12.14 14.93 11.43 15.16 10.78C15.45 10.68 15.22 10.59 15.54 10.35C15.5 10.26 15.45 10.11 15.36 10.15C15.32 10.14 15.27 10.18 15.23 10.21C15.09 10.58 14.87 10.79 14.78 11.14C14.09 11.85 13.69 12.69 13.41 13.6C13.38 13.6 13.36 13.61 13.33 13.6C13.33 13.64 13.35 13.67 13.38 13.68C13.37 13.7 13.37 13.72 13.36 13.74C13.33 13.83 13.31 13.92 13.29 14C13.24 14.03 13.19 14.06 13.14 14.09C13.04 14.13 12.97 14.22 12.97 14.36C12.96 14.75 12.96 14.75 12.6 14.96C12.57 14.98 12.54 14.99 12.51 15C12.5 15.07 12.46 15.11 12.4 15.12C12.41 15.21 12.55 15.3 12.4 15.4C12.32 15.45 12.25 15.53 12.2 15.61C12.18 15.64 12.16 15.68 12.14 15.71C12.14 15.7 12.14 15.68 12.13 15.67C12.12 15.69 12.11 15.72 12.11 15.75C12.08 15.79 12.04 15.82 11.99 15.85C11.88 15.91 11.98 16.02 12.03 16.1C11.85 16.32 12.03 16.64 11.82 16.85C11.82 17.01 11.84 17.17 11.81 17.32C11.77 17.49 11.68 17.64 11.71 17.82C11.73 17.95 11.66 18.03 11.53 18.07C11.51 18.08 11.48 18.15 11.49 18.17C11.57 18.29 11.52 18.41 11.49 18.53C11.64 18.71 11.6 18.94 11.6 19.14C11.59 19.35 11.66 19.57 11.5 19.76C11.47 19.8 11.5 19.88 11.56 19.9C11.63 19.93 11.71 19.95 11.7 20.05C11.7 20.13 11.7 20.21 11.7 20.28C11.72 20.6 11.65 20.93 11.82 21.24C11.84 21.28 11.81 21.35 11.79 21.4C11.77 21.45 11.71 21.48 11.77 21.54C11.86 21.64 11.84 21.76 11.83 21.87C11.81 22.11 11.81 22.23 11.87 22.33C11.95 22.48 12.02 22.64 12.16 22.76C12.22 22.81 12.28 22.88 12.28 22.94C12.29 23.12 12.32 23.28 12.41 23.43C12.37 23.73 12.52 23.98 12.65 24.24C12.67 24.27 12.7 24.33 12.71 24.33C12.93 24.27 12.97 24.5 13.11 24.58C13.25 24.65 13.39 24.72 13.53 24.79C13.56 24.85 13.58 24.92 13.61 24.99C13.6 25.01 13.61 25.03 13.63 25.04C13.65 25.11 13.68 25.17 13.7 25.24C13.62 25.32 13.56 25.4 13.65 25.55C13.74 25.71 13.78 25.9 13.82 26.08C13.84 26.14 13.85 26.19 13.91 26.21C13.99 26.24 14.04 26.25 13.99 26.36C13.95 26.44 13.97 26.57 13.91 26.63C13.77 26.78 13.95 26.87 13.97 26.99C13.98 27.05 14.08 27.05 14.12 27.01C14.23 26.93 14.32 26.82 14.42 26.74C14.52 26.66 14.46 26.6 14.43 26.51C14.37 26.33 14.4 26.13 14.43 25.94C14.43 25.92 14.45 25.91 14.47 25.9C14.48 25.91 14.51 25.93 14.51 25.94C14.52 26.09 14.67 26.15 14.73 26.27C14.76 26.33 14.62 26.42 14.73 26.45C14.91 26.5 14.98 26.62 15.03 26.77C15.1 26.95 15.16 27.12 15.24 27.3C15.33 27.49 15.43 27.68 15.52 27.86C15.54 27.91 15.59 27.97 15.58 28.02C15.55 28.22 15.65 28.36 15.79 28.47C15.94 28.58 15.94 28.73 15.94 28.89C15.94 28.99 15.92 29.09 16 29.16C16.16 29.3 16.22 29.51 16.33 29.68C16.38 29.76 16.39 29.65 16.41 29.61C16.43 29.58 16.45 29.56 16.47 29.53C16.48 29.55 16.5 29.56 16.5 29.58C16.49 29.81 16.56 30.03 16.44 30.26C16.36 30.42 16.41 30.59 16.51 30.75C16.67 31.02 16.7 31.06 16.96 31.15C17.18 31.22 17.22 31.26 17.22 31.47C17.23 31.65 17.21 31.82 17.37 31.95C17.4 31.97 17.44 32.01 17.44 32.04C17.44 32.31 17.64 32.45 17.8 32.61C17.92 32.73 18.02 32.89 18.21 32.93C18.29 33.11 18.45 33.23 18.56 33.38C18.69 33.55 18.95 33.56 19.01 33.79C19.02 33.83 19.06 33.82 19.09 33.77C19.1 33.74 19.1 33.69 19.12 33.66C19.13 33.65 19.13 33.64 19.14 33.63C19.23 33.7 19.33 33.77 19.43 33.85C19.36 33.78 19.28 33.65 19.19 33.55C19.19 33.54 19.2 33.53 19.2 33.53C19.22 33.44 19.15 33.41 19.06 33.38C19.01 33.37 18.94 33.32 18.93 33.27C18.92 33.24 18.9 33.21 18.88 33.18C18.89 33.18 18.9 33.18 18.91 33.18C18.89 33.15 18.87 33.14 18.86 33.13C18.76 32.98 18.61 32.86 18.51 32.71C18.44 32.6 18.31 32.49 18.31 32.37C18.31 32.23 18.41 32.09 18.46 31.95C18.48 31.9 18.5 31.84 18.52 31.79C18.53 31.77 18.54 31.76 18.56 31.75C18.62 31.71 18.58 31.73 18.59 31.79C18.62 31.93 18.7 31.97 18.83 31.97C18.96 31.97 18.92 32.03 18.89 32.11C18.84 32.24 18.98 32.18 19.03 32.22C19.07 32.26 19.08 32.3 19.03 32.3C18.84 32.31 18.9 32.41 18.94 32.51C18.84 32.6 18.84 32.71 18.87 32.83C18.87 32.85 18.89 32.87 18.9 32.88C18.91 32.88 18.93 32.87 18.95 32.86C18.99 32.82 19.05 32.78 19.06 32.73C19.12 32.51 19.25 32.42 19.47 32.42C19.56 32.46 19.64 32.49 19.71 32.47C19.69 32.52 19.67 32.57 19.69 32.63C19.68 32.62 19.67 32.61 19.66 32.61C19.67 32.62 19.69 32.64 19.7 32.65C19.71 32.67 19.73 32.7 19.76 32.73C19.79 32.76 19.78 32.81 19.76 32.87C19.73 32.85 19.7 32.83 19.67 32.81C19.71 32.71 19.52 32.51 19.51 32.63C19.71 32.65 19.5 32.74 19.55 32.78C19.62 32.82 19.67 32.89 19.74 32.96C19.69 33.08 19.64 33.2 19.6 33.32C19.54 33.52 19.54 33.7 19.73 33.84C19.91 33.97 19.96 34.14 19.92 34.35C19.91 34.41 19.92 34.47 19.91 34.52C19.91 34.55 19.91 34.57 19.91 34.59C19.88 34.58 19.85 34.58 19.81 34.57C19.85 34.61 19.88 34.63 19.91 34.65C19.91 34.67 19.92 34.68 19.92 34.7C19.69 34.59 19.45 34.4 19.21 34.19C19.02 34.03 18.83 33.86 18.66 33.7C18.49 33.54 18.33 33.38 18.18 33.27C18.24 33.32 18 33.2 17.94 33.09C17.94 33.29 18.28 33.65 18.33 33.93C18.47 34.06 18.55 34.17 18.57 34.27C18.63 34.32 18.68 34.35 18.73 34.36C18.66 34.57 19.53 35.13 19.36 35.19C19.52 35.25 19.65 35.28 19.86 35.4C19.91 35.36 19.82 35.31 19.89 35.27C20 35.34 20.09 35.38 20.14 35.37C19.91 35.22 19.82 35.31 19.62 35.19C19.7 35.14 19.61 35.03 19.51 35.02C19.41 35.05 19.63 35.12 19.58 35.16C19.52 35.12 19.52 35.19 19.44 35.12C19.59 35.06 19.13 34.91 19.1 34.75C19.13 34.72 19.17 34.7 19.23 34.72C19.47 34.94 19.4 34.78 19.54 34.82C19.66 34.89 19.6 34.94 19.68 35.01C19.77 34.92 19.97 35.05 20.11 35.16C20.31 35.23 20.52 35.25 20.72 35.27C20.73 35.28 20.74 35.29 20.75 35.3C20.86 35.4 20.99 35.48 21.12 35.56C21.15 35.58 21.19 35.56 21.19 35.51C21.2 35.4 21.25 35.26 21.16 35.17C21.05 35.05 20.96 34.88 20.75 34.89C20.7 34.89 20.63 34.86 20.6 34.82C20.56 34.76 20.52 34.7 20.48 34.64C20.49 34.63 20.5 34.63 20.52 34.63C20.49 34.62 20.46 34.6 20.44 34.59C20.38 34.5 20.32 34.4 20.26 34.3C20.32 34.14 20.37 33.98 20.44 33.83C20.47 33.77 20.48 33.73 20.46 33.67C20.46 33.66 20.43 33.63 20.43 33.63C20.22 33.8 20.18 33.55 20.08 33.48C20.01 33.42 20 33.33 20.01 33.24C20.14 33.2 20.19 33.44 20.33 33.38C20.34 33.39 20.35 33.41 20.37 33.42C20.45 33.53 20.59 33.67 20.74 33.78C20.9 33.9 21.05 34 21.13 34.06C21.12 34.03 21.2 34 21.23 34.01C21.31 34.13 21.72 34.19 21.53 34.22C21.66 34.31 21.71 34.27 21.79 34.26C21.48 34.14 21.24 33.94 21.01 33.91C20.97 33.77 20.78 33.68 20.63 33.59C20.57 33.55 20.52 33.52 20.49 33.48C20.51 33.48 20.54 33.46 20.57 33.45C20.58 33.45 20.58 33.42 20.58 33.41C20.56 33.38 20.53 33.35 20.52 33.31C20.5 33.26 20.48 33.19 20.55 33.16C20.6 33.13 20.65 33.12 20.71 33.16C20.75 33.19 20.8 33.22 20.85 33.24C20.86 33.3 20.85 33.36 20.88 33.41C20.91 33.45 20.97 33.47 21.03 33.47C21.11 33.48 21.19 33.47 21.26 33.5C21.22 33.51 21.18 33.51 21.28 33.56C21.32 33.56 21.36 33.57 21.4 33.58C21.42 33.59 21.43 33.59 21.44 33.59C21.66 33.67 21.92 33.86 22.08 33.89C21.98 33.82 21.88 33.76 21.78 33.7C21.84 33.7 21.9 33.7 21.96 33.7C21.97 33.7 21.99 33.68 22 33.66C22 33.65 21.99 33.63 21.98 33.63C21.9 33.58 21.81 33.58 21.73 33.63C21.72 33.64 21.72 33.65 21.71 33.66C21.66 33.62 21.6 33.59 21.55 33.55C21.6 33.51 21.65 33.47 21.72 33.48C21.79 33.49 21.86 33.49 21.93 33.48C21.99 33.54 22.06 33.6 22.14 33.64C22.16 33.58 22.28 33.7 22.29 33.61C22.3 33.59 22.29 33.57 22.28 33.55C22.4 33.61 22.51 33.6 22.63 33.6C22.76 33.6 22.84 33.62 22.88 33.77C22.9 33.84 22.96 33.9 23.03 33.94C23.02 33.98 23.06 34.04 23.12 34.09C22.99 34.08 22.95 34.2 22.79 34.15C22.85 34.18 22.9 34.22 22.91 34.26C22.86 34.3 22.75 34.25 22.72 34.3C22.86 34.34 23.02 34.43 23.16 34.56C23.21 34.44 23.42 34.58 23.47 34.62C23.4 34.66 23.29 34.63 23.2 34.55C23.22 34.68 23.04 34.51 23.04 34.61C23.17 34.71 23.67 34.62 23.78 34.88C23.46 34.72 23.36 34.8 23.14 34.76C23.03 34.87 23.07 34.96 23.15 35.03L23.18 34.97C23.26 35 23.27 35.03 23.32 35.06C23.29 35.07 23.26 35.08 23.3 35.11C23.27 35.16 23.25 35.06 23.16 35.04C23.27 35.13 23.46 35.22 23.56 35.32C23.9 35.41 24.35 35.72 24.63 35.73C24.52 35.66 24.24 35.61 24.25 35.46C24.37 35.37 24.46 35.6 24.53 35.51C24.37 35.42 24.28 35.45 24.25 35.33C24.3 35.35 24.3 35.3 24.34 35.31C24.48 35.39 24.64 35.52 24.59 35.58C24.6 35.5 24.68 35.68 24.71 35.6C24.66 35.56 24.68 35.5 24.67 35.46C24.48 35.4 24.37 35.32 24.37 35.22C24.62 35.2 24.78 35.32 24.96 35.34C25 35.41 25.04 35.47 25.09 35.53C25.14 35.58 25.19 35.57 25.25 35.55C25.3 35.53 25.32 35.46 25.39 35.5C25.49 35.56 25.6 35.6 25.68 35.67C25.86 35.85 26.07 35.97 26.3 36.06C26.29 36.07 26.29 36.08 26.28 36.09C26.06 36.06 25.9 36.11 25.68 35.99C25.69 36.01 25.71 36.02 25.72 36.03C25.58 36 25.44 35.97 25.29 35.95C25.19 36.1 25.46 35.95 25.45 36.07C25.36 36.09 25.05 36.03 25.04 35.92C25.11 35.95 25.18 35.98 25.25 36C25.23 35.94 25.14 35.91 25.05 35.87H25.04C24.99 35.85 24.94 35.82 24.92 35.79C24.89 35.8 24.7 35.78 24.78 35.82C24.78 35.82 24.79 35.82 24.8 35.82C24.51 35.75 24.24 35.66 23.98 35.58C23.65 35.47 23.34 35.38 23.01 35.38C22.95 35.24 22.82 35.19 22.68 35.18C22.33 35.08 22.06 34.87 21.88 34.69C21.77 34.82 21.6 34.47 21.44 34.46C21.44 34.42 21.42 34.4 21.48 34.39C21.13 34.37 21.11 33.99 20.74 33.86C20.88 33.97 20.54 33.9 20.82 34.05C20.9 34.03 20.78 33.92 20.87 33.97C20.78 34.09 21.09 34.24 21.13 34.42C21.4 34.42 21.53 34.65 21.81 34.82C21.82 34.88 21.81 35.04 21.94 35.02C21.78 34.96 22.01 34.96 22.03 34.93C22.18 35 22.31 35.1 22.43 35.19C22.34 35.21 22.27 35.23 22.23 35.26C22.27 35.28 22.3 35.29 22.33 35.3C22.33 35.33 22.33 35.34 22.28 35.37C22.44 35.48 22.48 35.42 22.58 35.43C22.46 35.56 22.99 35.69 23.1 35.83C23.11 35.78 23.16 35.77 23.24 35.81C23.21 35.84 23.18 35.83 23.21 35.88C23.98 36.15 24.69 36.35 25.39 36.56C25.65 36.54 26.36 36.64 26.28 36.88C27.13 37.15 28.05 37.21 29.01 37.29C29.33 37.17 29.73 37.23 30.03 37.26C29.99 37.26 30.12 37.2 30.2 37.23C30.5 37.33 29.99 37.43 29.74 37.42C29.96 37.42 29.75 37.58 29.7 37.64C29.22 37.69 28.82 37.67 28.4 37.71C28.29 37.69 28.27 37.63 28.14 37.62C27.95 37.71 27.76 37.53 27.54 37.52C27.41 37.52 27.31 37.61 27.18 37.59C27.04 37.57 26.92 37.45 26.8 37.43C26.73 37.42 26.6 37.44 26.53 37.44C26.54 37.44 26.57 37.4 26.58 37.4C26.45 37.38 26.38 37.44 26.27 37.43C26.25 37.43 26.25 37.35 26.24 37.35C26.09 37.27 25.88 37.36 25.71 37.33C25.6 37.23 25.88 37.25 25.69 37.2C25.66 37.28 25.48 37.22 25.41 37.26C25.32 37.1 24.93 37.15 25.01 37.03C24.86 37.01 24.65 37 24.46 36.95C24.26 36.9 24.07 36.85 23.94 36.8C23.99 36.82 23.97 36.85 23.96 36.89C23.65 36.78 23.55 36.74 23.36 36.73C23.37 36.71 23.4 36.71 23.42 36.7C23.18 36.62 22.96 36.56 22.77 36.47C22.58 36.39 22.41 36.3 22.28 36.22C22.23 36.23 22.18 36.26 22.12 36.25C22.05 36.14 22.01 36.16 21.91 36.18C21.85 36.1 21.92 36.03 21.79 36.01C21.9 36.14 21.6 36.01 21.51 35.98C21.53 35.94 21.41 35.9 21.47 35.85C21.48 35.79 21.6 35.88 21.62 35.84C21.36 35.72 21.32 35.79 21.25 35.88C21.33 35.96 21.49 36.04 21.58 36.12C21.72 36.03 22.11 36.31 22.19 36.41C22.14 36.39 22.14 36.43 22.09 36.42C22.1 36.39 22.13 36.36 22.08 36.33C21.78 36.36 21.56 36.16 21.25 35.99C21.3 36.12 21.14 36.02 21.09 36.11C21.41 36.27 21.74 36.41 22.03 36.56C21.92 36.46 22.18 36.55 22.23 36.55C22.29 36.62 22.5 36.79 22.57 36.79C22.52 36.76 22.54 36.73 22.56 36.7C22.69 36.89 22.97 36.93 23.19 37.05C22.93 36.94 23.03 37.04 22.82 37C22.99 37.1 23.09 37.17 23.25 37.13L23.23 37.2C23.44 37.23 23.69 37.34 23.96 37.46C24.09 37.52 24.23 37.58 24.37 37.62C24.51 37.66 24.65 37.69 24.79 37.71C24.79 37.74 24.77 37.78 24.82 37.79C25.3 37.82 25.95 38.15 26.2 38.09C26.2 38.19 25.97 38.18 25.88 38.1C25.88 38.28 26.16 38.21 26.28 38.21C26.27 38.21 26.28 38.26 26.27 38.26C26.45 38.26 26.55 38.16 26.74 38.18C26.99 38.2 27.04 38.34 27.36 38.34C27.28 38.21 27.69 38.38 27.82 38.33C27.58 38.29 27.72 38.28 27.91 38.3C28.11 38.31 28.36 38.34 28.36 38.42C28.21 38.4 28.19 38.47 28.08 38.48C28.33 38.48 28.21 38.51 28.26 38.61C28.46 38.59 28.49 38.66 28.62 38.68C28.6 38.6 28.42 38.6 28.35 38.54C28.41 38.54 28.45 38.53 28.49 38.52C28.59 38.56 28.66 38.68 28.76 38.58C28.75 38.62 28.77 38.66 28.8 38.68C28.43 38.69 28.17 38.7 27.93 38.69C27.68 38.66 27.44 38.62 27.11 38.52C26.9 38.53 26.69 38.48 26.48 38.43C26.27 38.38 26.05 38.35 25.83 38.36C25.83 38.31 25.68 38.31 25.71 38.26C25.13 38.19 24.6 37.81 24.1 37.84C24.22 37.89 24.41 37.91 24.4 37.98C24.26 37.95 23.62 37.8 23.81 37.68C23.7 37.66 23.6 37.64 23.45 37.58C23.35 37.66 23.67 37.66 23.64 37.73C23.44 37.67 22.98 37.56 22.88 37.38C22.48 37.25 22.15 37.08 21.85 36.94C21.55 36.79 21.29 36.64 21.08 36.46C21 36.56 21.02 36.37 20.94 36.33C20.82 36.3 20.92 36.46 20.84 36.42C20.8 36.4 20.78 36.41 20.75 36.4C20.59 36.33 20.64 36.26 20.55 36.2C20.47 36.23 20.28 36.1 20.13 36.01C20.19 35.83 19.85 35.76 19.69 35.66C19.37 35.46 19.04 35.17 18.72 34.91C18.4 34.64 18.09 34.4 17.86 34.21C18.17 34.57 18.34 34.6 18.58 34.92C18.83 35.04 19.07 35.23 19.32 35.43C19.57 35.62 19.84 35.81 20.1 35.96C20.06 36.01 20.12 36.06 20.12 36.11C20.05 36.11 19.95 36.05 19.88 36.06C20.01 36.2 20.51 36.32 20.7 36.6C20.76 36.54 20.87 36.66 20.96 36.71C21.17 36.63 21.79 36.93 22.02 37.08C21.99 37.12 21.64 36.9 21.75 37.01C21.88 37.07 22.01 37.13 21.97 37.2C21.89 37.18 21.73 37.06 21.71 37.1C21.83 37.2 22.12 37.28 21.99 37.39C22.16 37.49 21.97 37.28 22.16 37.36C22.16 37.38 22.18 37.4 22.24 37.42C22.25 37.55 22.12 37.5 22.05 37.52C22.22 37.67 22.27 37.58 22.29 37.55C22.4 37.67 22.14 37.59 22.24 37.69C22.41 37.82 22.61 37.89 22.71 37.93C22.66 37.91 22.65 37.88 22.64 37.85C22.71 37.89 22.85 37.85 22.86 37.93C22.81 37.91 22.73 37.88 22.72 37.9C22.95 38.06 23.37 38.14 23.49 38.31C23.61 38.32 23.43 38.21 23.56 38.23C23.83 38.29 23.77 38.39 23.94 38.47C23.97 38.44 23.92 38.33 24.02 38.37C24.17 38.44 24.47 38.45 24.41 38.56C24.36 38.56 24.05 38.49 24.17 38.55C24.44 38.57 24.61 38.67 24.75 38.6C24.93 38.68 24.68 38.72 24.85 38.78C24.92 38.78 24.88 38.69 24.97 38.71C25.02 38.77 25.49 38.99 25.28 38.84C25.47 38.91 25.51 38.92 25.79 38.99C25.8 38.96 25.79 38.9 25.85 38.9C26.23 39.03 26.6 39.06 26.96 39.11C27.32 39.15 27.66 39.2 28.01 39.26C28.03 39.22 27.94 39.19 28.01 39.19C28.27 39.24 28.49 39.29 28.67 39.2C28.67 39.23 28.65 39.25 28.62 39.27C28.82 39.23 29.06 39.3 29.23 39.34C29.1 39.43 28.86 39.34 28.8 39.5C29.13 39.5 29.28 39.3 29.66 39.36C29.72 39.31 29.54 39.26 29.66 39.26C29.8 39.29 29.84 39.29 29.94 39.24C29.94 39.32 30.08 39.33 30.18 39.35C30.55 39.24 30.93 39.39 31.26 39.21C31.45 39.21 31.66 39.21 31.88 39.2C32.1 39.17 32.32 39.14 32.54 39.1C32.98 39.02 33.4 38.92 33.68 38.82C33.74 38.88 33.94 38.78 33.94 38.89C34.18 38.74 34.37 38.84 34.53 38.69C34.47 38.7 34.42 38.71 34.42 38.67C34.52 38.62 34.54 38.62 34.73 38.56C34.75 38.6 34.75 38.64 34.84 38.61C34.94 38.42 35.35 38.47 35.58 38.43C35.58 38.38 35.5 38.4 35.46 38.39C35.63 38.33 35.95 38.19 36.03 38.3C35.92 38.37 35.84 38.26 35.8 38.36C35.87 38.34 35.87 38.39 35.91 38.4C36.35 38.09 37.03 37.88 37.35 37.78C37.46 37.74 37.48 37.63 37.53 37.61C37.67 37.55 37.82 37.6 38.03 37.45C37.99 37.48 38.09 37.42 38.2 37.37C38.24 37.35 38.66 37.08 38.82 37.12C38.87 37.17 38.5 37.32 38.64 37.29C38.79 37.21 38.83 37.15 38.98 37.12C38.93 37.07 38.97 37.02 39.04 36.98C39.1 36.94 39.19 36.91 39.24 36.91C39.13 37.02 38.94 37.13 38.93 37.22C39.18 37.06 39.59 36.66 39.67 36.88C39.66 36.86 39.73 36.81 39.75 36.83C39.62 36.98 39.71 36.99 39.59 37.13C39.8 36.88 40.06 36.76 40.3 36.63C40.54 36.5 40.78 36.38 40.91 36.08C40.95 36.11 40.9 36.16 40.93 36.19C41.05 36.1 40.99 36.05 41.17 35.95C41.19 35.99 41.25 35.96 41.27 36C41.36 35.92 41.47 35.83 41.51 35.76C41.35 35.9 41.24 35.91 41.17 35.86C41.45 35.7 41.5 35.52 41.81 35.44C41.64 35.54 41.74 35.59 41.57 35.68C41.64 35.7 41.68 35.79 41.82 35.68C41.8 35.65 41.75 35.62 41.8 35.57C41.84 35.67 42.38 35.33 42.57 35.14C42.55 35.04 42.43 35.17 42.4 35.09C42.46 35.07 42.55 35 42.63 34.91C42.6 35.02 42.61 35 42.69 35.05C42.82 34.96 42.68 34.95 42.78 34.86C42.84 34.93 43 34.73 43.08 34.75C43.18 34.55 43.27 34.55 43.29 34.62C43.38 34.45 43.45 34.41 43.49 34.27C43.58 34.25 43.51 34.3 43.56 34.34C43.69 34.18 43.69 34.2 43.83 34.12C43.87 34.05 43.86 33.99 43.89 33.91C43.99 33.88 44.04 33.78 43.98 33.92C44.38 33.56 44.29 33.24 44.5 33.09C44.38 32.95 44.58 32.83 44.75 32.73C44.75 32.65 44.6 32.76 44.67 32.67C44.8 32.6 44.87 32.52 44.97 32.36C45.06 32.38 44.98 32.47 45.01 32.51C45.04 32.4 45.17 32.3 45.16 32.26C45.11 32.31 45.06 32.33 45.01 32.33C45.08 32.24 45.06 32.19 45.16 32.08L45.22 32.12C45.35 31.71 45.79 31.33 45.8 31.12C45.87 30.98 45.91 31.07 45.97 31C45.94 30.98 45.91 30.99 45.88 31C45.91 30.88 46.36 30.49 46.09 30.68C46.22 30.49 46.34 30.48 46.36 30.34C46.3 30.43 46.24 30.4 46.3 30.3C46.3 30.38 46.35 30.37 46.41 30.26C46.4 30.2 46.44 30.1 46.47 30.02C46.46 30.16 46.62 29.85 46.64 29.79C46.62 29.82 46.59 29.87 46.57 29.86C46.61 29.77 46.7 29.53 46.79 29.49C46.81 29.53 46.7 29.65 46.74 29.68C46.86 29.56 46.82 29.48 46.89 29.33C47.06 29.33 47 28.85 47.19 28.89C47.06 29.04 47.05 29.21 47.02 29.35C46.99 29.49 46.95 29.61 46.81 29.66C46.93 29.73 46.77 29.83 46.7 30.04C46.8 30.03 46.71 30.13 46.74 30.17C46.87 29.99 46.79 30.04 46.8 29.98C46.85 29.95 46.9 29.83 46.94 29.89C46.91 29.94 46.87 30.01 46.89 30.03C46.97 29.85 47.05 29.77 47.13 29.77C47.17 29.65 47.23 29.55 47.3 29.43C47.37 29.3 47.46 29.14 47.56 28.89C47.56 28.79 47.46 28.92 47.51 28.76C47.88 28.23 47.94 27.63 48.14 27.19C48.1 27.07 47.98 27.22 48.05 27C48.12 26.9 48.16 26.95 48.21 27C48.27 26.55 48.51 26.33 48.63 25.86C48.48 25.61 48.84 25.02 48.75 24.7C48.73 24.92 48.66 25.2 48.55 25.29C48.51 25.09 48.62 24.55 48.76 24.65C48.74 24.38 48.97 24.2 48.85 24.08C49.03 24.06 49.11 23.52 49.1 23.2C49.1 23.25 49.14 23.13 49.15 23.01C49.19 22.69 49.24 22.34 49.28 22C49.29 21.73 49.29 21.46 49.27 21.21C49.3 21.21 49.33 21.21 49.36 21.22C49.34 20.92 49.32 20.63 49.3 20.34C49.31 20.35 49.31 20.35 49.33 20.34C49.29 20.19 49.3 20.14 49.28 20C49.27 19.9 49.26 19.8 49.26 19.7C49.31 19.58 49.35 19.35 49.36 19.23C49.37 19.32 49.43 19.29 49.42 19.42C49.38 19.63 49.4 19.89 49.49 20.04C49.47 20.14 49.45 20.14 49.41 20.09C49.47 20.65 49.39 21.07 49.5 21.58C49.41 21.45 49.41 22.05 49.51 21.92C49.44 22.24 49.37 22.66 49.33 23.07C49.31 23.28 49.3 23.48 49.29 23.67C49.29 23.77 49.29 23.86 49.29 23.95C49.29 24.04 49.29 24.12 49.29 24.2C49.32 23.96 49.46 23.54 49.39 23.33C49.48 23.46 49.44 23.12 49.4 23.09L49.47 23.1C49.65 22.12 49.66 21.01 49.68 19.95ZM42.69 6.46001C42.77 6.42001 42.83 6.55001 42.86 6.61001C42.82 6.64001 42.71 6.49001 42.69 6.46001ZM22.23 36.5C22.24 36.37 22.44 36.56 22.46 36.53C22.56 36.62 22.33 36.57 22.23 36.5ZM23.64 37.33C23.7 37.2 23.78 37.37 23.95 37.41C23.91 37.46 23.73 37.35 23.64 37.33ZM24 36.96C24.02 36.9 24.21 36.97 24.26 37.02C24.23 37.07 24.07 36.97 24 36.96ZM27.05 38.21C27.09 38.2 27.15 38.2 27.23 38.21C27.22 38.24 27.21 38.28 27.27 38.29C27.23 38.34 26.99 38.28 27.05 38.21ZM28.48 38.49C28.45 38.42 28.57 38.44 28.57 38.4C28.21 38.31 27.84 38.37 27.73 38.16C28.04 38.25 28.16 38.18 28.4 38.14C28.46 38.17 28.48 38.21 28.57 38.22C28.5 38.27 28.46 38.25 28.35 38.23C28.38 38.33 28.5 38.38 28.7 38.4C28.74 38.49 28.64 38.5 28.48 38.49ZM47.81 24.78C47.86 24.79 47.78 24.94 47.78 25.01C47.76 24.99 47.75 24.96 47.74 24.93C47.76 24.89 47.77 24.85 47.79 24.81C47.8 24.8 47.8 24.8 47.81 24.78ZM47.41 27.98C47.31 28.15 47.34 28.13 47.25 28.32C47.18 28.38 47.1 28.3 47.2 28.14C47.27 28.33 47.27 27.95 47.41 27.98ZM35.44 37.15C35.43 37.21 35.21 37.25 35.11 37.29C35.15 37.15 35.26 37.2 35.44 37.15ZM33.12 38.18C32.87 38.2 32.75 38.17 32.47 38.16C32.6 38.03 32.86 38.09 33.13 38C33.13 38.06 33.08 38.11 33.12 38.18ZM31.75 38.2C31.72 38.28 31.6 38.2 31.57 38.19C31.55 38.13 31.69 38.15 31.69 38.11C31.85 38.09 31.6 38.21 31.75 38.2ZM32.3 38.16C32.28 38.22 32.16 38.25 32.14 38.31C32.07 38.25 31.76 38.37 31.72 38.27C31.93 38.32 32.06 38.15 32.3 38.16ZM31.96 37.81C31.82 37.84 31.69 37.89 31.45 37.92C31.35 37.79 31.55 37.75 31.81 37.68C32.07 37.62 32.38 37.58 32.5 37.55C32.69 37.59 32.75 37.68 32.49 37.75C32.5 37.73 32.53 37.72 32.52 37.69C32.26 37.74 32.1 37.78 31.96 37.81ZM31.53 38.22C31.21 38.3 30.45 38.31 30.63 38.18C30.86 38.27 31.16 38.14 31.53 38.22ZM32.74 37.64C32.71 37.58 32.82 37.56 32.9 37.54C32.91 37.61 32.83 37.67 32.74 37.64ZM33.07 36.89C32.77 36.94 32.47 36.96 32.23 37C32.13 37.04 32.28 37.1 32.37 37.08C32.34 37.16 32.19 37.1 32.12 37.12C32.11 37.08 32.16 37.06 32.15 37.02C32.12 36.97 31.94 37.04 31.86 37.04C32.13 36.88 32.4 36.82 32.73 36.78C32.89 36.76 33.06 36.74 33.25 36.72C33.43 36.69 33.62 36.64 33.83 36.59C33.84 36.62 33.84 36.66 33.89 36.65C33.78 36.71 33.66 36.76 33.52 36.8C33.45 36.82 33.38 36.84 33.31 36.86C33.22 36.87 33.15 36.88 33.07 36.89ZM23.15 33.95C23.17 33.95 23.19 33.95 23.2 33.96C23.2 33.97 23.2 33.97 23.19 33.98C23.13 33.97 23.11 33.96 23.09 33.95C23.12 33.95 23.13 33.95 23.15 33.95ZM20.8 32.96C20.79 32.97 20.77 32.98 20.76 32.99C20.75 32.98 20.74 32.98 20.72 32.97C20.73 32.96 20.73 32.95 20.74 32.94C20.75 32.93 20.75 32.92 20.76 32.91C20.78 32.93 20.79 32.94 20.8 32.96ZM28.27 5.69001C28.24 5.72001 28.19 5.74001 28.11 5.75001C28.1 5.75001 28.09 5.75001 28.08 5.75001C28.05 5.74001 27.99 5.75001 27.94 5.75001C28.05 5.69001 28.16 5.68001 28.27 5.69001ZM48.62 15.46C48.65 15.57 48.63 15.62 48.6 15.66C48.57 15.53 48.56 15.39 48.51 15.26C48.51 15.23 48.51 15.21 48.52 15.19C48.6 15.47 48.5 15.45 48.62 15.46ZM48.68 15.69C48.7 15.77 48.71 15.84 48.72 15.89C48.71 15.89 48.71 15.88 48.7 15.88C48.68 15.86 48.67 15.83 48.65 15.81C48.64 15.74 48.62 15.68 48.68 15.69ZM48.52 21.87C48.52 21.81 48.51 21.77 48.49 21.74C48.5 21.63 48.51 21.53 48.54 21.45C48.56 21.48 48.57 21.51 48.59 21.54C48.6 21.5 48.58 21.43 48.57 21.37C48.57 21.36 48.58 21.35 48.58 21.35C48.58 21.34 48.57 21.32 48.57 21.31C48.57 21.29 48.58 21.27 48.6 21.26C48.61 21.35 48.67 21.35 48.64 21.49C48.47 21.69 48.58 21.59 48.52 21.87ZM33.18 5.94001C33.15 5.94001 33.14 5.94001 33.13 5.93001C33.15 5.93001 33.17 5.92001 33.19 5.92001C33.19 5.92001 33.19 5.94001 33.18 5.94001ZM45.08 10.65C45.01 10.64 44.94 10.63 44.93 10.53C44.98 10.57 45.03 10.61 45.08 10.65ZM48.47 20.45C48.46 20.38 48.46 20.3 48.45 20.23C48.45 20.22 48.46 20.22 48.46 20.21C48.48 20.15 48.53 20.11 48.57 20.06C48.57 20.14 48.57 20.21 48.57 20.29C48.57 20.46 48.59 20.62 48.61 20.78C48.57 20.78 48.52 20.77 48.53 20.87C48.57 20.88 48.62 20.85 48.63 20.92C48.61 21.06 48.58 21.17 48.54 21.26C48.5 21.02 48.49 20.74 48.47 20.45ZM48.57 19.79C48.57 19.8 48.57 19.82 48.57 19.83C48.56 19.82 48.56 19.8 48.57 19.79ZM46.14 11.81C46.09 11.75 46.09 11.67 46.17 11.62C46.17 11.62 46.18 11.62 46.19 11.61C46.27 11.71 46.35 11.82 46.42 11.95C46.31 11.97 46.26 11.93 46.14 11.81ZM46.06 11.46C45.98 11.44 45.92 11.38 45.89 11.3C45.95 11.35 46.01 11.41 46.06 11.46ZM48.49 21.79C48.5 21.85 48.5 21.91 48.48 21.97C48.49 21.91 48.49 21.85 48.49 21.79ZM49.04 17.5C49.05 17.46 49.07 17.43 49.09 17.39C49.09 17.47 49.08 17.54 49.05 17.56C49.05 17.54 49.05 17.52 49.04 17.5ZM48.99 17.04C48.99 17.02 48.99 17 48.99 16.99C49.01 17.01 49.02 17.04 49.04 17.08C49.02 17.07 49 17.06 48.99 17.04ZM48.84 16.53C48.78 16.66 48.87 16.82 48.91 16.81C48.9 16.87 48.89 16.89 48.87 16.89C48.85 16.86 48.83 16.84 48.81 16.81C48.81 16.79 48.8 16.78 48.8 16.76C48.78 16.73 48.75 16.71 48.72 16.68C48.7 16.65 48.69 16.63 48.69 16.62C48.67 16.57 48.73 16.5 48.79 16.51C48.81 16.51 48.82 16.52 48.84 16.52C48.83 16.53 48.83 16.53 48.84 16.53ZM48.49 15.2V15.19C48.48 15.17 48.48 15.15 48.48 15.14C48.48 15.16 48.49 15.18 48.49 15.2ZM28.56 5.75001C28.53 5.75001 28.51 5.74001 28.48 5.73001C28.51 5.73001 28.53 5.74001 28.56 5.75001ZM34.48 37.2C34.52 37.31 34.35 37.22 34.23 37.29C34.28 37.22 34.37 37.21 34.48 37.2ZM44.05 32.61C44.1 32.69 43.92 32.75 43.82 32.9C43.79 32.87 43.74 32.91 43.71 32.87C43.83 32.78 43.94 32.67 44.05 32.61ZM44.27 32.32C44.29 32.35 44.32 32.37 44.36 32.33C44.42 32.38 44.23 32.57 44.16 32.59C44.13 32.53 44.18 32.43 44.27 32.32ZM47.89 24.55C47.9 24.56 47.91 24.56 47.92 24.57C47.89 24.64 47.88 24.64 47.87 24.63C47.87 24.61 47.88 24.58 47.89 24.55ZM48.42 22.7C48.42 22.66 48.41 22.63 48.41 22.59C48.42 22.58 48.44 22.57 48.45 22.56C48.45 22.61 48.44 22.65 48.42 22.7ZM48.51 22.4C48.5 22.34 48.49 22.27 48.49 22.18C48.51 22.11 48.52 22.05 48.56 21.96C48.55 22.17 48.53 22.24 48.54 22.39C48.53 22.4 48.52 22.4 48.51 22.4ZM49.1 18.35C49.12 18.24 49.13 18.12 49.11 17.98C49.25 18.03 49.19 18.36 49.12 18.48C49.12 18.44 49.11 18.39 49.1 18.35ZM49.07 17.65C49.11 17.7 49.14 17.81 49.16 17.93C49.07 17.98 49.04 17.73 49.07 17.65ZM48.72 15.34L48.62 15.37C48.58 15.29 48.64 15.16 48.56 15.14C48.54 14.98 48.62 15.18 48.64 15.17C48.65 15.11 48.62 15.07 48.58 15.03C48.6 15.02 48.61 15 48.63 14.99C48.69 15.07 48.73 15.19 48.72 15.34ZM48.53 14.54C48.5 14.54 48.48 14.45 48.46 14.39H48.47C48.49 14.39 48.51 14.37 48.53 14.35C48.59 14.48 48.52 14.47 48.53 14.54ZM48.13 14.08C48.14 14.07 48.16 14.08 48.17 14.08C48.25 14.13 48.31 14.21 48.33 14.31C48.34 14.36 48.38 14.38 48.43 14.38C48.44 14.42 48.44 14.46 48.45 14.51C48.43 14.52 48.43 14.56 48.42 14.57C48.36 14.36 48.24 14.43 48.38 14.53C48.39 14.56 48.39 14.59 48.4 14.62C48.32 14.62 48.24 14.62 48.16 14.61C48.14 14.61 48.1 14.55 48.11 14.52C48.13 14.45 48.19 14.38 48.18 14.32C48.17 14.25 48.08 14.2 48.1 14.12C48.1 14.11 48.11 14.09 48.13 14.08ZM47.29 12.54C47.26 12.53 47.23 12.51 47.2 12.53C47.18 12.49 47.16 12.45 47.14 12.42C47.14 12.39 47.13 12.36 47.13 12.33C47.19 12.39 47.24 12.47 47.29 12.54ZM44.12 8.19001C44.14 8.21001 44.16 8.23001 44.18 8.25001C44.18 8.26001 44.17 8.26001 44.17 8.27001C44.07 8.25001 44.02 8.11001 43.96 7.99001C44 8.06001 44.06 8.12001 44.12 8.19001ZM42.42 7.64001C42.43 7.65001 42.44 7.66001 42.44 7.67001C42.42 7.66001 42.4 7.65001 42.38 7.65001C42.39 7.64001 42.41 7.63001 42.42 7.64001ZM27.61 5.79001C27.61 5.81001 27.61 5.83001 27.61 5.85001C27.66 5.85001 27.69 5.82001 27.7 5.79001C27.78 5.79001 27.86 5.79001 27.94 5.79001C27.91 5.85001 27.85 5.89001 27.8 5.93001C27.7 6.00001 27.64 5.96001 27.6 5.86001C27.57 5.87001 27.53 5.88001 27.5 5.90001C27.35 5.98001 27.29 5.98001 27.21 5.87001C27.21 5.87001 27.21 5.86001 27.2 5.86001C27.34 5.81001 27.47 5.80001 27.61 5.79001ZM26.47 5.97001C26.61 5.94001 26.73 5.93001 26.85 5.93001C26.82 5.96001 26.78 5.97001 26.72 5.97001C26.68 5.97001 26.63 5.97001 26.61 5.99001C26.48 6.16001 26.27 6.02001 26.12 6.12001C26.02 6.19001 25.96 6.16001 25.91 6.10001C26.1 6.05001 26.29 6.00001 26.47 5.97001ZM16.76 29.46C16.74 29.46 16.73 29.4 16.73 29.37C16.73 29.36 16.74 29.34 16.75 29.33C16.76 29.32 16.77 29.3 16.78 29.29C16.8 29.32 16.82 29.35 16.82 29.38C16.83 29.42 16.83 29.47 16.76 29.46ZM17.3 30.93C17.29 30.96 17.26 30.97 17.24 31C17.23 30.99 17.21 30.97 17.2 30.96C17.19 30.91 17.19 30.86 17.19 30.8C17.19 30.8 17.19 30.8 17.18 30.8V30.79C17.15 30.78 17.13 30.77 17.1 30.75C17.1 30.75 17.1 30.71 17.11 30.71C17.17 30.7 17.18 30.74 17.18 30.79H17.19V30.8C17.28 30.8 17.32 30.84 17.3 30.93ZM17.65 31.25C17.62 31.23 17.59 31.21 17.56 31.2C17.59 31.18 17.62 31.15 17.66 31.15C17.69 31.15 17.72 31.18 17.75 31.2C17.71 31.22 17.68 31.23 17.65 31.25ZM17.88 31.5C17.88 31.54 17.87 31.59 17.81 31.58L17.8 31.54C17.83 31.52 17.86 31.51 17.88 31.5V31.49C17.88 31.49 17.88 31.49 17.89 31.49C17.89 31.42 17.88 31.35 17.94 31.29C17.97 31.26 18.09 31.26 18.09 31.29C18.09 31.32 18.08 31.35 18.06 31.37C18.02 31.42 17.98 31.49 17.89 31.48C17.89 31.49 17.89 31.49 17.88 31.5C17.89 31.5 17.89 31.5 17.88 31.5ZM18.35 31.61C18.27 31.8 18.1 31.94 18.08 32.16C18.08 32.17 18.01 32.19 17.98 32.18C17.95 32.17 17.91 32.13 17.91 32.11C17.97 31.89 18.06 31.69 18.2 31.51C18.21 31.49 18.27 31.51 18.31 31.52C18.32 31.53 18.33 31.54 18.34 31.55L18.35 31.56C18.34 31.57 18.35 31.59 18.35 31.61ZM20.09 33.06C20.07 33.1 20.04 33.12 20 33.11C20.01 33.07 20.04 33.04 20.09 33.03C20.19 33.01 20.23 33.08 20.22 33.16C20.22 33.17 20.22 33.18 20.22 33.19C20.2 33.15 20.16 33.11 20.09 33.06ZM20.82 33.24V33.25L20.81 33.24H20.82C20.82 33.23 20.83 33.22 20.83 33.21C20.84 33.21 20.85 33.22 20.85 33.22C20.84 33.23 20.83 33.24 20.82 33.24ZM24.77 36.31C24.41 36.14 24.05 35.98 23.63 35.9C23.49 35.83 23.35 35.75 23.2 35.65C23.18 35.64 23.17 35.63 23.15 35.62C23.22 35.64 23.28 35.65 23.35 35.66C23.51 35.69 23.66 35.73 23.82 35.78C23.98 35.82 24.14 35.87 24.32 35.95C24.61 35.82 25.03 36.34 25.31 36.3C25.2 36.12 25.67 36.27 25.94 36.3C25.9 36.38 25.93 36.48 25.95 36.62C25.51 36.59 25.14 36.45 24.77 36.31ZM30.23 37.23C30.32 37.18 30.37 37.29 30.53 37.26C30.53 37.24 30.48 37.24 30.44 37.24C30.45 37.2 30.57 37.22 30.56 37.18C30.51 37.13 30.3 37.19 30.18 37.18C30.35 37.06 30.78 37.07 30.92 36.99C30.99 37.04 30.96 37.12 30.93 37.14C30.98 37.22 31.02 37.14 31.1 37.18C31.21 37.14 30.96 37.14 31 37.06C31.32 37.04 31.4 37.06 31.54 36.97C31.68 36.99 31.54 37.01 31.79 36.96C31.83 37.13 31.53 37.04 31.43 37.1C31.58 37.21 31.96 36.93 31.98 37.1C31.85 37.11 31.71 37.14 31.57 37.17C31.43 37.19 31.28 37.21 31.13 37.24C30.84 37.29 30.52 37.31 30.23 37.23ZM30.32 38.24C30.28 38.32 30.42 38.28 30.5 38.28C30.35 38.32 30.12 38.33 29.85 38.34C29.58 38.33 29.29 38.32 29.03 38.33C29.34 38.15 29.85 38.33 30.32 38.24ZM28.89 38.41C29.14 38.45 29.21 38.43 29.48 38.46C29.23 38.33 30.04 38.4 30.11 38.46C29.9 38.53 29.64 38.51 29.41 38.5C29.17 38.49 28.95 38.48 28.8 38.53C28.76 38.44 28.87 38.45 28.89 38.41ZM28.75 38.62C28.79 38.53 28.91 38.6 28.98 38.63C28.97 38.69 28.78 38.64 28.75 38.62ZM31.83 38.76L31.82 38.68C31.8 38.69 31.78 38.69 31.76 38.69C31.66 38.71 31.56 38.72 31.45 38.73C31.24 38.76 31.01 38.78 30.78 38.8C30.32 38.83 29.84 38.85 29.39 38.76C29.34 38.76 29.36 38.81 29.3 38.81C29.19 38.8 29.11 38.77 29.02 38.75C29.03 38.67 29.25 38.72 29.39 38.71C29.39 38.67 29.4 38.64 29.34 38.63C29.78 38.62 30.59 38.62 31.24 38.44C31.39 38.46 31.53 38.48 31.62 38.54C31.75 38.51 31.58 38.46 31.6 38.42C31.71 38.4 31.82 38.49 31.87 38.41C32 38.41 31.93 38.44 31.93 38.5C32.15 38.43 32.32 38.37 32.46 38.37C32.49 38.28 32.31 38.35 32.23 38.36C32.36 38.25 32.68 38.24 32.81 38.27C32.86 38.36 32.63 38.46 32.89 38.43C32.71 38.55 32.16 38.46 32.08 38.58C32.43 38.59 33.03 38.4 33.24 38.52C32.78 38.72 32.35 38.65 31.83 38.76ZM33.92 38.17C33.91 38.13 33.85 38.13 33.85 38.09C34.02 38.02 34 38.13 34.17 38.06C34.13 38.1 33.99 38.13 33.92 38.17ZM35.11 37.72C34.57 37.8 34.1 37.95 33.56 38.05C33.58 38.09 33.71 38.03 33.75 38.05C33.76 38.13 33.49 38.16 33.48 38.09C33.37 38.16 33.36 38.18 33.43 38.27C33.23 38.22 33.18 38.15 33.26 38.1C33.33 38.04 33.52 38 33.78 37.94C33.73 37.91 33.63 37.94 33.55 37.95C33.51 37.88 33.75 37.88 33.75 37.82C33.81 37.81 33.8 37.87 33.82 37.9C34.24 37.77 34.27 37.75 34.72 37.61C34.81 37.68 34.94 37.55 35.05 37.62C35.16 37.57 34.9 37.6 35.02 37.53C35.33 37.47 35.32 37.54 35.63 37.38C35.61 37.31 35.36 37.51 35.39 37.39C35.6 37.36 35.74 37.28 35.89 37.18C35.92 37.23 35.92 37.27 35.89 37.31C36 37.28 36.02 37.23 35.98 37.17C36.18 37.07 36.26 37.12 36.35 37.14C36.19 37.4 35.37 37.53 35.11 37.72ZM39.17 36.63C39.16 36.5 39.35 36.49 39.45 36.37C39.49 36.45 39.25 36.54 39.17 36.63ZM40.46 36.35C40.38 36.53 40.39 36.32 40.27 36.41C40.26 36.37 40.36 36.33 40.42 36.29C40.44 36.32 40.45 36.35 40.5 36.33C40.51 36.36 40.47 36.36 40.46 36.35ZM40.31 35.98L40.47 35.88L40.51 35.94C40.43 35.98 40.34 36.04 40.31 35.98ZM40.5 35.83C40.47 35.78 40.6 35.7 40.7 35.62L40.74 35.68C40.64 35.76 40.56 35.82 40.5 35.83ZM40.43 35.71C40.19 35.88 39.94 36.04 39.81 36.15C39.83 36.05 40.03 35.89 40.29 35.72C40.54 35.55 40.82 35.33 41 35.18C40.89 35.33 40.66 35.53 40.43 35.71ZM42.16 35.34C42.07 35.29 42.06 35.29 42.08 35.18C42.18 35.18 42.32 35.22 42.16 35.34ZM42.3 35.14C42.26 35.14 42.2 35.19 42.18 35.14C42.22 35.13 42.27 35.11 42.26 35.08C42.3 35.05 42.32 35.09 42.36 35.05C42.35 35.08 42.35 35.11 42.37 35.14C42.33 35.18 42.25 35.19 42.3 35.14ZM42.97 34.8C42.96 34.77 43.05 34.7 43.1 34.65C43.07 34.63 43.02 34.69 42.98 34.73C42.91 34.73 43.03 34.57 42.91 34.66C42.92 34.6 43.11 34.59 43.17 34.59C43.05 34.71 43.13 34.71 42.97 34.8ZM43.82 33.35L43.88 33.4L43.72 33.58C43.65 33.54 43.78 33.43 43.82 33.35ZM44.08 33.65C44.11 33.54 44.03 33.62 43.95 33.72C43.92 33.61 44.16 33.51 44.26 33.41C44.29 33.46 44.13 33.58 44.08 33.65ZM44.22 33.01C44.19 33.22 44.13 33.41 43.82 33.61C43.85 33.47 44.14 33.28 44.04 33.11C44.33 32.84 44.51 32.58 44.68 32.47C44.67 32.65 44.41 32.94 44.22 33.01ZM45.07 32.04C44.91 32.22 44.82 32.27 44.75 32.45L44.65 32.37C44.84 32.19 44.99 31.88 45.21 31.67C45.22 31.82 45.03 31.91 45.07 32.04ZM47.01 29C46.93 29 46.98 28.89 46.9 28.89C46.97 28.84 47.04 28.6 47.11 28.68C47.06 28.58 47.24 28.4 47.31 28.25C47.16 28.53 47.15 28.8 47.01 29ZM47.04 29.82C47 29.8 46.97 29.82 46.93 29.87C46.89 29.84 46.94 29.74 47.01 29.64C47.01 29.74 47.07 29.63 47.07 29.73C47.13 29.66 47.19 29.46 47.24 29.54C47.17 29.58 47.11 29.71 47.04 29.82ZM47.3 29.3C47.29 29.15 47.36 29.12 47.45 28.99C47.46 29.14 47.39 29.17 47.3 29.3ZM47.47 27.54C47.45 27.49 47.47 27.41 47.51 27.3C47.58 27.32 47.54 27.5 47.47 27.54ZM47.43 26.88C47.43 26.76 47.49 26.71 47.53 26.52C47.61 26.55 47.49 26.83 47.43 26.88ZM47.68 25.89C47.75 25.95 47.61 26.06 47.62 26.21C47.52 26.21 47.66 25.99 47.68 25.89ZM47.67 26.66C47.64 26.49 47.68 26.4 47.72 26.14C47.73 26.22 47.69 26.46 47.8 26.21C47.88 26.31 47.71 26.5 47.67 26.66ZM48.02 24.64C47.92 25.09 47.97 25.27 47.96 25.48C47.94 25.59 47.88 25.51 47.85 25.6C47.98 25.56 47.89 25.9 47.83 26.13C47.75 26.09 47.71 26.09 47.7 26.04C47.74 26 47.78 25.84 47.77 25.77C47.68 25.88 47.73 25.62 47.67 25.6C47.71 25.51 47.73 25.52 47.75 25.58C47.78 25.24 47.95 24.84 47.97 24.5C48 24.51 48 24.59 48.04 24.52C47.94 24.57 48.06 24.36 48 24.37C47.97 24.42 47.95 24.4 47.94 24.36C47.97 24.26 48.01 24.15 48.04 24.04C48.13 24.01 48 24.24 48.06 24.24C48.1 24.04 48.27 23.73 48.19 23.66C48.14 23.86 48.14 23.94 48.05 24.04C48.05 24.03 48.05 24.03 48.06 24.02C48.1 23.84 48.13 23.66 48.16 23.48C48.2 23.48 48.23 23.46 48.26 23.44C48.33 23.54 48.31 23.67 48.29 23.8C48.26 23.93 48.2 24.06 48.22 24.18C48.16 24.29 48.13 24.27 48.09 24.3C48.15 24.39 48.07 24.81 48.04 24.9C47.96 24.89 48.07 24.67 48.02 24.64ZM48.02 26.93C48.1 26.77 48.05 26.69 48.13 26.61C48.25 26.6 48.1 27.02 48.02 26.93ZM48.14 26.52C48.24 26.45 48.33 26.26 48.44 26.26C48.35 26.43 48.26 26.6 48.14 26.52ZM49.14 18.6C49.14 18.6 49.14 18.61 49.14 18.6C49.14 18.61 49.14 18.6 49.14 18.6ZM49.25 18.4C49.27 18.33 49.27 18.6 49.3 18.78C49.19 18.73 49.21 18.51 49.25 18.4Z" fill="#010A35"/>
<path fill-rule="evenodd" clip-rule="evenodd" d="M22.19 3.56C22.12 3.67 21.67 3.81 21.64 3.86C21.74 3.84 22.33 3.58 22.19 3.56Z" fill="#010A35"/>
<path fill-rule="evenodd" clip-rule="evenodd" d="M32.03 0.160011C32 0.100011 31.76 0.140011 31.74 0.080011C32.05 0.010011 32.25 0.230011 32.56 0.250011C32.57 0.220011 32.56 0.180011 32.62 0.180011C32.67 0.220011 32.69 0.270011 32.75 0.300011C33.08 0.290011 33.7 0.480011 33.98 0.400011C33.91 0.340011 33.62 0.320011 33.8 0.260011C33.56 0.210011 33.76 0.330011 33.64 0.330011C33.63 0.310011 33.6 0.300011 33.55 0.290011C33.64 0.190011 33.23 0.220011 33.07 0.140011C32.95 0.160011 33.15 0.230011 33.01 0.230011C32.91 0.130011 32.71 0.090011 32.72 0.190011C32.75 0.160011 32.33 0.150011 32.48 0.080011C31.96 0.030011 32.01 -0.019989 31.6 -0.019989C31.64 0.070011 31.6 0.040011 31.64 0.130011C31.83 0.110011 31.9 0.190011 32.03 0.160011Z" fill="#010A35"/>
<path fill-rule="evenodd" clip-rule="evenodd" d="M37.62 3.93C37.74 3.96 37.9 4.06 38 4.05C37.9 3.99 37.68 3.9 37.62 3.93Z" fill="#010A35"/>
<path fill-rule="evenodd" clip-rule="evenodd" d="M39.43 4.02C39.38 4.1 39.2 3.94 39.11 3.94C39.16 4.04 39.51 4.14 39.43 4.02Z" fill="#010A35"/>
<path fill-rule="evenodd" clip-rule="evenodd" d="M40.69 3.28C40.71 3.25 40.81 3.34 40.84 3.31C40.77 3.28 40.75 3.14 40.85 3.2C40.9 3.28 40.97 3.23 41.09 3.25C40.85 3.17 40.51 2.94 40.4 2.98C40.58 3.02 40.8 3.23 40.69 3.28Z" fill="#010A35"/>
<path fill-rule="evenodd" clip-rule="evenodd" d="M40.79 5.73001C40.73 5.78001 40.82 5.85001 40.92 5.92001C40.9 5.80001 41.14 6.04001 41.04 5.91001C40.95 5.85001 40.9 5.87001 40.91 5.78001C40.93 5.79001 40.96 5.79001 40.92 5.76001C40.89 5.77001 40.85 5.78001 40.8 5.77001C40.82 5.77001 40.83 5.75001 40.79 5.73001Z" fill="#010A35"/>
<path fill-rule="evenodd" clip-rule="evenodd" d="M41.12 6.04001C41.32 6.28001 41.57 6.67001 41.83 6.71001C41.81 6.68001 41.77 6.65001 41.78 6.63001C41.88 6.71001 41.95 6.68001 42.08 6.83001C42.13 6.79001 42.05 6.72001 42 6.66001C41.84 6.59001 41.25 6.19001 41.3 6.05001C41.23 6.04001 41.16 6.00001 41.12 6.04001Z" fill="#010A35"/>
<path fill-rule="evenodd" clip-rule="evenodd" d="M42.83 5.22C42.89 5.38 43.39 5.65 43.39 5.82C43.48 5.9 43.53 5.88 43.62 6C43.58 6.01 43.53 6 43.48 6.01C43.56 6.06 43.64 6.12 43.71 6.19C43.78 6.26 43.86 6.34 43.93 6.42C44.08 6.58 44.23 6.76 44.38 6.93C44.68 7.28 44.99 7.63 45.28 7.88C45.31 8.18 45.72 8.27 45.68 8.49C45.72 8.42 45.7 8.43 45.78 8.41C45.54 8.22 45.31 7.83 45.33 7.68C45.32 7.67 45.32 7.66 45.34 7.64C45.33 7.65 45.33 7.67 45.33 7.68C45.36 7.7 45.51 7.66 45.51 7.82C45.59 7.84 45.5 7.66 45.59 7.76C45.62 7.85 45.63 7.95 45.64 8.03C45.72 8.12 45.79 8.17 45.86 8.23C45.84 8.25 45.8 8.27 45.83 8.31C45.92 8.19 46.01 8.49 46.05 8.57C46.07 8.45 45.89 8.23 45.92 8.11C45.83 8.13 45.86 8.04 45.75 7.93C45.77 7.91 45.81 7.89 45.78 7.84C45.74 7.83 45.69 7.63 45.55 7.58C45.6 7.67 45.58 7.69 45.52 7.67C45.4 7.45 45.17 7.28 45.07 7.02C44.95 7.09 44.88 6.92 44.77 6.76C44.74 6.78 44.72 6.84 44.66 6.79C44.6 6.71 44.64 6.67 44.63 6.61C44.68 6.68 44.86 6.79 44.78 6.67C44.72 6.71 44.57 6.41 44.51 6.45C44.59 6.53 44.6 6.58 44.56 6.61C44.52 6.48 44.45 6.57 44.34 6.41C44.28 6.44 44.23 6.49 44.15 6.46C44.16 6.28 43.93 6.3 43.82 6.18C43.77 6.04 43.73 5.92 43.76 5.81C43.64 5.72 43.61 5.67 43.56 5.66C43.63 5.73 43.59 5.77 43.6 5.83C43.34 5.67 43.28 5.58 43.06 5.34C43 5.36 42.91 5.33 42.83 5.22ZM44.76 7.05C44.81 7.08 44.87 7.12 44.94 7.21C44.91 7.34 44.76 7.01 44.74 7.13C44.7 7.09 44.74 7.07 44.76 7.05Z" fill="#010A35"/>
<path fill-rule="evenodd" clip-rule="evenodd" d="M42.64 7.31001C42.7 7.40001 42.68 7.46001 42.68 7.53001C42.75 7.63001 42.77 7.56001 42.84 7.62001C42.81 7.65001 42.82 7.69001 42.85 7.74001C42.94 7.59001 42.71 7.48001 42.75 7.34001C42.71 7.37001 42.67 7.30001 42.64 7.31001Z" fill="#010A35"/>
<path fill-rule="evenodd" clip-rule="evenodd" d="M47.83 12.4C47.81 12.15 47.99 12.47 48.01 12.32C47.93 12.35 47.85 12.18 47.77 12.16C47.88 12.31 47.75 12.27 47.83 12.4Z" fill="#010A35"/>
<path fill-rule="evenodd" clip-rule="evenodd" d="M47.89 13.25C47.85 13.25 47.82 13.2 47.78 13.24C47.83 13.37 47.79 13.41 47.79 13.49C47.82 13.47 47.92 13.7 47.89 13.55C47.77 13.4 47.92 13.36 47.89 13.25Z" fill="#010A35"/>
<path fill-rule="evenodd" clip-rule="evenodd" d="M46.54 30.38C46.63 30.32 46.76 30.34 46.72 30.32C46.76 30.18 46.6 30.26 46.54 30.38Z" fill="#010A35"/>
<path fill-rule="evenodd" clip-rule="evenodd" d="M44.96 32.62C44.84 32.77 44.69 32.84 44.69 32.96C44.77 32.91 44.95 32.75 44.91 32.89C44.94 32.77 45.29 32.54 45.19 32.56C45.11 32.64 44.86 32.83 44.96 32.62Z" fill="#010A35"/>
<path fill-rule="evenodd" clip-rule="evenodd" d="M46.65 34.56C46.64 34.62 46.64 34.61 46.62 34.82C46.76 34.62 46.89 34.43 46.81 34.34C46.77 34.41 46.61 34.53 46.65 34.56Z" fill="#010A35"/>
<path fill-rule="evenodd" clip-rule="evenodd" d="M40.55 36.91C40.48 36.96 40.42 36.95 40.43 36.99C40.6 36.94 40.29 37.12 40.3 37.16C40.41 37.13 40.68 36.94 40.62 36.93C40.44 37.04 40.51 36.98 40.55 36.91Z" fill="#010A35"/>
<path fill-rule="evenodd" clip-rule="evenodd" d="M34.94 39.2C35.01 39.21 35.12 39.18 35.15 39.22C34.93 39.29 34.56 39.24 34.68 39.35C34.75 39.27 34.98 39.3 35.03 39.33C35.07 39.26 35.5 39.07 35.37 39.11C35.17 39.22 35.01 39.12 34.94 39.2Z" fill="#010A35"/>
<path fill-rule="evenodd" clip-rule="evenodd" d="M33.8 39.27C33.8 39.39 33.62 39.52 33.82 39.57C33.79 39.53 33.87 39.51 33.9 39.48C33.75 39.45 33.77 39.31 34.05 39.26C34.07 39.16 33.89 39.26 33.8 39.27Z" fill="#010A35"/>
<path fill-rule="evenodd" clip-rule="evenodd" d="M32.96 39.51C32.86 39.55 33.07 39.59 33.04 39.67L32.85 39.7L32.83 39.58C32.68 39.68 32.4 39.7 32.52 39.78C32.44 39.75 32.32 39.79 32.28 39.84C32.65 39.82 32.75 39.71 33.06 39.72C33.06 39.69 33.06 39.66 33.15 39.66C32.99 39.61 33.13 39.5 32.96 39.51Z" fill="#010A35"/>
<path fill-rule="evenodd" clip-rule="evenodd" d="M30.89 40.91C30.99 40.94 31.23 40.89 31.16 41.02C31.53 40.98 31.01 40.82 30.89 40.91Z" fill="#010A35"/>
<path fill-rule="evenodd" clip-rule="evenodd" d="M28.87 39.59C28.93 39.6 28.98 39.62 29.01 39.65C29.54 39.63 28.97 39.59 28.87 39.59Z" fill="#010A35"/>
<path fill-rule="evenodd" clip-rule="evenodd" d="M28.58 39.7C28.62 39.77 28.84 39.8 28.96 39.79C28.92 39.73 28.75 39.69 28.87 39.64C28.61 39.61 28.46 39.64 28.29 39.66C28.43 39.75 28.15 39.74 28.24 39.78C28.3 39.75 28.47 39.76 28.53 39.79C28.59 39.74 28.5 39.72 28.58 39.7Z" fill="#010A35"/>
<path fill-rule="evenodd" clip-rule="evenodd" d="M27.91 39.47C27.91 39.53 27.83 39.54 27.76 39.56C27.75 39.51 27.55 39.53 27.53 39.48C27.48 39.5 27.51 39.57 27.38 39.53C26.55 39.4 25.93 39.32 25.36 39.16C25.07 39.08 24.79 39.01 24.49 38.93C24.34 38.89 24.19 38.85 24.03 38.8C23.87 38.75 23.71 38.69 23.53 38.63C23.5 38.79 23.38 38.55 23.29 38.6C23.34 38.76 23.45 38.77 23.66 38.89C23.72 38.83 23.56 38.8 23.55 38.75C23.61 38.77 23.65 38.77 23.69 38.77C23.6 38.85 23.9 38.92 23.74 38.94C24.08 39.03 24.47 39.08 24.88 39.17C25.09 39.21 25.31 39.26 25.54 39.31C25.65 39.34 25.77 39.37 25.89 39.39C26.01 39.41 26.14 39.44 26.26 39.46C26.26 39.42 26.31 39.4 26.37 39.4C26.48 39.48 26.49 39.44 26.7 39.47C26.64 39.53 26.66 39.56 26.78 39.61C26.79 39.58 26.78 39.54 26.84 39.54C27.09 39.58 27.42 39.59 27.71 39.58C27.97 39.57 28.2 39.52 28.31 39.47C28.22 39.51 28.02 39.46 27.91 39.47Z" fill="#010A35"/>
<path fill-rule="evenodd" clip-rule="evenodd" d="M21.81 35.43C21.98 35.49 22.16 35.62 21.97 35.59C22.06 35.66 22.18 35.74 22.25 35.7C22.37 35.81 22.38 36 22.57 36.04C22.56 36.08 22.53 36.11 22.49 36.11C22.63 36.15 22.7 36.11 22.81 36.12C22.88 36.16 22.81 36.22 22.94 36.26C23 36.22 23.22 36.27 23.43 36.35C23.42 36.36 23.41 36.37 23.4 36.39C23.4 36.42 23.42 36.46 23.43 36.49C23.45 36.47 23.48 36.45 23.48 36.43C23.48 36.41 23.48 36.39 23.47 36.37C23.7 36.47 23.9 36.59 23.81 36.63C23.93 36.66 24.05 36.71 24.17 36.75C24.15 36.75 24.14 36.77 24.13 36.79C24.1 36.81 24.11 36.85 24.16 36.86C24.27 36.89 24.39 36.85 24.47 36.96C24.57 36.89 24.65 36.92 24.76 36.97C24.82 37 24.86 36.97 24.89 36.91C24.9 36.91 24.91 36.91 24.91 36.91C24.9 36.91 24.9 36.9 24.89 36.9C24.9 36.88 24.9 36.86 24.9 36.83C24.97 36.84 25.05 36.86 25.07 36.82C25.02 36.81 24.96 36.8 24.9 36.78C24.89 36.73 24.87 36.65 24.84 36.67C24.8 36.7 24.75 36.72 24.71 36.73C24.67 36.72 24.63 36.71 24.59 36.7C24.43 36.65 24.26 36.59 24.1 36.53C23.78 36.41 23.47 36.29 23.23 36.21C23.26 36.19 23.29 36.17 23.34 36.17C23.46 36.21 23.51 36.33 23.58 36.26C23.45 36.22 23.4 36.16 23.32 36.11C23.25 36.17 23.14 36.14 23.02 36.1C22.91 36.05 22.79 35.99 22.72 36C22.78 35.99 22.8 35.94 22.77 35.89C22.6 35.83 22.39 35.71 22.3 35.59C22.32 35.56 22.38 35.58 22.41 35.56C22.16 35.43 22.06 35.47 21.81 35.43Z" fill="#010A35"/>
<path fill-rule="evenodd" clip-rule="evenodd" d="M22.9 37.38C23.13 37.41 23.34 37.43 23.56 37.59C23.57 37.56 23.56 37.53 23.54 37.5C23.61 37.53 23.66 37.52 23.68 37.5C23.41 37.44 23.28 37.37 23.02 37.32C23.3 37.41 22.97 37.38 22.9 37.38Z" fill="#010A35"/>
<path fill-rule="evenodd" clip-rule="evenodd" d="M22.48 37.08C22.41 37.05 22.35 37.02 22.32 36.98C22.25 37.03 22.46 37.22 22.41 37.13C22.29 37.06 22.48 37.12 22.48 37.08Z" fill="#010A35"/>
<path fill-rule="evenodd" clip-rule="evenodd" d="M21.51 37.23C21.4 37.37 21.89 37.48 21.91 37.61L21.93 37.56C21.96 37.57 21.98 37.58 21.98 37.56C21.88 37.5 21.74 37.44 21.56 37.34C21.57 37.3 21.6 37.26 21.51 37.23Z" fill="#010A35"/>
<path fill-rule="evenodd" clip-rule="evenodd" d="M20.06 38.34C20.11 38.34 20.25 38.31 20.16 38.25C20.04 38.29 19.98 38.2 19.89 38.22C19.96 38.27 20 38.3 20 38.34C19.84 38.3 19.85 38.26 19.69 38.17C19.66 38.21 19.71 38.25 19.69 38.28C19.55 38.16 19.41 38.18 19.3 38.14C19.43 38.21 19.41 38.27 19.54 38.34C19.71 38.32 19.82 38.43 20.13 38.54C20.14 38.49 20.21 38.53 20.25 38.52C20.14 38.46 20.11 38.4 20.06 38.34Z" fill="#010A35"/>
<path fill-rule="evenodd" clip-rule="evenodd" d="M21.27 33.73C21.37 33.75 21.41 33.88 21.44 33.83C21.29 33.73 21.38 33.71 21.37 33.64C21.29 33.66 21.27 33.64 21.27 33.73Z" fill="#010A35"/>
<path fill-rule="evenodd" clip-rule="evenodd" d="M41.73 3.93C41.9 4.07 41.98 4.03 42.1 4.08C42.2 4.18 42.2 4.26 42.26 4.36C42.36 4.39 42.46 4.48 42.58 4.58C42.69 4.69 42.81 4.81 42.96 4.9C42.77 4.75 42.78 4.66 42.74 4.54C42.57 4.47 42.5 4.36 42.35 4.33C42.38 4.29 42.35 4.27 42.29 4.25C42.33 4.21 42.37 4.16 42.28 4.09C42.15 4.08 41.96 3.96 41.84 3.95C41.82 3.89 41.82 3.84 41.78 3.78C41.76 3.81 41.73 3.81 41.7 3.81C41.76 3.86 41.77 3.9 41.73 3.93Z" fill="#010A35"/>
<path fill-rule="evenodd" clip-rule="evenodd" d="M23.84 39.16C23.74 39.09 23.63 39.02 23.51 38.96C23.27 38.84 22.99 38.74 22.72 38.73C22.7 38.93 22.5 38.95 22.24 38.9C22.3 38.79 22 38.72 21.97 38.62C21.95 38.73 21.78 38.61 21.79 38.67C21.78 38.63 21.74 38.58 21.68 38.54C21.65 38.66 21.37 38.48 21.19 38.42C21.16 38.51 21.21 38.51 21.13 38.56C21.31 38.73 21.77 38.96 21.91 39.05C22.38 39.08 22.89 39.64 23.49 39.77C23.89 39.86 24.16 39.68 24.07 39.35C24.02 39.29 23.94 39.23 23.84 39.16Z" fill="#010A35"/>
<path d="M50.64 8.68999C49.31 6.75999 46.93 5.75999 44.61 5.63999C42.28 5.52999 39.99 6.19999 37.82 7.03999C37.36 7.88999 37.45 9.12999 38 9.92999C40.46 10.23 43.08 10.16 45.5 9.62999C42.46 10.81 39.1 11.14 35.9 10.52C31.69 9.69999 27.85 7.15999 25.36 3.62999C25.16 3.34999 24.74 3.56999 24.84 3.88999C26.16 8.10999 28.84 11.8 32.55 14.22C36.81 17 42.21 17.94 47.13 16.7C48.28 16.41 49.43 15.99 50.28 15.16C51.96 13.53 51.97 10.62 50.64 8.68999ZM40.92 9.41999C40.49 9.47999 40.03 9.48999 39.6 9.41999C39.76 8.36999 40.8 7.27999 41.77 6.85999C41.23 7.58999 40.93 8.49999 40.92 9.41999ZM44.16 9.04999C43.67 9.11999 43.15 9.28999 42.66 9.34999C42.84 8.25999 43.73 7.11999 44.66 6.54999C44.22 7.28999 44.04 8.18999 44.16 9.04999ZM31.82 12.13C31.54 12.2 31.22 12.15 30.94 12.09C31.53 11.59 31.88 10.81 31.89 10.03C32.27 10.21 32.64 10.82 32.6 11.23C32.56 11.66 32.23 12.04 31.82 12.13ZM34.79 13.43C34.43 13.74 33.86 13.9 33.41 13.75C34.11 13.01 34.43 11.92 34.24 10.91C34.69 11.07 35.15 11.66 35.24 12.13C35.33 12.6 35.15 13.12 34.79 13.43ZM37.46 14.5C37.08 14.9 36.54 15.1 35.99 15.14C36.85 14.21 37.19 12.82 36.85 11.59C37.37 11.75 37.86 12.44 37.95 12.98C38.04 13.53 37.84 14.11 37.46 14.5ZM41.05 15.07C40.72 15.61 40.12 16.01 39.49 16.07C40.33 14.89 40.41 13.21 39.7 11.94C40.32 12.1 40.96 12.64 41.2 13.23C41.43 13.81 41.38 14.52 41.05 15.07ZM44.98 15.14C44.79 15.72 44.34 16.25 43.77 16.44C44.09 15.53 44.11 14.51 43.81 13.58C43.51 12.66 42.9 11.85 42.11 11.3C42.66 11.26 43.37 11.56 43.79 11.92C44.25 12.31 44.64 12.79 44.87 13.35C45.11 13.92 45.17 14.56 44.98 15.14ZM48.09 15.33C48.47 14.4 48.44 13.32 48 12.41C47.56 11.51 46.73 10.81 45.78 10.54C46.57 10.4 47.64 10.55 48.25 11.07C48.86 11.6 49.22 12.41 49.21 13.23C49.2 14.05 48.72 14.82 48.09 15.33Z" fill="#EC232F"/>
<path d="M36.87 9.72998C34.1 9.36998 31.42 8.24999 29.22 6.50999C30.88 6.10999 32.82 5.57999 34.5 5.85999C35.44 6.01999 36.37 6.38999 37.15 6.93999C36.56 7.73999 36.38 8.84998 36.87 9.72998Z" fill="#EC232F"/>
<path d="M32.15 15.07C29.27 13.08 26.93 10.29 25.47 7.07999C25.03 7.10999 24.43 7.27999 23.9 7.45999C23.48 7.60999 23.14 7.91999 22.95 8.31999C22.15 10.05 21.36 11.83 20.56 13.59C20.04 14.73 19.97 16.03 20.42 17.2C21.45 19.9 21.48 23 20.44 25.71C20.03 26.78 19.47 27.77 19.02 28.82C19.13 28.77 19.24 28.72 19.36 28.69C19.6 28.62 19.85 28.59 20.11 28.59C20.67 28.59 21.2 28.75 21.66 28.89C22.05 29.01 22.41 29.12 22.72 29.12C22.79 29.12 22.86 29.11 22.92 29.1C23.25 29.03 23.57 28.77 23.95 28.47C24.3 28.19 24.69 27.87 25.16 27.66C25.58 27.47 26.03 27.38 26.5 27.38C27.48 27.38 28.46 27.78 29.19 28.49C30.07 29.33 30.63 30.59 30.79 32.05C30.89 33.01 30.83 33.99 30.75 34.78C31.1 34.55 31.44 34.32 31.78 34.09C34.24 32.4 36.71 30.71 39.17 29.02C39.88 28.54 40.6 28.03 41.06 27.3C41.62 26.4 41.68 25.28 41.73 24.22C41.82 22.34 41.87 20.34 41.95 18.46C38.46 18.24 35.03 17.06 32.15 15.07ZM29.09 16.54C29.09 16.92 28.81 17.24 28.46 17.24C28.12 17.24 26.23 16.94 26.27 16.57C26.31 16.22 28.16 15.89 28.49 15.89C28.82 15.88 29.09 16.16 29.09 16.54ZM28.08 13.9C28.29 14.11 28.27 14.46 28.05 14.7C27.82 14.94 26.29 16.17 26.1 15.93C25.92 15.69 27.1 14.17 27.33 13.94C27.54 13.72 27.88 13.7 28.08 13.9ZM25.36 13.65C25.4 13.38 25.65 13.14 25.91 13.12C26.18 13.1 26.37 13.3 26.34 13.59C26.31 13.88 25.86 15.69 25.57 15.7C25.28 15.71 25.32 13.94 25.36 13.65ZM23.09 23.74C23.62 23.64 24.16 23.54 24.68 23.64C25.23 23.75 25.7 24.23 26.02 24.69C25.36 24.25 24.5 24.15 23.76 24.43C23.45 24.55 23.15 24.74 22.81 24.77C22.55 24.79 22.3 24.72 22.04 24.7C21.78 24.68 21.5 24.73 21.33 24.93C21.47 24.6 21.74 24.16 22.06 24.01C22.39 23.87 22.74 23.81 23.09 23.74ZM22.29 22.72C22.45 22.23 23.14 21.69 23.66 21.73C24.18 21.77 24.6 22.12 24.95 22.5C24.08 22.22 23.11 22.3 22.29 22.72ZM25.53 16.13C25.75 16.12 25.91 16.33 25.88 16.59C25.85 16.86 25.64 17.08 25.41 17.08C25.18 17.08 25.03 16.87 25.07 16.6C25.1 16.34 25.31 16.13 25.53 16.13ZM23.7 14.16C23.92 13.95 24.22 13.93 24.37 14.12C24.52 14.31 25.26 15.72 25.02 15.96C24.78 16.2 23.69 15.11 23.55 14.9C23.41 14.7 23.48 14.37 23.7 14.16ZM22.27 16.62C22.35 16.29 22.63 16.02 22.9 16.02C23.17 16.01 24.75 16.25 24.69 16.59C24.63 16.94 22.9 17.24 22.62 17.24C22.34 17.24 22.19 16.96 22.27 16.62ZM21.03 17.22C21.46 17.56 21.87 17.95 22.16 18.41C22.46 18.87 22.63 19.43 22.59 19.98C22.54 20.53 22.25 21.07 21.77 21.34C21.82 20.01 21.56 18.44 21.03 17.22ZM24.43 26.6C23.99 26.82 23.57 27.13 23.08 27.2C22.63 27.26 22.18 27.11 21.73 27.01C21.28 26.91 20.78 26.88 20.41 27.15C20.47 26.72 21.08 26.24 21.51 26.2C21.93 26.16 22.37 26.25 22.79 26.18C23.23 26.11 23.63 25.86 24.05 25.7C25.18 25.28 26.56 25.62 27.44 26.44C26.47 26.09 25.36 26.15 24.43 26.6ZM30.79 21C29.86 20.75 29 20.38 28.15 19.93C28.59 19.21 29.03 18.48 29.62 17.87C30.21 17.27 30.97 16.79 31.81 16.71C32.5 16.64 33.2 16.85 33.82 17.17C34.44 17.49 34.99 17.93 35.53 18.37C35 18.14 34.25 17.85 33.69 17.71C33.13 17.58 32.53 17.55 31.99 17.73C31.2 17.99 30.6 18.6 30.05 19.23C30.75 19.6 31.46 19.96 32.23 20.12C33 20.27 33.95 20.12 34.57 19.63C33.95 20.29 33.27 20.99 32.39 21.15C31.85 21.25 31.31 21.14 30.79 21ZM38.35 23.37C38.12 24.26 37.63 25.12 36.87 25.62C36.22 26.05 35.42 26.19 34.65 26.17C33.88 26.15 32.91 25.88 32.16 25.7C33.63 25.73 35.12 25.21 36.25 24.26C37.39 23.31 38.18 21.95 38.44 20.48C38.47 21.4 38.58 22.47 38.35 23.37Z" fill="#EC232F"/>
<path d="M29.91 32.12C29.8 31.01 29.39 29.89 28.59 29.12C27.79 28.35 26.54 28 25.53 28.46C24.66 28.86 24.04 29.78 23.1 29.97C21.93 30.21 20.75 29.21 19.61 29.54C18.84 29.77 18.34 30.57 18.22 31.38C18.11 32.18 18.29 33 18.48 33.79C18.73 34.83 19.02 35.96 19.85 36.63C20.38 37.05 21.06 37.23 21.73 37.35C23.54 37.66 25.42 37.56 27.2 37.08C28.43 36.74 29.69 36.41 29.85 34.98C29.95 34.03 30.01 33.05 29.91 32.12ZM21.47 32.28C21.5 32.35 21.52 32.42 21.55 32.49C21.8 33.34 21.64 34.22 21.18 34.46C20.72 34.7 20.15 34.2 19.89 33.35C19.64 32.52 19.8 31.66 20.23 31.4C19.88 31.24 19.52 31.13 19.16 31.11C19.8 30.97 20.49 30.97 21.11 31.33C21.73 31.68 22.27 32.46 22.37 33.38C22.11 32.97 21.81 32.6 21.47 32.28ZM27.77 32.89C27.5 33.81 26.71 34.39 26.01 34.18C25.31 33.97 24.96 33.05 25.23 32.13C25.25 32.05 25.28 31.97 25.31 31.9C24.86 32.27 24.46 32.69 24.12 33.14C24.15 32.16 24.85 31.29 25.72 30.86C26.59 30.43 27.6 30.37 28.56 30.46C28.04 30.52 27.52 30.66 27.03 30.86C27.7 31.1 28.04 31.99 27.77 32.89Z" fill="#EC232F"/>
<path d="M16.85 6.99C15.27 7.31 13.79 7.99 12.22 8.39C9.73999 9.02 7.07999 8.9 4.67999 7.99C4.42999 7.89 4.17999 7.79 3.93999 7.68C2.67999 7.13 1.49999 6.41 0.489992 5.49C0.249993 5.27 -0.120008 5.56 0.0399925 5.86C0.769993 7.19 1.55999 8.49 2.46999 9.68C3.00999 10.39 3.58999 11.06 4.22999 11.68C6.59999 14 9.90999 15.59 13.17 15.09C15.3 14.76 17.51 13.7 19.67 13.7L22.17 7.75C20.92 6.73 18.43 6.67 16.85 6.99ZM6.22999 10.03C6.14999 10.39 5.85999 10.69 5.50999 10.8C5.15999 10.91 4.73999 10.87 4.43999 10.67C5.12999 10.43 5.62999 9.73 5.65999 9C5.96999 9.18 6.30999 9.66 6.22999 10.03ZM7.85999 12.1C7.43999 12.39 6.84999 12.48 6.37999 12.3C6.94999 11.91 7.38999 11.32 7.60999 10.66C7.74999 10.23 7.79999 9.76 7.71999 9.31C8.14999 9.59 8.51999 10.27 8.52999 10.78C8.52999 11.29 8.26999 11.8 7.85999 12.1ZM11.24 11.99C10.92 12.92 9.82999 13.56 8.86999 13.44C10.02 12.55 10.55 10.93 10.16 9.52C11 10.02 11.56 11.06 11.24 11.99ZM14.07 12.98C13.69 13.63 12.97 14.03 12.22 13.99C12.91 13.43 13.35 12.58 13.42 11.69C13.48 10.8 13.16 9.89 12.56 9.24C13.21 9.61 13.95 10.09 14.22 10.79C14.48 11.5 14.45 12.33 14.07 12.98ZM15.49 13.86C16.33 12.08 16.13 9.84 14.98 8.25C16.1 8.65 17.16 9.79 17.22 10.99C17.28 12.17 16.57 13.36 15.49 13.86ZM18.04 13.33C18.73 11.52 18.87 9.24 17.93 7.54C18.83 8.19 19.39 9.29 19.41 10.4C19.44 11.53 18.91 12.64 18.04 13.33Z" fill="#EC232F"/>
<path d="M56.98 20.05C55.57 18.85 54.89 17.05 54.86 15.14C54.86 10.12 58.57 7.60999 63.38 7.60999C68.24 7.60999 72.46 10.12 72.46 15.07C72.49 16.98 71.72 18.75 70.28 19.81C72.46 21.22 72.96 23.8 72.99 25.18C73.08 31.22 68.95 33.41 63.62 33.41C58.29 33.41 54.13 31.25 54.25 25.18C54.27 23.87 55.01 21.29 56.98 20.05ZM60.29 25.17C60.29 26.87 61.82 27.78 63.62 27.78C65.3 27.78 66.95 26.97 66.89 25.2C66.89 23.65 65.71 22.55 63.65 22.55C61.64 22.56 60.29 23.51 60.29 25.17ZM63.53 12.91C59.73 12.91 59.73 17.96 63.5 17.96C67.3 17.96 67.33 12.91 63.53 12.91Z" fill="#EC232F"/>
<path d="M77.53 20.05C76.12 18.85 75.44 17.05 75.41 15.14C75.41 10.12 79.12 7.60999 83.93 7.60999C88.79 7.60999 93.01 10.12 93.01 15.07C93.04 16.98 92.27 18.75 90.83 19.81C93.01 21.22 93.51 23.8 93.54 25.18C93.63 31.22 89.5 33.41 84.17 33.41C78.84 33.41 74.68 31.25 74.8 25.18C74.81 23.87 75.55 21.29 77.53 20.05ZM80.83 25.17C80.83 26.87 82.36 27.78 84.16 27.78C85.84 27.78 87.49 26.97 87.43 25.2C87.43 23.65 86.25 22.55 84.19 22.55C82.18 22.56 80.83 23.51 80.83 25.17ZM84.07 12.91C80.27 12.91 80.27 17.96 84.04 17.96C87.84 17.96 87.87 12.91 84.07 12.91Z" fill="#EC232F"/>
<path d="M98.07 20.05C96.66 18.85 95.98 17.05 95.95 15.14C95.95 10.12 99.66 7.60999 104.47 7.60999C109.33 7.60999 113.55 10.12 113.55 15.07C113.58 16.98 112.81 18.75 111.37 19.81C113.55 21.22 114.05 23.8 114.08 25.18C114.17 31.22 110.04 33.41 104.71 33.41C99.38 33.41 95.22 31.25 95.34 25.18C95.36 23.87 96.09 21.29 98.07 20.05ZM101.37 25.17C101.37 26.87 102.9 27.78 104.7 27.78C106.38 27.78 108.03 26.97 107.97 25.2C107.97 23.65 106.79 22.55 104.73 22.55C102.72 22.56 101.37 23.51 101.37 25.17ZM104.61 12.91C100.81 12.91 100.81 17.96 104.58 17.96C108.38 17.96 108.41 12.91 104.61 12.91Z" fill="#EC232F"/>
<path d="M6.23 10.03C6.15 10.39 5.86 10.69 5.51 10.8C5.16 10.91 4.74 10.87 4.44 10.67C5.13 10.43 5.63 9.73001 5.66 9.00001C5.97 9.18001 6.31 9.66001 6.23 10.03ZM7.86 12.1C7.44 12.39 6.85 12.48 6.38 12.3C6.95 11.91 7.39 11.32 7.61 10.66C7.75 10.23 7.8 9.76001 7.72 9.31001C8.15 9.59001 8.52 10.27 8.53 10.78C8.53 11.29 8.27 11.8 7.86 12.1ZM11.24 11.99C10.92 12.92 9.83 13.56 8.87 13.44C10.02 12.55 10.55 10.93 10.16 9.52001C11 10.02 11.56 11.06 11.24 11.99ZM14.07 12.98C13.69 13.63 12.97 14.03 12.22 13.99C12.91 13.43 13.35 12.58 13.42 11.69C13.48 10.8 13.16 9.89001 12.56 9.24001C13.21 9.61001 13.95 10.09 14.22 10.79C14.48 11.5 14.45 12.33 14.07 12.98ZM15.49 13.86C16.33 12.08 16.13 9.84001 14.98 8.25001C16.1 8.65001 17.16 9.79001 17.22 10.99C17.28 12.17 16.57 13.36 15.49 13.86ZM18.04 13.33C18.73 11.52 18.87 9.24001 17.93 7.54001C18.83 8.19001 19.39 9.29001 19.41 10.4C19.44 11.53 18.91 12.64 18.04 13.33Z" fill="white"/>
<path d="M29.09 16.54C29.09 16.92 28.81 17.24 28.46 17.24C28.12 17.24 26.23 16.94 26.27 16.57C26.31 16.22 28.16 15.89 28.49 15.89C28.82 15.88 29.09 16.16 29.09 16.54ZM28.08 13.9C28.29 14.11 28.27 14.46 28.05 14.7C27.82 14.94 26.29 16.17 26.1 15.93C25.92 15.69 27.1 14.17 27.33 13.94C27.54 13.72 27.88 13.7 28.08 13.9ZM25.36 13.65C25.4 13.38 25.65 13.14 25.91 13.12C26.18 13.1 26.37 13.3 26.34 13.59C26.31 13.88 25.86 15.69 25.57 15.7C25.28 15.71 25.32 13.94 25.36 13.65ZM23.09 23.74C23.62 23.64 24.16 23.54 24.68 23.64C25.23 23.75 25.7 24.23 26.02 24.69C25.36 24.25 24.5 24.15 23.76 24.43C23.45 24.55 23.15 24.74 22.81 24.77C22.55 24.79 22.3 24.72 22.04 24.7C21.78 24.68 21.5 24.73 21.33 24.93C21.47 24.6 21.74 24.16 22.06 24.01C22.39 23.87 22.74 23.81 23.09 23.74ZM22.29 22.72C22.45 22.23 23.14 21.69 23.66 21.73C24.18 21.77 24.6 22.12 24.95 22.5C24.08 22.22 23.11 22.3 22.29 22.72ZM25.53 16.13C25.75 16.12 25.91 16.33 25.88 16.59C25.85 16.86 25.64 17.08 25.41 17.08C25.18 17.08 25.03 16.87 25.07 16.6C25.1 16.34 25.31 16.13 25.53 16.13ZM23.7 14.16C23.92 13.95 24.22 13.93 24.37 14.12C24.52 14.31 25.26 15.72 25.02 15.96C24.78 16.2 23.69 15.11 23.55 14.9C23.41 14.7 23.48 14.37 23.7 14.16ZM22.27 16.62C22.35 16.29 22.63 16.02 22.9 16.02C23.17 16.01 24.75 16.25 24.69 16.59C24.63 16.94 22.9 17.24 22.62 17.24C22.34 17.24 22.19 16.96 22.27 16.62ZM21.03 17.22C21.46 17.56 21.87 17.95 22.16 18.41C22.46 18.87 22.63 19.43 22.59 19.98C22.54 20.53 22.25 21.07 21.77 21.34C21.82 20.01 21.56 18.44 21.03 17.22ZM24.43 26.6C23.99 26.82 23.57 27.13 23.08 27.2C22.63 27.26 22.18 27.11 21.73 27.01C21.28 26.91 20.78 26.88 20.41 27.15C20.47 26.72 21.08 26.24 21.51 26.2C21.93 26.16 22.37 26.25 22.79 26.18C23.23 26.11 23.63 25.86 24.05 25.7C25.18 25.28 26.56 25.62 27.44 26.44C26.47 26.09 25.36 26.15 24.43 26.6ZM30.79 21C29.86 20.75 29 20.38 28.15 19.93C28.59 19.21 29.03 18.48 29.62 17.87C30.21 17.27 30.97 16.79 31.81 16.71C32.5 16.64 33.2 16.85 33.82 17.17C34.44 17.49 34.99 17.93 35.53 18.37C35 18.14 34.25 17.85 33.69 17.71C33.13 17.58 32.53 17.55 31.99 17.73C31.2 17.99 30.6 18.6 30.05 19.23C30.75 19.6 31.46 19.96 32.23 20.12C33 20.27 33.95 20.12 34.57 19.63C33.95 20.29 33.27 20.99 32.39 21.15C31.85 21.25 31.31 21.14 30.79 21ZM38.35 23.37C38.12 24.26 37.63 25.12 36.87 25.62C36.22 26.05 35.42 26.19 34.65 26.17C33.88 26.15 32.91 25.88 32.16 25.7C33.63 25.73 35.12 25.21 36.25 24.26C37.39 23.31 38.18 21.95 38.44 20.48C38.47 21.4 38.58 22.47 38.35 23.37Z" fill="white"/>
<path d="M40.92 9.41999C40.49 9.47999 40.03 9.48999 39.6 9.41999C39.76 8.36999 40.8 7.27999 41.77 6.85999C41.23 7.58999 40.93 8.49999 40.92 9.41999ZM44.16 9.04999C43.67 9.11999 43.15 9.28999 42.66 9.34999C42.84 8.25999 43.73 7.11999 44.66 6.54999C44.22 7.28999 44.04 8.18999 44.16 9.04999ZM31.82 12.13C31.54 12.2 31.22 12.15 30.94 12.09C31.53 11.59 31.88 10.81 31.89 10.03C32.27 10.21 32.64 10.82 32.6 11.23C32.56 11.66 32.23 12.04 31.82 12.13ZM34.79 13.43C34.43 13.74 33.86 13.9 33.41 13.75C34.11 13.01 34.43 11.92 34.24 10.91C34.69 11.07 35.15 11.66 35.24 12.13C35.33 12.6 35.15 13.12 34.79 13.43ZM37.46 14.5C37.08 14.9 36.54 15.1 35.99 15.14C36.85 14.21 37.19 12.82 36.85 11.59C37.37 11.75 37.86 12.44 37.95 12.98C38.04 13.53 37.84 14.11 37.46 14.5ZM41.05 15.07C40.72 15.61 40.12 16.01 39.49 16.07C40.33 14.89 40.41 13.21 39.7 11.94C40.32 12.1 40.96 12.64 41.2 13.23C41.43 13.81 41.38 14.52 41.05 15.07ZM44.98 15.14C44.79 15.72 44.34 16.25 43.77 16.44C44.09 15.53 44.11 14.51 43.81 13.58C43.51 12.66 42.9 11.85 42.11 11.3C42.66 11.26 43.37 11.56 43.79 11.92C44.25 12.31 44.64 12.79 44.87 13.35C45.11 13.92 45.17 14.56 44.98 15.14ZM48.09 15.33C48.47 14.4 48.44 13.32 48 12.41C47.56 11.51 46.73 10.81 45.78 10.54C46.57 10.4 47.64 10.55 48.25 11.07C48.86 11.6 49.22 12.41 49.21 13.23C49.2 14.05 48.72 14.82 48.09 15.33Z" fill="white"/>
<path d="M21.47 32.28C21.5 32.35 21.52 32.42 21.55 32.49C21.8 33.34 21.64 34.22 21.18 34.46C20.72 34.7 20.15 34.2 19.89 33.35C19.64 32.52 19.8 31.66 20.23 31.4C19.88 31.24 19.52 31.13 19.16 31.11C19.8 30.97 20.49 30.97 21.11 31.33C21.73 31.68 22.27 32.46 22.37 33.38C22.11 32.97 21.81 32.6 21.47 32.28ZM27.77 32.89C27.5 33.81 26.71 34.39 26.01 34.18C25.31 33.97 24.96 33.05 25.23 32.13C25.25 32.05 25.28 31.97 25.31 31.9C24.86 32.27 24.46 32.69 24.12 33.14C24.15 32.16 24.85 31.29 25.72 30.86C26.59 30.43 27.6 30.37 28.56 30.46C28.04 30.52 27.52 30.66 27.03 30.86C27.7 31.1 28.04 31.99 27.77 32.89Z" fill="white"/>
</g>
<defs>
<clipPath id="clip0">
<rect width="114.07" height="41.02" fill="white"/>
</clipPath>
</defs>
</svg>
